<svg width="446" height="446" viewBox="0 0 446 446" fill="none" xmlns="http://www.w3.org/2000/svg">
<path d="M0 0H446V446H0V0Z" fill="#B6B6B6"/>
<path d="M310.909 145.326C319.095 145.326 325.73 151.981 325.73 160.199V290.07C325.73 298.284 319.061 304.943 310.909 304.943H140.102C131.916 304.943 125.281 298.287 125.281 290.07V160.199C125.281 151.985 131.95 145.326 140.102 145.326H310.909ZM140.129 163.897V256.07C140.129 258.147 141.025 258.391 142.13 256.661L167.941 216.276C172.368 209.35 179.131 209.606 183.078 216.8L189.23 228.014C190.209 229.798 191.912 229.885 193.012 228.167L214.098 195.248C218.506 188.365 225.498 188.449 229.686 195.478L262.908 251.231C263.945 252.97 265.655 252.976 266.713 251.218L270.919 244.226C275.131 237.224 282.448 236.922 287.23 243.605L308.712 273.625C309.915 275.306 310.882 274.981 310.882 272.913V163.917C310.882 161.82 309.214 160.174 307.157 160.174H143.854C141.819 160.174 140.129 161.841 140.129 163.897Z" fill="#F5F6FA"/>
</svg>
