<svg width="100%" height="100%" viewBox="0 0 250 265" fill="none" xmlns="http://www.w3.org/2000/svg">
<path opacity="0.52" d="M7.68366 236.718C5.6475 237.112 3.50842 237.569 1.96452 238.981C-0.98008 241.652 -0.375944 246.776 2.21065 249.8C4.79724 252.824 8.73531 254.232 12.5033 255.386C43.972 264.96 77.3919 265.028 110.248 265.014C120.285 265.014 130.587 264.96 139.962 261.329C146.46 258.817 152.229 254.68 158.637 251.932C182.69 241.611 210.834 252.317 236.266 246.246C239.251 245.536 242.567 244.241 243.605 241.321C245.704 235.437 237.219 231.838 231.03 231.53C203.878 230.173 176.673 230.303 149.535 231.92C127.853 233.21 108.1 226.7 86.3376 227.592C59.9327 228.664 33.6426 231.714 7.68366 236.718Z" fill="url(#paint0_linear)"/>
<path d="M131.491 231.498H124.286C121.824 231.498 119.463 230.511 117.72 228.753C115.977 226.995 114.994 224.609 114.987 222.119V9.40641C114.988 6.91204 115.968 4.52018 117.712 2.7564C119.455 0.992614 121.82 0.0011995 124.286 0H131.491C129.025 0 126.659 0.99103 124.915 2.75507C123.171 4.51912 122.192 6.91167 122.192 9.40641V222.119C122.198 224.609 123.18 226.996 124.924 228.754C126.667 230.512 129.029 231.499 131.491 231.498Z" fill="#5C77FF"/>
<path d="M131.491 231.498H124.286C121.824 231.498 119.463 230.511 117.72 228.753C115.977 226.995 114.994 224.609 114.987 222.119V9.40641C114.988 6.91204 115.968 4.52018 117.712 2.7564C119.455 0.992614 121.82 0.0011995 124.286 0H131.491C129.025 0 126.659 0.99103 124.915 2.75507C123.171 4.51912 122.192 6.91167 122.192 9.40641V222.119C122.198 224.609 123.18 226.996 124.924 228.754C126.667 230.512 129.029 231.499 131.491 231.498Z" fill="url(#paint1_linear)"/>
<path d="M63.7876 73.2324C63.7876 73.2324 43.3231 100.103 45.4085 112.162C47.4939 124.221 52.5194 136.506 52.5194 136.506L66.2489 77.2068L63.7876 73.2324Z" fill="#5C77FF"/>
<path d="M63.7876 73.2324C63.7876 73.2324 43.3231 100.103 45.4085 112.162C47.4939 124.221 52.5194 136.506 52.5194 136.506L66.2489 77.2068L63.7876 73.2324Z" fill="url(#paint2_linear)"/>
<path d="M240.701 0H131.478C126.342 0 122.178 4.21139 122.178 9.40641V222.092C122.178 227.287 126.342 231.498 131.478 231.498H240.701C245.837 231.498 250 227.287 250 222.092V9.40641C250 4.21139 245.837 0 240.701 0Z" fill="#5C77FF"/>
<path opacity="0.34" d="M187.403 26.0875H132.332C131.904 26.0875 131.48 26.0022 131.085 25.8363C130.689 25.6704 130.33 25.4272 130.027 25.1207C129.725 24.8143 129.485 24.4504 129.321 24.0501C129.158 23.6498 129.074 23.2207 129.074 22.7876C129.074 21.9136 129.418 21.0754 130.029 20.4574C130.64 19.8394 131.468 19.4922 132.332 19.4922H187.403C188.267 19.4922 189.096 19.8392 189.708 20.4571C190.319 21.075 190.664 21.9132 190.665 22.7876C190.665 23.6628 190.321 24.5022 189.709 25.121C189.098 25.7399 188.268 26.0875 187.403 26.0875Z" fill="white"/>
<path opacity="0.34" d="M187.403 59.7153H132.332C131.472 59.7153 130.647 59.3712 130.037 58.7581C129.426 58.145 129.08 57.3126 129.074 56.4425C129.074 56.0094 129.158 55.5804 129.321 55.18C129.485 54.7797 129.725 54.4159 130.027 54.1094C130.33 53.8029 130.689 53.5598 131.085 53.3939C131.48 53.228 131.904 53.1426 132.332 53.1426H187.403C188.268 53.1426 189.098 53.4903 189.709 54.1091C190.321 54.728 190.665 55.5673 190.665 56.4425C190.658 57.313 190.311 58.1454 189.7 58.7584C189.089 59.3714 188.263 59.7153 187.403 59.7153Z" fill="white"/>
<path opacity="0.34" d="M187.403 93.3444H132.332C131.468 93.3444 130.64 92.9972 130.029 92.3792C129.418 91.7612 129.074 90.923 129.074 90.049C129.074 89.6158 129.158 89.1868 129.321 88.7865C129.485 88.3861 129.725 88.0223 130.027 87.7158C130.33 87.4093 130.689 87.1662 131.085 87.0003C131.48 86.8344 131.904 86.749 132.332 86.749H187.403C188.268 86.749 189.098 87.0967 189.709 87.7156C190.321 88.3344 190.665 89.1738 190.665 90.049C190.664 90.9234 190.319 91.7616 189.708 92.3794C189.096 92.9973 188.267 93.3444 187.403 93.3444Z" fill="white"/>
<path opacity="0.34" d="M187.403 126.978H132.332C131.468 126.977 130.639 126.628 130.028 126.01C129.418 125.391 129.074 124.552 129.074 123.678C129.074 123.245 129.158 122.816 129.321 122.415C129.485 122.015 129.725 121.651 130.027 121.345C130.33 121.038 130.689 120.795 131.085 120.629C131.48 120.463 131.904 120.378 132.332 120.378H187.403C188.268 120.378 189.098 120.726 189.709 121.344C190.321 121.963 190.665 122.803 190.665 123.678C190.664 124.553 190.32 125.391 189.708 126.01C189.097 126.629 188.267 126.977 187.403 126.978Z" fill="white"/>
<path opacity="0.34" d="M187.403 160.606H132.332C131.468 160.605 130.639 160.256 130.028 159.638C129.418 159.019 129.074 158.18 129.074 157.306C129.074 156.873 129.158 156.444 129.321 156.043C129.485 155.643 129.725 155.279 130.027 154.973C130.33 154.666 130.689 154.423 131.085 154.257C131.48 154.091 131.904 154.006 132.332 154.006H187.403C188.268 154.006 189.098 154.354 189.709 154.972C190.321 155.591 190.665 156.431 190.665 157.306C190.664 158.181 190.32 159.019 189.708 159.638C189.097 160.256 188.267 160.605 187.403 160.606Z" fill="white"/>
<path opacity="0.34" d="M187.403 194.235H132.332C131.904 194.235 131.48 194.149 131.085 193.983C130.689 193.818 130.33 193.574 130.027 193.268C129.725 192.961 129.485 192.598 129.321 192.197C129.158 191.797 129.074 191.368 129.074 190.935C129.074 190.06 129.418 189.222 130.028 188.603C130.639 187.984 131.468 187.636 132.332 187.635H187.403C188.267 187.636 189.097 187.984 189.708 188.603C190.32 189.221 190.664 190.06 190.665 190.935C190.665 191.81 190.321 192.649 189.709 193.268C189.098 193.887 188.268 194.235 187.403 194.235Z" fill="white"/>
<path d="M54.2512 144.052C58.1222 136.524 76.9712 152.744 79.3519 160.801C81.7327 168.858 66.2489 197.159 58.2117 205.896C50.1744 214.632 35.2769 222.45 25.7584 225.161C25.7584 225.161 22.4021 220.634 23.0734 218.774C23.7446 216.914 43.4708 202.369 45.2563 193.583C47.0419 184.797 50.3803 151.585 54.2512 144.052Z" fill="#302F47"/>
<path d="M145.216 73.9745C145.216 73.9745 142.835 66.9808 143.234 66.2113C143.632 65.4418 145.946 63.6673 147.037 64.7039C148.129 65.7405 150.345 72.1684 150.345 72.1684L173.593 64.1381C173.593 64.1381 176.188 63.7307 175.915 66.6006C175.642 69.4705 150.626 79.5288 150.626 79.5288C150.626 79.5288 148.59 81.6382 145.216 73.9745Z" fill="#5C77FF"/>
<path d="M145.216 73.9745C145.216 73.9745 142.835 66.9808 143.234 66.2113C143.632 65.4418 145.946 63.6673 147.037 64.7039C148.129 65.7405 150.345 72.1684 150.345 72.1684L173.593 64.1381C173.593 64.1381 176.188 63.7307 175.915 66.6006C175.642 69.4705 150.626 79.5288 150.626 79.5288C150.626 79.5288 148.59 81.6382 145.216 73.9745Z" fill="url(#paint3_linear)"/>
<path d="M89.5598 34.2933C89.5598 34.2933 96.8139 47.1037 95.3774 54.867C93.9409 62.6302 89.8372 60.8874 88.3828 64.9026C87.471 67.5353 86.8848 70.2721 86.6375 73.0506C86.6375 73.0506 82.4265 76.5089 74.886 67.098C75.5574 63.267 75.1511 59.3222 73.7135 55.7134C71.3104 49.9148 72.6082 28.9835 89.5598 34.2933Z" fill="url(#paint4_linear)"/>
<path d="M67.2021 27.6845C56.0949 38.4036 51.5393 31.9033 45.9902 34.8683C40.4411 37.8332 38.3065 38.8925 40.3203 50.0598C42.3341 61.227 32.4084 58.8143 30.0276 65.5726C23.221 84.8879 34.5027 88.2603 47.0956 87.7261C59.6884 87.192 58.5025 63.943 67.7838 63.0422C77.0651 62.1414 78.9715 63.5447 82.7261 51.4857C84.9368 44.3924 83.3616 41.2961 86.3643 38.8879C90.1995 35.8143 91.5375 29.1556 87.5323 26.3174C83.1244 23.194 74.2682 20.8673 67.2021 27.6845Z" fill="#3F3D56"/>
<path d="M66.4144 71.4622C66.4144 71.4622 65.4881 67.1799 68.5312 65.7088C71.5742 64.2376 80.2961 63.5269 81.5089 65.7088C82.7216 67.8906 84.0507 72.8338 85.3485 72.9514C86.6463 73.0691 91.9761 81.6426 91.9761 81.6426C91.9761 81.6426 93.0904 105.462 93.153 114.71C93.2559 129.403 84.5519 152.34 72.5363 150.471C60.5208 148.601 51.7541 145.224 51.951 138.923C52.1479 132.622 62.2974 85.1508 61.5724 79.8048C60.7848 74.0378 66.2086 71.263 66.4144 71.4622Z" fill="#5C77FF"/>
<path d="M66.4144 71.4622C66.4144 71.4622 65.4881 67.1799 68.5312 65.7088C71.5742 64.2376 80.2961 63.5269 81.5089 65.7088C82.7216 67.8906 84.0507 72.8338 85.3485 72.9514C86.6463 73.0691 91.9761 81.6426 91.9761 81.6426C91.9761 81.6426 93.0904 105.462 93.153 114.71C93.2559 129.403 84.5519 152.34 72.5363 150.471C60.5208 148.601 51.7541 145.224 51.951 138.923C52.1479 132.622 62.2974 85.1508 61.5724 79.8048C60.7848 74.0378 66.2086 71.263 66.4144 71.4622Z" fill="url(#paint5_linear)"/>
<path d="M77.2041 78.8913C77.2041 78.8913 81.8313 69.6569 88.3918 75.27C94.9522 80.883 103.003 101.638 108.606 101.755C114.208 101.873 137.246 83.0966 139.255 84.7941C141.265 86.4916 144.755 90.7285 142.876 94.3453C140.996 97.9621 115.238 120.776 104.144 118.64C93.0503 116.503 69.404 101.181 77.2041 78.8913Z" fill="#5C77FF"/>
<path d="M77.2041 78.8913C77.2041 78.8913 81.8313 69.6569 88.3918 75.27C94.9522 80.883 103.003 101.638 108.606 101.755C114.208 101.873 137.246 83.0966 139.255 84.7941C141.265 86.4916 144.755 90.7285 142.876 94.3453C140.996 97.9621 115.238 120.776 104.144 118.64C93.0503 116.503 69.404 101.181 77.2041 78.8913Z" fill="url(#paint6_linear)"/>
<path d="M139.994 85.4726C139.994 85.4726 144.675 76.6547 145.059 75.0613C145.444 73.4679 146.612 75.8625 146.612 75.8625C146.612 75.8625 150.64 72.6485 151.311 71.2453C151.982 69.842 157.813 67.6692 160.445 68.0178C163.076 68.3663 158.655 70.0004 158.655 70.0004C158.655 70.0004 156.569 70.9646 155.477 76.2608C154.385 81.557 153.28 86.0882 148.447 88.3108C143.614 90.5334 143.305 91.0268 143.305 91.0268C143.305 91.0268 142.164 86.3643 139.994 85.4726Z" fill="url(#paint7_linear)"/>
<path d="M54.2512 144.052C54.2512 144.052 48.4873 157.396 59.2051 169.854C69.9229 182.311 77.9154 192.034 75.6555 211.313C73.3956 230.593 78.8149 240.529 78.8149 240.529H85.1337C85.1337 240.529 94.9386 204.813 93.247 189.69C91.5554 174.566 84.176 144.097 84.176 144.097C84.176 144.097 69.7349 137.126 54.2512 144.052Z" fill="#3F3D56"/>
<path d="M78.8149 240.521V248.669H96.223C96.223 248.669 85.8005 246.763 85.5052 244.595C85.2098 242.426 85.1337 240.521 85.1337 240.521H78.8149Z" fill="url(#paint8_linear)"/>
<path d="M80.104 246.166C79.3164 246.003 78.3363 245.803 77.8396 246.442C77.6761 246.68 77.5718 246.955 77.5353 247.243C77.3802 248.034 77.3231 248.841 77.3652 249.647C77.3966 250.249 77.5353 250.928 78.0499 251.226C78.3732 251.375 78.7304 251.433 79.0837 251.394L97.1361 251.059C97.8253 251.059 98.6218 250.982 99.0112 250.407C99.1877 250.124 99.2664 249.79 99.2349 249.456C99.1851 249.004 99.0394 248.567 98.8077 248.177C98.576 247.786 98.2638 247.451 97.8924 247.193C97.144 246.677 96.3128 246.295 95.4356 246.066C93.198 245.378 89.618 244.092 87.4073 245.029C84.9952 246.039 82.7666 246.731 80.104 246.166Z" fill="#3F3D56"/>
<path d="M22.8991 219.996L15.739 223.694L24.4565 238.936C24.4565 238.936 20.8764 228.855 22.568 227.515C24.2596 226.175 25.8616 225.156 25.8616 225.156L22.8991 219.996Z" fill="url(#paint9_linear)"/>
<path d="M18.4953 223.581C18.2447 222.807 17.9225 221.852 17.126 221.734C16.8421 221.708 16.5561 221.753 16.2936 221.865C15.5377 222.129 14.8164 222.484 14.1456 222.924C13.6488 223.25 13.1387 223.712 13.1387 224.314C13.1731 224.671 13.3014 225.011 13.5101 225.301C16.6188 230.516 19.7275 235.73 22.8362 240.945C23.1942 241.538 23.6506 242.203 24.3353 242.258C24.6661 242.269 24.9915 242.171 25.2616 241.977C25.6288 241.708 25.9338 241.361 26.1556 240.961C26.3773 240.561 26.5105 240.117 26.546 239.659C26.6129 238.746 26.5236 237.827 26.282 236.943C25.7584 234.648 25.0513 230.851 23.1494 229.393C21.0551 227.795 19.3456 226.193 18.4953 223.581Z" fill="#3F3D56"/>
<path opacity="0.34" d="M225.575 10.9043H206.927C205.521 10.9043 204.381 12.0575 204.381 13.48V29.3323C204.381 30.7549 205.521 31.908 206.927 31.908H225.575C226.981 31.908 228.121 30.7549 228.121 29.3323V13.48C228.121 12.0575 226.981 10.9043 225.575 10.9043Z" fill="white"/>
<path opacity="0.34" d="M225.575 47.4072H206.927C205.521 47.4072 204.381 48.5604 204.381 49.9829V65.8353C204.381 67.2578 205.521 68.411 206.927 68.411H225.575C226.981 68.411 228.121 67.2578 228.121 65.8353V49.9829C228.121 48.5604 226.981 47.4072 225.575 47.4072Z" fill="white"/>
<path opacity="0.34" d="M225.575 80.5293H206.927C205.521 80.5293 204.381 81.6825 204.381 83.105V98.9573C204.381 100.38 205.521 101.533 206.927 101.533H225.575C226.981 101.533 228.121 100.38 228.121 98.9573V83.105C228.121 81.6825 226.981 80.5293 225.575 80.5293Z" fill="white"/>
<path opacity="0.34" d="M225.575 146.062H206.927C205.521 146.062 204.381 147.216 204.381 148.638V164.491C204.381 165.913 205.521 167.066 206.927 167.066H225.575C226.981 167.066 228.121 165.913 228.121 164.491V148.638C228.121 147.216 226.981 146.062 225.575 146.062Z" fill="white"/>
<path opacity="0.34" d="M225.575 113.171H206.927C205.521 113.171 204.381 114.324 204.381 115.747V131.599C204.381 133.021 205.521 134.175 206.927 134.175H225.575C226.981 134.175 228.121 133.021 228.121 131.599V115.747C228.121 114.324 226.981 113.171 225.575 113.171Z" fill="white"/>
<path opacity="0.34" d="M225.575 180.434H206.927C205.521 180.434 204.381 181.587 204.381 183.009V198.862C204.381 200.284 205.521 201.437 206.927 201.437H225.575C226.981 201.437 228.121 200.284 228.121 198.862V183.009C228.121 181.587 226.981 180.434 225.575 180.434Z" fill="white"/>
<path d="M206.046 18.3422L210.315 25.5849C211.658 27.8482 213.967 28.3009 215.64 26.6803L230.09 12.6114C230.09 12.6114 231.433 10.6695 230.005 9.16665C228.578 7.6638 227.396 9.39298 227.396 9.39298L214.598 21.8323C213.788 22.5792 212.682 22.3347 212.056 21.2619L208.655 15.4361C208.015 14.3452 206.829 14.2456 206.126 15.2505C205.838 15.7104 205.679 16.2407 205.664 16.7851C205.65 17.3295 205.782 17.8675 206.046 18.3422Z" fill="#5C77FF"/>
<path d="M206.046 54.1801L210.315 61.4228C211.658 63.6635 213.967 64.1388 215.64 62.5182L230.09 48.4493C230.09 48.4493 231.433 46.5074 230.005 45.0045C228.578 43.5017 227.396 45.2309 227.396 45.2309L214.598 57.6702C213.788 58.4171 212.682 58.1726 212.056 57.0998L208.655 51.274C208.01 50.174 206.829 50.0744 206.126 51.0612C205.833 51.5242 205.67 52.0596 205.656 52.6093C205.642 53.159 205.777 53.7022 206.046 54.1801Z" fill="#5C77FF"/>
<path d="M206.046 122.465L210.315 129.708C211.658 131.948 213.967 132.424 215.64 130.803L230.09 116.73C230.09 116.73 231.433 114.788 230.005 113.285C228.578 111.782 227.396 113.511 227.396 113.511L214.598 125.955C213.788 126.702 212.682 126.453 212.056 125.385L208.655 119.559C208.01 118.459 206.829 118.359 206.126 119.346C205.833 119.809 205.67 120.344 205.656 120.894C205.642 121.444 205.777 121.987 206.046 122.465Z" fill="#5C77FF"/>
<path d="M206.046 155.6L210.315 162.842C211.658 165.083 213.967 165.558 215.64 163.938L230.09 149.869C230.09 149.869 231.433 147.922 230.005 146.42C228.578 144.917 227.396 146.646 227.396 146.646L214.598 159.09C213.788 159.837 212.682 159.588 212.056 158.519L208.655 152.694C208.01 151.594 206.829 151.494 206.126 152.481C205.833 152.944 205.67 153.479 205.656 154.029C205.642 154.579 205.777 155.122 206.046 155.6Z" fill="#5C77FF"/>
<path d="M206.046 187.874L210.315 195.117C211.658 197.38 213.967 197.833 215.64 196.217L230.09 182.144C230.09 182.144 231.433 180.202 230.005 178.699C228.578 177.196 227.396 178.925 227.396 178.925L214.598 191.365C213.788 192.116 212.682 191.867 212.056 190.794L208.655 185C208.01 183.9 206.829 183.8 206.126 184.787C205.839 185.247 205.68 185.776 205.666 186.32C205.651 186.863 205.783 187.4 206.046 187.874Z" fill="#5C77FF"/>
<path d="M206.046 18.3422L210.315 25.5849C211.658 27.8482 213.967 28.3009 215.64 26.6803L230.09 12.6114C230.09 12.6114 231.433 10.6695 230.005 9.16665C228.578 7.6638 227.396 9.39298 227.396 9.39298L214.598 21.8323C213.788 22.5792 212.682 22.3347 212.056 21.2619L208.655 15.4361C208.015 14.3452 206.829 14.2456 206.126 15.2505C205.838 15.7104 205.679 16.2407 205.664 16.7851C205.65 17.3295 205.782 17.8675 206.046 18.3422Z" fill="url(#paint10_linear)"/>
<path d="M206.046 54.1801L210.315 61.4228C211.658 63.6635 213.967 64.1388 215.64 62.5182L230.09 48.4493C230.09 48.4493 231.433 46.5074 230.005 45.0045C228.578 43.5017 227.396 45.2309 227.396 45.2309L214.598 57.6702C213.788 58.4171 212.682 58.1726 212.056 57.0998L208.655 51.274C208.01 50.174 206.829 50.0744 206.126 51.0612C205.833 51.5242 205.67 52.0596 205.656 52.6093C205.642 53.159 205.777 53.7022 206.046 54.1801Z" fill="url(#paint11_linear)"/>
<path d="M206.046 122.465L210.315 129.708C211.658 131.948 213.967 132.424 215.64 130.803L230.09 116.73C230.09 116.73 231.433 114.788 230.005 113.285C228.578 111.782 227.396 113.511 227.396 113.511L214.598 125.955C213.788 126.702 212.682 126.453 212.056 125.385L208.655 119.559C208.01 118.459 206.829 118.359 206.126 119.346C205.833 119.809 205.67 120.344 205.656 120.894C205.642 121.444 205.777 121.987 206.046 122.465Z" fill="url(#paint12_linear)"/>
<path d="M206.046 155.6L210.315 162.842C211.658 165.083 213.967 165.558 215.64 163.938L230.09 149.869C230.09 149.869 231.433 147.922 230.005 146.42C228.578 144.917 227.396 146.646 227.396 146.646L214.598 159.09C213.788 159.837 212.682 159.588 212.056 158.519L208.655 152.694C208.01 151.594 206.829 151.494 206.126 152.481C205.833 152.944 205.67 153.479 205.656 154.029C205.642 154.579 205.777 155.122 206.046 155.6Z" fill="url(#paint13_linear)"/>
<path d="M206.046 187.874L210.315 195.117C211.658 197.38 213.967 197.833 215.64 196.217L230.09 182.144C230.09 182.144 231.433 180.202 230.005 178.699C228.578 177.196 227.396 178.925 227.396 178.925L214.598 191.365C213.788 192.116 212.682 191.867 212.056 190.794L208.655 185C208.01 183.9 206.829 183.8 206.126 184.787C205.839 185.247 205.68 185.776 205.666 186.32C205.651 186.863 205.783 187.4 206.046 187.874Z" fill="url(#paint14_linear)"/>
<defs>
<linearGradient id="paint0_linear" x1="123.185" y1="200.179" x2="115.965" y2="441.825" gradientUnits="userSpaceOnUse">
<stop stop-opacity="0"/>
<stop offset="0.98"/>
</linearGradient>
<linearGradient id="paint1_linear" x1="8016.8" y1="36083.6" x2="-4018.6" y2="36773.6" gradientUnits="userSpaceOnUse">
<stop stop-opacity="0"/>
<stop offset="0.98"/>
</linearGradient>
<linearGradient id="paint2_linear" x1="3523.24" y1="14256" x2="5942.81" y2="14558.9" gradientUnits="userSpaceOnUse">
<stop stop-opacity="0"/>
<stop offset="0.98"/>
</linearGradient>
<linearGradient id="paint3_linear" x1="14359.8" y1="2126.67" x2="13677.5" y2="4806.69" gradientUnits="userSpaceOnUse">
<stop stop-opacity="0"/>
<stop offset="0.98"/>
</linearGradient>
<linearGradient id="paint4_linear" x1="72.7872" y1="53.5497" x2="95.5653" y2="53.5497" gradientUnits="userSpaceOnUse">
<stop stop-color="#ECC4D7"/>
<stop offset="0.42" stop-color="#EFD4D1"/>
<stop offset="1" stop-color="#F2EAC9"/>
</linearGradient>
<linearGradient id="paint5_linear" x1="10737.5" y1="21204.7" x2="-7906.13" y2="19903.3" gradientUnits="userSpaceOnUse">
<stop stop-opacity="0"/>
<stop offset="0.98"/>
</linearGradient>
<linearGradient id="paint6_linear" x1="21111.9" y1="9693.26" x2="20491.2" y2="16533.4" gradientUnits="userSpaceOnUse">
<stop stop-opacity="0"/>
<stop offset="0.98"/>
</linearGradient>
<linearGradient id="paint7_linear" x1="8228.65" y1="4215.63" x2="9241.06" y2="4215.63" gradientUnits="userSpaceOnUse">
<stop stop-color="#ECC4D7"/>
<stop offset="0.42" stop-color="#EFD4D1"/>
<stop offset="1" stop-color="#F2EAC9"/>
</linearGradient>
<linearGradient id="paint8_linear" x1="4314.01" y1="4678.16" x2="4991.19" y2="4678.16" gradientUnits="userSpaceOnUse">
<stop stop-color="#ECC4D7"/>
<stop offset="0.42" stop-color="#EFD4D1"/>
<stop offset="1" stop-color="#F2EAC9"/>
</linearGradient>
<linearGradient id="paint9_linear" x1="1051.38" y1="9902.48" x2="1280.36" y2="9902.48" gradientUnits="userSpaceOnUse">
<stop stop-color="#ECC4D7"/>
<stop offset="0.42" stop-color="#EFD4D1"/>
<stop offset="1" stop-color="#F2EAC9"/>
</linearGradient>
<linearGradient id="paint10_linear" x1="14226.6" y1="-1559.44" x2="13264.7" y2="22241.3" gradientUnits="userSpaceOnUse">
<stop stop-opacity="0"/>
<stop offset="0.98"/>
</linearGradient>
<linearGradient id="paint11_linear" x1="14335.6" y1="-1518.87" x2="13374.7" y2="22273.8" gradientUnits="userSpaceOnUse">
<stop stop-opacity="0"/>
<stop offset="0.98"/>
</linearGradient>
<linearGradient id="paint12_linear" x1="14534.7" y1="-1442.74" x2="13573.3" y2="22355.3" gradientUnits="userSpaceOnUse">
<stop stop-opacity="0"/>
<stop offset="0.98"/>
</linearGradient>
<linearGradient id="paint13_linear" x1="14631.2" y1="-1405.8" x2="13669.8" y2="22392.5" gradientUnits="userSpaceOnUse">
<stop stop-opacity="0"/>
<stop offset="0.98"/>
</linearGradient>
<linearGradient id="paint14_linear" x1="14720.1" y1="-1369.94" x2="13757.9" y2="22432.1" gradientUnits="userSpaceOnUse">
<stop stop-opacity="0"/>
<stop offset="0.98"/>
</linearGradient>
</defs>
</svg>
