<svg width="352" height="280" viewBox="0 0 352 280" fill="none" xmlns="http://www.w3.org/2000/svg">
<path opacity="0.1" d="M172 280C266.993 280 344 260.301 344 236C344 211.7 266.993 192 172 192C77.007 192 0 211.7 0 236C0 260.301 77.007 280 172 280Z" fill="black"/>
<path d="M82.686 215.666C79.3319 211.788 75.0796 208.453 73.7364 203.561C72.7557 199.996 73.5304 196.216 73.9094 192.535C74.2885 188.854 74.1567 184.786 71.7751 181.953C69.8137 179.615 66.7152 178.602 63.732 177.96C60.7488 177.317 57.6337 176.914 54.9802 175.399C50.6784 172.928 51.5355 168.745 49.2115 165.072C46.6239 160.955 40.5998 155.685 35.4328 158.427C29.9609 161.326 30.8262 170.128 34.4686 174.023C36.8832 176.601 39.9735 179.071 40.3279 182.587C40.8635 187.874 34.7983 192.642 36.4629 197.69C37.699 201.412 42.4046 202.697 44.7038 205.867C47.003 209.037 46.5415 213.393 45.19 217.033C43.8385 220.673 41.7041 224.041 40.8635 227.837C39.1412 235.594 45.2312 240.955 52.1783 242.659C58.5567 244.257 72.319 243.483 72.319 243.483C77.7293 241.445 82.317 237.683 85.3725 232.778C86.3828 230.985 86.9743 228.987 87.1027 226.934C87.2312 224.88 86.8932 222.824 86.1142 220.92C85.2613 218.996 84.1038 217.222 82.686 215.666Z" fill="#00B6FF"/>
<path d="M41.564 166.793C41.564 166.793 65.0587 203.026 67.6134 243.327" stroke="#856FE2" stroke-linecap="round" stroke-linejoin="round"/>
<path d="M20.6405 215.749C21.0886 215.412 21.6378 215.238 22.198 215.254H22.3546C24.5384 215.254 26.7305 216.638 28.8566 219.372C30.5357 221.55 31.9365 223.929 33.0265 226.454C32.2352 225.654 31.3529 224.949 30.3977 224.354C29.0162 223.528 27.5851 222.788 26.1124 222.139C24.9916 221.62 23.8379 221.085 22.7501 220.492C21.7901 220.032 20.9728 219.32 20.385 218.433C20.126 218.02 20.0106 217.533 20.0568 217.048C20.103 216.562 20.3082 216.106 20.6405 215.749Z" fill="#856FE2"/>
<path d="M17.0227 231.065C17.2797 230.562 17.7057 230.166 18.2259 229.945L18.3577 229.879C20.3355 228.941 22.9067 229.262 26.0053 230.834C28.4489 232.088 30.7271 233.639 32.7875 235.454C31.723 235.069 30.6165 234.812 29.4911 234.688C27.8895 234.528 26.2792 234.471 24.6702 234.515C23.4341 234.515 22.198 234.515 20.9206 234.441C19.8563 234.447 18.8107 234.162 17.8962 233.618C17.4928 233.345 17.1893 232.948 17.0317 232.488C16.8741 232.027 16.8709 231.528 17.0227 231.065Z" fill="#856FE2"/>
<path d="M22.0747 240.255C21.9674 239.884 21.9937 239.488 22.1489 239.135C22.1489 239.135 22.1489 239.069 22.1489 239.036C22.6928 237.644 24.1267 236.566 26.4012 235.932C28.2104 235.402 30.0795 235.103 31.9637 235.042C31.2573 235.344 30.5904 235.732 29.9777 236.195C29.1068 236.865 28.2809 237.591 27.5054 238.369C26.8956 238.945 26.2693 239.547 25.61 240.09C25.0788 240.586 24.4242 240.93 23.7146 241.086C23.3881 241.142 23.0523 241.092 22.7569 240.942C22.4615 240.792 22.2223 240.551 22.0747 240.255Z" fill="#856FE2"/>
<path d="M40.0972 243.524C40.0972 243.524 40.023 229.138 22.437 216.918" stroke="#2A294F" stroke-width="0.78" stroke-linecap="round" stroke-linejoin="round"/>
<path d="M40.0975 243.524C40.0975 243.524 34.6915 231.995 20.0557 231.995" stroke="#2A294F" stroke-width="0.78" stroke-linecap="round" stroke-linejoin="round"/>
<path d="M32.1283 235.182C32.1283 235.182 29.2934 234.976 23.3765 239.44" stroke="#2A294F" stroke-width="0.78" stroke-linecap="round" stroke-linejoin="round"/>
<path d="M228.772 17.8611H73.7119C69.411 17.8611 65.9243 21.3451 65.9243 25.6429V235.751C65.9243 240.048 69.411 243.532 73.7119 243.532H228.772C233.073 243.532 236.56 240.048 236.56 235.751V25.6429C236.56 21.3451 233.073 17.8611 228.772 17.8611Z" fill="#856FE2"/>
<path d="M65.9243 72.8357V235.742C65.9243 237.806 66.7448 239.785 68.2053 241.245C69.6657 242.704 71.6465 243.524 73.7119 243.524H228.772C230.838 243.524 232.818 242.704 234.279 241.245C235.739 239.785 236.56 237.806 236.56 235.742V203.627L65.9243 72.8357Z" fill="#765EDD"/>
<path d="M223.465 28.2698H79.0189C77.2621 28.2698 75.8379 29.6929 75.8379 31.4484V229.937C75.8379 231.692 77.2621 233.116 79.0189 233.116H223.465C225.222 233.116 226.646 231.692 226.646 229.937V31.4484C226.646 29.6929 225.222 28.2698 223.465 28.2698Z" fill="#F3F4F6"/>
<path d="M164.18 13.5955C164.18 13.3814 164.18 13.1755 164.18 12.9614C164.224 11.2323 163.921 9.51204 163.289 7.90187C162.657 6.29169 161.708 4.82421 160.5 3.58587C159.292 2.34754 157.847 1.36341 156.252 0.69146C154.657 0.0195118 152.944 -0.32666 151.213 -0.32666C149.482 -0.32666 147.769 0.0195118 146.174 0.69146C144.579 1.36341 143.135 2.34754 141.926 3.58587C140.718 4.82421 139.77 6.29169 139.138 7.90187C138.506 9.51204 138.202 11.2323 138.246 12.9614C138.246 13.1755 138.246 13.3814 138.246 13.5955H119.243V33.3587H183.241V13.5955H164.18Z" fill="#7A4AED"/>
<path d="M119.243 13.5955V33.3504H183.241L119.243 13.5955Z" fill="#5C40B2"/>
<path d="M154.048 19.6756C157.761 18.1287 159.517 13.8664 157.968 10.1556C156.42 6.44481 152.155 4.69066 148.441 6.23759C144.728 7.78453 142.972 12.0468 144.52 15.7576C146.068 19.4684 150.334 21.2225 154.048 19.6756Z" fill="#765EDD"/>
<path d="M146.091 7.8147C145.414 8.49111 144.877 9.29413 144.511 10.1779C144.145 11.0617 143.956 12.0089 143.956 12.9655C143.956 13.9221 144.145 14.8693 144.511 15.7531C144.877 16.6368 145.414 17.4399 146.091 18.1163C147.458 19.4823 149.312 20.2498 151.246 20.2498C152.203 20.2498 153.151 20.0614 154.036 19.6953C154.92 19.3292 155.724 18.7927 156.401 18.1163L146.091 7.8147Z" fill="#856FE2"/>
<g style="mix-blend-mode:multiply">
<path d="M183.241 33.3506H119.243V34.7093H183.241V33.3506Z" fill="#CDE1F9"/>
</g>
<path d="M117.537 60.7061H93.2676V84.9572H117.537V60.7061Z" stroke="#7A4AED" stroke-miterlimit="10"/>
<path d="M100.371 74.071L107.796 79.9011L122.885 65.3669" stroke="#F3F4F6" stroke-width="4" stroke-miterlimit="10"/>
<path d="M98.7227 72.424L106.148 78.2542L121.237 63.72" stroke="#2DE89C" stroke-width="4" stroke-miterlimit="10"/>
<path d="M208.318 67.5903H129.206C128.964 67.5927 128.73 67.5016 128.553 67.3359C128.377 67.1701 128.271 66.9427 128.258 66.7009C128.253 66.5735 128.273 66.4463 128.318 66.3271C128.363 66.2078 128.433 66.099 128.521 66.0073C128.61 65.9156 128.716 65.843 128.834 65.7937C128.952 65.7445 129.078 65.7198 129.206 65.721H208.318C208.442 65.7252 208.564 65.754 208.676 65.8058C208.789 65.8576 208.89 65.9312 208.973 66.0225C209.057 66.1137 209.122 66.2207 209.163 66.3372C209.205 66.4537 209.223 66.5774 209.217 66.7009C209.206 66.9349 209.108 67.1564 208.942 67.3213C208.775 67.4862 208.553 67.5822 208.318 67.5903Z" fill="#856FE2"/>
<path d="M208.318 71.7074H129.206C128.964 71.7099 128.73 71.6188 128.553 71.453C128.377 71.2873 128.271 71.0598 128.258 70.8181C128.253 70.6907 128.273 70.5635 128.318 70.4443C128.363 70.325 128.433 70.2162 128.521 70.1245C128.61 70.0328 128.716 69.9602 128.834 69.9109C128.952 69.8617 129.078 69.8369 129.206 69.8382H208.318C208.442 69.8424 208.564 69.8712 208.676 69.923C208.789 69.9747 208.89 70.0484 208.973 70.1396C209.057 70.2309 209.122 70.3379 209.163 70.4544C209.205 70.5709 209.223 70.6945 209.217 70.8181C209.206 71.0521 209.108 71.2736 208.942 71.4385C208.775 71.6033 208.553 71.6994 208.318 71.7074Z" fill="#856FE2"/>
<path d="M208.318 75.8249H129.206C128.964 75.8274 128.73 75.7362 128.553 75.5705C128.377 75.4048 128.271 75.1773 128.258 74.9355C128.253 74.8081 128.273 74.6809 128.318 74.5617C128.363 74.4425 128.433 74.3337 128.521 74.242C128.61 74.1503 128.716 74.0776 128.834 74.0284C128.952 73.9791 129.078 73.9544 129.206 73.9556H208.318C208.442 73.9598 208.564 73.9886 208.676 74.0404C208.789 74.0922 208.89 74.1658 208.973 74.2571C209.057 74.3483 209.122 74.4553 209.163 74.5718C209.205 74.6883 209.223 74.812 209.217 74.9355C209.206 75.1695 209.108 75.3911 208.942 75.5559C208.775 75.7208 208.553 75.8168 208.318 75.8249Z" fill="#856FE2"/>
<path d="M208.318 79.9421H129.206C128.964 79.9445 128.73 79.8534 128.553 79.6877C128.377 79.522 128.271 79.2945 128.258 79.0527C128.253 78.9253 128.273 78.7981 128.318 78.6789C128.363 78.5596 128.433 78.4508 128.521 78.3592C128.61 78.2675 128.716 78.1948 128.834 78.1455C128.952 78.0963 129.078 78.0716 129.206 78.0728H208.318C208.442 78.077 208.564 78.1058 208.676 78.1576C208.789 78.2094 208.89 78.283 208.973 78.3743C209.057 78.4655 209.122 78.5725 209.163 78.689C209.205 78.8055 209.223 78.9292 209.217 79.0527C209.206 79.2867 209.108 79.5083 208.942 79.6731C208.775 79.838 208.553 79.934 208.318 79.9421Z" fill="#856FE2"/>
<path d="M117.537 99.7549H93.2676V124.006H117.537V99.7549Z" stroke="#7A4AED" stroke-miterlimit="10"/>
<path d="M208.318 106.639H129.206C128.959 106.637 128.724 106.538 128.55 106.364C128.375 106.19 128.277 105.955 128.274 105.709C128.274 105.461 128.372 105.223 128.547 105.048C128.721 104.872 128.958 104.772 129.206 104.77H208.318C208.441 104.77 208.563 104.794 208.676 104.841C208.79 104.889 208.893 104.958 208.979 105.045C209.066 105.133 209.134 105.236 209.181 105.35C209.227 105.464 209.25 105.586 209.249 105.709C209.249 105.955 209.151 106.192 208.976 106.367C208.802 106.541 208.565 106.639 208.318 106.639Z" fill="#856FE2"/>
<path d="M208.318 110.756H129.206C128.959 110.754 128.724 110.655 128.55 110.481C128.375 110.307 128.277 110.072 128.274 109.826C128.274 109.578 128.372 109.341 128.547 109.165C128.721 108.989 128.958 108.889 129.206 108.887H208.318C208.441 108.887 208.563 108.911 208.676 108.959C208.79 109.006 208.893 109.075 208.979 109.162C209.066 109.25 209.134 109.353 209.181 109.467C209.227 109.581 209.25 109.703 209.249 109.826C209.249 110.073 209.151 110.309 208.976 110.484C208.802 110.658 208.565 110.756 208.318 110.756Z" fill="#856FE2"/>
<path d="M208.318 114.874H129.206C128.959 114.872 128.724 114.773 128.55 114.599C128.375 114.425 128.277 114.189 128.274 113.943C128.274 113.696 128.372 113.458 128.547 113.282C128.721 113.106 128.958 113.007 129.206 113.004H208.318C208.441 113.004 208.563 113.029 208.676 113.076C208.79 113.123 208.893 113.193 208.979 113.28C209.066 113.367 209.134 113.471 209.181 113.585C209.227 113.698 209.25 113.82 209.249 113.943C209.249 114.19 209.151 114.427 208.976 114.601C208.802 114.776 208.565 114.874 208.318 114.874Z" fill="#856FE2"/>
<path d="M208.318 118.991H129.206C128.959 118.989 128.724 118.89 128.55 118.716C128.375 118.542 128.277 118.307 128.274 118.061C128.274 117.813 128.372 117.575 128.547 117.4C128.721 117.224 128.958 117.124 129.206 117.122H208.318C208.441 117.122 208.563 117.146 208.676 117.193C208.79 117.241 208.893 117.31 208.979 117.397C209.066 117.485 209.134 117.588 209.181 117.702C209.227 117.816 209.25 117.938 209.249 118.061C209.249 118.307 209.151 118.544 208.976 118.719C208.802 118.893 208.565 118.991 208.318 118.991Z" fill="#856FE2"/>
<path d="M117.537 138.804H93.2676V163.055H117.537V138.804Z" stroke="#7A4AED" stroke-miterlimit="10"/>
<path d="M208.318 145.688H129.206C128.958 145.686 128.721 145.586 128.547 145.41C128.372 145.234 128.274 144.997 128.274 144.749C128.277 144.503 128.375 144.268 128.55 144.094C128.724 143.919 128.959 143.821 129.206 143.819H208.318C208.565 143.819 208.802 143.917 208.976 144.091C209.151 144.266 209.249 144.502 209.249 144.749C209.25 144.872 209.227 144.994 209.181 145.108C209.134 145.222 209.066 145.325 208.979 145.412C208.893 145.5 208.79 145.569 208.676 145.616C208.563 145.664 208.441 145.688 208.318 145.688Z" fill="#856FE2"/>
<path d="M208.318 149.805H129.206C128.958 149.803 128.721 149.703 128.547 149.527C128.372 149.351 128.274 149.114 128.274 148.866C128.277 148.62 128.375 148.385 128.55 148.211C128.724 148.037 128.959 147.938 129.206 147.936H208.318C208.565 147.936 208.802 148.034 208.976 148.208C209.151 148.383 209.249 148.62 209.249 148.866C209.25 148.989 209.227 149.111 209.181 149.225C209.134 149.339 209.066 149.442 208.979 149.53C208.893 149.617 208.79 149.686 208.676 149.733C208.563 149.781 208.441 149.805 208.318 149.805Z" fill="#856FE2"/>
<path d="M208.318 153.923H129.206C128.958 153.92 128.721 153.82 128.547 153.645C128.372 153.469 128.274 153.231 128.274 152.984C128.277 152.738 128.375 152.502 128.55 152.328C128.724 152.154 128.959 152.055 129.206 152.053H208.318C208.565 152.053 208.802 152.151 208.976 152.326C209.151 152.5 209.249 152.737 209.249 152.984C209.25 153.107 209.227 153.229 209.181 153.342C209.134 153.456 209.066 153.56 208.979 153.647C208.893 153.734 208.79 153.804 208.676 153.851C208.563 153.898 208.441 153.923 208.318 153.923Z" fill="#856FE2"/>
<path d="M208.318 158.04H129.206C128.958 158.038 128.721 157.938 128.547 157.762C128.372 157.586 128.274 157.349 128.274 157.101C128.277 156.855 128.375 156.62 128.55 156.446C128.724 156.272 128.959 156.173 129.206 156.171H208.318C208.565 156.171 208.802 156.269 208.976 156.443C209.151 156.618 209.249 156.854 209.249 157.101C209.25 157.224 209.227 157.346 209.181 157.46C209.134 157.574 209.066 157.677 208.979 157.764C208.893 157.852 208.79 157.921 208.676 157.968C208.563 158.016 208.441 158.04 208.318 158.04Z" fill="#856FE2"/>
<path d="M117.537 177.853H93.2676V202.104H117.537V177.853Z" stroke="#7A4AED" stroke-miterlimit="10"/>
<path d="M208.318 184.737H129.206C128.958 184.735 128.721 184.635 128.547 184.459C128.372 184.283 128.274 184.045 128.274 183.798C128.277 183.552 128.375 183.316 128.55 183.142C128.724 182.968 128.959 182.87 129.206 182.867H208.318C208.565 182.867 208.802 182.965 208.976 183.14C209.151 183.314 209.249 183.551 209.249 183.798C209.25 183.921 209.227 184.043 209.181 184.157C209.134 184.27 209.066 184.374 208.979 184.461C208.893 184.549 208.79 184.618 208.676 184.665C208.563 184.712 208.441 184.737 208.318 184.737Z" fill="#856FE2"/>
<path d="M208.318 188.854H129.206C128.958 188.852 128.721 188.752 128.547 188.576C128.372 188.4 128.274 188.163 128.274 187.915C128.277 187.669 128.375 187.434 128.55 187.26C128.724 187.086 128.959 186.987 129.206 186.985H208.318C208.565 186.985 208.802 187.083 208.976 187.257C209.151 187.432 209.249 187.669 209.249 187.915C209.25 188.038 209.227 188.16 209.181 188.274C209.134 188.388 209.066 188.491 208.979 188.579C208.893 188.666 208.79 188.735 208.676 188.783C208.563 188.83 208.441 188.854 208.318 188.854Z" fill="#856FE2"/>
<path d="M208.318 192.971H129.206C128.958 192.969 128.721 192.869 128.547 192.693C128.372 192.518 128.274 192.28 128.274 192.033C128.277 191.786 128.375 191.551 128.55 191.377C128.724 191.203 128.959 191.104 129.206 191.102H208.318C208.565 191.102 208.802 191.2 208.976 191.375C209.151 191.549 209.249 191.786 209.249 192.033C209.25 192.155 209.227 192.277 209.181 192.391C209.134 192.505 209.066 192.609 208.979 192.696C208.893 192.783 208.79 192.852 208.676 192.9C208.563 192.947 208.441 192.971 208.318 192.971Z" fill="#856FE2"/>
<path d="M208.318 197.089H129.206C128.958 197.087 128.721 196.987 128.547 196.811C128.372 196.635 128.274 196.398 128.274 196.15C128.277 195.904 128.375 195.668 128.55 195.494C128.724 195.32 128.959 195.222 129.206 195.219H208.318C208.565 195.219 208.802 195.318 208.976 195.492C209.151 195.667 209.249 195.903 209.249 196.15C209.25 196.273 209.227 196.395 209.181 196.509C209.134 196.622 209.066 196.726 208.979 196.813C208.893 196.901 208.79 196.97 208.676 197.017C208.563 197.064 208.441 197.089 208.318 197.089Z" fill="#856FE2"/>
<path d="M243.49 81.5233C242.988 81.9103 238.414 84.6113 238.414 84.6113L235.167 80.494L236.131 75.759L243.119 76.1955L244.339 79.7364C244.636 80.5104 244.117 81.0292 243.49 81.5233Z" fill="#FE9280"/>
<path d="M243.119 76.1379L244.174 79.2341L240.952 80.5352C240.338 80.7982 239.653 80.8475 239.007 80.6752C238.318 80.4932 237.718 80.0673 237.319 79.4766C236.921 78.8858 236.75 78.1705 236.84 77.4637L237.046 75.7673L243.119 76.1379Z" fill="#E2AAAA"/>
<path d="M241.537 80.2798L244.331 80.6833L245.864 78.0647C245.935 77.9524 245.983 77.8272 246.005 77.6962C246.027 77.5653 246.023 77.4312 245.993 77.3018C245.964 77.1724 245.908 77.0502 245.831 76.9423C245.753 76.8343 245.655 76.7428 245.542 76.673C245.43 76.6016 245.305 76.5531 245.175 76.5302C245.044 76.5073 244.91 76.5105 244.781 76.5396C244.651 76.5687 244.529 76.6231 244.42 76.6997C244.312 76.7763 244.22 76.8736 244.149 76.9859L241.537 80.2798Z" fill="#E2AAAA"/>
<path d="M239.419 91.479L233.659 92.9365L231.599 109.604L238.348 109.875L239.419 91.479Z" fill="white"/>
<path d="M315.161 105.009L305.091 103.757L307.39 85.4678L317.46 86.7359C318.662 86.8865 319.823 87.2723 320.875 87.8711C321.928 88.47 322.852 89.2702 323.595 90.2261C324.338 91.182 324.886 92.2748 325.206 93.4421C325.526 94.6094 325.614 95.8283 325.462 97.0293C325.311 98.2292 324.924 99.3876 324.324 100.438C323.724 101.489 322.923 102.411 321.966 103.152C321.01 103.893 319.916 104.438 318.749 104.757C317.581 105.075 316.362 105.161 315.161 105.009Z" fill="#FE9280"/>
<g style="mix-blend-mode:multiply" opacity="0.2">
<path d="M315.68 100.842L305.61 99.5738L305.091 103.741L315.161 105.009C316.363 105.161 317.583 105.075 318.752 104.755C319.921 104.435 321.015 103.889 321.972 103.146C322.928 102.403 323.729 101.479 324.328 100.427C324.927 99.3744 325.313 98.2143 325.462 97.0129C325.54 96.3123 325.54 95.6053 325.462 94.9048C324.739 96.8507 323.38 98.4957 321.605 99.5733C319.829 100.651 317.742 101.098 315.68 100.842Z" fill="#777470"/>
</g>
<path d="M303.863 103.592L197.028 89.8238L199.336 71.5264L306.162 85.2947L303.863 103.592Z" fill="#00B6FF"/>
<path d="M178 78.1388L197.028 89.8238L199.336 71.5264L178 78.1388Z" fill="#CCF0FF"/>
<g style="mix-blend-mode:multiply" opacity="0.2">
<path d="M178 78.1387L197.028 89.8237L197.597 85.344L178 78.1387Z" fill="#777470"/>
</g>
<path d="M184.354 76.1709L178 78.139L183.67 81.614L184.354 76.1709Z" fill="#2A294F"/>
<path d="M314.991 86.4317L306.153 85.3191L303.847 103.612L312.685 104.725L314.991 86.4317Z" fill="#D3EAF5"/>
<path d="M315.093 85.6506L312.068 85.2698L309.564 105.131L312.589 105.512L315.093 85.6506Z" fill="#D3EAF5"/>
<g style="mix-blend-mode:multiply" opacity="0.2">
<path d="M309.681 104.325L197.028 89.8237L197.597 85.344L310.241 99.8453L309.681 104.325Z" fill="#777470"/>
</g>
<g style="mix-blend-mode:multiply" opacity="0.05">
<path d="M311.42 90.5073L198.775 75.9978L199.336 71.5264L311.988 86.0276L311.42 90.5073Z" fill="#777470"/>
</g>
<g style="mix-blend-mode:multiply" opacity="0.15">
<path d="M313.36 99.4411L310.335 99.0603L309.57 105.131L312.595 105.512L313.36 99.4411Z" fill="#777470"/>
</g>
<path d="M268.814 140.632L270.331 136.737L275.415 136.333C275.828 136.271 276.248 136.367 276.592 136.603C276.936 136.838 277.178 137.195 277.27 137.601C277.27 138.02 277.112 138.424 276.825 138.73C276.539 139.036 276.147 139.221 275.729 139.248L268.814 140.632Z" fill="#E2AAAA"/>
<path d="M266.194 136.753L268.815 140.632L273.759 139.627L268.205 131.31L267.125 132.026C266.375 132.53 265.856 133.311 265.681 134.197C265.506 135.084 265.691 136.003 266.194 136.753Z" fill="#E2AAAA"/>
<path d="M271.097 74.2769C265.922 66.7339 252.869 68.7432 253.206 80.8646C253.21 80.9029 253.21 80.9416 253.206 80.9799C253.264 82.4994 253.137 84.0202 252.827 85.509C252.643 86.2296 252.267 86.8869 251.74 87.4112C251.191 87.8938 250.522 88.2183 249.803 88.3499C249.078 88.5064 248.295 88.5476 247.487 88.7123C246.665 88.8749 245.877 89.1756 245.155 89.6016C243.673 90.4606 242.552 91.8266 241.999 93.4472C241.487 95.0669 241.423 96.7949 241.815 98.4478C242.207 100.101 243.039 101.617 244.224 102.835C244.835 103.441 245.546 103.936 246.325 104.301C247.085 104.621 247.883 104.845 248.699 104.968C250.207 105.297 251.731 105.733 253.289 106.038L253.33 105.898C251.896 105.239 250.487 104.548 248.971 104.021C248.247 103.824 247.548 103.548 246.886 103.197C246.271 102.836 245.715 102.383 245.237 101.855C244.275 100.77 243.573 99.4801 243.185 98.0833C242.763 96.6853 242.735 95.198 243.103 93.7848C243.515 92.3818 244.423 91.176 245.658 90.3921C246.277 89.9902 246.96 89.6952 247.677 89.5193C248.394 89.3381 249.185 89.264 249.984 89.0499C250.812 88.8528 251.567 88.4244 252.16 87.8147C252.724 87.1944 253.106 86.4308 253.264 85.6078C253.371 85.065 253.432 84.514 253.445 83.9609C253.585 86.2089 253.396 88.4982 251.072 89.3628C249.737 89.8651 248.435 89.8651 247.191 90.6968C245.982 91.5011 245.066 92.6736 244.578 94.0401C243.12 98.3221 246.91 103.848 251.369 104.325C253.215 104.523 255.052 104.968 256.882 105.289C257.393 105.387 264.562 106.853 264.62 106.68L272.919 82.1328L271.097 74.2769Z" fill="#7A4AED"/>
<path d="M270.701 134.999L287.529 123.265L285.181 116.768L268.246 131.318L270.701 134.999Z" fill="white"/>
<path d="M283.038 121.659C283.324 122.261 283.781 122.765 284.353 123.107C284.925 123.449 285.585 123.614 286.251 123.581C286.916 123.548 287.557 123.318 288.092 122.922C288.628 122.525 289.033 121.978 289.258 121.351C289.482 120.724 289.516 120.045 289.354 119.399C289.192 118.753 288.842 118.17 288.348 117.722C287.855 117.275 287.24 116.984 286.58 116.886C285.921 116.788 285.248 116.887 284.645 117.171C283.838 117.555 283.215 118.242 282.914 119.083C282.613 119.925 282.657 120.851 283.038 121.659Z" fill="white"/>
<path d="M283.879 122.87L288.675 118.126L274.822 102.563C274.452 102.062 273.979 101.647 273.434 101.345C272.89 101.043 272.286 100.863 271.665 100.815C271.044 100.767 270.42 100.854 269.836 101.069C269.252 101.284 268.72 101.622 268.279 102.061C266.4 103.922 266.63 109.076 268.715 110.674L283.879 122.87Z" fill="white"/>
<path d="M259.078 102.209L264.772 102.664L265.726 90.7485L260.031 90.2933L259.078 102.209Z" fill="#E2AAAA"/>
<path d="M234.615 107.051C233.95 107.096 233.314 107.338 232.786 107.744C232.258 108.151 231.863 108.705 231.651 109.336C231.438 109.967 231.417 110.646 231.591 111.289C231.765 111.932 232.125 112.509 232.627 112.947C233.129 113.385 233.749 113.665 234.41 113.751C235.071 113.837 235.742 113.725 236.339 113.43C236.936 113.135 237.433 112.669 237.765 112.092C238.098 111.515 238.252 110.853 238.208 110.188C238.178 109.746 238.062 109.315 237.866 108.918C237.669 108.521 237.396 108.166 237.063 107.875C236.729 107.583 236.341 107.361 235.921 107.219C235.501 107.078 235.057 107.021 234.615 107.051Z" fill="white"/>
<path d="M232.489 107.578L235.909 113.647L256.799 107.569C259.362 106.919 260.747 102.077 259.741 99.6395C259.503 99.0654 259.145 98.549 258.69 98.1254C258.235 97.7017 257.694 97.3807 257.104 97.1839C256.514 96.9872 255.889 96.9193 255.27 96.985C254.652 97.0506 254.055 97.2482 253.519 97.5643L232.489 107.578Z" fill="white"/>
<path d="M264.455 130.989L275.069 105.066C275.196 104.566 275.215 104.044 275.126 103.536C275.037 103.027 274.841 102.543 274.552 102.116C274.262 101.688 273.885 101.326 273.446 101.054C273.007 100.782 272.516 100.606 272.004 100.537L256.824 97.0949C256.312 97.0265 255.792 97.0666 255.297 97.2125C254.802 97.3583 254.343 97.6068 253.951 97.9416C253.558 98.2764 253.241 98.6901 253.019 99.1557C252.797 99.6214 252.675 100.128 252.662 100.644L247.471 128.914L264.455 130.989Z" fill="white"/>
<path d="M262.757 75.6602C261.002 77.8753 257.813 78.814 257.104 80.8398L256.939 81.7785V81.9103L256.461 84.7595C256.317 85.6154 256.342 86.4914 256.537 87.3374C256.731 88.1834 257.09 88.9829 257.594 89.6902C258.097 90.3975 258.735 90.9988 259.471 91.4597C260.207 91.9207 261.027 92.2322 261.884 92.3766C263.614 92.6681 265.389 92.261 266.818 91.2449C267.526 90.7417 268.128 90.1042 268.589 89.3687C269.05 88.6332 269.362 87.8141 269.507 86.9581L270.042 83.7548C269.663 80.4692 263.705 80.2139 262.757 75.6602Z" fill="#E2AAAA"/>
<path d="M268.806 85.4102C268.755 85.7107 268.794 86.0197 268.918 86.2979C269.043 86.5762 269.247 86.8113 269.506 86.9734C269.764 87.1355 270.065 87.2174 270.37 87.2086C270.675 87.1998 270.97 87.1007 271.219 86.924C271.467 86.7472 271.658 86.5007 271.766 86.2157C271.874 85.9307 271.895 85.62 271.827 85.3229C271.758 85.0259 271.603 84.7559 271.381 84.5472C271.158 84.3384 270.879 84.2003 270.578 84.1503C270.379 84.1161 270.175 84.1216 269.978 84.1665C269.781 84.2114 269.594 84.2948 269.43 84.4119C269.265 84.529 269.125 84.6775 269.018 84.8488C268.911 85.0201 268.839 85.2109 268.806 85.4102Z" fill="#E2AAAA"/>
<path d="M254.904 129.828L262.51 148.595L255.242 236.269H249.663L243.086 148.051L247.429 128.914L254.904 129.828Z" fill="#7A4AED"/>
<path d="M254.904 129.828V148.595L289.145 236.269H293.347L275.028 145.284L264.455 130.989L254.904 129.828Z" fill="#765EDD"/>
<path d="M252.786 240.848H250.454V236.269H253.478L252.786 240.848Z" fill="#E2AAAA"/>
<path d="M250.371 239.81L251.739 240.411L253.008 239.81L254.145 243.524H243.589L247.561 241.671L250.371 239.81Z" fill="#2A294F"/>
<path d="M291.914 240.848H294.246L292.861 236.269H289.837L291.914 240.848Z" fill="#E2AAAA"/>
<path d="M294.328 239.81L292.96 240.411L291.691 239.81L290.554 243.524H301.11L297.138 241.671L294.328 239.81Z" fill="#2A294F"/>
<path d="M257.714 111.234C257.716 112.182 257.435 113.11 256.909 113.9C256.383 114.689 255.634 115.304 254.757 115.668C253.88 116.032 252.915 116.128 251.984 115.943C251.053 115.758 250.198 115.302 249.526 114.631C248.855 113.96 248.398 113.105 248.213 112.175C248.029 111.245 248.124 110.28 248.488 109.404C248.852 108.528 249.468 107.78 250.258 107.254C251.048 106.728 251.977 106.448 252.926 106.449C254.196 106.449 255.414 106.954 256.312 107.851C257.21 108.748 257.714 109.965 257.714 111.234Z" fill="white"/>
<path d="M257.228 97.2268L257.829 107.504L266.721 98.4538L257.228 97.2268Z" fill="#E2AAAA"/>
<path d="M276.586 76.4591C275.85 75.5118 274.923 74.7291 273.866 74.1616C272.218 73.2887 270.306 73.3381 268.773 72.0618L269.968 84.1256C272.168 83.4997 272.037 88.2429 269.498 86.9253C269.498 86.9253 264.455 89.0828 262.543 93.7931C261.404 96.6362 260.996 99.7193 261.356 102.761C261.444 103.605 261.723 104.418 262.174 105.137C262.624 105.856 263.234 106.462 263.956 106.909C264.678 107.356 265.493 107.632 266.338 107.715C267.183 107.798 268.036 107.686 268.831 107.389C271.001 106.629 272.842 105.142 274.039 103.181C278.448 96.527 281.382 85.5996 277.616 78.0813C277.326 77.5084 276.981 76.9651 276.586 76.4591Z" fill="#7A4AED"/>
<path d="M235.955 75.7793L236.078 75.0151L243.132 76.1504L243.009 76.9147C242.885 77.6823 242.461 78.3693 241.831 78.8247C241.2 79.28 240.414 79.4664 239.646 79.3427L238.393 79.1411C237.625 79.0174 236.937 78.5939 236.481 77.9637C236.026 77.3335 235.839 76.5483 235.963 75.7807L235.955 75.7793Z" fill="#E2AAAA"/>
<path d="M262.955 85.3195C261.898 84.9412 260.782 84.7544 259.659 84.7678C259.497 84.8736 259.373 85.0275 259.303 85.2077C259.234 85.388 259.223 85.5855 259.272 85.7724C259.382 86.1498 259.629 86.4728 259.964 86.6782C260.331 86.9224 260.754 87.0694 261.194 87.1055C261.634 87.1415 262.075 87.0653 262.477 86.8841C262.787 86.7516 263.04 86.5158 263.194 86.2171C263.263 86.0626 263.276 85.8895 263.233 85.7262C263.19 85.563 263.092 85.4195 262.955 85.3195Z" fill="white"/>
<path d="M320.172 220.129C319.718 229.031 310.027 244.595 301.119 244.15C292.21 243.705 287.455 227.409 287.933 218.507C288.411 209.605 297.872 165.048 306.78 165.5C315.689 165.953 320.617 211.228 320.172 220.129Z" fill="#856FE2"/>
<path d="M306.318 171.29L301.827 243.434" stroke="#7A4AED" stroke-width="0.87" stroke-linecap="round" stroke-linejoin="round"/>
<path d="M299.792 218.277C297.741 222.749 296.228 227.448 295.284 232.276C294.814 234.746 294.518 237.422 295.63 239.687C296.85 242.157 299.561 243.582 302.272 244.026C308.865 245.113 315.524 241.062 319.405 235.586C323.287 230.11 324.968 223.432 326.509 216.91C327.72 211.771 328.915 206.55 331.206 201.766C332.187 199.716 337.931 191.786 335.219 189.735C331.495 186.812 320.732 189.991 313.793 197.517C308.066 203.661 303.341 210.666 299.792 218.277Z" fill="#00B6FF"/>
<path d="M302.264 244.002C302.264 244.002 310.266 212.899 329.566 195.063" stroke="#856FE2" stroke-width="0.87" stroke-linecap="round" stroke-linejoin="round"/>
<path d="M346.608 210.94C345.827 212.109 344.745 213.048 343.477 213.657C342.043 214.48 340.51 215.172 339.035 215.864C337.084 216.718 335.19 217.697 333.365 218.795C332.098 219.577 330.928 220.505 329.879 221.562C331.326 218.223 333.18 215.075 335.401 212.191C338.219 208.568 341.112 206.732 344.004 206.732H344.202C344.947 206.708 345.677 206.94 346.271 207.39C347.251 208.23 347.21 209.853 346.608 210.94Z" fill="#7A4AED"/>
<path d="M349.839 231.048C348.63 231.772 347.25 232.158 345.842 232.168C344.194 232.284 342.545 232.267 340.897 232.259C338.769 232.202 336.638 232.276 334.519 232.481C333.042 232.654 331.59 232.997 330.192 233.502C332.926 231.101 335.946 229.046 339.183 227.384C343.304 225.317 346.691 224.914 349.303 226.132L349.484 226.215C350.164 226.516 350.721 227.039 351.066 227.697C351.26 228.313 351.244 228.975 351.022 229.581C350.8 230.187 350.384 230.703 349.839 231.048Z" fill="#7A4AED"/>
<path d="M342.216 240.947C341.276 240.738 340.408 240.284 339.703 239.629C338.837 238.921 337.997 238.122 337.23 237.356C336.19 236.331 335.089 235.368 333.934 234.474C333.119 233.867 332.237 233.356 331.305 232.951C333.789 233.041 336.252 233.436 338.64 234.128C341.656 235.018 343.543 236.401 344.268 238.246C344.285 238.288 344.299 238.332 344.309 238.377C344.509 238.843 344.544 239.363 344.408 239.851C344.216 240.251 343.896 240.575 343.499 240.773C343.103 240.971 342.651 241.032 342.216 240.947Z" fill="#7A4AED"/>
<path d="M320.542 244.175C320.542 244.175 320.633 225.144 343.889 208.988" stroke="#2A294F" stroke-width="0.78" stroke-linecap="round" stroke-linejoin="round"/>
<path d="M320.542 244.175C320.542 244.175 327.679 228.924 347.037 228.924" stroke="#2A294F" stroke-width="0.78" stroke-linecap="round" stroke-linejoin="round"/>
<path d="M331.107 233.14C331.107 233.14 334.857 232.868 342.685 238.773" stroke="#2A294F" stroke-width="0.78" stroke-linecap="round" stroke-linejoin="round"/>
</svg>
