<svg width="182" height="226" viewBox="0 0 182 226" fill="none" xmlns="http://www.w3.org/2000/svg">
<path d="M117.893 67.3396C122.917 57.7279 124.422 46.7132 125.648 35.9372C126.438 29.021 127.187 21.9302 130.242 15.6835C131.401 13.1297 133.133 10.8784 135.302 9.10491C137.723 7.32673 140.597 6.27299 143.591 6.06597C151.921 5.35572 160.321 10.4497 163.923 18.0005C167.524 25.5513 166.374 35.0523 161.39 41.7706C158.991 45.0075 155.831 47.5923 152.543 49.921C141.889 57.4892 117.893 67.3396 117.893 67.3396Z" fill="#1EA8E7"/>
<path d="M140.535 45.6769C140.146 45.6778 139.761 45.5878 139.412 45.414C139.064 45.2402 138.76 44.9874 138.525 44.6756L132.06 36.1235C131.86 35.8589 131.714 35.5575 131.631 35.2365C131.547 34.9155 131.527 34.5811 131.573 34.2524C131.618 33.9237 131.727 33.6072 131.895 33.3209C132.062 33.0346 132.284 32.7842 132.548 32.5838C132.812 32.3835 133.113 32.2373 133.433 32.1535C133.753 32.0697 134.087 32.0499 134.415 32.0953C134.743 32.1407 135.059 32.2504 135.344 32.4181C135.63 32.5859 135.88 32.8084 136.08 33.0729L140.332 38.6967L151.026 21.4877C151.38 20.9187 151.944 20.5138 152.596 20.362C153.247 20.2103 153.932 20.3241 154.5 20.6784C155.068 21.0328 155.472 21.5986 155.623 22.2515C155.775 22.9044 155.661 23.5909 155.307 24.1598L142.673 44.4893C142.454 44.8332 142.156 45.1189 141.802 45.3217C141.449 45.5245 141.052 45.6384 140.646 45.6536L140.535 45.6769Z" fill="white"/>
<path d="M105.624 159.276C105.625 169.625 102.564 179.741 96.8281 188.346C91.0922 196.95 82.939 203.657 73.3995 207.618C63.8601 211.579 53.3629 212.615 43.2356 210.597C33.1083 208.578 23.8057 203.595 16.5044 196.278C9.20302 188.96 4.23087 179.637 2.21671 169.488C0.202556 159.338 1.23688 148.818 5.18887 139.257C9.14086 129.697 15.833 121.526 24.4189 115.777C33.0049 110.029 43.099 106.961 53.4247 106.962C67.2687 106.962 80.5458 112.474 90.335 122.285C100.124 132.095 105.624 145.402 105.624 159.276Z" fill="#6E4BE8"/>
<path d="M96.7131 159.276C96.7143 167.858 94.1759 176.248 89.4192 183.384C84.6624 190.52 77.9009 196.082 69.9897 199.367C62.0785 202.652 53.373 203.512 44.9742 201.838C36.5755 200.164 28.8607 196.031 22.8056 189.963C16.7504 183.894 12.6269 176.163 10.9566 167.745C9.28629 159.328 10.1441 150.603 13.4217 142.675C16.6992 134.746 22.2492 127.97 29.3698 123.203C36.4904 118.435 44.8616 115.891 53.4249 115.893C59.1096 115.893 64.7386 117.015 69.9906 119.195C75.2425 121.375 80.0146 124.571 84.0343 128.599C88.054 132.628 91.2426 137.41 93.418 142.674C95.5934 147.937 96.7131 153.579 96.7131 159.276Z" fill="white"/>
<path d="M71.9545 159.276C71.9545 162.951 70.8672 166.542 68.8302 169.598C66.7931 172.653 63.8978 175.034 60.5104 176.44C57.123 177.846 53.3956 178.213 49.7998 177.496C46.2039 176.779 42.9011 175.009 40.309 172.41C37.7168 169.811 35.9519 166.501 35.2373 162.897C34.5227 159.293 34.8906 155.557 36.2945 152.163C37.6984 148.768 40.0751 145.868 43.1242 143.827C46.1732 141.786 49.7576 140.698 53.424 140.699C58.3391 140.701 63.0524 142.658 66.5274 146.142C70.0024 149.626 71.9545 154.35 71.9545 159.276Z" fill="#E6F3F4"/>
<path d="M104.683 142.934C104.556 142.535 104.277 142.203 103.906 142.01C103.535 141.817 103.103 141.78 102.705 141.907C102.307 142.034 101.975 142.314 101.783 142.685C101.59 143.057 101.553 143.49 101.68 143.889C105.416 155.631 104.764 168.335 99.8439 179.63C94.9242 190.926 86.0731 200.043 74.9411 205.281C63.8092 210.518 51.1564 211.52 39.3421 208.098C27.5279 204.676 17.3587 197.064 10.7311 186.683C4.1034 176.301 1.46964 163.857 3.32093 151.673C5.17222 139.489 11.3822 128.395 20.7928 120.461C30.2034 112.527 42.1722 108.294 54.4672 108.551C66.7623 108.808 78.5443 113.539 87.6161 121.86C87.9242 122.142 88.3317 122.291 88.7489 122.272C89.1662 122.254 89.559 122.07 89.8409 121.761C90.1228 121.452 90.2708 121.044 90.2523 120.626C90.2338 120.207 90.0503 119.814 89.7421 119.531C80.139 110.743 67.6752 105.753 54.6733 105.492C41.6713 105.231 29.018 109.716 19.0713 118.112C9.1245 126.508 2.56273 138.241 0.608667 151.127C-1.34539 164.012 1.44154 177.169 8.45017 188.148C15.4588 199.126 26.211 207.177 38.7033 210.799C51.1956 214.421 64.5758 213.368 76.3507 207.836C88.1255 202.303 97.4919 192.669 102.704 180.729C107.917 168.788 108.62 155.356 104.683 142.934Z" fill="#292E56"/>
<path d="M99.2744 137.736C99.4016 138.008 99.6036 138.238 99.8568 138.399C100.11 138.56 100.404 138.645 100.703 138.644C100.935 138.645 101.163 138.594 101.371 138.493C101.559 138.405 101.727 138.281 101.866 138.129C102.006 137.976 102.113 137.797 102.184 137.602C102.254 137.407 102.285 137.201 102.275 136.994C102.265 136.787 102.215 136.584 102.127 136.397C100.185 132.253 97.7257 128.374 94.8073 124.852C94.675 124.693 94.5126 124.561 94.3294 124.465C94.1463 124.368 93.946 124.309 93.7399 124.29C93.5339 124.271 93.3261 124.293 93.1285 124.355C92.9309 124.416 92.7474 124.516 92.5883 124.649C92.4293 124.781 92.2978 124.944 92.2015 125.128C92.1052 125.311 92.046 125.512 92.0271 125.718C92.0082 125.925 92.0301 126.133 92.0915 126.331C92.1529 126.529 92.2526 126.713 92.385 126.873C95.132 130.186 97.4471 133.837 99.2744 137.736Z" fill="#292E56"/>
<path d="M53.4248 132.101C53.8423 132.101 54.2427 131.934 54.5379 131.639C54.8331 131.343 54.999 130.941 54.999 130.523V122.215C54.9746 121.813 54.7978 121.435 54.5047 121.158C54.2116 120.882 53.8243 120.728 53.4218 120.728C53.0194 120.728 52.6321 120.882 52.339 121.158C52.0459 121.435 51.8691 121.813 51.8447 122.215V130.523C51.8447 130.731 51.8856 130.936 51.9651 131.128C52.0446 131.32 52.1611 131.494 52.3079 131.641C52.4547 131.787 52.6289 131.903 52.8205 131.982C53.0122 132.061 53.2175 132.101 53.4248 132.101Z" fill="#95999E"/>
<path d="M51.8447 188.03V196.337C51.8691 196.74 52.0459 197.118 52.339 197.395C52.6321 197.671 53.0194 197.825 53.4218 197.825C53.8243 197.825 54.2116 197.671 54.5047 197.395C54.7978 197.118 54.9746 196.74 54.999 196.337V188.03C54.9746 187.627 54.7978 187.249 54.5047 186.973C54.2116 186.696 53.8243 186.542 53.4218 186.542C53.0194 186.542 52.6321 186.696 52.339 186.973C52.0459 187.249 51.8691 187.627 51.8447 188.03Z" fill="#95999E"/>
<path d="M91.973 159.276C91.973 158.858 91.8071 158.457 91.5119 158.161C91.2167 157.865 90.8163 157.699 90.3987 157.699H82.1094C81.6919 157.699 81.2915 157.865 80.9962 158.161C80.701 158.457 80.5352 158.858 80.5352 159.276C80.5352 159.695 80.701 160.096 80.9962 160.392C81.2915 160.688 81.6919 160.854 82.1094 160.854H90.3987C90.8163 160.854 91.2167 160.688 91.5119 160.392C91.8071 160.096 91.973 159.695 91.973 159.276Z" fill="#95999E"/>
<path d="M14.8711 159.276C14.8711 159.695 15.037 160.096 15.3322 160.392C15.6274 160.688 16.0278 160.854 16.4453 160.854H24.7347C25.1522 160.854 25.5526 160.688 25.8478 160.392C26.143 160.096 26.3089 159.695 26.3089 159.276C26.3089 158.858 26.143 158.457 25.8478 158.161C25.5526 157.865 25.1522 157.699 24.7347 157.699H16.4453C16.2386 157.699 16.0339 157.74 15.8429 157.819C15.6519 157.898 15.4784 158.014 15.3322 158.161C15.186 158.307 15.07 158.481 14.9909 158.673C14.9118 158.864 14.8711 159.069 14.8711 159.276Z" fill="#95999E"/>
<path d="M84.3516 138.9L80.8197 141.013C80.5335 141.195 80.3132 141.464 80.1917 141.781C80.0702 142.098 80.0539 142.445 80.1452 142.772C80.2365 143.099 80.4306 143.388 80.6987 143.595C80.9667 143.803 81.2943 143.918 81.633 143.924C81.9153 143.925 82.1926 143.849 82.4346 143.703L85.9665 141.584C86.1503 141.481 86.3118 141.342 86.4411 141.176C86.5705 141.009 86.6652 140.818 86.7196 140.614C86.774 140.41 86.787 140.197 86.7579 139.988C86.7288 139.779 86.6581 139.578 86.55 139.397C86.4419 139.216 86.2986 139.058 86.1287 138.934C85.9587 138.809 85.7655 138.72 85.5605 138.671C85.3555 138.623 85.1429 138.616 84.9352 138.651C84.7276 138.687 84.5291 138.763 84.3516 138.877V138.9Z" fill="#95999E"/>
<path d="M24.4036 174.82L20.8775 176.939C20.5916 177.12 20.3716 177.389 20.2499 177.705C20.1282 178.021 20.1115 178.369 20.2021 178.695C20.2926 179.022 20.4858 179.31 20.7529 179.518C21.02 179.726 21.3468 179.843 21.685 179.85C21.9695 179.848 22.2484 179.77 22.4924 179.623L26.0243 177.51C26.3583 177.283 26.5931 176.936 26.6803 176.541C26.7675 176.146 26.7005 175.733 26.4932 175.386C26.2858 175.038 25.9538 174.784 25.5652 174.675C25.1767 174.565 24.761 174.609 24.4036 174.797V174.82Z" fill="#95999E"/>
<path d="M69.4749 186.19C69.2975 186.297 69.1428 186.437 69.0196 186.604C68.8964 186.77 68.8071 186.96 68.757 187.161C68.7068 187.362 68.6967 187.571 68.7272 187.776C68.7577 187.981 68.8282 188.178 68.9347 188.356L71.0434 191.895C71.1832 192.13 71.3815 192.324 71.6188 192.459C71.856 192.593 72.1242 192.664 72.3968 192.664C72.6747 192.662 72.9472 192.588 73.1869 192.447C73.4267 192.306 73.6252 192.105 73.7625 191.863C73.8997 191.621 73.9709 191.347 73.9688 191.068C73.9666 190.79 73.8913 190.517 73.7503 190.277L71.6359 186.737C71.53 186.559 71.3901 186.403 71.2241 186.279C71.0582 186.155 70.8694 186.065 70.6687 186.014C70.468 185.964 70.2592 185.953 70.0544 185.983C69.8495 186.013 69.6526 186.084 69.4749 186.19Z" fill="#95999E"/>
<path d="M35.8006 126.675C35.6946 126.496 35.5546 126.341 35.3886 126.217C35.2226 126.093 35.0339 126.003 34.8332 125.952C34.6326 125.902 34.4239 125.891 34.2191 125.921C34.0143 125.951 33.8174 126.021 33.6397 126.127C33.4619 126.234 33.3068 126.374 33.1832 126.54C33.0596 126.707 32.9698 126.896 32.9191 127.097C32.8684 127.298 32.8577 127.507 32.8877 127.712C32.9176 127.918 32.9876 128.115 33.0936 128.293L35.2081 131.833C35.3471 132.068 35.5452 132.263 35.7826 132.398C36.0201 132.532 36.2887 132.603 36.5616 132.601C36.8403 132.602 37.1143 132.529 37.3554 132.389C37.5965 132.249 37.7959 132.046 37.9332 131.803C38.0705 131.56 38.1406 131.285 38.1364 131.006C38.1322 130.726 38.0538 130.453 37.9092 130.214L35.8006 126.675Z" fill="#95999E"/>
<path d="M72.4491 125.673C72.0867 125.466 71.6574 125.411 71.2548 125.52C70.8522 125.629 70.5089 125.894 70.2998 126.255L68.2725 129.842C68.0668 130.206 68.014 130.637 68.1257 131.041C68.2373 131.444 68.5043 131.787 68.8679 131.993C69.2315 132.199 69.6619 132.252 70.0644 132.14C70.467 132.028 70.8087 131.76 71.0143 131.396L73.0416 127.816C73.2435 127.452 73.2945 127.024 73.1836 126.623C73.0727 126.222 72.8089 125.881 72.4491 125.673Z" fill="#95999E"/>
<path d="M35.8286 187.145L33.8013 190.713C33.6991 190.894 33.6333 191.093 33.6077 191.299C33.5822 191.505 33.5974 191.713 33.6524 191.913C33.7074 192.113 33.8012 192.301 33.9284 192.464C34.0556 192.628 34.2138 192.765 34.3938 192.867C34.5738 192.97 34.7722 193.036 34.9777 193.061C35.1831 193.087 35.3916 193.072 35.5912 193.017C35.7907 192.962 35.9775 192.868 36.1409 192.74C36.3042 192.613 36.4409 192.454 36.5431 192.274L38.5704 188.687C38.7761 188.323 38.8289 187.892 38.7172 187.488C38.6056 187.085 38.3386 186.743 37.975 186.536C37.6114 186.33 37.181 186.277 36.7785 186.389C36.376 186.501 36.0343 186.769 35.8286 187.133V187.145Z" fill="#95999E"/>
<path d="M82.7826 174.156C82.6026 174.054 82.4042 173.988 82.1987 173.963C81.9933 173.937 81.7848 173.952 81.5852 174.007C81.3857 174.062 81.1989 174.156 81.0355 174.284C80.8722 174.411 80.7355 174.57 80.6333 174.75C80.5311 174.931 80.4653 175.13 80.4398 175.335C80.4142 175.541 80.4294 175.75 80.4844 175.95C80.5394 176.15 80.6332 176.337 80.7604 176.501C80.8877 176.665 81.0458 176.802 81.2258 176.904L84.8041 178.942C85.0413 179.077 85.3097 179.147 85.5825 179.146C85.9308 179.147 86.2695 179.032 86.5458 178.819C86.822 178.607 87.0201 178.309 87.1091 177.971C87.1981 177.634 87.1729 177.276 87.0375 176.955C86.9021 176.633 86.6642 176.366 86.3609 176.194L82.7826 174.156Z" fill="#95999E"/>
<path d="M25.606 141.648L22.0277 139.61C21.8477 139.508 21.6493 139.442 21.4439 139.416C21.2384 139.391 21.0299 139.406 20.8304 139.461C20.6308 139.516 20.444 139.61 20.2807 139.738C20.1173 139.865 19.9806 140.024 19.8784 140.204C19.7762 140.385 19.7104 140.583 19.6849 140.789C19.6594 140.995 19.6745 141.204 19.7295 141.404C19.7846 141.604 19.8784 141.791 20.0056 141.955C20.1328 142.119 20.2909 142.256 20.4709 142.358L24.0492 144.396C24.2864 144.531 24.5548 144.601 24.8276 144.6C25.1759 144.601 25.5146 144.486 25.7909 144.273C26.0671 144.061 26.2652 143.762 26.3542 143.425C26.4432 143.088 26.418 142.73 26.2826 142.409C26.1473 142.087 25.9093 141.819 25.606 141.648Z" fill="#95999E"/>
<path d="M46.0246 157.762L15.4812 166.099C14.8258 166.268 14.2605 166.683 13.9034 167.259C13.5462 167.835 13.4247 168.527 13.5642 169.191C13.6446 169.523 13.7908 169.836 13.9941 170.112C14.1973 170.387 14.4535 170.618 14.7476 170.792C15.0416 170.967 15.3676 171.08 15.7061 171.126C16.0446 171.172 16.3888 171.149 16.7185 171.059L47.3665 162.693C48.0116 162.509 48.558 162.077 48.8874 161.491C49.2167 160.905 49.3024 160.212 49.1259 159.564C48.9493 158.915 48.5248 158.362 47.9443 158.025C47.3637 157.688 46.674 157.593 46.0246 157.762Z" fill="#53575B"/>
<path d="M42.8289 133.026L48.969 155.603C49.0538 155.93 49.2027 156.237 49.4069 156.507C49.6111 156.776 49.8666 157.002 50.1586 157.172C50.4506 157.341 50.7733 157.451 51.108 157.495C51.4426 157.538 51.7826 157.515 52.1082 157.426C52.4338 157.337 52.7386 157.184 53.0048 156.976C53.271 156.768 53.4934 156.509 53.659 156.215C53.8247 155.92 53.9303 155.595 53.9698 155.259C54.0093 154.924 53.9819 154.583 53.8892 154.258L47.7259 131.553C47.6334 131.225 47.4763 130.919 47.264 130.653C47.0517 130.387 46.7885 130.166 46.4897 130.003C46.1909 129.84 45.8627 129.739 45.5243 129.705C45.1859 129.672 44.8442 129.706 44.5193 129.807C43.8781 130.022 43.3445 130.477 43.0296 131.077C42.7147 131.676 42.6428 132.375 42.8289 133.026Z" fill="#53575B"/>
<path d="M16.6076 168.439L18.054 173.778C18.1313 174.059 18.1334 174.355 18.0599 174.637C17.9863 174.918 17.8399 175.175 17.6353 175.382C17.4308 175.589 17.1754 175.738 16.8949 175.814C16.6145 175.89 16.319 175.891 16.0383 175.816L10.6999 174.413L5.36727 173.004C5.08579 172.93 4.82867 172.784 4.62196 172.579C4.41526 172.374 4.26633 172.117 4.19025 171.836C4.11417 171.555 4.11366 171.258 4.18877 170.977C4.26387 170.695 4.41192 170.438 4.61791 170.233L8.49829 166.309L12.3845 162.385C12.5886 162.18 12.8426 162.032 13.1214 161.956C13.4001 161.88 13.6939 161.879 13.9735 161.952C14.253 162.025 14.5087 162.17 14.715 162.372C14.9213 162.575 15.0711 162.828 15.1495 163.107L16.6076 168.439Z" fill="#53575B"/>
<path d="M45.6121 133.527L40.2911 134.976C40.011 135.054 39.7155 135.056 39.4345 134.982C39.1534 134.908 38.8967 134.762 38.6904 134.557C38.4841 134.352 38.3354 134.096 38.2595 133.815C38.1836 133.534 38.183 133.237 38.258 132.956L39.6637 127.612L41.0637 122.267C41.1387 121.986 41.286 121.729 41.491 121.523C41.696 121.316 41.9515 121.167 42.232 121.091C42.5124 121.014 42.808 121.012 43.0892 121.086C43.3704 121.16 43.6274 121.306 43.8346 121.511L47.7498 125.405L51.665 129.294C51.8726 129.499 52.0225 129.755 52.0995 130.036C52.1766 130.317 52.178 130.614 52.1037 130.896C52.0294 131.178 51.8819 131.435 51.6763 131.642C51.4707 131.848 51.2143 131.996 50.9331 132.071L45.6121 133.527Z" fill="#53575B"/>
<path d="M50.34 150.922C51.8662 150.505 53.4816 150.551 54.9819 151.053C56.4823 151.556 57.8002 152.494 58.7689 153.747C59.7377 155.001 60.3138 156.514 60.4245 158.095C60.5352 159.677 60.1754 161.256 59.3907 162.633C58.606 164.009 57.4316 165.122 56.0159 165.83C54.6003 166.537 53.0071 166.809 51.4377 166.609C49.8683 166.409 48.3932 165.747 47.199 164.708C46.0048 163.668 45.145 162.296 44.7285 160.767C44.4519 159.751 44.3777 158.691 44.51 157.646C44.6423 156.602 44.9786 155.594 45.4997 154.68C46.0208 153.766 46.7164 152.963 47.5469 152.319C48.3774 151.674 49.3265 151.199 50.34 150.922Z" fill="#3BC4F4"/>
<path d="M51.5484 155.364C52.1992 155.186 52.8881 155.205 53.5278 155.42C54.1676 155.634 54.7295 156.034 55.1424 156.569C55.5554 157.104 55.8008 157.749 55.8476 158.423C55.8944 159.098 55.7406 159.771 55.4055 160.358C55.0705 160.945 54.5693 161.419 53.9653 161.72C53.3614 162.021 52.6819 162.136 52.0127 162.05C51.3436 161.965 50.7149 161.682 50.2062 161.238C49.6976 160.793 49.3318 160.208 49.1551 159.556C48.9185 158.682 49.0377 157.749 49.4864 156.964C49.9352 156.178 50.6768 155.602 51.5484 155.364Z" fill="#6E4BE8"/>
<g style="mix-blend-mode:multiply">
<path d="M52.3906 104.703C66.586 104.703 80.1999 110.355 90.2375 120.415C100.275 130.474 105.914 144.118 105.914 158.345C105.914 172.571 100.275 186.215 90.2375 196.275C80.1999 206.335 66.586 211.986 52.3906 211.986V104.703Z" fill="#E6E6E6"/>
</g>
<path d="M114.935 222.733C114.937 223.362 115.187 223.965 115.632 224.409C116.076 224.853 116.678 225.102 117.305 225.102H131.067C131.693 225.101 132.294 224.851 132.737 224.407C133.18 223.963 133.43 223.361 133.431 222.733V215.24C133.464 214.556 133.693 213.896 134.091 213.338C134.489 212.781 135.038 212.35 135.673 212.097L139.199 210.653C139.828 210.38 140.521 210.294 141.197 210.406C141.873 210.517 142.502 210.821 143.01 211.282L148.366 216.614C148.815 217.056 149.418 217.304 150.048 217.304C150.677 217.304 151.281 217.056 151.729 216.614L161.448 206.945C161.671 206.727 161.848 206.468 161.969 206.181C162.09 205.894 162.153 205.585 162.153 205.274C162.153 204.962 162.09 204.654 161.969 204.367C161.848 204.08 161.671 203.82 161.448 203.603L156.086 198.282C155.624 197.778 155.319 197.15 155.208 196.475C155.096 195.8 155.183 195.106 155.459 194.48L156.905 190.987C157.159 190.351 157.59 189.801 158.147 189.403C158.705 189.006 159.364 188.777 160.048 188.746H167.646C168.272 188.744 168.873 188.494 169.316 188.05C169.759 187.606 170.008 187.004 170.01 186.376V172.724C170.008 172.097 169.759 171.495 169.316 171.051C168.873 170.607 168.272 170.357 167.646 170.355H160.048C159.364 170.323 158.705 170.095 158.147 169.698C157.59 169.3 157.159 168.75 156.905 168.114L155.459 164.621C155.181 163.996 155.092 163.303 155.204 162.628C155.315 161.954 155.622 161.327 156.086 160.825L161.448 155.498C161.671 155.281 161.848 155.021 161.969 154.734C162.09 154.447 162.153 154.139 162.153 153.827C162.153 153.516 162.09 153.207 161.969 152.92C161.848 152.633 161.671 152.373 161.448 152.156L151.729 142.486C151.281 142.045 150.677 141.797 150.048 141.797C149.418 141.797 148.815 142.045 148.366 142.486L143.01 147.819C142.501 148.278 141.872 148.582 141.197 148.693C140.521 148.804 139.828 148.719 139.199 148.448L135.673 146.998C135.038 146.747 134.488 146.317 134.091 145.761C133.693 145.204 133.464 144.544 133.431 143.86V136.35C133.43 135.722 133.18 135.119 132.737 134.675C132.294 134.23 131.694 133.978 131.067 133.975H117.305C116.677 133.977 116.075 134.227 115.631 134.672C115.187 135.118 114.937 135.721 114.935 136.35V143.866C114.904 144.55 114.676 145.209 114.279 145.766C113.882 146.323 113.334 146.753 112.699 147.004L109.173 148.454C108.544 148.725 107.851 148.81 107.176 148.699C106.5 148.587 105.871 148.284 105.362 147.825L100.001 142.492C99.5529 142.051 98.95 141.803 98.3218 141.803C97.6937 141.803 97.0907 142.051 96.643 142.492L86.9189 152.162C86.6958 152.379 86.5184 152.639 86.3973 152.926C86.2762 153.213 86.2138 153.521 86.2138 153.833C86.2138 154.145 86.2762 154.453 86.3973 154.74C86.5184 155.027 86.6958 155.287 86.9189 155.504L92.2805 160.831C92.7413 161.335 93.0463 161.963 93.1587 162.638C93.271 163.312 93.1859 164.005 92.9137 164.632L91.4673 168.125C91.2093 168.753 90.7784 169.294 90.2251 169.686C89.6717 170.078 89.0187 170.304 88.3421 170.338H80.7265C80.1 170.339 79.4995 170.589 79.0565 171.033C78.6134 171.477 78.3638 172.079 78.3623 172.707V186.365C78.3638 186.993 78.6134 187.594 79.0565 188.039C79.4995 188.483 80.1 188.733 80.7265 188.734H88.3421C89.025 188.767 89.6841 188.996 90.2411 189.393C90.7982 189.791 91.2298 190.34 91.4847 190.976L92.9311 194.469C93.2036 195.095 93.2888 195.787 93.1764 196.461C93.064 197.134 92.7589 197.761 92.298 198.264L86.9363 203.591C86.7166 203.811 86.5422 204.072 86.4233 204.359C86.3043 204.646 86.2431 204.954 86.2431 205.265C86.2431 205.576 86.3043 205.884 86.4233 206.171C86.5422 206.458 86.7166 206.719 86.9363 206.939L96.6605 216.603C97.1082 217.044 97.7111 217.292 98.3393 217.292C98.9674 217.292 99.5704 217.044 100.018 216.603L105.38 211.27C105.887 210.811 106.516 210.508 107.19 210.397C107.865 210.286 108.557 210.37 109.185 210.641L112.716 212.085C113.351 212.338 113.9 212.77 114.296 213.327C114.693 213.885 114.921 214.545 114.953 215.229V222.733H114.935Z" fill="#39487F"/>
<g style="mix-blend-mode:multiply">
<g style="mix-blend-mode:multiply">
<path d="M152.822 148.005C153.045 148.222 153.222 148.482 153.343 148.769C153.464 149.056 153.527 149.364 153.527 149.676C153.527 149.988 153.464 150.296 153.343 150.583C153.222 150.87 153.045 151.13 152.822 151.347L147.466 156.674C147.005 157.177 146.7 157.804 146.587 158.477C146.475 159.151 146.56 159.843 146.833 160.469L148.279 163.962C148.534 164.598 148.965 165.147 149.523 165.545C150.08 165.942 150.739 166.171 151.422 166.204H155.976L155.459 164.952C155.181 164.327 155.093 163.635 155.204 162.96C155.316 162.285 155.622 161.658 156.086 161.156L161.448 155.824C161.671 155.607 161.848 155.347 161.969 155.06C162.091 154.773 162.153 154.465 162.153 154.153C162.153 153.841 162.091 153.533 161.969 153.246C161.848 152.959 161.671 152.699 161.448 152.482L151.729 142.818C151.281 142.376 150.677 142.128 150.048 142.128C149.419 142.128 148.815 142.376 148.366 142.818L147.983 143.196L152.822 148.005Z" fill="#CCCCCC"/>
</g>
<g style="mix-blend-mode:multiply">
<path d="M104.073 207.94L100.541 206.496C99.9122 206.224 99.2191 206.139 98.5436 206.251C97.8682 206.362 97.2389 206.665 96.7302 207.125L91.752 212.079L96.6373 216.934C97.085 217.376 97.6879 217.623 98.3161 217.623C98.9442 217.623 99.5472 217.376 99.9948 216.934L105.356 211.602C105.63 211.341 105.949 211.134 106.298 210.99C106.249 210.324 106.014 209.685 105.621 209.146C105.228 208.606 104.691 208.188 104.073 207.94Z" fill="#CCCCCC"/>
</g>
<g style="mix-blend-mode:multiply">
<path d="M167.64 170.675H161.384V182.22C161.384 182.848 161.135 183.452 160.692 183.897C160.248 184.342 159.647 184.593 159.019 184.595H151.421C150.738 184.628 150.079 184.857 149.522 185.254C148.965 185.651 148.534 186.2 148.279 186.836L146.832 190.329C146.56 190.956 146.475 191.649 146.587 192.324C146.7 192.999 147.005 193.626 147.465 194.131L152.821 199.446C153.044 199.663 153.222 199.923 153.343 200.21C153.464 200.497 153.526 200.805 153.526 201.117C153.526 201.428 153.464 201.737 153.343 202.024C153.222 202.311 153.044 202.571 152.821 202.788L143.486 212.102L148.366 216.958C148.816 217.397 149.419 217.643 150.048 217.643C150.676 217.643 151.279 217.397 151.729 216.958L161.448 207.288C161.671 207.071 161.848 206.811 161.969 206.524C162.09 206.237 162.153 205.929 162.153 205.617C162.153 205.305 162.09 204.997 161.969 204.71C161.848 204.423 161.671 204.163 161.448 203.946L156.086 198.614C155.622 198.112 155.315 197.485 155.204 196.81C155.092 196.135 155.181 195.442 155.459 194.818L156.905 191.325C157.159 190.688 157.59 190.138 158.147 189.741C158.705 189.343 159.364 189.115 160.048 189.083H167.64C168.268 189.082 168.87 188.831 169.314 188.386C169.758 187.941 170.008 187.338 170.01 186.708V173.044C170.008 172.416 169.758 171.813 169.314 171.369C168.869 170.924 168.267 170.675 167.64 170.675Z" fill="#CCCCCC"/>
</g>
<g style="mix-blend-mode:multiply">
<path d="M134.384 207.125C133.877 206.665 133.249 206.361 132.574 206.249C131.9 206.136 131.207 206.22 130.579 206.49L127.047 207.94C126.412 208.193 125.864 208.624 125.467 209.182C125.071 209.739 124.843 210.4 124.811 211.084V218.6C124.812 218.912 124.751 219.222 124.632 219.511C124.513 219.8 124.339 220.063 124.119 220.285C123.899 220.507 123.637 220.683 123.349 220.803C123.061 220.923 122.753 220.986 122.441 220.986H114.936V223.094C114.937 223.722 115.187 224.324 115.63 224.768C116.073 225.212 116.673 225.462 117.3 225.463H131.067C131.694 225.462 132.294 225.212 132.737 224.768C133.18 224.324 133.43 223.722 133.431 223.094V215.561C133.464 214.876 133.693 214.216 134.091 213.658C134.489 213.101 135.038 212.67 135.673 212.417L138.526 211.252L134.384 207.125Z" fill="#CCCCCC"/>
</g>
</g>
<path d="M120.158 200.063C132.34 200.063 142.215 190.242 142.215 178.127C142.215 166.012 132.34 156.191 120.158 156.191C107.977 156.191 98.1016 166.012 98.1016 178.127C98.1016 190.242 107.977 200.063 120.158 200.063Z" fill="#DCE8FA"/>
<path d="M120.158 203.62C115.134 203.587 110.232 202.063 106.072 199.242C101.911 196.42 98.6765 192.427 96.777 187.766C94.8775 183.105 94.3977 177.985 95.3982 173.051C96.3986 168.117 98.8345 163.59 102.399 160.041C105.963 156.493 110.495 154.082 115.425 153.112C120.355 152.142 125.461 152.656 130.099 154.591C134.737 156.525 138.7 159.793 141.488 163.981C144.276 168.17 145.763 173.092 145.763 178.127C145.731 184.907 143.018 191.398 138.218 196.177C133.418 200.956 126.923 203.633 120.158 203.62ZM120.158 159.748C116.538 159.78 113.008 160.885 110.014 162.924C107.019 164.963 104.694 167.845 103.331 171.206C101.968 174.567 101.628 178.257 102.354 181.811C103.08 185.366 104.839 188.625 107.41 191.179C109.981 193.733 113.249 195.468 116.802 196.164C120.355 196.86 124.034 196.487 127.375 195.091C130.717 193.695 133.571 191.339 135.579 188.321C137.587 185.302 138.659 181.755 138.659 178.127C138.631 173.233 136.668 168.549 133.2 165.104C129.731 161.658 125.041 159.732 120.158 159.748Z" fill="#292E56"/>
<path d="M124.184 188.827C129.333 188.827 133.507 184.675 133.507 179.553C133.507 174.431 129.333 170.279 124.184 170.279C119.035 170.279 114.86 174.431 114.86 179.553C114.86 184.675 119.035 188.827 124.184 188.827Z" fill="#DCE8FA"/>
<path d="M120.157 190.958C117.634 190.94 115.172 190.173 113.083 188.754C110.994 187.336 109.37 185.329 108.417 182.987C107.464 180.645 107.224 178.073 107.728 175.595C108.231 173.117 109.456 170.843 111.247 169.061C113.038 167.279 115.315 166.069 117.791 165.582C120.268 165.095 122.832 165.354 125.162 166.327C127.492 167.299 129.482 168.94 130.883 171.044C132.283 173.149 133.03 175.621 133.03 178.15C133.01 181.557 131.644 184.817 129.232 187.217C126.82 189.618 123.557 190.963 120.157 190.958ZM120.157 172.41C119.032 172.423 117.935 172.769 117.006 173.404C116.076 174.04 115.355 174.937 114.933 175.983C114.511 177.029 114.407 178.176 114.634 179.281C114.862 180.386 115.41 181.398 116.21 182.192C117.011 182.985 118.027 183.523 119.132 183.738C120.237 183.954 121.38 183.837 122.419 183.402C123.457 182.968 124.345 182.235 124.969 181.296C125.593 180.358 125.926 179.255 125.926 178.127C125.913 176.603 125.3 175.147 124.219 174.075C123.138 173.004 121.678 172.405 120.157 172.41Z" fill="#292E56"/>
<path d="M159.542 148.296C163.826 152.145 167.875 156.249 171.665 160.586C171.801 160.706 171.888 160.872 171.909 161.052C171.909 161.32 171.648 161.5 171.41 161.634C169.342 162.571 166.942 161.71 164.851 160.813C160.053 158.756 155.332 156.522 150.689 154.112C150.279 153.938 149.914 153.673 149.62 153.338C149.339 152.883 149.204 152.353 149.231 151.818C149.194 149.913 149.702 148.036 150.695 146.41C153.689 145.959 156.746 146.599 159.31 148.215L159.542 148.296Z" fill="#6E4BE8"/>
<path d="M159.623 148.535C163.428 134.522 164.7 119.426 166.449 105.006C167.198 98.8059 167.756 92.5359 167.186 86.3183C166.899 83.1194 166.316 79.9543 165.444 76.8638C164.898 74.9426 164.166 72.94 162.597 71.7058C160.035 69.6856 156.353 70.4308 153.21 71.2866C142.754 74.1509 132.375 77.2422 122.074 80.5606C109.254 84.6882 96.0674 89.4154 86.4362 98.8816C84.6935 100.57 84.6006 105.419 84.6006 105.419C88.5274 109.732 93.4661 112.995 98.969 114.911C104.472 116.827 110.365 117.337 116.114 116.393C123.381 115.124 130.085 111.521 135.934 107.003C141.784 102.485 146.855 97.071 151.903 91.6743L151.764 92.0818C147.523 109.722 146.309 128.607 150.747 146.195L159.623 148.535Z" fill="#1EA8E7"/>
<g style="mix-blend-mode:multiply">
<g style="mix-blend-mode:multiply">
<path d="M162.464 71.7755C159.908 69.7553 156.219 70.5005 153.083 71.3621C142.626 74.2225 132.248 77.3119 121.947 80.6303C109.12 84.7579 95.9574 89.5084 86.332 98.9513C84.9785 100.279 84.6183 103.545 84.5254 104.889C93.5176 98.0373 104.607 94.0727 115.47 90.5796C125.775 87.2613 136.151 84.1699 146.6 81.3056C149.742 80.4498 153.425 79.7047 155.987 81.7248C157.555 82.959 158.311 84.9617 158.839 86.8828C159.709 89.9739 160.292 93.1388 160.582 96.3373C161.163 102.555 160.582 108.825 159.844 115.025C158.549 125.731 157.521 136.798 155.505 147.528L159.501 148.581C163.3 134.569 164.578 119.473 166.321 105.052C167.076 98.8523 167.634 92.5823 167.065 86.3647C166.775 83.1681 166.192 80.0051 165.322 76.916C164.77 75.0123 164.038 73.0097 162.464 71.7755Z" fill="#E6E6E6"/>
</g>
</g>
<g style="mix-blend-mode:multiply">
<g style="mix-blend-mode:multiply">
<path d="M92.1006 101.193C94.8831 104.342 96.8581 108.994 94.5752 112.982C94.5475 113.029 94.5396 113.085 94.5532 113.138C94.5668 113.191 94.6008 113.236 94.6478 113.264C94.6948 113.292 94.7509 113.3 94.8037 113.286C94.8566 113.273 94.9018 113.239 94.9296 113.191C97.3112 109.035 95.3013 104.191 92.3911 100.902C92.2168 100.704 91.9263 100.995 92.1006 101.193Z" fill="#CCCCCC"/>
</g>
</g>
<g style="mix-blend-mode:multiply">
<g style="mix-blend-mode:multiply">
<path d="M152.078 91.849C153.821 90.6846 154.663 88.6354 155.267 86.6793C155.282 86.6268 155.275 86.5706 155.248 86.5231C155.222 86.4756 155.177 86.4407 155.125 86.426C155.073 86.4114 155.017 86.4182 154.969 86.4449C154.922 86.4717 154.887 86.5162 154.872 86.5687C154.291 88.4142 153.542 90.3703 151.869 91.488C151.648 91.6394 151.869 91.9945 152.078 91.849Z" fill="#CCCCCC"/>
</g>
</g>
<g style="mix-blend-mode:multiply">
<g style="mix-blend-mode:multiply">
<path d="M152.09 91.587C152.608 89.9243 152.786 88.1739 152.613 86.4406C152.613 86.1786 152.177 86.1728 152.206 86.4406C152.374 88.1385 152.201 89.8529 151.695 91.4822C151.62 91.7326 152.015 91.8432 152.09 91.587Z" fill="#CCCCCC"/>
</g>
</g>
<g style="mix-blend-mode:multiply">
<g style="mix-blend-mode:multiply">
<path d="M151.973 91.4182C151.545 89.815 150.656 88.3734 149.417 87.2731C149.219 87.0984 148.929 87.3895 149.126 87.5642C150.314 88.6162 151.166 89.9949 151.578 91.5288C151.592 91.5813 151.627 91.6258 151.675 91.6525C151.722 91.6793 151.778 91.6861 151.831 91.6714C151.883 91.6567 151.927 91.6218 151.954 91.5743C151.981 91.5268 151.987 91.4707 151.973 91.4182Z" fill="#CCCCCC"/>
</g>
</g>
<path d="M96.3301 112.766C96.7411 112.964 97.1619 113.141 97.5906 113.296" stroke="#6FA7AA" stroke-width="0.94" stroke-linecap="round" stroke-linejoin="round"/>
<path d="M100.32 114.111C108.238 116.021 127.041 116.958 149.081 92.9495" stroke="#6FA7AA" stroke-width="0.94" stroke-linecap="round" stroke-linejoin="round" stroke-dasharray="4.91 4.91"/>
<path d="M150.039 91.8899L150.945 90.8652" stroke="#6FA7AA" stroke-width="0.94" stroke-linecap="round" stroke-linejoin="round"/>
<path d="M152.781 92.1982C152.781 92.1982 152.711 92.6814 152.589 93.5547" stroke="#6FA7AA" stroke-width="0.94" stroke-linecap="round" stroke-linejoin="round"/>
<path d="M152.241 96.1919C150.998 105.809 148.256 130.389 150.905 142.585" stroke="#6FA7AA" stroke-width="0.94" stroke-linecap="round" stroke-linejoin="round" stroke-dasharray="4.57 4.57"/>
<path d="M151.218 143.878C151.338 144.336 151.471 144.772 151.619 145.188" stroke="#6FA7AA" stroke-width="0.94" stroke-linecap="round" stroke-linejoin="round"/>
<g style="mix-blend-mode:multiply">
<g style="mix-blend-mode:multiply">
<path d="M162.354 151.021C161.604 151.314 160.936 151.785 160.408 152.393C159.88 153.002 159.507 153.729 159.321 154.514C159.263 154.776 159.658 154.881 159.716 154.625C159.882 153.908 160.218 153.242 160.697 152.685C161.175 152.127 161.782 151.694 162.464 151.423C162.708 151.33 162.603 150.934 162.354 151.027V151.021Z" fill="#CCCCCC"/>
</g>
</g>
<g style="mix-blend-mode:multiply">
<g style="mix-blend-mode:multiply">
<path d="M164.201 152.75C163.071 153.595 162.206 154.747 161.709 156.068C161.61 156.313 162.011 156.424 162.104 156.179C162.57 154.953 163.376 153.887 164.427 153.105C164.637 152.948 164.427 152.587 164.218 152.75H164.201Z" fill="#CCCCCC"/>
</g>
</g>
<g style="mix-blend-mode:multiply">
<g style="mix-blend-mode:multiply">
<path d="M165.885 154.98C165.252 156.034 164.642 157.105 164.05 158.182C163.922 158.415 164.276 158.624 164.404 158.391C164.997 157.309 165.609 156.241 166.24 155.189C166.268 155.142 166.275 155.086 166.262 155.033C166.248 154.98 166.214 154.935 166.167 154.907C166.12 154.879 166.064 154.871 166.011 154.885C165.958 154.899 165.913 154.933 165.885 154.98Z" fill="#CCCCCC"/>
</g>
</g>
<g style="mix-blend-mode:multiply">
<g style="mix-blend-mode:multiply">
<path d="M150.254 147.4C152.125 148.168 153.978 149.001 155.889 149.659C157.612 150.323 159.469 150.559 161.303 150.346C161.564 150.311 161.454 149.909 161.192 149.95C159.292 150.143 157.373 149.859 155.61 149.123C153.838 148.483 152.125 147.72 150.382 146.998C150.138 146.899 150.028 147.301 150.272 147.4H150.254Z" fill="#CCCCCC"/>
</g>
</g>
<g style="mix-blend-mode:multiply">
<g style="mix-blend-mode:multiply">
<path d="M149.731 149.682C150.499 150.257 151.128 150.997 151.571 151.849C152.015 152.7 152.261 153.641 152.293 154.601C152.301 154.65 152.326 154.694 152.364 154.726C152.402 154.758 152.45 154.776 152.499 154.776C152.549 154.776 152.596 154.758 152.634 154.726C152.672 154.694 152.697 154.65 152.705 154.601C152.671 153.57 152.405 152.56 151.926 151.646C151.447 150.733 150.768 149.94 149.94 149.327C149.725 149.169 149.522 149.53 149.731 149.682Z" fill="#CCCCCC"/>
</g>
</g>
<path d="M106.931 183.582C108.449 189.505 109.612 195.514 110.416 201.577C110.467 201.772 110.447 201.978 110.358 202.159C110.259 202.26 110.135 202.331 109.999 202.364C109.862 202.398 109.719 202.394 109.585 202.351C107.209 201.961 105.594 199.784 104.276 197.764C101.244 193.106 98.3855 188.354 95.7018 183.506C95.4449 183.109 95.2784 182.66 95.2139 182.191C95.2305 181.623 95.4211 181.074 95.7599 180.619C96.8491 178.917 98.3982 177.56 100.227 176.707C103.134 178.075 105.457 180.442 106.774 183.378L106.931 183.582Z" fill="#6E4BE8"/>
<path d="M106.861 183.844C118.439 173.708 128.418 161.139 138.415 149.432C142.72 144.396 146.885 139.191 150.033 133.364C151.65 130.368 152.984 127.229 154.018 123.985C154.663 121.959 155.18 119.764 154.529 117.744C153.455 114.455 149.766 112.941 146.49 111.853C135.608 108.228 124.633 104.841 113.565 101.694C99.8209 97.7814 85.4147 94.2185 71.3745 96.8849C68.8592 97.3623 65.9141 101.542 65.9141 101.542C66.8515 107.663 69.2979 113.453 73.0316 118.388C76.7653 123.322 81.6685 127.245 87.2968 129.801C94.465 132.962 102.499 133.731 110.306 133.189C118.113 132.648 125.781 130.86 133.402 129.062L133.036 129.341C118.944 142.411 106.797 158.374 100.396 176.497L106.861 183.844Z" fill="#3BC4F4"/>
<g style="mix-blend-mode:multiply">
<g style="mix-blend-mode:multiply">
<path d="M154.395 117.744C153.32 114.455 149.632 112.941 146.356 111.853C135.454 108.228 124.479 104.841 113.43 101.694C99.6807 97.7814 85.2745 94.2185 71.2401 96.8849C69.2592 97.2575 67.0286 99.9296 66.1631 101.065C78.1179 100.308 90.2237 103.394 101.859 106.683C112.9 109.827 123.875 113.211 134.784 116.836C138.06 117.925 141.755 119.444 142.824 122.733C143.486 124.748 142.957 126.948 142.312 128.968C141.277 132.213 139.943 135.355 138.328 138.353C135.179 144.175 131.014 149.385 126.71 154.415C119.292 163.101 111.879 172.265 103.817 180.56L106.721 183.844C118.298 173.708 128.278 161.139 138.275 149.432C142.58 144.396 146.745 139.191 149.893 133.364C151.509 130.368 152.844 127.229 153.878 123.985C154.529 121.959 155.057 119.764 154.395 117.744Z" fill="#E6E6E6"/>
</g>
</g>
<g style="mix-blend-mode:multiply">
<g style="mix-blend-mode:multiply">
<path d="M75.0229 102.282C75.6329 106.694 74.6221 111.975 70.2712 114.135C70.0214 114.263 70.2712 114.635 70.4919 114.513C75.0287 112.26 76.0801 106.764 75.4412 102.165C75.4005 101.886 74.9823 102.002 75.0229 102.282Z" fill="#CCCCCC"/>
</g>
</g>
<g style="mix-blend-mode:multiply">
<g style="mix-blend-mode:multiply">
<path d="M133.46 129.347C135.72 129.347 137.625 128.025 139.31 126.651C139.531 126.471 139.217 126.168 139.002 126.343C137.411 127.641 135.598 128.904 133.46 128.91C133.409 128.919 133.362 128.945 133.328 128.985C133.294 129.025 133.275 129.076 133.275 129.128C133.275 129.181 133.294 129.232 133.328 129.272C133.362 129.312 133.409 129.338 133.46 129.347Z" fill="#CCCCCC"/>
</g>
</g>
<g style="mix-blend-mode:multiply">
<g style="mix-blend-mode:multiply">
<path d="M133.652 129.114C135.089 127.953 136.275 126.511 137.138 124.876C137.271 124.631 136.894 124.41 136.76 124.654C135.917 126.256 134.757 127.669 133.35 128.805C133.135 128.986 133.443 129.288 133.658 129.114H133.652Z" fill="#CCCCCC"/>
</g>
</g>
<g style="mix-blend-mode:multiply">
<g style="mix-blend-mode:multiply">
<path d="M133.617 128.899C134.175 127.229 134.232 125.431 133.779 123.729C133.764 123.673 133.727 123.626 133.677 123.598C133.627 123.569 133.567 123.562 133.512 123.578C133.457 123.593 133.409 123.63 133.381 123.68C133.353 123.73 133.346 123.79 133.361 123.845C133.791 125.472 133.732 127.189 133.193 128.782C133.105 129.05 133.524 129.161 133.617 128.899Z" fill="#CCCCCC"/>
</g>
</g>
<path d="M71.9551 114.973C72.2022 115.389 72.4717 115.791 72.7625 116.178" stroke="#6FA7AA" stroke-linecap="round" stroke-linejoin="round"/>
<path d="M74.6963 118.524C80.5633 124.87 96.6367 136.793 130.154 128.567" stroke="#6FA7AA" stroke-linecap="round" stroke-linejoin="round" stroke-dasharray="5.21 5.21"/>
<path d="M131.624 128.182C132.089 128.066 132.559 127.938 133.03 127.81" stroke="#6FA7AA" stroke-linecap="round" stroke-linejoin="round"/>
<path d="M133.867 130.069L132.902 131.157" stroke="#6FA7AA" stroke-linecap="round" stroke-linejoin="round"/>
<path d="M131.044 133.276C124.299 141.037 107.459 161.122 102.649 173.446" stroke="#6FA7AA" stroke-linecap="round" stroke-linejoin="round" stroke-dasharray="4.85 4.85"/>
<path d="M102.167 174.773C102.011 175.257 101.871 175.722 101.761 176.171" stroke="#6FA7AA" stroke-linecap="round" stroke-linejoin="round"/>
<g style="mix-blend-mode:multiply">
<g style="mix-blend-mode:multiply">
<path d="M107.802 187.645C106.969 187.46 106.103 187.481 105.279 187.709C104.456 187.936 103.701 188.362 103.08 188.949C102.871 189.142 103.184 189.45 103.388 189.258C103.954 188.726 104.642 188.339 105.39 188.131C106.139 187.923 106.927 187.9 107.686 188.065C107.959 188.123 108.075 187.704 107.802 187.645Z" fill="#CCCCCC"/>
</g>
</g>
<g style="mix-blend-mode:multiply">
<g style="mix-blend-mode:multiply">
<path d="M108.418 190.26C106.942 190.34 105.52 190.839 104.317 191.697C104.09 191.855 104.317 192.233 104.537 192.07C105.675 191.252 107.02 190.776 108.418 190.696C108.697 190.696 108.702 190.242 108.418 190.26Z" fill="#CCCCCC"/>
</g>
</g>
<g style="mix-blend-mode:multiply">
<g style="mix-blend-mode:multiply">
<path d="M108.593 193.228C107.431 193.787 106.269 194.369 105.107 194.975C104.863 195.109 105.078 195.481 105.328 195.353C106.49 194.748 107.652 194.166 108.813 193.607C109.069 193.484 108.848 193.112 108.593 193.228Z" fill="#CCCCCC"/>
</g>
</g>
<g style="mix-blend-mode:multiply">
<g style="mix-blend-mode:multiply">
<path d="M99.2337 177.283C100.454 179.105 101.627 180.974 102.969 182.709C104.073 184.27 105.538 185.54 107.238 186.411C107.494 186.528 107.715 186.155 107.459 186.033C105.754 185.156 104.29 183.872 103.195 182.295C101.917 180.613 100.785 178.802 99.6112 177.056C99.4544 176.829 99.0768 177.056 99.2337 177.277V177.283Z" fill="#CCCCCC"/>
</g>
</g>
<g style="mix-blend-mode:multiply">
<g style="mix-blend-mode:multiply">
<path d="M97.4388 178.988C97.7873 179.955 97.9129 180.989 97.8063 182.011C97.6996 183.033 97.3635 184.018 96.8231 184.892C96.672 185.13 97.0496 185.352 97.2007 185.113C97.7705 184.189 98.1254 183.148 98.239 182.068C98.3526 180.987 98.2221 179.895 97.8571 178.872C97.7641 178.61 97.3459 178.726 97.4388 178.988Z" fill="#CCCCCC"/>
</g>
</g>
<path d="M102.644 72.5325C102.516 68.5097 102.191 64.5393 101.976 60.5339C101.761 56.5286 102.278 49.298 97.7468 47.3885C94.0407 45.8225 88.9579 48.0522 86.5994 51.0213C84.1074 54.1592 83.2941 58.3741 83.5497 62.3736C83.8053 66.3731 85.0252 70.2504 86.2393 74.0694L87.2849 77.3587C87.3417 77.6467 87.4905 77.9083 87.7089 78.1039C87.9134 78.2024 88.1386 78.2496 88.3653 78.2414C88.5919 78.2333 88.8132 78.1701 89.0101 78.0573L102.464 72.94L102.644 72.5325Z" fill="#6E4BE8"/>
<path d="M89.6719 75.2688C90.8604 78.1147 92.3112 80.8433 94.0054 83.4192C99.6633 91.9946 107.906 98.643 116.939 103.516C125.972 108.389 135.812 111.573 145.722 114.216H145.995C146.14 114.282 146.298 114.312 146.457 114.304C146.616 114.296 146.77 114.25 146.907 114.17L145.269 110.63C145.071 110.164 144.832 109.715 144.555 109.291C143.317 107.509 140.976 106.962 138.845 106.607C137.683 106.415 136.318 106.316 135.539 107.189L135.249 107.271C125.252 96.6869 113.012 88.292 103.881 76.9455C102.544 75.2863 101.255 73.5165 100.703 71.4556L89.6719 75.2688Z" fill="#D3A484"/>
<path d="M87.2959 77.8129C90.7113 73.8144 95.3817 71.0985 100.54 70.1107C101.783 69.872 103.41 69.9361 103.88 71.1063C103.989 71.4678 103.991 71.8528 103.889 72.2159C103.786 72.579 103.581 72.905 103.3 73.1555C102.73 73.6554 102.069 74.0391 101.354 74.2849L90.3165 78.9423C89.8194 79.1997 89.267 79.3316 88.7075 79.3265C88.3353 79.2732 87.9925 79.094 87.7358 78.8188C87.4791 78.5435 87.3239 78.1886 87.2959 77.8129Z" fill="#5843BF"/>
<g style="mix-blend-mode:multiply" opacity="0.2">
<path d="M104.531 86.5746C103.374 86.4849 102.212 86.6518 101.127 87.0633C100.041 87.4749 99.0599 88.121 98.252 88.9557C101.75 92.9398 105.749 96.4524 110.149 99.4057C111.031 98.2752 111.591 96.9262 111.769 95.5022C111.947 94.0783 111.737 92.6325 111.161 91.3187C110.585 90.0049 109.664 88.8721 108.497 88.0409C107.329 87.2096 105.959 86.711 104.531 86.5979V86.5746Z" fill="#6D432C"/>
</g>
<path d="M98.682 78.1504C99.1118 75.4336 99.4178 72.6955 99.5998 69.936C100.012 63.4389 100.419 55.1488 97.4621 49.0942C96.6372 47.4059 95.3883 45.8748 93.5643 45.2519L75.8819 39.1973C70.6538 39.8609 66.2681 43.7266 63.7993 48.3665C61.3305 53.0064 60.5463 58.3566 60.2384 63.6077C59.4899 76.6258 61.4686 89.6567 66.0473 101.862C74.8943 102.008 83.9331 102.13 92.3386 99.3706L93.0473 99.2134C93.9535 98.3052 94.0406 96.745 94.4182 95.5865C96.3045 89.8987 97.7303 84.0678 98.682 78.1504Z" fill="#6E4BE8"/>
<g style="mix-blend-mode:multiply">
<g style="mix-blend-mode:multiply">
<path d="M72.2864 49.3448C73.3212 47.3832 74.6804 45.6116 76.3062 44.1053C75.6145 43.3136 75.0198 42.4419 74.5345 41.5088C73.0684 41.9932 71.5487 42.2962 70.0093 42.4112C69.6394 42.4382 69.2685 42.3742 68.9289 42.2249C66.8264 43.8898 65.0933 45.9756 63.8402 48.3493C61.3714 53.0067 60.5814 58.3394 60.2735 63.5906C59.5251 76.6086 61.5038 89.6396 66.0825 101.845C68.7778 101.892 71.4906 101.932 74.215 101.892C69.8777 89.953 68.0157 77.2531 68.743 64.5686C69.0276 59.3349 69.8176 53.9847 72.2864 49.3448Z" fill="#E6E6E6"/>
</g>
</g>
<path d="M83.9333 21.6916C84.0304 21.6916 84.1235 21.6529 84.1921 21.5841C84.2608 21.5153 84.2993 21.4221 84.2993 21.3248C84.2993 21.2275 84.2608 21.1342 84.1921 21.0654C84.1235 20.9967 84.0304 20.958 83.9333 20.958C83.8363 20.958 83.7432 20.9967 83.6746 21.0654C83.6059 21.1342 83.5674 21.2275 83.5674 21.3248C83.5674 21.4221 83.6059 21.5153 83.6746 21.5841C83.7432 21.6529 83.8363 21.6916 83.9333 21.6916Z" fill="#1D262D"/>
<path d="M106.298 25.5979C106.425 27.3794 107.971 28.7416 108.424 30.4707C109.005 32.6073 107.761 34.8486 106.147 36.3623C104.573 37.7784 102.68 38.79 100.63 39.3103C98.5796 39.8305 96.434 39.8438 94.3777 39.3488C92.332 38.8169 90.4199 37.8621 88.7643 36.5457C87.1086 35.2293 85.746 33.5804 84.7639 31.7049C84.1292 30.4621 83.6026 29.1668 83.1897 27.8335C82.7634 26.5739 82.4428 25.2809 82.2312 23.9678C81.8367 21.3263 82.1022 18.6279 83.0038 16.1143C83.3856 14.8971 84.0437 13.7852 84.9265 12.8658C85.6046 12.2365 86.3922 11.7373 87.2501 11.3929C90.4407 10.1452 93.9726 10.0894 97.2008 11.2357C100.413 12.3778 103.337 14.2098 105.769 16.6034C106.693 17.4824 107.622 18.5129 107.767 19.782C107.976 21.6159 106.513 23.2751 106.408 25.0914L106.298 25.5979Z" fill="#E4B58C"/>
<g style="mix-blend-mode:multiply">
<path d="M94.325 25.7141C94.2669 26.5117 94.6619 27.1928 95.2021 27.2335C95.7424 27.2743 96.2361 26.6514 96.2942 25.8713C96.3523 25.0912 95.9573 24.3926 95.4113 24.346C94.8652 24.2994 94.3831 24.9165 94.325 25.7141Z" fill="#332214"/>
</g>
<g style="mix-blend-mode:multiply">
<path d="M101.999 26.7213C101.941 27.5189 102.33 28.2 102.876 28.2407C103.422 28.2815 103.91 27.6586 103.968 26.8785C104.026 26.0984 103.631 25.3765 103.085 25.3765C102.539 25.3765 102.051 25.9237 101.999 26.7213Z" fill="#332214"/>
</g>
<g style="mix-blend-mode:multiply" opacity="0.4">
<path d="M95.3134 29.8012C95.4993 30.919 94.5815 31.996 93.2628 32.1998C91.9442 32.4035 90.736 31.6758 90.5559 30.5581C90.3758 29.4403 91.2878 28.3633 92.6064 28.1537C93.9251 27.9441 95.1043 28.6835 95.3134 29.8012Z" fill="#6D432C"/>
</g>
<g style="mix-blend-mode:multiply" opacity="0.4">
<path d="M107.076 30.5173C107.256 31.6351 106.338 32.7121 105.025 32.9217C103.713 33.1313 102.493 32.3919 102.313 31.2741C102.133 30.1564 103.05 29.0793 104.363 28.8698C105.676 28.6602 106.89 29.3995 107.076 30.5173Z" fill="#6D432C"/>
</g>
<g style="mix-blend-mode:multiply" opacity="0.4">
<g style="mix-blend-mode:multiply" opacity="0.4">
<path d="M96.8176 34.8369C96.8996 35.1877 97.1038 35.4976 97.3934 35.711C97.683 35.9245 98.0391 36.0274 98.3976 36.0012C98.7263 35.9589 99.0411 35.8421 99.3179 35.6595C99.5947 35.4768 99.8263 35.2334 99.9951 34.9475C100.239 34.5982 100.762 34.9999 100.524 35.3492C100.261 35.7797 99.8835 36.1285 99.4343 36.3567C98.985 36.5849 98.4813 36.6836 97.9794 36.6416C97.5332 36.5764 97.1186 36.3729 96.7936 36.0597C96.4687 35.7465 96.2495 35.3393 96.167 34.8951C96.0799 34.4818 96.7479 34.3828 96.8176 34.802V34.8369Z" fill="#6D432C"/>
</g>
</g>
<g style="mix-blend-mode:multiply" opacity="0.4">
<g style="mix-blend-mode:multiply" opacity="0.4">
<path d="M99.008 32.2346C99.3641 32.2511 99.7183 32.1749 100.036 32.0133C100.652 31.6699 100.989 30.9421 101.024 29.8477C101.077 27.9656 100.582 26.1087 99.6005 24.5033C99.5774 24.4661 99.5472 24.4338 99.5115 24.4083C99.4759 24.3828 99.4356 24.3647 99.3929 24.355C99.3502 24.3452 99.306 24.3441 99.2629 24.3515C99.2198 24.359 99.1786 24.375 99.1416 24.3985C99.0662 24.4464 99.0128 24.5224 98.9931 24.6097C98.9735 24.697 98.9893 24.7886 99.0371 24.8643C99.9447 26.3553 100.401 28.0785 100.35 29.8244C100.35 30.4065 100.21 31.1401 99.7109 31.4195C99.3759 31.5548 99.0112 31.599 98.6537 31.5476C98.4162 31.5633 98.1799 31.5021 97.9798 31.373C97.949 31.3409 97.912 31.3154 97.871 31.298C97.8301 31.2806 97.7861 31.2716 97.7417 31.2716C97.6972 31.2716 97.6532 31.2806 97.6123 31.298C97.5714 31.3154 97.5344 31.3409 97.5035 31.373C97.4417 31.437 97.4072 31.5226 97.4072 31.6116C97.4072 31.7007 97.4417 31.7863 97.5035 31.8503C97.8148 32.1111 98.2139 32.2423 98.6188 32.2171L99.008 32.2346Z" fill="#6D432C"/>
</g>
</g>
<path d="M95.7486 21.8255C94.9824 21.7929 94.22 21.9509 93.5295 22.2854C92.9487 22.5532 92.635 21.6333 93.1984 21.3655C94.0509 20.9743 94.9873 20.8022 95.9228 20.8649C96.5502 20.8998 96.3701 21.8604 95.7486 21.8255Z" fill="#292E56"/>
<path d="M103.161 22.5126C102.501 22.1231 101.754 21.9068 100.988 21.8838C100.361 21.8489 100.5 20.8825 101.122 20.9174C102.059 20.9724 102.968 21.2627 103.765 21.7616C104.299 22.0876 103.689 22.8561 103.184 22.53L103.161 22.5126Z" fill="#292E56"/>
<path d="M118.252 106.083L144.625 113.512L169.586 122.908L143.132 118.175L118.252 106.083Z" fill="#1B1F3A"/>
<path d="M144.329 118.681L157.33 90.5449L181.745 95.8485L169.586 122.908L144.329 118.681Z" fill="#292E56"/>
<g style="mix-blend-mode:multiply">
<path d="M178.282 95.0977L167.861 118.291L146.188 114.664L144.329 118.681L169.586 122.908L181.745 95.8545L178.282 95.0977Z" fill="#CCCCCC"/>
</g>
<path d="M157.329 90.5447L155.302 90.1372L142.731 117.115L144.329 118.681L157.329 90.5447Z" fill="#373F6B"/>
<path d="M169.087 107.498C169.241 108.449 169.111 109.426 168.711 110.303C168.312 111.18 167.662 111.919 166.844 112.425C166.025 112.932 165.075 113.184 164.114 113.15C163.153 113.115 162.223 112.796 161.443 112.232C160.663 111.667 160.067 110.884 159.731 109.98C159.396 109.077 159.335 108.094 159.557 107.156C159.779 106.218 160.274 105.367 160.978 104.71C161.683 104.054 162.566 103.622 163.516 103.469C164.146 103.367 164.79 103.39 165.41 103.537C166.031 103.684 166.617 103.953 167.134 104.327C167.652 104.701 168.09 105.173 168.425 105.718C168.76 106.262 168.985 106.867 169.087 107.498Z" fill="#6E4BE8"/>
<path d="M166.753 110.08C167.738 108.703 167.422 106.786 166.047 105.799C164.672 104.813 162.76 105.13 161.776 106.507C160.791 107.885 161.107 109.802 162.482 110.788C163.857 111.775 165.769 111.458 166.753 110.08Z" fill="#6E4BE8"/>
<path d="M144.329 118.681L117.434 107.329L118.253 106.083L145.02 117.197L144.329 118.681Z" fill="#292E56"/>
<path d="M81.9528 23.3681C82.5984 23.9696 83.368 24.4217 84.2072 24.6923C85.0464 24.9629 85.9346 25.0455 86.8091 24.9341C87.6752 24.8168 88.5037 24.5051 89.2329 24.0222C89.962 23.5394 90.5731 22.8979 91.0206 22.1455C91.3835 21.4754 91.6756 20.7691 91.8919 20.0381C92.5193 18.1344 93.106 16.1317 92.7923 14.1523L93.0653 14.2978C95.1449 16.7197 97.2478 19.1648 99.7456 21.15C102.243 23.1352 105.212 24.6721 108.389 24.9923C109.632 25.1973 110.908 24.9561 111.991 24.3112C113.007 23.5893 113.536 22.0698 112.839 21.0277L113.06 21.214C114.861 21.7243 116.78 21.6197 118.515 20.9167C120.251 20.2137 121.703 18.9522 122.644 17.331C123.128 16.4118 123.489 15.4332 123.719 14.4201C124.242 12.62 124.294 10.7155 123.87 8.88946C123.359 7.09637 122.017 5.45465 120.211 5.00637C119.138 4.79173 118.029 4.8437 116.981 5.15774C114.907 5.67587 112.798 6.75289 111.881 8.67988L111.851 8.42955C112.367 7.96056 112.78 7.38947 113.063 6.75239C113.347 6.11531 113.496 5.42612 113.5 4.72843C113.505 4.03073 113.365 3.33972 113.089 2.69913C112.813 2.05853 112.407 1.48228 111.898 1.00685C111.486 0.609232 110.986 0.314109 110.44 0.14524C109.864 -0.00914782 109.263 -0.0408793 108.674 0.0520923C107.32 0.239501 106.024 0.723777 104.879 1.47043C103.733 2.21707 102.766 3.20772 102.046 4.37181L101.883 4.32523C100.141 2.46811 97.5905 1.52499 95.052 1.30376C91.3749 0.989389 87.39 2.2527 85.1768 5.23342L85.0374 5.3091C84.2764 3.89443 83.4631 2.39825 82.1329 1.5541C81.8773 1.38527 81.4939 1.26301 81.2964 1.5017C81.2454 1.58906 81.2152 1.68705 81.2081 1.78802C81.2011 1.889 81.2174 1.99024 81.2557 2.08387C81.6291 3.56581 82.2774 4.96408 83.1669 6.20565L83.1146 6.1649L80.8317 4.30195C80.6632 4.1564 80.4425 4.00504 80.2508 4.08654C80.1756 4.12978 80.111 4.18935 80.0617 4.26087C80.0125 4.3324 79.9798 4.41407 79.9662 4.49989C79.9111 4.84671 79.941 5.20176 80.0533 5.53442C80.1657 5.86708 80.357 6.16737 80.611 6.40941C81.124 6.89094 81.7128 7.28434 82.3536 7.57375L82.22 7.79498C80.4066 9.03639 79.1543 10.944 78.7347 13.1044C78.0144 16.318 79.2575 20.9462 81.9528 23.3681Z" fill="#292E56"/>
<path d="M79.6287 23.6999C79.7505 24.6273 80.2324 25.4691 80.9699 26.0425C81.7073 26.6158 82.6406 26.8744 83.5672 26.7622C84.0211 26.6765 84.4535 26.5013 84.8392 26.2468C85.225 25.9922 85.5564 25.6633 85.8142 25.2793C86.072 24.8952 86.2511 24.4636 86.341 24.0096C86.431 23.5556 86.43 23.0882 86.3381 22.6346C86.2959 22.1694 86.1589 21.7178 85.9354 21.3079C85.712 20.8979 85.4069 20.5383 85.0392 20.2514C84.6714 19.9644 84.2487 19.7562 83.7974 19.6397C83.3461 19.5231 82.8756 19.5007 82.4153 19.5738C81.9549 19.6469 81.5145 19.8139 81.1212 20.0646C80.7279 20.3153 80.3902 20.6442 80.1289 21.0311C79.8677 21.4179 79.6885 21.8544 79.6025 22.3135C79.5164 22.7726 79.5254 23.2445 79.6287 23.6999Z" fill="#E4B58C"/>
<g style="mix-blend-mode:multiply" opacity="0.5">
<path d="M84.9963 22.9664C84.4695 22.4321 83.8043 22.0559 83.0756 21.88C82.3469 21.7041 81.5838 21.7356 80.872 21.9709C80.6222 22.0524 80.7848 22.4133 81.0288 22.3318C81.5336 22.1733 82.0666 22.1257 82.5914 22.1921C82.5914 22.1921 82.5914 22.1921 82.5566 22.2445C82.208 22.9606 82.7134 23.9328 83.2014 24.4684C83.3756 24.6547 83.6893 24.4102 83.515 24.2239C83.1258 23.7989 82.6437 22.978 82.9342 22.3959C82.9439 22.3729 82.9489 22.3481 82.9489 22.3231C82.9489 22.2981 82.9439 22.2733 82.9342 22.2503C83.5932 22.4011 84.1969 22.7339 84.6768 23.2109C84.8569 23.3914 85.1764 23.1469 84.9963 22.9664Z" fill="#AF815B"/>
</g>
<g style="mix-blend-mode:multiply">
<g style="mix-blend-mode:multiply">
<path d="M86.1404 25.0737C86.7668 24.7302 87.2963 24.2335 87.6798 23.6299C88.1506 23.0383 88.5667 22.405 88.9229 21.7378C89.6283 20.4086 90.0814 18.9597 90.259 17.4647C90.2938 17.1853 89.8581 17.1853 89.8233 17.4647C89.6547 18.8428 89.2416 20.1795 88.6034 21.4118C88.2979 21.9972 87.9443 22.5561 87.5462 23.0827C87.3429 23.3563 87.1221 23.6183 86.8898 23.8744C86.6601 24.194 86.3625 24.4584 86.0184 24.6487C85.757 24.7477 85.8732 25.1668 86.1346 25.0737H86.1404Z" fill="#CCCCCC"/>
</g>
</g>
<g style="mix-blend-mode:multiply">
<g style="mix-blend-mode:multiply">
<path d="M86.1806 25.0156C86.9978 23.9823 87.5909 22.7894 87.922 21.5133C88.2531 20.2372 88.3148 18.9059 88.1033 17.6045C88.0626 17.3309 87.6386 17.4473 87.6851 17.7209C87.8807 18.9477 87.8207 20.2018 87.5088 21.4042C87.1969 22.6066 86.6398 23.7311 85.8727 24.707C85.7042 24.9224 86.0063 25.2368 86.1806 25.0156Z" fill="#CCCCCC"/>
</g>
</g>
<g style="mix-blend-mode:multiply">
<g style="mix-blend-mode:multiply">
<path d="M82.4867 7.84164C84.0784 7.45741 85.5713 8.35978 86.7447 9.34364C86.9596 9.52412 87.2675 9.21557 87.0525 9.03509C85.7513 7.94061 84.1481 6.9975 82.3705 7.42248C82.0975 7.48652 82.2137 7.91151 82.4867 7.84164Z" fill="#CCCCCC"/>
</g>
</g>
<g style="mix-blend-mode:multiply">
<g style="mix-blend-mode:multiply">
<path d="M82.3185 7.91132C83.2712 8.31884 83.8172 9.26196 84.2877 10.141C84.4155 10.3914 84.7931 10.1701 84.6595 9.91981C84.1657 8.98252 83.5558 7.96954 82.5392 7.53291C82.4878 7.50637 82.4283 7.50001 82.3725 7.51509C82.3166 7.53016 82.2684 7.56558 82.2372 7.61442C82.2096 7.6648 82.2027 7.72396 82.2178 7.77937C82.233 7.83479 82.2691 7.88211 82.3185 7.91132Z" fill="#CCCCCC"/>
</g>
</g>
<g style="mix-blend-mode:multiply">
<g style="mix-blend-mode:multiply">
<path d="M85.2812 5.64106C87.0239 5.46641 88.964 5.27429 90.393 6.44445C90.608 6.61911 90.9159 6.31056 90.7009 6.1359C89.1615 4.87841 87.1342 5.01231 85.2812 5.20443C85.0081 5.20443 85.0023 5.66434 85.2812 5.64106Z" fill="#CCCCCC"/>
</g>
</g>
<g style="mix-blend-mode:multiply">
<g style="mix-blend-mode:multiply">
<path d="M85.2228 5.58267C86.0593 6.09499 87.1339 6.24635 87.831 6.97989C88.0227 7.18365 88.3306 6.8751 88.1389 6.67134C87.407 5.90287 86.3149 5.73986 85.4377 5.20426C85.1996 5.0529 84.9847 5.43131 85.2228 5.58267Z" fill="#CCCCCC"/>
</g>
</g>
<g style="mix-blend-mode:multiply">
<g style="mix-blend-mode:multiply">
<path d="M111.875 8.17912C110.669 9.37935 109.685 10.7848 108.97 12.33C108.854 12.5803 109.232 12.8074 109.348 12.5512C110.047 11.034 111.011 9.65392 112.194 8.47603C112.397 8.27809 112.09 7.96954 111.886 8.16748L111.875 8.17912Z" fill="#CCCCCC"/>
</g>
</g>
<g style="mix-blend-mode:multiply">
<g style="mix-blend-mode:multiply">
<path d="M111.823 8.54009C111.706 8.86885 111.62 9.20804 111.567 9.55307C111.492 9.90688 111.399 10.2566 111.288 10.601C111.067 11.2879 110.789 11.9516 110.51 12.6211C110.405 12.8773 110.823 12.9937 110.934 12.7375C111.207 12.0681 111.515 11.4044 111.706 10.7116C111.82 10.3662 111.913 10.0143 111.985 9.65786C112.041 9.3134 112.126 8.97445 112.241 8.64488C112.345 8.3829 111.927 8.27229 111.823 8.52845V8.54009Z" fill="#CCCCCC"/>
</g>
</g>
<g style="mix-blend-mode:multiply">
<g style="mix-blend-mode:multiply">
<path d="M113.054 20.9229C111.137 19.8692 110.962 17.4299 110.869 15.5145C110.869 15.2351 110.422 15.2351 110.434 15.5145C110.538 17.6162 110.771 20.1719 112.833 21.3013C113.077 21.4352 113.298 21.0626 113.054 20.9229Z" fill="#CCCCCC"/>
</g>
</g>
<g style="mix-blend-mode:multiply">
<g style="mix-blend-mode:multiply">
<path d="M113.013 20.7193C112.659 19.7446 112.606 18.6855 112.862 17.6804C112.871 17.626 112.86 17.57 112.831 17.5233C112.802 17.4766 112.756 17.4426 112.703 17.428C112.65 17.4134 112.593 17.4193 112.544 17.4444C112.495 17.4696 112.457 17.5122 112.438 17.5639C112.163 18.6458 112.218 19.7852 112.594 20.8357C112.687 21.0977 113.106 20.9871 113.013 20.7193Z" fill="#CCCCCC"/>
</g>
</g>
<g style="mix-blend-mode:multiply">
<g style="mix-blend-mode:multiply">
<path d="M119.867 6.97393C120.758 7.31876 121.515 7.94199 122.026 8.7514C122.536 9.56081 122.773 10.5134 122.702 11.4683C122.661 12.4289 122.405 13.6573 121.447 14.1114C120.489 14.5655 119.414 14.1696 118.577 13.6282C118.339 13.471 118.124 13.8494 118.357 14.0007C119.298 14.5829 120.477 15.0079 121.563 14.5363C122.649 14.0648 122.986 12.9296 123.108 11.8642C123.265 10.7552 123.041 9.62598 122.473 8.66137C121.905 7.69676 121.027 6.954 119.983 6.55477C119.716 6.46162 119.6 6.88661 119.867 6.97393Z" fill="#CCCCCC"/>
</g>
</g>
<g style="mix-blend-mode:multiply">
<g style="mix-blend-mode:multiply">
<path d="M118.404 13.9483C119.275 14.9846 120.082 16.4691 119.35 17.7965C119.19 18.0844 118.972 18.3356 118.709 18.5341C118.446 18.7325 118.145 18.8738 117.824 18.9489C117.504 19.0239 117.171 19.0312 116.848 18.9701C116.525 18.909 116.218 18.7809 115.946 18.594C115.714 18.4368 115.493 18.8153 115.726 18.9724C116.042 19.1873 116.399 19.3351 116.775 19.4067C117.15 19.4783 117.537 19.4722 117.91 19.3888C118.283 19.3054 118.635 19.1464 118.945 18.9217C119.255 18.6969 119.515 18.4111 119.711 18.0817C120.605 16.5623 119.751 14.8507 118.729 13.6397C118.549 13.4302 118.241 13.7387 118.421 13.9483H118.404Z" fill="#CCCCCC"/>
</g>
</g>
<g style="mix-blend-mode:multiply">
<g style="mix-blend-mode:multiply">
<path d="M104.026 4.87252C104.553 4.17487 105.205 3.58243 105.949 3.12601C106.699 2.61707 107.568 2.31031 108.47 2.23528C108.883 2.2395 109.277 2.40277 109.573 2.69116C109.868 2.97955 110.041 3.37089 110.056 3.78386C110.06 4.2104 109.955 4.63082 109.752 5.0056C109.548 5.38038 109.253 5.6972 108.894 5.92625C108.668 6.08926 108.894 6.46768 109.115 6.30467C109.525 6.04126 109.865 5.6824 110.107 5.25868C110.349 4.83495 110.485 4.35893 110.503 3.87119C110.501 3.43481 110.365 3.00962 110.114 2.6534C109.862 2.29718 109.508 2.02721 109.098 1.88016C108.104 1.57743 106.908 2.09556 106.042 2.57294C105.107 3.08843 104.292 3.79916 103.655 4.65712C103.486 4.87834 103.864 5.09957 104.032 4.87835L104.026 4.87252Z" fill="#CCCCCC"/>
</g>
</g>
<g style="mix-blend-mode:multiply">
<g style="mix-blend-mode:multiply">
<path d="M108.918 6.36846C109.09 6.33432 109.268 6.36164 109.422 6.44566C109.576 6.52969 109.695 6.66511 109.76 6.82838C109.828 7.03104 109.842 7.24764 109.803 7.45757C109.763 7.66749 109.67 7.86375 109.533 8.02766C109.252 8.36232 108.898 8.62898 108.499 8.80777C108.076 9.01815 107.624 9.16525 107.158 9.2444C106.885 9.29097 107.001 9.71595 107.274 9.66356C107.854 9.56435 108.414 9.36752 108.929 9.08139C109.418 8.83715 109.823 8.45191 110.091 7.97526C110.223 7.7437 110.292 7.4819 110.292 7.21553C110.292 6.94915 110.223 6.68735 110.091 6.45579C109.961 6.25282 109.77 6.09559 109.546 6.00589C109.323 5.91618 109.077 5.89844 108.842 5.95512C108.787 5.97056 108.74 6.00745 108.711 6.05767C108.683 6.10789 108.676 6.16734 108.691 6.22292C108.707 6.27851 108.743 6.32568 108.794 6.35407C108.844 6.38245 108.903 6.38973 108.958 6.37429L108.918 6.36846Z" fill="#CCCCCC"/>
</g>
</g>
<g style="mix-blend-mode:multiply">
<g style="mix-blend-mode:multiply">
<path d="M101.703 4.494C102.144 5.18974 102.438 5.96846 102.568 6.78237C102.698 7.59628 102.661 8.4282 102.458 9.22706C102.448 9.28141 102.459 9.33744 102.489 9.38413C102.518 9.43082 102.564 9.4648 102.617 9.4794C102.67 9.49399 102.727 9.48813 102.776 9.46299C102.825 9.43784 102.863 9.39522 102.882 9.34349C103.098 8.48788 103.138 7.59737 103 6.72582C102.862 5.85426 102.549 5.01976 102.081 4.27278C101.93 4.03991 101.552 4.27278 101.703 4.494Z" fill="#CCCCCC"/>
</g>
</g>
<g style="mix-blend-mode:multiply">
<g style="mix-blend-mode:multiply">
<path d="M101.668 4.41829C101.633 5.58264 100.942 6.52576 100.257 7.37573C100.218 7.4177 100.196 7.4728 100.196 7.53001C100.196 7.58721 100.218 7.64231 100.257 7.68428C100.277 7.70488 100.301 7.72125 100.327 7.73242C100.353 7.7436 100.382 7.74936 100.411 7.74936C100.439 7.74936 100.468 7.7436 100.494 7.73242C100.521 7.72125 100.544 7.70488 100.564 7.68428C101.325 6.74116 102.069 5.67579 102.104 4.41829C102.104 4.13303 101.68 4.13303 101.668 4.41829Z" fill="#CCCCCC"/>
</g>
</g>
<path d="M82.8239 67.974C82.243 63.3632 81.453 58.8223 80.7792 54.2347C80.1053 49.6472 79.9253 41.2698 74.5346 39.5582C70.1314 38.161 64.5432 41.2698 62.1673 44.9375C59.6463 48.8264 59.1641 53.7574 59.8786 58.3274C60.5931 62.8975 62.4055 67.2288 64.2063 71.502C64.7233 72.7245 65.2345 73.9471 65.7515 75.1755C65.8542 75.5003 66.0577 75.7838 66.3323 75.9847C66.5767 76.0731 66.8386 76.1018 67.0962 76.0684C67.3538 76.035 67.5998 75.9404 67.8136 75.7926L82.6671 68.4572L82.8239 67.974Z" fill="#6E4BE8"/>
<path d="M78.6585 38.4578L76.695 38.9759C76.4937 39.0116 76.3054 39.1 76.149 39.2321C76.0378 39.3686 75.962 39.5306 75.9283 39.7036C75.6651 40.87 75.6889 42.0831 75.9976 43.2382C76.3062 44.3934 76.8905 45.456 77.7 46.3346C78.8716 47.602 80.2862 48.6198 81.8592 49.327C83.4321 50.0342 85.1312 50.4163 86.8549 50.4505C89.4515 50.5087 95.1501 49.9091 94.0289 45.9794C93.9268 45.6564 93.7507 45.3618 93.5147 45.1192C93.2787 44.8766 92.9893 44.6927 92.6696 44.5822L78.6585 38.4578Z" fill="#5843BF"/>
<path d="M83.2594 28.3167L79.0886 37.1774C78.8599 37.592 78.712 38.0464 78.6529 38.5164C78.6436 39.01 78.7511 39.4988 78.9666 39.9427C79.5197 41.1903 80.3198 42.3123 81.3183 43.241C82.3168 44.1696 83.4929 44.8855 84.7755 45.3453C87.3604 46.254 90.1852 46.2002 92.7338 45.1939C92.5541 43.2015 92.7976 41.1936 93.4483 39.3023C93.62 38.8873 93.7333 38.4504 93.7852 38.0041C93.7849 37.5227 93.6839 37.0468 93.4889 36.6069C92.6873 34.546 91.2118 32.8286 89.7712 31.1519C89.0386 30.1999 88.1485 29.3807 87.1397 28.7301C86.0709 28.1421 83.2594 28.3167 83.2594 28.3167Z" fill="#E4B58C"/>
<path d="M68.0977 72.5789C69.7298 75.6472 71.6455 78.5552 73.8195 81.2649C81.0632 90.3061 91.0197 96.9137 101.673 101.437C112.327 105.961 123.718 108.505 135.127 110.432H135.435C135.605 110.487 135.786 110.503 135.964 110.476C136.141 110.45 136.31 110.383 136.457 110.28L134.261 106.456C133.992 105.95 133.677 105.471 133.32 105.023C131.746 103.16 129.063 102.782 126.629 102.613C125.31 102.52 123.759 102.549 122.981 103.615L122.661 103.743C110.323 92.9084 95.6959 84.758 84.2756 72.9748C82.6084 71.2283 80.9703 69.4003 80.1338 67.1531L68.0977 72.5789Z" fill="#E4B58C"/>
<path d="M65.6875 75.6881C69.1019 70.8428 74.056 67.3022 79.7393 65.6456C81.1102 65.2497 82.9459 65.1508 83.5965 66.4141C83.7589 66.807 83.8059 67.2383 83.7318 67.6571C83.6577 68.0759 83.4656 68.4647 83.1782 68.7777C82.5893 69.3968 81.8873 69.8968 81.1102 70.2506L69.1729 76.6079C68.64 76.9471 68.0309 77.1473 67.4011 77.1901C65.9838 77.1901 65.6875 75.6881 65.6875 75.6881Z" fill="#5843BF"/>
<g style="mix-blend-mode:multiply" opacity="0.2">
<path d="M85.9721 83.722C84.6633 83.7437 83.3752 84.0531 82.1988 84.6286C81.0223 85.204 79.9864 86.0313 79.1641 87.052C83.511 91.1571 88.3711 94.6795 93.6225 97.5311C94.5012 96.1681 94.9941 94.5915 95.0484 92.9696C95.1028 91.3477 94.7166 89.7415 93.9311 88.3224C93.1456 86.9034 91.9903 85.7248 90.5885 84.9125C89.1867 84.1002 87.5912 83.6847 85.9721 83.7103V83.722Z" fill="#6D432C"/>
</g>
<g style="mix-blend-mode:multiply">
<g style="mix-blend-mode:multiply">
<path d="M83.6955 64.7255C83.2669 59.9042 81.2921 55.3516 78.0666 51.7489C77.8807 51.5393 77.5728 51.8478 77.7587 52.0574C80.9089 55.5743 82.8387 60.0184 83.2598 64.7255C83.2598 65.0049 83.7187 65.0108 83.6955 64.7255Z" fill="#CCCCCC"/>
</g>
</g>
<g style="mix-blend-mode:multiply">
<g style="mix-blend-mode:multiply">
<path d="M83.724 64.2427C83.6426 61.4483 83.6736 58.65 83.8169 55.8478C83.8169 55.5683 83.3929 55.5683 83.3813 55.8478C83.238 58.65 83.207 61.4483 83.2883 64.2427C83.2968 64.2945 83.3233 64.3416 83.3632 64.3755C83.4031 64.4095 83.4538 64.4281 83.5061 64.4281C83.5585 64.4281 83.6091 64.4095 83.649 64.3755C83.6889 64.3416 83.7155 64.2945 83.724 64.2427Z" fill="#CCCCCC"/>
</g>
</g>
<g style="mix-blend-mode:multiply">
<g style="mix-blend-mode:multiply">
<path d="M78.4667 39.0868C77.5091 39.1944 76.5889 39.5211 75.7772 40.0416C75.5448 40.193 75.7772 40.5714 75.9979 40.42C76.7418 39.9362 77.5863 39.6295 78.4667 39.5234C78.5238 39.5205 78.5777 39.4961 78.6175 39.4551C78.6574 39.4141 78.6803 39.3595 78.6817 39.3022C78.6817 39.1974 78.5829 39.0694 78.4667 39.0868Z" fill="#CCCCCC"/>
</g>
</g>
<g style="mix-blend-mode:multiply">
<g style="mix-blend-mode:multiply">
<path d="M76.196 43.2957C77.1761 42.4199 78.2826 41.6976 79.4781 41.1533C79.7337 41.0369 79.5129 40.6585 79.2573 40.7749C78.0292 41.3375 76.8932 42.0834 75.8881 42.9872C75.679 43.1735 75.9869 43.482 76.196 43.2957Z" fill="#CCCCCC"/>
</g>
</g>
<g style="mix-blend-mode:multiply">
<g style="mix-blend-mode:multiply">
<path d="M78.6469 47.342C79.543 46.0791 80.5627 44.9089 81.6908 43.849C81.8941 43.6569 81.5862 43.3483 81.3771 43.5404C80.2276 44.6193 79.1867 45.8088 78.2693 47.0917C78.1067 47.3245 78.4842 47.5399 78.6469 47.3129V47.342Z" fill="#CCCCCC"/>
</g>
</g>
<g style="mix-blend-mode:multiply">
<g style="mix-blend-mode:multiply">
<path d="M84.3165 45.421L83.2303 49.863C83.1664 50.1366 83.5846 50.2531 83.6485 49.9794L84.7348 45.5375C84.7502 45.4819 84.7429 45.4224 84.7146 45.3722C84.6863 45.322 84.6392 45.2851 84.5837 45.2697C84.5283 45.2542 84.469 45.2615 84.4189 45.2899C84.3687 45.3183 84.3319 45.3654 84.3165 45.421Z" fill="#CCCCCC"/>
</g>
</g>
<g style="mix-blend-mode:multiply">
<g style="mix-blend-mode:multiply">
<path d="M87.4586 46.067C87.6408 47.5199 87.6017 48.9922 87.3424 50.4333C87.2901 50.7069 87.7084 50.8234 87.7607 50.5497C88.0344 49.0712 88.0795 47.5593 87.8943 46.067C87.8943 45.7934 87.4237 45.7876 87.4586 46.067Z" fill="#CCCCCC"/>
</g>
</g>
<g style="mix-blend-mode:multiply">
<g style="mix-blend-mode:multiply">
<path d="M90.8513 46.0032C91.1831 46.5346 91.4055 47.1272 91.5052 47.7461C91.605 48.365 91.5802 48.9977 91.4322 49.6068C91.4225 49.6612 91.4334 49.7172 91.4628 49.7639C91.4922 49.8106 91.538 49.8445 91.5911 49.8591C91.6443 49.8737 91.7009 49.8679 91.75 49.8427C91.799 49.8176 91.8369 49.775 91.8562 49.7232C92.0147 49.0559 92.0388 48.3636 91.9271 47.6869C91.8154 47.0101 91.5701 46.3625 91.2056 45.7819C91.0604 45.5432 90.6828 45.7819 90.8338 46.0032H90.8513Z" fill="#CCCCCC"/>
</g>
</g>
<g style="mix-blend-mode:multiply">
<g style="mix-blend-mode:multiply">
<path d="M92.5995 45.4907C92.8913 45.8316 93.1116 46.2279 93.2473 46.656C93.383 47.0841 93.4314 47.5352 93.3896 47.9824C93.3605 48.2618 93.7962 48.2618 93.8252 47.9824C93.8681 47.4768 93.8089 46.9678 93.6512 46.4857C93.4935 46.0036 93.2405 45.5583 92.9074 45.1763C92.7215 44.9667 92.4137 45.2753 92.5995 45.4907Z" fill="#CCCCCC"/>
</g>
</g>
<g style="mix-blend-mode:multiply">
<g style="mix-blend-mode:multiply">
<path d="M83.9161 64.6675C83.9783 63.7435 84.3073 62.8576 84.863 62.1176C85.409 61.2735 85.9899 60.441 86.5592 59.6085C86.716 59.3756 86.3385 59.1544 86.1816 59.3873C85.6007 60.2722 84.9617 61.1338 84.3925 62.0536C83.8444 62.8191 83.5278 63.7266 83.4805 64.6675C83.4889 64.7193 83.5155 64.7664 83.5554 64.8004C83.5953 64.8344 83.6459 64.853 83.6983 64.853C83.7507 64.853 83.8013 64.8344 83.8412 64.8004C83.8811 64.7664 83.9077 64.7193 83.9161 64.6675Z" fill="#CCCCCC"/>
</g>
</g>
<g style="mix-blend-mode:multiply">
<g style="mix-blend-mode:multiply">
<path d="M83.2305 64.417L83.335 65.6629C83.3299 65.6945 83.3316 65.7269 83.3402 65.7578C83.3487 65.7888 83.3639 65.8174 83.3846 65.8419C83.4054 65.8663 83.4311 65.886 83.4602 65.8994C83.4892 65.9129 83.5209 65.9199 83.5529 65.9199C83.5849 65.9199 83.6165 65.9129 83.6455 65.8994C83.6746 65.886 83.7004 65.8663 83.7211 65.8419C83.7418 65.8174 83.757 65.7888 83.7656 65.7578C83.7741 65.7269 83.7759 65.6945 83.7707 65.6629L83.6661 64.417C83.6647 64.3588 83.6409 64.3034 83.5999 64.2622C83.5588 64.2211 83.5035 64.1973 83.4454 64.1958C83.3879 64.1973 83.3332 64.2213 83.2931 64.2626C83.2529 64.3039 83.2304 64.3594 83.2305 64.417Z" fill="#CCCCCC"/>
</g>
</g>
<g style="mix-blend-mode:multiply">
<g style="mix-blend-mode:multiply">
<path d="M66.0419 75.3093C66.1856 75.6958 66.405 76.0494 66.6874 76.3494C66.9698 76.6494 67.3093 76.8896 67.6858 77.0558C67.7351 77.0763 67.7901 77.0782 67.8407 77.0611C67.8912 77.0441 67.9339 77.0092 67.9608 76.9631C67.9878 76.9169 67.9971 76.8626 67.9871 76.8101C67.9771 76.7576 67.9485 76.7104 67.9066 76.6774C67.5729 76.5479 67.2701 76.3495 67.0178 76.0953C66.7662 75.8451 66.5685 75.5459 66.4369 75.2162C66.4293 75.1887 66.4163 75.1629 66.3988 75.1404C66.3812 75.1179 66.3594 75.0991 66.3346 75.085C66.3098 75.071 66.2824 75.062 66.2541 75.0585C66.2259 75.055 66.1972 75.0572 66.1697 75.0648C66.1422 75.0725 66.1165 75.0854 66.0941 75.103C66.0716 75.1206 66.0529 75.1425 66.0388 75.1674C66.0248 75.1922 66.0158 75.2196 66.0123 75.248C66.0089 75.2763 66.011 75.3051 66.0187 75.3326L66.0419 75.3093Z" fill="#CCCCCC"/>
</g>
</g>
<g style="mix-blend-mode:multiply">
<g style="mix-blend-mode:multiply">
<path d="M67.5226 73.3942C67.9294 74.5381 68.6933 75.5201 69.701 76.1945C69.9333 76.3458 70.1483 75.9674 69.9159 75.8161C69.0037 75.2034 68.3115 74.3138 67.9409 73.2778C67.8479 73.0158 67.4239 73.1323 67.5226 73.3942Z" fill="#CCCCCC"/>
</g>
</g>
<g style="mix-blend-mode:multiply">
<g style="mix-blend-mode:multiply">
<path d="M69.4404 71.5311C70.3272 72.6606 71.1753 73.8249 71.9847 75.0242C72.1415 75.2512 72.5191 75.0242 72.3623 74.8029C71.5297 73.5804 70.6583 72.3908 69.7483 71.2342C69.574 71.013 69.2661 71.3216 69.4404 71.5428V71.5311Z" fill="#CCCCCC"/>
</g>
</g>
<g style="mix-blend-mode:multiply">
<g style="mix-blend-mode:multiply">
<path d="M72.1238 69.3599C73.0762 70.715 73.7858 72.226 74.2209 73.8251C74.2363 73.8807 74.2731 73.9279 74.3232 73.9562C74.3733 73.9846 74.4326 73.9919 74.4881 73.9765C74.5435 73.961 74.5906 73.9241 74.6189 73.8739C74.6473 73.8237 74.6545 73.7643 74.6391 73.7087C74.197 72.0713 73.4715 70.5245 72.4956 69.1386C72.3388 68.9116 71.9612 69.1386 72.1238 69.3599Z" fill="#CCCCCC"/>
</g>
</g>
<g style="mix-blend-mode:multiply">
<g style="mix-blend-mode:multiply">
<path d="M74.9463 67.6305C75.6115 69.2416 76.0457 70.939 76.2359 72.6721C76.265 72.9516 76.7006 72.9516 76.6716 72.6721C76.4812 70.8996 76.0411 69.163 75.3646 67.5141C75.26 67.258 74.8418 67.3744 74.9463 67.6305Z" fill="#CCCCCC"/>
</g>
</g>
<g style="mix-blend-mode:multiply">
<g style="mix-blend-mode:multiply">
<path d="M77.6828 66.3674C78.529 67.7864 78.8767 69.4486 78.6703 71.0888C78.6355 71.3682 79.0711 71.3682 79.106 71.0888C79.316 69.3705 78.948 67.6312 78.0604 66.1461C78.0275 66.1041 77.9804 66.0754 77.928 66.0654C77.8756 66.0554 77.8214 66.0648 77.7753 66.0918C77.7293 66.1187 77.6946 66.1615 77.6775 66.2122C77.6605 66.2629 77.6624 66.318 77.6828 66.3674Z" fill="#CCCCCC"/>
</g>
</g>
<g style="mix-blend-mode:multiply">
<g style="mix-blend-mode:multiply">
<path d="M79.7964 65.7619C80.4491 67.2522 80.6937 68.89 80.505 70.5066C80.505 70.786 80.9117 70.786 80.9407 70.5066C81.1343 68.8142 80.8694 67.1008 80.1739 65.5465C80.0636 65.2845 79.686 65.5116 79.7964 65.7619Z" fill="#CCCCCC"/>
</g>
</g>
<g style="mix-blend-mode:multiply">
<g style="mix-blend-mode:multiply">
<path d="M81.9178 65.7036C82.4901 66.795 82.7457 68.0253 82.6556 69.2548C82.6556 69.5343 83.068 69.5343 83.0912 69.2548C83.1826 67.9469 82.9048 66.6396 82.2896 65.4824C82.1618 65.232 81.7842 65.4824 81.9178 65.7036Z" fill="#CCCCCC"/>
</g>
</g>
<g style="mix-blend-mode:multiply">
<g style="mix-blend-mode:multiply">
<path d="M99.8733 70.0293C100.135 67.59 100.292 65.139 100.321 62.6881C100.321 60.4817 100.501 58.0657 99.7397 55.964C99.6467 55.702 99.2227 55.8127 99.3214 56.0805C100.094 58.2228 99.9023 60.7378 99.9023 62.9559C99.8675 65.3195 99.7203 67.6773 99.4609 70.0293C99.426 70.3087 99.8617 70.3029 99.8965 70.0293H99.8733Z" fill="#CCCCCC"/>
</g>
</g>
<g style="mix-blend-mode:multiply">
<g style="mix-blend-mode:multiply">
<path d="M99.7097 69.8488C100.964 67.8636 101.267 65.5 101.54 63.212C101.574 62.9326 101.139 62.9384 101.104 63.212C100.837 65.4185 100.523 67.7064 99.3612 69.6159C99.2102 69.8546 99.5877 70.0759 99.733 69.8372L99.7097 69.8488Z" fill="#CCCCCC"/>
</g>
</g>
<g style="mix-blend-mode:multiply">
<g style="mix-blend-mode:multiply">
<path d="M99.96 70.4076C99.9974 71.7706 100.305 73.1124 100.866 74.3547C100.982 74.6109 101.354 74.3897 101.244 74.1335C100.717 72.9605 100.428 71.6938 100.396 70.4076C100.387 70.3558 100.361 70.3088 100.321 70.2748C100.281 70.2408 100.23 70.2222 100.178 70.2222C100.125 70.2222 100.075 70.2408 100.035 70.2748C99.995 70.3088 99.9684 70.3558 99.96 70.4076Z" fill="#CCCCCC"/>
</g>
</g>
<g style="mix-blend-mode:multiply">
<g style="mix-blend-mode:multiply">
<path d="M100.906 70.2038L101.876 73.2719C101.964 73.5338 102.382 73.4232 102.3 73.1554L101.325 70.0874C101.243 69.8196 100.819 69.936 100.906 70.2038Z" fill="#CCCCCC"/>
</g>
</g>
<g style="mix-blend-mode:multiply">
<g style="mix-blend-mode:multiply">
<path d="M102.481 70.4075C102.576 71.1833 102.857 71.9245 103.301 72.5674C103.313 72.5966 103.331 72.6228 103.354 72.6444C103.377 72.666 103.404 72.6823 103.434 72.6924C103.464 72.7025 103.496 72.706 103.527 72.7028C103.558 72.6996 103.589 72.6897 103.616 72.6737C103.643 72.6578 103.667 72.6362 103.685 72.6104C103.703 72.5846 103.715 72.5552 103.721 72.5241C103.727 72.4931 103.726 72.4611 103.719 72.4304C103.711 72.3997 103.698 72.371 103.678 72.3461C103.274 71.7699 103.013 71.1053 102.917 70.4075C102.917 70.3498 102.895 70.2944 102.855 70.2531C102.814 70.2118 102.76 70.1878 102.702 70.1863C102.644 70.1878 102.589 70.2115 102.548 70.2527C102.507 70.2939 102.483 70.3493 102.481 70.4075Z" fill="#CCCCCC"/>
</g>
</g>
</svg>
