<svg width="254" height="256" viewBox="0 0 254 256" fill="none" xmlns="http://www.w3.org/2000/svg">
<path d="M140.072 254.417C129.674 249.503 125.522 237.827 124.056 226.946C123.808 225.139 123.289 223.26 123.881 221.526C124.472 219.792 126.295 218.371 128.045 218.858C129.499 219.262 130.35 220.725 131.322 221.869C132.617 223.421 134.327 224.576 136.252 225.199C137.501 225.603 138.992 225.723 140.024 224.91C141.436 223.784 141.231 221.598 140.941 219.81C140.349 216.462 139.76 213.118 139.173 209.778C138.764 208.002 138.644 206.172 138.817 204.358C139.088 202.551 140.054 200.745 141.683 199.998C143.312 199.251 145.6 199.854 146.257 201.552C146.454 202.283 146.599 203.028 146.692 203.78C146.867 204.521 147.356 205.285 148.098 205.37C148.84 205.454 149.486 204.828 149.939 204.213C151.489 202.088 152.352 199.541 153.137 197.017C153.921 194.494 154.658 191.923 156.009 189.659C157.361 187.395 159.425 185.444 161.978 184.841C164.53 184.239 167.548 185.383 168.616 187.804C169.684 190.225 168.652 193.043 167.409 195.361C165.533 198.805 163.169 201.961 160.391 204.731C159.836 205.176 159.436 205.786 159.25 206.472C159.057 207.736 160.397 208.73 161.664 208.922C163.076 209.145 164.512 208.76 165.942 208.688C167.373 208.615 169.002 208.977 169.756 210.211C170.8 211.921 169.587 214.107 168.29 215.631C165.688 218.671 162.579 221.238 159.099 223.218C157.856 223.929 156.534 224.585 155.623 225.693C154.712 226.801 154.344 228.529 155.201 229.686C156.058 230.842 157.79 230.968 159.129 230.474C160.469 229.981 161.585 229.023 162.829 228.301C165.14 226.952 168.362 226.584 170.312 228.451C170.92 229.104 171.368 229.888 171.62 230.743C171.873 231.598 171.923 232.5 171.766 233.377C171.445 235.125 170.774 236.79 169.793 238.273C166.669 243.633 162.175 248.07 156.77 251.129C151.339 254.086 146.143 255.519 140.09 254.399" fill="#F5F5F5"/>
<path d="M141.719 247.167C142.519 240.969 143.675 234.823 145.183 228.758L146.341 223.977C146.721 222.411 147.102 220.858 147.548 219.358C148.447 216.491 149.504 213.677 150.716 210.928C151.857 208.284 153.034 205.821 154.15 203.527C155.267 201.233 156.359 199.113 157.433 197.222C159.12 194.227 161.041 191.37 163.178 188.677C163.932 187.726 164.542 187.009 164.958 186.527L165.435 185.985C165.55 185.865 165.604 185.805 165.61 185.805C165.57 185.879 165.522 185.947 165.465 186.009C165.35 186.148 165.2 186.335 165.013 186.575C164.608 187.069 164.017 187.78 163.281 188.761C161.198 191.473 159.32 194.335 157.662 197.324C156.606 199.215 155.532 201.335 154.422 203.635C153.311 205.936 152.153 208.398 151.024 211.03C149.824 213.78 148.776 216.595 147.886 219.46C147.422 220.948 147.047 222.471 146.679 224.061L145.521 228.836C144.021 234.89 142.858 241.021 142.039 247.203" fill="#E0E0E0"/>
<path d="M147.663 219.328C147.53 219.097 147.426 218.85 147.355 218.593C147.18 218.112 146.945 217.389 146.667 216.54C146.106 214.794 145.418 212.325 144.67 209.669C143.921 207.013 143.203 204.557 142.618 202.822C142.328 201.955 142.087 201.257 141.918 200.775C141.816 200.53 141.737 200.276 141.683 200.016C141.832 200.236 141.952 200.475 142.039 200.727C142.25 201.196 142.527 201.883 142.841 202.744C143.487 204.46 144.247 206.881 144.996 209.573C145.744 212.264 146.384 214.631 146.891 216.468C147.126 217.299 147.325 217.991 147.494 218.551C147.58 218.803 147.637 219.063 147.663 219.328Z" fill="#E0E0E0"/>
<path d="M170.07 211.108C169.78 211.225 169.479 211.314 169.171 211.373C168.568 211.53 167.735 211.747 166.697 212.048C164.615 212.65 161.773 213.541 158.677 214.685C155.581 215.829 152.823 216.986 150.832 217.883C149.842 218.323 149.022 218.702 148.503 218.955C148.23 219.111 147.94 219.237 147.64 219.328C147.894 219.142 148.165 218.978 148.448 218.84C148.973 218.545 149.752 218.136 150.729 217.636C152.679 216.679 155.43 215.486 158.532 214.336C161.181 213.349 163.878 212.497 166.613 211.783C167.663 211.512 168.52 211.331 169.117 211.217C169.431 211.152 169.75 211.115 170.07 211.108Z" fill="#E0E0E0"/>
<path d="M141.93 246.691C141.852 246.616 141.783 246.531 141.725 246.438L141.188 245.667C140.723 244.999 140.078 244.011 139.299 242.783C137.73 240.326 135.678 236.864 133.464 233.016C131.249 229.168 129.239 225.687 127.713 223.2L125.902 220.261L125.419 219.461C125.358 219.368 125.307 219.269 125.269 219.166C125.269 219.166 125.347 219.25 125.474 219.424C125.6 219.599 125.8 219.882 126.011 220.189C126.475 220.858 127.121 221.845 127.906 223.074C129.469 225.531 131.527 228.993 133.741 232.847C135.956 236.701 137.965 240.17 139.486 242.657L141.297 245.595C141.49 245.92 141.653 246.197 141.785 246.402C141.846 246.491 141.895 246.589 141.93 246.691Z" fill="#E0E0E0"/>
<path d="M171.023 231.612C171.023 231.612 170.933 231.685 170.74 231.787L169.901 232.239L166.799 233.858C164.168 235.225 160.565 237.158 156.583 239.278C152.6 241.398 148.967 243.319 146.324 244.637C144.99 245.294 143.91 245.842 143.161 246.161L142.286 246.552C142.188 246.605 142.082 246.643 141.973 246.667C142.06 246.597 142.155 246.539 142.256 246.492L143.101 246.041L146.215 244.421C148.84 243.054 152.449 241.121 156.432 239.001C160.415 236.881 164.047 234.96 166.691 233.642C168.018 232.985 169.104 232.467 169.853 232.118L170.722 231.727C170.817 231.676 170.918 231.637 171.023 231.612Z" fill="#E0E0E0"/>
<path d="M64.6145 125.165C64.6145 125.165 57.4453 126.159 61.4704 141.828C65.4955 157.496 68.9111 165.577 68.9111 165.577C68.9111 165.577 69.4482 169.124 66.5817 169.016C63.7153 168.908 57.8677 166.607 55.8883 169.672C53.8305 172.87 55.6288 176.73 60.1126 180.77C64.5963 184.811 74.1371 194.018 74.9941 194.849C75.851 195.68 76.4786 197.409 74.5113 197.65C72.544 197.89 58.5919 196.252 58.2177 202.907C57.8436 209.561 72.2181 218.756 73.769 219.768C75.3199 220.779 75.5794 221.616 75.2173 222.513C74.8553 223.411 70.2327 222.423 66.2438 222.122C62.2549 221.821 57.578 222.164 57.6806 226.024C57.7832 229.884 65.3326 239.633 87.3651 246.878L97.793 249.569L105.499 241.994C121.008 224.784 122.704 212.578 120.876 209.181C119.047 205.785 114.841 207.796 111.498 210.042C108.154 212.288 104.654 215.462 103.906 214.83C103.158 214.197 102.965 213.396 103.797 211.728C104.63 210.06 112.53 194.952 108.885 189.364C105.24 183.775 93.9429 192.116 92.1144 192.886C90.2859 193.657 89.9842 191.826 90.304 190.7C90.6238 189.574 94.317 176.85 96.2059 171.093C98.0947 165.337 97.7387 161.121 94.3593 159.363C91.1006 157.665 87.1841 162.579 84.7461 164.096C82.3081 165.614 81.0167 162.29 81.0167 162.29C81.0167 162.29 79.9666 153.588 75.676 137.974C71.3853 122.359 64.4938 125.171 64.4938 125.171" fill="#EBEBEB"/>
<path d="M97.7866 252.183C94.6667 240.742 89.4648 220.267 84.9026 202.696C80.3404 185.124 76.2067 169.287 73.1471 157.785C71.6083 152.059 70.3651 147.416 69.5263 144.194C69.1039 142.598 68.772 141.358 68.5427 140.497C68.434 140.087 68.3496 139.762 68.2952 139.533C68.2409 139.305 68.2168 139.202 68.2168 139.202C68.2168 139.202 68.259 139.311 68.3254 139.527C68.3918 139.744 68.4884 140.069 68.6091 140.479C68.8504 141.334 69.2125 142.574 69.653 144.158C70.5582 147.356 71.8376 151.986 73.3945 157.725C76.5205 169.167 80.6965 185.064 85.2526 202.612C89.8088 220.159 94.9503 240.645 98.0039 252.123" fill="#E0E0E0"/>
<path d="M63.9326 173.249C64.1744 173.347 64.405 173.47 64.6206 173.616C65.049 173.869 65.6646 174.255 66.431 174.736C67.9336 175.706 69.9793 177.091 72.2061 178.669L77.8968 182.715L79.6227 183.92C79.8399 184.054 80.0422 184.212 80.2262 184.389C79.9822 184.299 79.751 184.178 79.5382 184.028C79.1037 183.775 78.4942 183.39 77.7278 182.896C76.2373 181.914 74.2096 180.487 71.9829 178.928L66.268 174.923L64.53 173.719C64.3146 173.584 64.1143 173.427 63.9326 173.249Z" fill="#E0E0E0"/>
<path d="M81.1071 183.896C81.0287 183.842 83.7141 179.512 87.0995 174.219C90.485 168.926 93.3032 164.68 93.3816 164.728C93.4601 164.777 90.7747 169.106 87.3832 174.399C83.9917 179.693 81.1796 183.944 81.1071 183.896Z" fill="#E0E0E0"/>
<path d="M86.8818 211.156C87.0596 210.95 87.2623 210.766 87.4853 210.608L89.1086 209.187C90.4845 207.983 92.3673 206.321 94.3829 204.406C96.3985 202.491 98.1727 200.703 99.44 199.39L100.943 197.842C101.125 197.642 101.327 197.461 101.546 197.3C101.406 197.528 101.242 197.74 101.057 197.933C100.731 198.324 100.243 198.878 99.6331 199.552C98.4261 200.907 96.658 202.732 94.6303 204.647C92.6027 206.562 90.6957 208.212 89.2836 209.368C88.5715 209.94 87.9922 210.404 87.5818 210.705C87.3685 210.884 87.1333 211.036 86.8818 211.156Z" fill="#E0E0E0"/>
<path d="M69.2305 204.942C69.4742 204.967 69.7137 205.023 69.9426 205.111L71.8555 205.713C73.4608 206.225 75.6755 206.953 78.1135 207.778C80.5515 208.603 82.7541 209.368 84.3412 209.934L86.218 210.626C86.4535 210.694 86.6789 210.794 86.8879 210.922C86.6443 210.892 86.4051 210.834 86.1758 210.747L84.2688 210.145C82.6576 209.633 80.4429 208.904 78.0049 208.085C75.5669 207.266 73.3642 206.496 71.7771 205.923L69.9003 205.237C69.6666 205.164 69.4419 205.065 69.2305 204.942Z" fill="#E0E0E0"/>
<path d="M71.2705 229.655C71.5803 229.705 71.8851 229.782 72.1817 229.884L74.6318 230.631C76.6957 231.275 79.538 232.19 82.676 233.214C85.814 234.238 88.6443 235.189 90.69 235.888L93.1039 236.737C93.4066 236.826 93.6997 236.945 93.9789 237.092C93.669 237.043 93.3641 236.966 93.0677 236.863L90.6176 236.129C88.5538 235.484 85.7054 234.569 82.5674 233.545C79.4294 232.522 76.6051 231.57 74.5594 230.872L72.1455 230.023C71.8419 229.931 71.5486 229.808 71.2705 229.655Z" fill="#E0E0E0"/>
<path d="M93.4844 236.761C93.6968 236.501 93.9332 236.261 94.1904 236.045L96.1879 234.172C97.8716 232.582 100.195 230.384 102.681 227.885C105.167 225.386 107.376 223.068 108.957 221.388L110.828 219.388C111.048 219.133 111.288 218.895 111.546 218.678C111.368 218.96 111.166 219.226 110.943 219.473C110.532 219.972 109.917 220.677 109.132 221.544C107.593 223.278 105.421 225.621 102.923 228.126C100.424 230.631 98.0949 232.799 96.3508 234.34C95.4818 235.111 94.7758 235.725 94.281 236.147C94.0339 236.375 93.7674 236.58 93.4844 236.761Z" fill="#E0E0E0"/>
<path d="M33.4757 31.7252L27.5859 29.8886C27.5859 29.8886 26.0471 34.8204 20.8754 33.309C19.8753 33.0361 18.9853 32.4593 18.3289 31.6585C17.6724 30.8578 17.2822 29.873 17.2123 28.8408C17.1421 27.9736 17.2783 27.1021 17.6097 26.2974C17.941 25.4926 18.4583 24.7774 19.1193 24.2101C20.634 22.8792 23.2892 22.0663 27.0368 23.9993L31.1826 10.7514L25.3591 8.94482L22.9452 16.7069C22.9452 16.7069 14.1226 16.2613 11.2984 25.2458C8.61293 33.8389 15.7097 38.2348 19.0167 39.2645C21.5452 40.0534 30.3437 42.1249 33.4757 31.7252Z" fill="#C6C6C6"/>
<path d="M26.1422 6.18306L32.0527 8.02344L33.7748 2.51645L27.8643 0.676073L26.1422 6.18306Z" fill="#C6C6C6"/>
<path d="M49.727 16.761L52.0805 16.1589C52.0084 15.8911 51.9909 15.6116 52.0291 15.337C52.0672 15.0623 52.1603 14.7981 52.3026 14.56C52.445 14.3219 52.6339 14.1147 52.858 13.9508C53.0821 13.7869 53.3369 13.6695 53.6072 13.6056C53.996 13.4885 54.4115 13.4939 54.797 13.621C55.1826 13.7482 55.5194 13.991 55.7616 14.3162C55.9668 14.5924 56.1038 14.9131 56.1615 15.2521C56.2192 15.5911 56.1959 15.9389 56.0935 16.2673C55.8702 17.032 55.1521 17.857 53.4866 18.0015L54.8926 23.3067L57.222 22.7046L56.4254 19.5853C57.3093 19.0526 57.9931 18.2447 58.3715 17.286C58.7499 16.3274 58.8019 15.2711 58.5195 14.2801C57.6143 10.8416 54.2952 10.8537 52.9857 11.2029C51.9719 11.4679 48.5864 12.6241 49.727 16.761Z" fill="#C6C6C6"/>
<path d="M57.86 23.5689L55.4834 24.2046L56.0781 26.4184L58.4546 25.7827L57.86 23.5689Z" fill="#C6C6C6"/>
<path d="M244.531 77.7077L246.824 78.5388C246.918 78.2775 247.064 78.0376 247.252 77.8333C247.44 77.6291 247.668 77.4646 247.921 77.3495C248.174 77.2344 248.448 77.1711 248.726 77.1634C249.004 77.1556 249.281 77.2035 249.54 77.3043C249.925 77.4298 250.263 77.6704 250.507 77.9935C250.751 78.3166 250.889 78.7066 250.904 79.1108C250.92 79.4564 250.852 79.8007 250.707 80.115C250.562 80.4293 250.344 80.7044 250.071 80.9174C249.468 81.4172 248.387 81.6942 246.939 80.8632L245.062 86.0238L247.331 86.8428L248.43 83.8319C249.459 83.8946 250.481 83.6187 251.339 83.0467C252.197 82.4746 252.843 81.6379 253.179 80.6644C254.386 77.3163 251.67 75.4496 250.379 74.9859C249.395 74.6306 245.955 73.6551 244.531 77.7077Z" fill="#C6C6C6"/>
<path d="M246.992 87.9122L244.688 87.0796L243.91 89.2254L246.213 90.058L246.992 87.9122Z" fill="#C6C6C6"/>
<path d="M1.16599 103.92L5.99371 102.053C5.99371 102.053 4.4247 97.9888 8.63086 96.2846C9.43586 95.9447 10.3267 95.8624 11.1806 96.049C12.0344 96.2356 12.8093 96.6819 13.3982 97.3264C13.8993 97.8622 14.2665 98.5086 14.47 99.2128C14.6734 99.9171 14.7073 100.659 14.569 101.379C14.2672 103.053 12.9396 104.992 9.44554 105.655L13.6698 116.578L18.4975 114.729L16.0293 108.334C16.0293 108.334 22.064 104.011 19.2277 96.6098C16.494 89.5282 9.49381 90.3291 6.77218 91.3769C4.67816 92.2079 -2.22549 95.4115 1.16599 103.92Z" fill="#C6C6C6"/>
<path d="M19.4179 116.961L14.5469 118.834L16.2998 123.374L21.1708 121.502L19.4179 116.961Z" fill="#C6C6C6"/>
<path d="M246.42 122.317L242.98 123.642C242.98 123.642 244.097 126.526 241.116 127.731C240.545 127.974 239.913 128.034 239.307 127.901C238.701 127.768 238.152 127.45 237.736 126.99C237.38 126.611 237.119 126.153 236.975 125.653C236.83 125.154 236.805 124.628 236.904 124.118C237.121 122.913 238.062 121.57 240.524 121.107L237.537 113.369L234.134 114.675L235.884 119.21C234.646 120.155 233.754 121.479 233.344 122.98C232.934 124.48 233.029 126.073 233.615 127.514C235.552 132.536 240.512 131.964 242.443 131.223C243.934 130.609 248.822 128.339 246.42 122.317Z" fill="#C6C6C6"/>
<path d="M233.493 113.054L236.945 111.727L235.704 108.513L232.252 109.84L233.493 113.054Z" fill="#C6C6C6"/>
<path d="M27.9482 239.814C28.5516 237.598 27.0671 235.376 25.4317 233.792C23.7963 232.208 21.8531 230.745 21.0023 228.619C19.6264 225.181 21.479 220.725 19.1315 217.852C17.7496 216.16 15.2754 215.594 14.0503 213.794C13.4866 212.795 13.1122 211.7 12.946 210.566C11.6466 204.839 8.82633 199.566 4.7811 195.301C4.51087 200.395 5.6176 205.467 7.9855 209.988C8.93898 211.794 10.1037 213.559 10.3994 215.57C10.9123 218.846 9.08381 222.194 9.88642 225.428C10.8097 229.101 14.9435 231.558 15.1426 235.34C15.3055 238.537 12.5115 241.361 12.7287 244.541C12.8923 245.901 13.3807 247.202 14.1529 248.335C16.6332 252.441 20.2721 255.278 25.7877 255.181L32.5466 255.416L27.9482 239.814Z" fill="#6E4BE8"/>
<g opacity="0.3">
<path opacity="0.3" d="M27.9482 239.814C28.5516 237.598 27.0671 235.376 25.4317 233.792C23.7963 232.208 21.8531 230.745 21.0023 228.619C19.6264 225.181 21.479 220.725 19.1315 217.852C17.7496 216.16 15.2754 215.594 14.0503 213.794C13.4866 212.795 13.1122 211.7 12.946 210.566C11.6466 204.839 8.82633 199.566 4.7811 195.301C4.51087 200.395 5.6176 205.467 7.9855 209.988C8.93898 211.794 10.1037 213.559 10.3994 215.57C10.9123 218.846 9.08381 222.194 9.88642 225.428C10.8097 229.101 14.9435 231.558 15.1426 235.34C15.3055 238.537 12.5115 241.361 12.7287 244.541C12.8923 245.901 13.3807 247.202 14.1529 248.335C16.6332 252.441 20.2721 255.278 25.7877 255.181L32.5466 255.416L27.9482 239.814Z" fill="black"/>
</g>
<path d="M33.9223 255.597C34.5416 255.692 35.1727 255.678 35.7871 255.555C36.536 255.447 37.272 255.264 37.9837 255.007C38.9572 254.664 39.8668 254.161 40.6751 253.52C41.1663 253.128 41.5503 252.618 41.7915 252.038C41.9916 251.386 42.0992 250.709 42.1114 250.027C42.1231 249.296 42.1755 248.566 42.2683 247.841C42.4002 247.073 42.6789 246.337 43.089 245.673C43.8916 244.276 45.2132 242.957 45.6417 241.061C46.0701 239.164 45.7684 237.177 45.4546 235.147C45.1408 233.118 44.8511 230.932 45.6115 228.812C46.3718 226.693 47.8202 224.802 48.5624 222.423C49.3047 220.045 48.9547 217.443 49.1116 214.896C49.1601 213.602 49.4593 212.33 49.9926 211.15C50.5358 209.946 51.2961 208.832 51.8875 207.573C53.0945 205.032 53.2996 202.154 53.6255 199.336C53.7905 197.915 53.9534 196.477 54.1143 195.024C54.212 193.565 54.4628 192.12 54.8626 190.712C55.3184 189.291 55.8585 187.897 56.4799 186.539C56.8016 185.836 57.064 185.107 57.2644 184.359C57.3781 183.591 57.4506 182.817 57.4817 182.041C57.5569 180.483 57.4963 178.922 57.3006 177.374C57.1196 175.821 56.8359 174.273 56.6972 172.713C56.6972 172.623 56.6972 172.533 56.6972 172.448V172.135L56.3652 172.298C54.9383 173.028 53.6993 174.077 52.7444 175.363C51.8086 176.619 51.0568 178.002 50.5116 179.47C49.3771 182.366 48.9728 185.407 48.4055 188.304C47.8383 191.2 47.1141 194.049 45.6296 196.457C44.8873 197.662 43.9942 198.752 43.2157 199.926C42.3759 201.065 41.8026 202.378 41.5381 203.768C41.1398 206.622 42.745 209.127 42.3829 211.65C42.2379 212.89 41.8262 214.083 41.176 215.149C40.5725 216.227 39.8423 217.226 39.1544 218.232C38.4571 219.213 37.8511 220.255 37.344 221.345C36.8494 222.397 36.547 223.529 36.4509 224.687C36.2879 226.964 36.6138 229.119 36.4509 231.155C36.2625 233.092 35.6967 234.974 34.7853 236.695C33.9646 238.357 33.0534 239.856 32.293 241.308C31.9128 242.036 31.5568 242.747 31.2671 243.457C30.993 244.145 30.7908 244.86 30.6636 245.589C30.4617 246.863 30.4455 248.159 30.6154 249.437C30.7942 251.219 31.4624 252.917 32.5464 254.345C32.7127 254.56 32.8964 254.761 33.0956 254.947C33.2289 255.086 33.3765 255.212 33.5361 255.32C33.7896 255.507 33.9223 255.591 33.9223 255.591C33.4424 255.208 33.0053 254.774 32.6189 254.297C31.5797 252.869 30.9535 251.184 30.8085 249.425C30.6547 248.163 30.6832 246.885 30.8929 245.631C31.0226 244.918 31.2248 244.22 31.4964 243.548C31.7861 242.855 32.1421 242.151 32.5283 241.428C33.2947 239.989 34.212 238.495 35.0508 236.821C35.988 235.072 36.5743 233.158 36.7767 231.185C36.9517 229.107 36.6379 226.94 36.7767 224.717C36.8544 223.59 37.1302 222.486 37.5914 221.454C38.0996 220.385 38.7056 219.365 39.4018 218.407C40.0837 217.407 40.8139 216.401 41.4415 215.305C42.1284 214.197 42.5689 212.955 42.733 211.662C43.0588 208.971 41.526 206.447 41.9002 203.798C42.1622 202.469 42.7166 201.214 43.5235 200.125C44.2959 198.974 45.1951 197.872 45.9374 196.644C47.4762 194.169 48.2185 191.26 48.7797 188.352C49.3409 185.443 49.7633 182.432 50.8677 179.596C51.403 178.166 52.1363 176.819 53.0462 175.592C53.9651 174.36 55.1567 173.356 56.5282 172.659L56.2204 172.485C56.2204 172.569 56.2204 172.665 56.2204 172.755C56.3894 174.333 56.673 175.881 56.854 177.416C57.0445 178.942 57.1031 180.481 57.0291 182.017C57.0015 182.769 56.933 183.519 56.8239 184.263C56.6325 184.985 56.3781 185.688 56.0635 186.365C55.4403 187.737 54.8983 189.144 54.4402 190.58C54.0331 192.011 53.7763 193.48 53.6738 194.964C53.5169 196.415 53.3539 197.854 53.197 199.275C52.8772 202.112 52.66 204.942 51.5073 207.393C50.9039 208.597 50.1797 209.741 49.6185 210.976C49.0682 212.2 48.7608 213.519 48.7133 214.86C48.5624 217.461 48.9004 220.002 48.2003 222.309C47.5003 224.615 46.0218 226.524 45.2796 228.692C44.5373 230.86 44.8089 233.166 45.1347 235.183C45.4606 237.201 45.7865 239.188 45.352 240.982C44.9175 242.777 43.6744 244.102 42.8657 245.541C42.4419 246.23 42.157 246.995 42.0269 247.793C41.9359 248.526 41.8876 249.264 41.8821 250.003C41.8815 250.665 41.786 251.325 41.5984 251.96C41.3716 252.513 41.0108 253.001 40.5484 253.381C39.7529 254.02 38.858 254.524 37.8992 254.875C37.1976 255.143 36.4723 255.345 35.7327 255.477C35.2802 255.556 34.8222 255.6 34.3629 255.609C34.0853 255.591 33.9223 255.597 33.9223 255.597Z" fill="#263238"/>
<path d="M55.2725 176.158C55.2471 176.224 55.227 176.293 55.2121 176.362C55.1699 176.525 55.1216 176.724 55.0613 176.965C54.9285 177.495 54.7716 178.295 54.5121 179.301C54.2526 180.307 53.6371 181.427 53.1121 182.824C52.5072 184.392 51.9815 185.99 51.537 187.611C51.0181 189.418 50.5655 191.405 50.0887 193.543C49.612 195.68 49.099 197.969 47.9223 200.13C47.3128 201.202 46.7093 202.334 46.2205 203.545C45.7339 204.789 45.4075 206.09 45.2489 207.417C44.9086 210.159 44.4211 212.88 43.7885 215.57C42.4368 221.098 41.1454 226.361 39.9686 231.155L36.7702 243.861C35.8771 247.474 35.1529 250.376 34.646 252.436C34.4107 253.423 34.2236 254.206 34.0908 254.772C34.0365 255.019 33.9883 255.224 33.9581 255.374C33.938 255.443 33.9259 255.514 33.9219 255.585C33.9219 255.585 33.9581 255.519 34.0003 255.386C34.0426 255.254 34.1029 255.025 34.1753 254.784C34.3262 254.218 34.5434 253.447 34.809 252.466C35.3521 250.412 36.1185 247.504 37.0659 243.927C38.0134 240.35 39.1177 236.008 40.3548 231.239C41.5919 226.47 42.8471 221.195 44.211 215.655C44.8465 212.954 45.332 210.219 45.6653 207.465C45.8209 206.172 46.1372 204.904 46.6067 203.689C47.0835 202.485 47.699 201.401 48.2482 200.299C49.4551 198.095 49.9318 195.735 50.4086 193.609C50.8853 191.483 51.3077 189.472 51.8026 187.677C52.2974 185.883 52.8164 184.287 53.3354 182.902C53.8543 181.517 54.4276 180.367 54.6751 179.337C54.9225 178.307 55.0432 177.531 55.1458 176.977C55.186 176.728 55.2222 176.527 55.2544 176.374C55.2725 176.236 55.2846 176.164 55.2725 176.158Z" fill="#263238"/>
<path d="M35.117 255.615C39.5283 253.002 40.7956 245.053 38.955 240.272C37.1144 235.49 33.8919 231.119 33.3971 226.018C33.0169 222.098 34.3023 218.075 33.3971 214.245C32.16 209.073 27.1029 205.068 27.1633 199.751C27.1633 196.77 28.8952 193.964 28.7625 190.983C28.6056 187.352 25.7693 184.432 24.0313 181.21C21.364 176.284 21.189 170.455 20.2777 164.951C19.3665 159.447 17.2604 153.51 12.3482 150.794C11.624 155.485 10.3869 158.695 10.7792 165.054C10.918 167.336 13.5732 171.678 13.9353 176.706C14.1526 179.717 14.2974 182.685 14.4845 185.678C14.6715 188.671 14.8526 191.555 15.8966 194.277C16.6992 196.367 17.9846 198.258 18.582 200.413C19.6984 204.472 18.226 208.844 19.1312 212.969C19.8976 216.449 22.3114 219.442 22.8063 222.971C23.5002 227.927 20.2838 233.076 21.9252 237.809C22.7459 240.151 24.677 242.024 25.2262 244.463C25.6546 246.342 25.19 248.329 25.5762 250.22C26.1796 253.261 32.0152 255.639 35.117 255.435" fill="#6E4BE8"/>
<path d="M13.5675 155.437C13.5595 155.525 13.5595 155.613 13.5675 155.701C13.5675 155.9 13.6279 156.153 13.6701 156.472C13.7667 157.153 13.8813 158.146 14.1107 159.429C14.34 160.712 15.0279 162.181 15.559 163.939C16.09 165.698 16.6814 167.709 17.1763 169.961C17.6711 172.213 18.1056 174.724 18.5461 177.416C18.9867 180.108 19.4694 183.04 20.8091 185.847C21.4126 187.256 22.1247 188.665 22.6195 190.164C23.1289 191.707 23.4412 193.307 23.5489 194.927C23.7987 198.36 24.2318 201.778 24.8463 205.164L28.6542 224.759C29.8913 230.781 31.0017 236.171 31.9431 240.723C32.8845 245.276 33.6569 248.907 34.194 251.478C34.4656 252.718 34.6768 253.7 34.8277 254.393C34.9001 254.712 34.9604 254.959 35.0027 255.151C35.0182 255.238 35.0424 255.323 35.0751 255.404C35.0858 255.318 35.0858 255.231 35.0751 255.145C35.0449 254.947 34.9966 254.694 34.9423 254.38C34.8096 253.676 34.6225 252.694 34.3871 251.442C33.8862 248.871 33.1802 245.191 32.275 240.663C31.3698 236.134 30.2896 230.709 29.0887 224.687C27.8878 218.665 26.6748 212.041 25.317 205.098C24.7018 201.711 24.2667 198.294 24.0135 194.861C23.8993 193.21 23.5769 191.579 23.054 190.008C22.5169 188.472 21.8109 187.057 21.1954 185.66C19.8617 182.902 19.385 180.017 18.9203 177.338C18.4556 174.658 18.0211 172.141 17.4961 169.877C16.9711 167.613 16.3978 165.589 15.8064 163.855C15.215 162.121 14.5572 160.651 14.2977 159.387C14.0382 158.122 13.8995 157.123 13.7727 156.454L13.6279 155.689C13.6178 155.603 13.5975 155.518 13.5675 155.437Z" fill="#263238"/>
<path d="M226.391 29.6361H223.977C223.979 29.909 223.926 30.1795 223.821 30.4315C223.715 30.6834 223.56 30.9117 223.365 31.1027C223.17 31.2937 222.938 31.4436 222.683 31.5433C222.429 31.6431 222.157 31.6908 221.883 31.6835C221.48 31.6975 221.082 31.5863 220.745 31.3652C220.408 31.1441 220.148 30.824 220 30.4491C219.873 30.1342 219.823 29.7937 219.853 29.4555C219.884 29.1173 219.994 28.7912 220.175 28.504C220.58 27.8356 221.473 27.2274 223.09 27.5104V22.0908H220.719V25.2583C219.744 25.5442 218.89 26.1415 218.288 26.9585C217.686 27.7754 217.37 28.7669 217.387 29.7806C217.387 33.2853 220.538 34.1043 221.883 34.1043C222.921 34.1163 226.433 33.8634 226.391 29.6361Z" fill="#1EA8E7"/>
<path d="M223.102 18.7427H220.694V20.9888H223.102V18.7427Z" fill="#1EA8E7"/>
<path d="M239.546 26.4263C239.553 26.326 239.553 26.2254 239.546 26.1252C239.546 25.9024 239.546 25.6073 239.516 25.234C239.516 25.0352 239.516 24.8185 239.516 24.5776C239.516 24.3367 239.444 24.0718 239.402 23.7887C239.359 23.5057 239.317 23.1866 239.269 22.8734C239.221 22.5603 239.106 22.211 239.015 21.8497C238.557 20.0813 237.809 18.4006 236.801 16.8757C235.496 14.8419 233.789 13.0943 231.786 11.7391C229.334 10.1145 226.52 9.11385 223.591 8.8246C222.788 8.75373 221.982 8.73764 221.177 8.77642C220.773 8.77642 220.356 8.77642 219.97 8.85471L218.733 9.04138C217.038 9.35652 215.4 9.91854 213.869 10.7094C212.253 11.5546 210.769 12.6297 209.464 13.901C208.126 15.2555 207.009 16.8097 206.151 18.5076C205.248 20.2598 204.663 22.158 204.425 24.1139C204.349 24.6103 204.307 25.1113 204.298 25.6133C204.268 26.1167 204.268 26.6214 204.298 27.1248C204.433 30.3451 205.445 33.4678 207.225 36.1575V35.9768C206.388 38.0684 205.565 40.1158 204.757 42.1191L204.606 42.4804L204.986 42.378L211.57 40.5715L211.407 40.5413C213.62 42.2083 216.196 43.3306 218.926 43.8172C220.195 44.0519 221.488 44.1327 222.776 44.0581C223.397 44.0488 224.017 43.9904 224.629 43.8834L225.528 43.7449C225.824 43.6907 226.131 43.6004 226.403 43.5282C230.448 42.4989 233.996 40.0705 236.414 36.6754C237.317 35.4219 238.042 34.05 238.569 32.5986C238.684 32.2795 238.792 31.9964 238.901 31.6773C239.009 31.3581 239.052 31.0751 239.118 30.8041C239.184 30.5331 239.257 30.2622 239.317 30.0092C239.378 29.7563 239.396 29.5034 239.432 29.2746C239.486 28.8109 239.571 28.4014 239.589 28.0702C239.607 27.739 239.589 27.4139 239.619 27.167C239.649 26.9201 239.619 26.7575 239.619 26.613C239.625 26.5509 239.625 26.4883 239.619 26.4263C239.6 26.4868 239.59 26.5497 239.589 26.613C239.589 26.7575 239.589 26.9381 239.546 27.1609C239.504 27.3837 239.51 27.7089 239.486 28.0582C239.462 28.4074 239.371 28.8169 239.299 29.2625C238.722 32.5943 237.189 35.6873 234.885 38.1662C232.58 40.645 229.605 42.4031 226.319 43.2271C226.035 43.2933 225.751 43.3836 225.462 43.4378L224.574 43.5703C223.976 43.667 223.371 43.7214 222.764 43.7329C221.499 43.8004 220.231 43.7154 218.986 43.48C216.313 42.9949 213.793 41.8869 211.63 40.2463L211.558 40.1921H211.467L204.883 41.9986L205.119 42.2576C205.921 40.2583 206.748 38.2049 207.593 36.1153L207.635 36.019L207.575 35.9347C206.391 34.1382 205.548 32.1399 205.089 30.0393C204.884 29.0635 204.758 28.0727 204.714 27.0766C204.694 26.5847 204.704 26.092 204.745 25.6013C204.736 25.1205 204.76 24.6396 204.817 24.1621C205.048 22.2483 205.618 20.3908 206.501 18.6762C207.338 17.016 208.427 15.4947 209.729 14.1659C211.006 12.9183 212.458 11.8616 214.038 11.0286C215.546 10.2488 217.16 9.6929 218.829 9.3786L220.036 9.19193C220.435 9.13171 220.845 9.13773 221.243 9.10762C222.03 9.06829 222.818 9.08036 223.603 9.14375C226.231 9.37687 228.771 10.2027 231.032 11.5588C233.294 12.9149 235.216 14.7659 236.656 16.9721C237.651 18.4729 238.396 20.124 238.865 21.8618L239.136 22.8734C239.19 23.1986 239.239 23.4756 239.287 23.7827C239.335 24.0898 239.378 24.3247 239.414 24.5595C239.45 24.7944 239.444 25.0172 239.462 25.2159C239.492 25.5892 239.51 25.8843 239.528 26.1011C239.525 26.2098 239.532 26.3186 239.546 26.4263Z" fill="#263238"/>
<path d="M59.5877 97.447H94.4379C94.4379 97.447 94.4379 68.2473 124.847 67.7235C140.645 67.4525 148.834 77.7738 152.159 85.6864C156.022 94.8697 154.851 105.336 149.679 113.85C143.765 123.576 131.032 133.349 107.545 129.218L107.322 206.7H141.786V160.772C141.786 160.772 190.117 148.301 190.117 95.1346C190.117 44.2806 148.907 33.2909 126.753 32.5863C114.425 32.1949 109.959 31.665 94.7155 33.8268C75.296 36.5968 59.1774 59.0882 59.5877 97.447Z" fill="#6E4BE8"/>
<path d="M142.202 222.856H107.226V255.452H142.202V222.856Z" fill="#6E4BE8"/>
<path opacity="0.1" d="M142.202 222.856H107.226V255.452H142.202V222.856Z" fill="black"/>
<path opacity="0.1" d="M59.5877 97.447H94.4379C94.4379 97.447 94.4379 68.2473 124.847 67.7235C140.645 67.4525 148.834 77.7738 152.159 85.6864C156.022 94.8697 154.851 105.336 149.679 113.85C143.765 123.576 131.032 133.349 107.545 129.218L107.322 206.7H141.786V160.772C141.786 160.772 190.117 148.301 190.117 95.1346C190.117 44.2806 148.907 33.2909 126.753 32.5863C114.425 32.1949 109.959 31.665 94.7155 33.8268C75.296 36.5968 59.1774 59.0882 59.5877 97.447Z" fill="black"/>
<path d="M45.1528 97.4469H80.0029C80.0029 97.4469 80.0029 68.2473 110.412 67.7234C126.204 67.4524 134.393 77.7737 137.724 85.6864C141.587 94.8696 140.416 105.335 135.238 113.85C129.33 123.575 116.374 132.415 92.8869 128.303V206.7H127.351V160.772C127.351 160.772 175.682 148.301 175.682 95.1345C175.682 44.2806 129.982 32.4658 110.418 32.4658C95.4577 32.4839 44.495 36.097 45.1528 97.4469Z" fill="#6E4BE8"/>
<path opacity="0.3" d="M45.1528 97.4469H80.0029C80.0029 97.4469 80.0029 68.2473 110.412 67.7234C126.204 67.4524 134.393 77.7737 137.724 85.6864C141.587 94.8696 140.416 105.335 135.238 113.85C129.33 123.575 116.374 132.415 92.8869 128.303V206.7H127.351V160.772C127.351 160.772 175.682 148.301 175.682 95.1345C175.682 44.2806 129.982 32.4658 110.418 32.4658C95.4577 32.4839 44.495 36.097 45.1528 97.4469Z" fill="black"/>
<path d="M127.768 222.856H92.791V255.452H127.768V222.856Z" fill="#6E4BE8"/>
<path opacity="0.3" d="M127.768 222.856H92.791V255.452H127.768V222.856Z" fill="black"/>
<path d="M114.346 67.8861C114.173 67.901 114 67.901 113.827 67.8861C113.483 67.8861 112.988 67.7717 112.342 67.7657C110.517 67.6768 108.687 67.7513 106.875 67.9885C104.189 68.3337 101.546 68.9553 98.9878 69.8432C97.4805 70.3668 96.0124 70.9967 94.5946 71.728C93.0632 72.4965 91.6205 73.4294 90.2919 74.5101C88.9768 75.6017 87.7958 76.8448 86.7737 78.2135C85.8093 79.4841 84.9284 80.8157 84.1365 82.1999C82.8154 84.5603 81.7687 87.0635 81.0166 89.6609C80.5081 91.4107 80.1567 93.2023 79.9666 95.0143C79.8941 95.6586 79.876 96.1584 79.8579 96.5016C79.8583 96.6754 79.8422 96.8488 79.8097 97.0195C79.7965 96.8451 79.7965 96.67 79.8097 96.4956C79.8 95.9993 79.8161 95.5029 79.8579 95.0082C79.9967 93.1744 80.3181 91.3589 80.8174 89.5886C81.5432 86.9637 82.5762 84.4332 83.8951 82.0494C84.6885 80.648 85.5735 79.3002 86.5443 78.0148C87.5751 76.6218 88.7705 75.3582 90.1048 74.2511C91.4483 73.1573 92.9096 72.2161 94.4618 71.445C95.8942 70.7093 97.3787 70.0793 98.9033 69.5602C101.484 68.6739 104.152 68.0682 106.863 67.7536C108.687 67.53 110.528 67.4877 112.361 67.6272C112.858 67.6606 113.354 67.7189 113.845 67.8018C114.014 67.8162 114.182 67.8444 114.346 67.8861Z" fill="#263238"/>
<path d="M166.859 61.6778C166.816 61.6361 166.778 61.5896 166.745 61.5393L166.443 61.1238C166.165 60.7324 165.779 60.1904 165.297 59.4979C165.043 59.1487 164.784 58.7452 164.464 58.3297L163.377 57.0109L162.128 55.4754C161.676 54.9515 161.145 54.4396 160.62 53.8796C160.095 53.3196 159.558 52.7415 158.954 52.1634L157.005 50.405C156.667 50.104 156.335 49.8029 155.973 49.4897L154.851 48.6045C154.084 48.0024 153.324 47.4002 152.497 46.798C148.895 44.2247 145.072 41.9739 141.073 40.0717L137.863 38.6144L134.707 37.41C133.681 36.9885 132.631 36.6814 131.611 36.3502C130.591 36.019 129.608 35.6697 128.594 35.4349L125.709 34.6761C124.774 34.4293 123.844 34.2847 122.957 34.074C122.07 33.8632 121.213 33.6886 120.375 33.5802L117.961 33.2369C116.434 32.978 115.034 32.9238 113.815 32.7973C113.211 32.7552 112.608 32.689 112.107 32.6649L110.671 32.6227L108.679 32.5625H108.16C108.102 32.5687 108.044 32.5687 107.985 32.5625H108.16H110.671H112.113C112.644 32.5625 113.211 32.6348 113.827 32.6709C115.034 32.7793 116.458 32.8154 117.985 33.0623L120.399 33.3935C121.237 33.4899 122.094 33.7066 122.994 33.8692C123.893 34.0318 124.804 34.1944 125.757 34.4714L128.654 35.2181C129.656 35.4469 130.645 35.8203 131.671 36.1274C132.697 36.4345 133.741 36.7296 134.779 37.1812L137.947 38.3856L141.146 39.8248C145.164 41.736 149.002 44.0054 152.612 46.6053C153.444 47.2075 154.205 47.8518 154.971 48.4118L156.094 49.3091C156.456 49.6102 156.788 49.9113 157.126 50.2364L159.069 52.0129C159.672 52.615 160.215 53.2172 160.752 53.7652C161.289 54.3132 161.802 54.8551 162.255 55.3851L163.462 56.9266L164.536 58.2635C164.844 58.685 165.103 59.0945 165.345 59.4678L166.443 61.1298L166.727 61.5634C166.775 61.5966 166.82 61.6349 166.859 61.6778Z" fill="#263238"/>
<path d="M163.227 136.342C163.157 136.473 163.07 136.595 162.968 136.703L162.159 137.703C161.815 138.136 161.381 138.66 160.843 139.244C160.306 139.828 159.733 140.521 159.033 141.225C158.333 141.93 157.585 142.731 156.734 143.532C155.883 144.333 154.96 145.182 153.976 146.061C151.812 147.927 149.552 149.68 147.205 151.312C144.844 152.922 142.399 154.406 139.879 155.756C138.708 156.358 137.604 156.96 136.536 157.43C135.468 157.9 134.478 158.369 133.555 158.755C132.631 159.14 131.793 159.459 131.056 159.742C130.32 160.025 129.674 160.248 129.143 160.417L127.936 160.814C127.794 160.863 127.649 160.903 127.502 160.935C127.633 160.862 127.77 160.801 127.912 160.754L129.119 160.302C129.644 160.116 130.284 159.881 131.008 159.58C131.732 159.279 132.583 158.978 133.488 158.55C134.394 158.123 135.395 157.713 136.439 157.195C137.483 156.677 138.6 156.111 139.764 155.503C142.064 154.245 144.544 152.763 147.048 151.053C149.553 149.343 151.81 147.542 153.807 145.844C154.791 144.971 155.738 144.158 156.571 143.345C157.404 142.532 158.194 141.779 158.888 141.075C159.582 140.37 160.192 139.702 160.735 139.13C161.278 138.558 161.725 138.046 162.087 137.624L162.937 136.667C163.026 136.552 163.123 136.443 163.227 136.342Z" fill="#263238"/>
<path d="M126.742 203.972C126.651 203.972 126.585 194.301 126.585 182.372C126.585 170.443 126.651 160.766 126.742 160.766C126.832 160.766 126.899 170.437 126.899 182.372C126.899 194.307 126.826 203.972 126.742 203.972Z" fill="#263238"/>
<path d="M128.069 253.243C127.985 253.243 127.912 246.456 127.912 238.08C127.912 229.703 127.985 222.923 128.069 222.923C128.153 222.923 128.226 229.709 128.226 238.08C128.226 246.45 128.178 253.243 128.069 253.243Z" fill="#263238"/>
<path d="M162.375 92.8105C161.772 94.0149 164.023 94.9964 165.32 95.3878C166.643 95.7171 168.013 95.8129 169.369 95.6708C171.18 95.5745 173.032 95.4059 174.595 94.5147C175.966 93.6677 177.06 92.4418 177.745 90.9859C178.425 89.5382 178.961 88.0276 179.345 86.4756C179.345 86.4756 165.085 87.427 162.375 92.8105Z" fill="#6E4BE8"/>
<g opacity="0.4">
<path opacity="0.4" d="M162.375 92.8105C161.772 94.0149 164.023 94.9964 165.32 95.3878C166.643 95.7171 168.013 95.8129 169.369 95.6708C171.18 95.5745 173.032 95.4059 174.595 94.5147C175.966 93.6677 177.06 92.4418 177.745 90.9859C178.425 89.5382 178.961 88.0276 179.345 86.4756C179.345 86.4756 165.085 87.427 162.375 92.8105Z" fill="black"/>
</g>
<path d="M202.651 88.9685C205 90.6372 207.818 91.5205 210.701 91.4916C212.071 91.4916 213.526 91.2086 214.533 90.2873C214.998 89.8658 215.348 89.3238 215.825 88.9143C216.151 88.6373 216.531 88.4266 216.839 88.1255C217.001 87.9875 217.127 87.8111 217.204 87.6123C217.281 87.4135 217.307 87.1987 217.279 86.9874C217.161 86.4622 216.867 85.9927 216.446 85.6565C214.811 84.7292 212.856 84.7593 210.973 84.8014C209.088 84.8849 207.227 85.2502 205.451 85.8854C203.991 86.3731 202.464 87.0897 201.722 88.4145" fill="#6E4BE8"/>
<g opacity="0.4">
<path opacity="0.4" d="M217.279 86.9874C217.067 86.4785 216.691 86.0547 216.211 85.7831C214.576 84.8557 212.856 84.7654 210.973 84.8076C209.088 84.891 207.227 85.2563 205.451 85.8915C203.991 86.3792 202.464 87.0958 201.722 88.4206L202.651 88.9746C205 90.6433 207.818 91.5266 210.701 91.4978C212.071 91.4978 213.525 91.2147 214.533 90.2934C214.998 89.8719 215.348 89.3299 215.825 88.9204C216.151 88.6434 216.531 88.4327 216.839 88.1316C217.002 87.9931 217.128 87.8157 217.205 87.6157C217.282 87.4158 217.308 87.1997 217.279 86.9874Z" fill="black"/>
</g>
<path d="M174.819 110.586L204.902 110.978C204.963 110.979 205.023 110.965 205.078 110.938C205.133 110.911 205.18 110.872 205.217 110.823C205.253 110.774 205.278 110.718 205.288 110.658C205.298 110.598 205.294 110.536 205.276 110.478L201.746 99.4943C201.746 99.4943 202.265 94.0145 203.007 87.3905C204.093 77.3703 205.548 64.7667 205.566 64.8028C203.508 59.046 191.366 58.0645 191.366 58.0645L177.529 58.8894L177.046 58.0765L173.063 59.9252C172.196 60.3287 171.361 60.7978 170.565 61.3283C167.934 63.0866 161.597 67.1092 160.439 71.6014C157.747 81.9709 162.273 93.5809 162.273 93.5809L165.182 91.3167C165.914 90.7527 166.684 90.2397 167.487 89.7812L173.317 105.366C172.97 105.585 172.676 105.879 172.457 106.226C172.238 106.573 172.099 106.964 172.049 107.371C172.001 108.629 172.653 110.153 174.819 110.586Z" fill="#6E4BE8"/>
<g opacity="0.3">
<path opacity="0.3" d="M187.716 92.2082C188.669 87.0897 188.168 81.8267 187.661 76.6479C185.99 80.8632 186.05 85.6806 184.282 89.8598C184.063 90.3003 183.905 90.7682 183.811 91.2508C183.765 91.4934 183.778 91.7433 183.848 91.98C183.919 92.2167 184.045 92.4332 184.215 92.6117C184.692 93.0453 185.422 92.8104 186.056 92.7321C186.629 92.6279 187.187 92.4519 187.716 92.2082Z" fill="black"/>
</g>
<g opacity="0.4">
<path opacity="0.4" d="M176.636 104.053C179.05 104.896 181.62 103.337 184.173 103.06C185.863 102.879 187.552 103.264 189.23 103.535C192.622 104.084 196.074 104.167 199.489 103.782C200.013 103.756 200.526 103.625 200.998 103.397C201.244 103.232 201.445 103.01 201.585 102.75C201.725 102.49 201.799 102.199 201.8 101.903C196.116 101.301 190.437 100.97 184.752 100.392C183.338 100.152 181.889 100.197 180.492 100.524C178.778 101.054 177.475 102.403 176.268 103.728" fill="black"/>
</g>
<path d="M216.416 84.982C213.954 79.4661 205.294 64.1948 205.294 64.1948L198.59 72.5832L200.153 89.0527C200.153 89.0527 203.695 85.1085 213.598 85.0302C214.318 85.0589 215.022 85.248 215.659 85.5835C216.296 85.919 216.849 86.3925 217.279 86.9692L216.416 84.982Z" fill="#6E4BE8"/>
<path d="M176.152 82.0855C175.675 80.9151 175.297 79.7065 175.024 78.4724C174.645 77.2695 174.368 76.0366 174.197 74.7871C174.672 75.9586 175.049 77.1671 175.326 78.4002C175.702 79.6041 175.978 80.8366 176.152 82.0855Z" fill="#263238"/>
<path d="M198.083 71.4873C198.302 71.6403 198.504 71.8159 198.686 72.0112C199.219 72.524 199.717 73.0712 200.177 73.6491C201.744 75.5415 202.848 77.7724 203.4 80.1647C203.685 81.4899 203.751 82.853 203.593 84.1993C203.436 85.4036 203.2 86.5117 203.049 87.433C202.899 88.3543 202.796 89.089 202.748 89.6068C202.739 89.8775 202.711 90.1472 202.663 90.4138C202.616 90.1455 202.602 89.8725 202.621 89.6008C202.647 88.8629 202.716 88.127 202.826 87.3969C202.953 86.4695 203.164 85.3796 203.303 84.1632C203.442 82.8495 203.371 81.5221 203.092 80.2309C202.554 77.877 201.505 75.6694 200.02 73.7635C198.904 72.3002 198.035 71.5295 198.083 71.4873Z" fill="#263238"/>
<path d="M191.939 109.274C191.728 109.364 191.508 109.428 191.281 109.467C191.023 109.532 190.761 109.582 190.497 109.617C190.189 109.659 189.839 109.726 189.447 109.744C188.528 109.828 187.602 109.828 186.683 109.744C184.423 109.532 182.233 108.853 180.25 107.75C179.443 107.304 178.678 106.786 177.963 106.203C177.685 105.984 177.419 105.751 177.166 105.504C176.968 105.315 176.78 105.114 176.605 104.902C176.443 104.745 176.299 104.569 176.177 104.378C176.219 104.336 176.871 105.059 178.102 105.998C178.823 106.549 179.588 107.04 180.389 107.467C181.371 107.985 182.397 108.416 183.455 108.756C184.52 109.073 185.61 109.299 186.713 109.43C187.615 109.529 188.523 109.555 189.429 109.509C190.98 109.443 191.927 109.214 191.939 109.274Z" fill="#263238"/>
<path d="M201.227 105.841C201.37 106.113 201.451 106.414 201.462 106.72C201.558 107.455 201.503 108.201 201.299 108.912C201.089 109.639 200.669 110.288 200.092 110.779C199.652 111.147 199.314 111.261 199.296 111.231C199.278 111.201 199.567 111.002 199.941 110.629C200.429 110.12 200.783 109.5 200.973 108.822C201.456 107.262 201.112 105.847 201.227 105.841Z" fill="#263238"/>
<path d="M199.592 107.961C199.723 108.58 199.67 109.224 199.441 109.814C199.212 110.405 198.815 110.916 198.3 111.285C198.234 111.219 198.801 110.623 199.145 109.701C199.489 108.78 199.501 107.961 199.592 107.961Z" fill="#263238"/>
<path d="M194.208 88.1436C193.89 88.6841 193.531 89.1994 193.134 89.6851C192.824 90.2301 192.471 90.7496 192.078 91.2388C192.411 89.9936 193.163 88.9006 194.208 88.1436Z" fill="#263238"/>
<path d="M173.558 73.5405C173.528 73.5766 173.052 73.1912 172.225 72.6553C170.076 71.2525 167.642 70.3453 165.098 69.9997C164.565 69.9607 164.036 69.8923 163.511 69.7949C164.045 69.7174 164.588 69.7174 165.122 69.7949C167.736 70.0176 170.24 70.9483 172.364 72.4867C172.812 72.7767 173.215 73.1319 173.558 73.5405Z" fill="#263238"/>
<path d="M205.301 64.0083C204.209 64.876 203.188 65.8284 202.247 66.8566C201.391 67.9551 200.627 69.1212 199.96 70.3432C200.03 69.9326 200.17 69.5373 200.376 69.175C200.811 68.2692 201.36 67.4232 202.012 66.6579C202.657 65.8894 203.397 65.2055 204.214 64.6225C204.54 64.3594 204.907 64.1518 205.301 64.0083Z" fill="#263238"/>
<path d="M192.875 59.0464C192.931 59.1352 192.975 59.2302 193.008 59.3294C193.127 59.6018 193.222 59.8838 193.292 60.1725C193.546 61.2436 193.546 62.3592 193.292 63.4302C192.918 65.0345 192.058 66.4852 190.83 67.5853C189.282 68.8953 187.307 69.5956 185.278 69.5544C183.256 69.5505 181.29 68.8958 179.672 67.6877C178.373 66.6932 177.318 65.4163 176.588 63.9541C176.097 62.9775 175.752 61.9349 175.562 60.8589C175.51 60.5661 175.473 60.2706 175.453 59.9737C175.436 59.8721 175.436 59.7683 175.453 59.6666C175.484 59.6666 175.52 60.0882 175.689 60.8349C175.923 61.8824 176.294 62.8947 176.793 63.8458C177.527 65.2645 178.573 66.4996 179.853 67.4588C181.424 68.6226 183.327 69.2555 185.284 69.2654C187.24 69.3039 189.145 68.6368 190.649 67.3866C191.836 66.3321 192.677 64.9449 193.062 63.4062C193.331 62.3649 193.368 61.2777 193.171 60.2206C193.026 59.4498 192.839 59.0885 192.875 59.0464Z" fill="#263238"/>
<g opacity="0.3">
<path opacity="0.3" d="M194.987 89.1975C194.987 88.8964 194.939 88.5411 194.673 88.3906C194.589 88.3482 194.496 88.3262 194.401 88.3262C194.307 88.3262 194.214 88.3482 194.13 88.3906C193.962 88.4835 193.813 88.6059 193.689 88.7519C192.981 89.4896 192.433 90.3648 192.078 91.3232L195.035 91.0703C195.017 90.4741 195.005 89.8358 194.987 89.1975Z" fill="black"/>
</g>
<g opacity="0.3">
<path opacity="0.3" d="M204.817 83.0067C204.519 81.3196 203.78 79.7408 202.675 78.4302C203.948 82.5973 203.52 84.9518 202.802 87.8001L202.958 87.4026C203.767 85.7346 205.034 84.6928 204.817 83.0067Z" fill="black"/>
</g>
<path d="M198.897 222.989L197.093 249.997L185.325 249.858L183.473 221.779L198.897 222.989Z" fill="#FFBE9D"/>
<path d="M197.425 246.444V247.221C197.425 247.221 210.701 252.55 210.828 255.049L184.48 254.899L184.891 246.149C188.801 247.998 192.905 248.22 197.425 246.444Z" fill="#6E4BE8"/>
<path d="M187.547 248.973C187.297 249.05 187.084 249.214 186.946 249.436C186.809 249.657 186.756 249.921 186.798 250.178C186.866 250.433 187.028 250.653 187.252 250.793C187.477 250.933 187.746 250.982 188.005 250.93C188.274 250.85 188.503 250.673 188.648 250.434C188.793 250.195 188.844 249.91 188.79 249.636C188.694 249.376 188.501 249.163 188.251 249.043C188.001 248.922 187.714 248.904 187.45 248.991" fill="white"/>
<path d="M184.486 254.911L184.583 252.803L209.802 253.725C209.802 253.725 210.972 254.236 210.834 255.061L184.486 254.911Z" fill="#263238"/>
<path d="M197.522 247.299C197.522 247.426 196.876 247.48 196.236 247.901C195.596 248.323 195.265 248.835 195.162 248.774C195.059 248.714 195.24 247.986 196.019 247.504C196.797 247.022 197.576 247.179 197.522 247.299Z" fill="#263238"/>
<path d="M200.279 248.455C200.279 248.576 199.748 248.793 199.308 249.335C198.867 249.877 198.74 250.449 198.614 250.443C198.487 250.437 198.402 249.708 198.964 249.046C199.525 248.383 200.279 248.329 200.279 248.455Z" fill="#263238"/>
<path d="M201.83 251.786C201.709 251.816 201.534 251.183 201.872 250.473C202.21 249.762 202.808 249.491 202.862 249.6C202.916 249.708 202.542 250.081 202.259 250.66C201.975 251.238 201.957 251.749 201.83 251.786Z" fill="#263238"/>
<path d="M196.749 25.4687C197.431 23.7826 196.604 21.7352 195.138 20.6513C193.599 19.6369 191.721 19.2691 189.912 19.6276C188.121 19.9914 186.386 20.5886 184.752 21.404C183.992 20.6428 183.036 20.1069 181.989 19.856C180.942 19.6052 179.846 19.6491 178.822 19.9831C177.799 20.317 176.888 20.9278 176.192 21.7475C175.496 22.5672 175.042 23.5635 174.879 24.6257C174.23 24.4619 173.548 24.4775 172.907 24.6706C172.266 24.8637 171.69 25.2271 171.24 25.722C170.789 26.2169 170.483 26.8246 170.352 27.4801C170.222 28.1355 170.272 28.8141 170.498 29.4431L178.651 32.2974L187.558 47.9541C188.875 49.0748 190.555 49.6793 192.285 49.6548C194.015 49.6303 195.677 48.9786 196.961 47.8211C198.245 46.6637 199.063 45.0796 199.263 43.3644C199.463 41.6493 199.03 39.9202 198.046 38.4999C198.547 38.0561 198.971 37.5333 199.302 36.9523C200.014 36.534 200.635 35.9782 201.129 35.3175C201.623 34.6568 201.981 33.9044 202.18 33.1043C202.959 29.684 200.255 25.8782 196.749 25.4687Z" fill="#263238"/>
<path d="M191.348 58.0706C190.847 55.5294 190.491 53.7831 190.497 53.8011C190.503 53.8192 195.325 51.9344 194.975 45.2261C194.812 41.8961 193.532 36.639 192.355 32.3696C191.287 28.5337 187.703 24.2944 183.907 25.5228L172.441 31.1231C171.282 31.4904 171.083 32.5743 171.355 33.7546V34.3568L175.827 52.8136L177.715 61.0694C178.128 62.7537 179.155 64.2242 180.595 65.1939C182.036 66.1637 183.787 66.5632 185.506 66.3144C186.443 66.178 187.341 65.8532 188.148 65.3595C188.955 64.8658 189.652 64.2137 190.199 63.4427C190.745 62.6717 191.129 61.7979 191.326 60.8744C191.524 59.9509 191.531 58.997 191.348 58.0706Z" fill="#FFBE9D"/>
<path d="M192.277 36.8079C192.325 37.0208 192.29 37.244 192.177 37.4313C192.065 37.6185 191.884 37.7554 191.674 37.8135C191.569 37.8438 191.46 37.8531 191.352 37.841C191.245 37.8289 191.14 37.7955 191.045 37.7429C190.95 37.6902 190.867 37.6194 190.8 37.5343C190.733 37.4493 190.683 37.3518 190.654 37.2475C190.607 37.0339 190.643 36.8105 190.755 36.6227C190.867 36.4348 191.047 36.2965 191.257 36.2358C191.362 36.2056 191.471 36.1965 191.58 36.2091C191.688 36.2216 191.792 36.2554 191.887 36.3087C191.982 36.3619 192.066 36.4335 192.132 36.5192C192.199 36.6049 192.249 36.703 192.277 36.8079Z" fill="#263238"/>
<path d="M191.782 35.549C191.698 35.6815 190.974 35.3443 190.075 35.549C189.175 35.7537 188.614 36.3138 188.524 36.2054C188.433 36.097 188.524 35.9464 188.771 35.6815C189.095 35.338 189.516 35.1007 189.978 35.001C190.444 34.9021 190.93 34.9527 191.366 35.1455C191.686 35.3142 191.825 35.4888 191.782 35.549Z" fill="#263238"/>
<path d="M183.545 38.8311C183.594 39.044 183.558 39.2673 183.446 39.4545C183.333 39.6418 183.153 39.7787 182.942 39.8368C182.835 39.8674 182.724 39.8759 182.614 39.8619C182.503 39.8478 182.397 39.8115 182.302 39.7551C182.206 39.6987 182.124 39.6235 182.058 39.534C181.993 39.4445 181.947 39.3426 181.922 39.2346C181.875 39.0218 181.912 38.7992 182.024 38.6123C182.136 38.4255 182.316 38.2883 182.526 38.2289C182.632 38.1983 182.744 38.1898 182.854 38.2038C182.964 38.2179 183.07 38.2542 183.166 38.3106C183.261 38.367 183.344 38.4422 183.409 38.5317C183.475 38.6212 183.521 38.7231 183.545 38.8311Z" fill="#263238"/>
<path d="M183.093 37.6747C183.014 37.8011 182.284 37.4699 181.385 37.6747C180.486 37.8794 179.925 38.4515 179.804 38.3611C179.683 38.2708 179.804 38.1082 180.057 37.8373C180.381 37.4935 180.802 37.2561 181.264 37.1568C181.731 37.0549 182.217 37.1056 182.652 37.3013C183.008 37.4097 183.147 37.6144 183.093 37.6747Z" fill="#263238"/>
<path d="M187.649 43.3356C188.09 43.0904 188.56 42.9002 189.049 42.7695C189.278 42.6973 189.483 42.6069 189.489 42.4443C189.459 42.2027 189.356 41.976 189.193 41.794C188.862 41.2882 188.512 40.7582 188.149 40.1982C186.689 37.916 185.579 36.0191 185.669 35.983C185.76 35.9468 187.021 37.7233 188.487 40.0055C188.837 40.5716 189.181 41.1075 189.501 41.6194C189.706 41.864 189.815 42.174 189.809 42.4925C189.792 42.5802 189.755 42.663 189.702 42.7349C189.649 42.8067 189.58 42.8659 189.501 42.908C189.382 42.967 189.257 43.0115 189.127 43.0405C188.648 43.1997 188.152 43.2988 187.649 43.3356Z" fill="#263238"/>
<path d="M190.497 53.8014C187.439 54.4932 184.248 54.3222 181.282 53.3076C181.282 53.3076 184.444 57.4265 190.823 55.4574L190.497 53.8014Z" fill="#EB996E"/>
<path d="M183.273 36.3985C183.213 36.6514 182.29 36.6454 181.24 36.9043C180.19 37.1633 179.357 37.5607 179.194 37.356C179.116 37.2596 179.236 37.0067 179.556 36.7538C179.983 36.4009 180.488 36.1533 181.029 36.0312C181.566 35.8978 182.127 35.8978 182.664 36.0312C183.092 36.1034 183.298 36.272 183.273 36.3985Z" fill="#263238"/>
<path d="M191.439 32.7009C191.3 32.9418 190.521 32.8876 189.628 33.0622C188.735 33.2369 188.035 33.538 187.818 33.3573C187.721 33.273 187.818 33.0442 188.077 32.7551C188.476 32.4207 188.958 32.2002 189.471 32.1168C189.979 32.0125 190.505 32.05 190.992 32.2252C191.354 32.3998 191.505 32.5925 191.439 32.7009Z" fill="#263238"/>
<path d="M175.248 26.8054C175.38 27.4582 175.656 28.0739 176.054 28.6085C176.452 29.1432 176.964 29.5837 177.552 29.8987C178.14 30.2138 178.791 30.3956 179.457 30.4313C180.124 30.467 180.79 30.3557 181.409 30.1053C182.368 29.7199 183.352 28.9913 184.318 29.3405C185.283 29.6898 185.663 31.0628 186.611 31.5927C187.963 32.3514 189.592 31.0387 191.137 31.1712C192.344 31.2675 193.255 32.1949 194.19 32.9416C195.126 33.6883 196.423 34.3145 197.473 33.7485C197.22 32.7432 196.849 31.7711 196.369 30.852C195.896 29.9226 195.115 29.1845 194.16 28.7625C193.614 28.611 193.077 28.4321 192.549 28.2265C191.463 27.6665 190.974 26.42 190.177 25.4746C189.658 24.8789 189.004 24.4148 188.269 24.1206C187.535 23.8264 186.741 23.7105 185.953 23.7824C184.644 23.9209 183.406 24.5773 182.091 24.5171C181.119 24.481 180.19 24.0474 179.224 24.0655C177.33 24.0655 175.911 25.7455 174.861 27.3172" fill="#263238"/>
<path d="M181.596 28.1845C180.733 28.1243 178.953 27.9437 178.368 27.3234C177.773 26.6593 177.014 26.1632 176.167 25.8851C175.319 25.6071 174.413 25.5569 173.54 25.7397C172.673 25.9976 171.912 26.5265 171.369 27.2485C170.825 27.9705 170.529 28.8474 170.523 29.7502C169.467 30.0073 168.5 30.5442 167.725 31.3042C166.949 32.0642 166.394 33.019 166.117 34.0678C165.836 35.1648 165.827 36.3135 166.09 37.415C166.353 38.5165 166.88 39.5377 167.626 40.3907C167.987 40.8449 168.316 41.3238 168.61 41.8239C168.2 42.3304 167.841 42.8749 167.535 43.4498C166.16 46.4968 169.901 47.665 169.901 47.665C169.901 49.7184 171.802 49.7064 173.015 49.7004C174.228 49.6944 174.898 52.922 175.845 52.7956L174.855 42.8295C174.996 42.8847 175.145 42.9113 175.296 42.9078C177.583 42.95 176.986 38.6323 176.249 37.4882C176.935 36.6447 177.511 35.718 177.963 34.7302C178.38 33.2224 178.411 31.6345 178.054 30.1115C178.869 30.0152 181.976 28.2146 181.596 28.1845Z" fill="#263238"/>
<path d="M175.2 43.3473C175.122 43.0292 174.965 42.7359 174.743 42.495C174.521 42.254 174.241 42.0733 173.93 41.9698C173.619 41.8663 173.286 41.8433 172.964 41.9031C172.641 41.9629 172.339 42.1034 172.086 42.3115C171.483 42.8294 171.163 43.6965 171.525 45.1478C172.502 49.0258 176.202 47.2494 176.177 47.135C176.153 47.0206 175.616 44.9491 175.2 43.3473Z" fill="#FFBE9D"/>
<path d="M174.644 45.9669C174.644 45.9669 174.59 46.0271 174.488 46.1115C174.345 46.2206 174.165 46.2703 173.987 46.25C173.54 46.2018 173.027 45.6478 172.834 44.9432C172.742 44.612 172.723 44.2647 172.78 43.9255C172.786 43.7955 172.824 43.669 172.891 43.5568C172.957 43.4446 173.049 43.35 173.16 43.2812C173.233 43.2423 173.317 43.2294 173.398 43.2447C173.479 43.2601 173.553 43.3027 173.606 43.3655C173.685 43.4619 173.679 43.5462 173.703 43.5462C173.727 43.5462 173.769 43.4619 173.703 43.3113C173.659 43.2206 173.584 43.1482 173.492 43.1066C173.429 43.0798 173.361 43.0659 173.293 43.0659C173.224 43.0659 173.156 43.0798 173.094 43.1066C172.942 43.1778 172.811 43.2866 172.714 43.4226C172.617 43.5587 172.556 43.7173 172.538 43.8834C172.454 44.2598 172.467 44.6512 172.575 45.0215C172.792 45.7983 173.377 46.4306 173.981 46.4487C174.095 46.457 174.209 46.4379 174.314 46.3928C174.419 46.3477 174.512 46.2781 174.584 46.1897C174.644 46.0633 174.644 45.9669 174.644 45.9669Z" fill="#EB996E"/>
<path d="M196.037 37.934C196.037 37.934 196.387 37.6631 196.882 37.0549C197.567 36.1886 197.986 35.1428 198.089 34.044C198.169 33.2923 198.095 32.5323 197.872 31.8099C197.611 30.9866 197.134 30.2483 196.49 29.6721C195.74 29.023 194.833 28.5817 193.858 28.3926C192.884 28.2034 191.877 28.2729 190.938 28.5942C190.757 28.6545 190.588 28.7448 190.419 28.8171C190.25 28.8893 190.099 28.9977 189.942 29.082L189.701 29.2205V28.9796C189.695 28.5115 189.522 28.0609 189.212 27.709C188.902 27.3668 188.521 27.0956 188.096 26.9142C187.275 26.5783 186.368 26.5129 185.507 26.7275C183.841 27.1069 182.429 27.8656 181.095 28.0162C180.05 28.1969 178.974 27.9822 178.078 27.414C177.843 27.2506 177.638 27.0467 177.475 26.8118C177.42 26.7309 177.376 26.644 177.342 26.5529C177.562 26.8486 177.829 27.1068 178.132 27.3176C179.013 27.8251 180.048 27.9983 181.047 27.8054C181.749 27.6664 182.435 27.4545 183.093 27.1731C183.86 26.8651 184.646 26.6076 185.446 26.4023C185.893 26.2996 186.352 26.2551 186.81 26.2698C187.294 26.295 187.769 26.403 188.216 26.589C188.678 26.7878 189.09 27.086 189.423 27.4622C189.782 27.8684 189.984 28.3897 189.99 28.9315L189.749 28.799C189.912 28.7026 190.075 28.6003 190.25 28.5099C190.425 28.4196 190.618 28.3353 190.811 28.2751C191.801 27.9363 192.864 27.8649 193.891 28.0679C194.918 28.2709 195.873 28.7413 196.659 29.4313C197.334 30.0486 197.828 30.8375 198.089 31.7135C198.314 32.4688 198.379 33.2622 198.282 34.044C198.171 35.1827 197.714 36.2605 196.973 37.1331C196.773 37.3589 196.548 37.561 196.303 37.7353C196.221 37.8106 196.132 37.8772 196.037 37.934Z" fill="#455A64"/>
<path d="M195.247 24.3184C194.855 24.1115 194.434 23.9672 193.997 23.8909C193.497 23.8204 192.987 23.8657 192.507 24.0234C191.89 24.2167 191.354 24.6058 190.98 25.1314L190.829 25.3482L190.739 25.1073C190.424 24.3671 189.916 23.724 189.269 23.2446C188.622 22.7651 187.859 22.4664 187.058 22.3794C185.8 22.333 184.561 22.6896 183.521 23.3971C182.636 23.9716 181.696 24.4577 180.715 24.8484C180.038 25.1028 179.309 25.1876 178.591 25.0953C178.399 25.0643 178.211 25.0139 178.03 24.9447C177.965 24.9208 177.904 24.8884 177.849 24.8484C177.849 24.8484 178.12 24.9266 178.609 24.9748C179.304 25.0185 179.999 24.9032 180.643 24.6376C181.598 24.2271 182.513 23.7292 183.376 23.1502C183.911 22.8205 184.477 22.5441 185.066 22.3252C185.714 22.0894 186.407 22.0009 187.094 22.0663C187.95 22.1589 188.765 22.4818 189.451 23.0004C190.138 23.519 190.67 24.2139 190.992 25.0109H190.757C191.171 24.4412 191.767 24.0292 192.446 23.8427C192.958 23.691 193.498 23.6641 194.022 23.7644C194.356 23.8277 194.677 23.9501 194.969 24.1257C195.162 24.2221 195.253 24.3064 195.247 24.3184Z" fill="#455A64"/>
<path d="M187.317 45.118C187.174 44.9931 187.006 44.9009 186.823 44.8478C186.641 44.7948 186.449 44.7822 186.261 44.8109C186.049 44.8558 185.848 44.945 185.672 45.0726C185.497 45.2003 185.35 45.3635 185.242 45.5516L185.205 45.5998C185.117 45.7352 185.077 45.8964 185.091 46.0574C185.118 46.2315 185.187 46.3964 185.292 46.538C185.397 46.6796 185.535 46.7936 185.694 46.8703C185.949 46.9994 186.238 47.0467 186.521 47.0057C186.804 46.9647 187.067 46.8375 187.275 46.6415C187.472 46.4391 187.586 46.1701 187.594 45.888C187.602 45.6058 187.503 45.331 187.317 45.118Z" fill="#1EA8E7"/>
<path d="M187.601 46.9907C187.559 46.9907 187.498 46.8101 187.336 46.5571C187.129 46.2441 186.838 45.9957 186.497 45.8405C186.146 45.6859 185.758 45.6377 185.38 45.702C185.085 45.7442 184.904 45.8225 184.879 45.7803C184.855 45.7382 185.006 45.5937 185.326 45.4853C185.747 45.3398 186.208 45.3575 186.617 45.5348C187.026 45.7121 187.354 46.0361 187.535 46.4427C187.661 46.7739 187.643 46.9847 187.601 46.9907Z" fill="#263238"/>
<path d="M175.283 47.7313C175.314 47.7313 175.458 48.0324 175.229 48.4901C175.111 48.7248 174.918 48.9144 174.682 49.03C174.446 49.1456 174.178 49.1809 173.919 49.1304C173.661 49.0799 173.426 48.9465 173.251 48.7504C173.075 48.5543 172.969 48.3064 172.948 48.0445C172.929 47.7469 173.016 47.4522 173.195 47.2135C173.509 46.81 173.865 46.804 173.859 46.8401C173.853 46.8762 173.594 46.9726 173.382 47.3339C173.261 47.5388 173.21 47.7778 173.238 48.0144C173.261 48.1515 173.313 48.2822 173.391 48.3974C173.469 48.5127 173.571 48.61 173.69 48.6828C173.808 48.7584 173.94 48.8078 174.079 48.8275C174.217 48.8473 174.359 48.8369 174.493 48.7972C174.715 48.7196 174.907 48.5742 175.042 48.3817C175.153 48.1777 175.235 47.9586 175.283 47.7313Z" fill="#6E4BE8"/>
<path d="M173.25 47.5026C173.28 47.5026 173.25 47.7073 172.966 47.8338C172.81 47.9066 172.633 47.9236 172.465 47.882C172.317 47.846 172.183 47.7674 172.079 47.6559C171.975 47.5444 171.907 47.405 171.882 47.2549C171.857 47.1049 171.876 46.9507 171.938 46.8117C172 46.6727 172.102 46.5549 172.23 46.4729C172.477 46.3223 172.671 46.3826 172.665 46.4247C172.658 46.4669 172.514 46.503 172.363 46.6475C172.269 46.7348 172.206 46.8496 172.182 46.9751C172.158 47.1007 172.175 47.2306 172.23 47.346C172.294 47.4548 172.391 47.5407 172.507 47.5915C172.623 47.6423 172.752 47.6554 172.876 47.6291C173.099 47.5809 173.208 47.4725 173.25 47.5026Z" fill="#6E4BE8"/>
<path d="M179.882 100.982C179.882 100.982 194.824 101.849 203.659 101.927C210.496 101.994 213.549 100.175 214.913 95.7912C216.066 92.1119 213.598 85.0483 213.598 85.0483C208.969 85.0483 206.115 85.7047 203.14 87.1018L203.93 90.3294L179.84 92.4009L179.882 100.982Z" fill="#FFBE9D"/>
<path d="M208.958 93.7738C208.308 92.9324 207.549 92.1811 206.701 91.5397C205.793 90.9855 204.815 90.5561 203.792 90.263C204.114 90.2164 204.442 90.2431 204.752 90.3413C205.51 90.5256 206.229 90.8437 206.876 91.2807C207.522 91.7198 208.082 92.2728 208.529 92.9126C208.734 93.1647 208.88 93.4587 208.958 93.7738Z" fill="#EB996E"/>
<path d="M174.414 87.0777C174.414 87.0777 169.792 88.1858 166.4 90.4499L170.021 100.241C171.228 103.457 174.915 105.059 177.866 103.367C182.41 100.777 184.016 93.2139 184.016 93.2139L189.006 71.6078L180.678 66.4351L174.396 87.0777" fill="#FFBE9D"/>
<path d="M180.679 66.4351L181.017 59.3294L179.17 52.1033C179.067 51.7059 179.013 51.2061 179.339 50.9652C179.501 50.8415 179.7 50.7776 179.904 50.7842C180.107 50.7907 180.302 50.8675 180.455 51.0013C180.956 51.5132 183.37 57.836 183.37 57.836C183.37 57.836 187.033 55.6381 187.685 55.5357C188.337 55.4334 189.157 57.3904 189.206 57.547C189.23 57.9863 189.23 58.4265 189.206 58.8658C189.206 58.8658 191.469 58.938 191.674 59.2451C191.838 59.8705 191.925 60.5136 191.933 61.1601C191.933 61.1601 192.893 61.4672 193.044 62.1958C193.195 62.9245 193.508 64.1107 193.044 64.3697C192.579 64.6286 191.638 65.1585 191.638 65.1585C191.638 65.1585 191.257 68.8439 191.155 69.1751C191.052 69.5063 188.934 71.5838 188.934 71.5838L180.679 66.4351Z" fill="#FFBE9D"/>
<path d="M173.003 103.517C173.003 103.517 173.232 103.643 173.697 103.794C174.387 104.013 175.118 104.071 175.833 103.963C176.979 103.801 178.051 103.307 178.917 102.541C180.065 101.501 181.035 100.28 181.789 98.9284C182.232 98.1258 182.608 97.2879 182.912 96.4233C183.226 95.4759 183.484 94.5107 183.684 93.5329C184.155 91.5015 184.664 89.3236 185.211 86.9992L188.832 71.5654V71.5232H188.862C189.278 71.1198 189.695 70.6982 190.111 70.2707C190.316 70.0539 190.522 69.8371 190.715 69.6143C190.805 69.4999 190.908 69.3855 190.986 69.2711C191.065 69.1567 191.059 69.0543 191.089 68.8977C191.252 67.6934 191.378 66.4469 191.511 65.1943V65.11L191.584 65.0679L192.736 64.4235C192.821 64.3754 192.954 64.3091 193.008 64.267C193.066 64.2155 193.105 64.1452 193.116 64.0683C193.147 63.8687 193.147 63.6656 193.116 63.4661C193.058 63.0245 192.967 62.5877 192.845 62.1594C192.744 61.973 192.608 61.8085 192.443 61.6751C192.278 61.5418 192.089 61.4424 191.885 61.3825L191.783 61.3464V61.238C191.783 60.8888 191.747 60.5335 191.704 60.1782C191.688 60.0002 191.662 59.8233 191.626 59.6483C191.612 59.5719 191.589 59.4972 191.56 59.4255C191.56 59.3833 191.56 59.4255 191.517 59.3893C191.486 59.3731 191.454 59.359 191.421 59.3472C190.693 59.1876 189.951 59.1029 189.206 59.0943H189.049V58.9377C189.049 58.5704 189.049 58.1549 189.049 57.7333C189.024 57.5916 188.975 57.4552 188.904 57.3299C188.844 57.1854 188.772 57.0408 188.699 56.9023C188.559 56.6226 188.394 56.3565 188.204 56.1075C188.122 55.99 188.02 55.8881 187.903 55.8064C187.857 55.7696 187.803 55.7467 187.745 55.7403C187.687 55.7339 187.629 55.7443 187.577 55.7702C187.286 55.8822 187.002 56.0109 186.726 56.1556C185.603 56.7578 184.505 57.36 183.437 58.0164L183.274 58.1127L183.208 57.9441C182.64 56.5169 182.073 55.1078 181.518 53.7289C181.24 53.0364 180.969 52.3499 180.691 51.6634C180.646 51.5119 180.561 51.3757 180.444 51.2695C180.327 51.1633 180.183 51.0912 180.027 51.0612C179.883 51.0146 179.727 51.0177 179.585 51.0701C179.443 51.1226 179.322 51.2212 179.243 51.3503C179.168 51.4797 179.137 51.6293 179.152 51.7778C179.152 51.9163 179.237 52.115 179.279 52.2836L179.551 53.3194C179.732 54.0059 179.913 54.6923 180.088 55.3668C180.446 56.7157 180.794 58.0405 181.132 59.3412V59.3833C181.011 61.8563 180.896 64.2248 180.788 66.489V66.5191C178.507 73.9259 176.618 80.0682 175.29 84.3737L173.739 89.3417L173.323 90.6424C173.226 90.9375 173.166 91.088 173.166 91.088C173.166 91.088 173.202 90.9315 173.281 90.6304L173.661 89.3176C174.011 88.1554 174.512 86.4693 175.145 84.3316L180.54 66.4469C180.645 64.1907 180.751 61.8221 180.86 59.3412V59.3833C180.514 58.0906 180.162 56.7658 179.804 55.4089C179.623 54.7345 179.442 54.054 179.261 53.3676L178.989 52.3258C178.932 52.1487 178.887 51.9675 178.857 51.7838C178.834 51.5748 178.879 51.3641 178.983 51.1816C179.091 50.9908 179.265 50.8454 179.472 50.7722C179.669 50.7166 179.878 50.7166 180.076 50.7722C180.28 50.8134 180.47 50.9091 180.625 51.0492C180.776 51.1909 180.888 51.3693 180.951 51.567C181.228 52.2535 181.5 52.94 181.783 53.6325C182.339 55.0255 182.902 56.4306 183.473 57.8478L183.25 57.7755C184.33 57.1372 185.422 56.4989 186.563 55.9027C186.851 55.7471 187.15 55.6103 187.456 55.4932C187.553 55.459 187.655 55.4447 187.758 55.4511C187.862 55.4668 187.961 55.506 188.047 55.5655C188.192 55.6674 188.321 55.7914 188.428 55.9328C188.629 56.1984 188.805 56.4827 188.953 56.7819C189.031 56.9264 189.103 57.077 189.17 57.2275C189.256 57.387 189.313 57.5602 189.339 57.7394C189.339 58.1669 189.339 58.5644 189.339 58.9437L189.188 58.7811C189.964 58.7881 190.737 58.8789 191.493 59.0521C191.547 59.0701 191.6 59.0923 191.65 59.1184C191.713 59.1563 191.765 59.2103 191.801 59.2749C191.849 59.372 191.884 59.4753 191.903 59.582C191.946 59.7687 191.964 59.9554 191.988 60.1421C192.03 60.5094 192.054 60.8707 192.066 61.226L191.958 61.0875C192.205 61.1597 192.434 61.2813 192.632 61.4449C192.83 61.6085 192.993 61.8106 193.11 62.0389C193.243 62.4945 193.339 62.9595 193.4 63.43C193.442 63.673 193.442 63.9215 193.4 64.1646C193.367 64.3096 193.289 64.4404 193.177 64.538C193.078 64.6045 192.975 64.6648 192.869 64.7186L191.716 65.3629L191.795 65.2425C191.656 66.5011 191.529 67.7416 191.36 68.964L191.324 69.1928C191.31 69.2886 191.273 69.3794 191.216 69.4578C191.123 69.5864 191.022 69.7091 190.914 69.8251C190.715 70.0599 190.503 70.2767 190.31 70.4935C189.888 70.9271 189.472 71.3486 189.055 71.7581L189.091 71.6858C187.764 77.274 186.533 82.4648 185.428 87.1076C184.877 89.428 184.36 91.6039 183.877 93.6352C183.669 94.618 183.401 95.5873 183.075 96.5377C182.766 97.4061 182.382 98.2462 181.928 99.0488C181.156 100.416 180.163 101.647 178.989 102.692C178.095 103.463 176.993 103.955 175.821 104.107C175.091 104.203 174.349 104.127 173.655 103.884C173.477 103.823 173.306 103.747 173.142 103.655L173.003 103.517Z" fill="#EB996E"/>
<path d="M189.23 58.8837C189.23 58.9319 189.025 58.956 188.705 58.968C188.299 58.9757 187.895 59.0241 187.498 59.1125C187.117 59.2072 186.765 59.3932 186.472 59.6545C186.255 59.8592 186.158 60.0339 186.11 60.0158C186.062 59.9977 186.11 59.787 186.309 59.51C186.591 59.1592 186.982 58.9114 187.42 58.8054C187.843 58.7082 188.28 58.6878 188.711 58.7452C189.037 58.7873 189.23 58.8415 189.23 58.8837Z" fill="#EB996E"/>
<path d="M187.462 58.9499C187.378 58.9499 187.372 58.7331 187.462 58.5344C187.553 58.3356 187.661 58.2032 187.74 58.2333C187.818 58.2634 187.83 58.45 187.74 58.6488C187.649 58.8475 187.541 58.98 187.462 58.9499Z" fill="#EB996E"/>
<path d="M192.06 61.1416C191.474 61.318 190.863 61.4013 190.25 61.3885C190.058 61.3831 189.868 61.4234 189.694 61.5061C189.521 61.5889 189.37 61.7116 189.254 61.8642C189.091 62.1111 189.146 62.3159 189.097 62.3279C189.049 62.34 188.904 62.1232 189.055 61.7679C189.138 61.5628 189.289 61.3925 189.484 61.2862C189.709 61.1692 189.955 61.0976 190.208 61.0754C190.824 60.9823 191.452 61.0047 192.06 61.1416Z" fill="#EB996E"/>
<path d="M191.656 63.3037C191.741 63.3037 191.795 63.7553 191.765 64.2973C191.735 64.8393 191.65 65.2849 191.566 65.2788C191.481 65.2728 191.427 64.8332 191.451 64.2853C191.475 63.7373 191.542 63.3037 191.656 63.3037Z" fill="#EB996E"/>
<path d="M162.738 68.8979C162.738 68.8979 162.514 69.1328 162.201 69.6145C161.779 70.3114 161.502 71.0854 161.386 71.8908C161.214 73.0872 161.177 74.2992 161.277 75.5038C161.344 76.8648 161.452 78.3642 161.621 79.9299C161.907 82.6037 162.332 85.2609 162.895 87.8907C163.106 88.8963 163.299 89.6972 163.438 90.2994C163.498 90.5463 163.546 90.763 163.589 90.9437C163.631 91.1244 163.637 91.1725 163.637 91.1725C163.637 91.1725 163.607 91.0943 163.564 90.9497L163.389 90.3114C163.239 89.7514 163.033 88.9385 162.786 87.9027C162.2 85.2737 161.763 82.6139 161.476 79.9359C161.307 78.3642 161.205 76.8648 161.144 75.5038C161.053 74.2983 161.098 73.0864 161.277 71.8908C161.406 71.0784 161.702 70.3014 162.146 69.6085C162.313 69.3479 162.511 69.1092 162.738 68.8979Z" fill="white"/>
<path d="M175.44 60.7144L175.301 60.7866L174.903 60.9793C174.559 61.1419 174.058 61.3828 173.461 61.714C171.901 62.5763 170.388 63.521 168.929 64.5442C167.203 65.7486 165.676 66.8385 164.56 67.6334L163.238 68.5728L162.87 68.8197C162.786 68.8739 162.743 68.904 162.737 68.898L162.858 68.8016L163.208 68.5306L164.511 67.5671C165.61 66.7482 167.131 65.6221 168.856 64.4358C170.321 63.4142 171.844 62.4793 173.419 61.6357C174.022 61.3165 174.529 61.0817 174.885 60.9311L175.295 60.7625C175.341 60.7386 175.39 60.7223 175.44 60.7144Z" fill="white"/>
<path d="M204.214 64.6285C204.214 64.6285 204.178 64.6285 204.111 64.5562L203.84 64.3213C203.505 64.0361 203.152 63.7726 202.784 63.5325C201.561 62.7484 200.261 62.0925 198.903 61.5754C197.552 61.0413 196.172 60.5829 194.77 60.2024C194.232 60.0519 193.792 59.9435 193.49 59.8652L193.14 59.7809C193.098 59.7723 193.058 59.7581 193.02 59.7388C193.02 59.7388 193.062 59.7388 193.146 59.7388L193.496 59.799C193.804 59.8592 194.251 59.9556 194.788 60.0941C196.203 60.4526 197.594 60.9011 198.952 61.4369C200.315 61.9606 201.616 62.6331 202.832 63.4422C203.338 63.7811 203.802 64.1794 204.214 64.6285Z" fill="white"/>
<path d="M175.61 110.599C175.529 110.579 175.45 110.55 175.375 110.514C175.164 110.426 174.962 110.319 174.771 110.195C174.116 109.801 173.643 109.165 173.456 108.425C173.29 107.684 173.372 106.91 173.691 106.221C173.782 106.006 173.899 105.804 174.041 105.619C174.138 105.492 174.204 105.432 174.21 105.438C174.045 105.693 173.899 105.961 173.776 106.239C173.489 106.914 173.422 107.661 173.582 108.377C173.763 109.087 174.204 109.704 174.82 110.105C175.29 110.442 175.622 110.574 175.61 110.599Z" fill="white"/>
<path d="M173.69 104.077C173.824 104.312 173.92 104.566 173.974 104.83C174.069 105.085 174.126 105.353 174.143 105.625C173.91 105.136 173.757 104.614 173.69 104.077Z" fill="white"/>
<path d="M181.85 239.085L200.256 238.995L199.924 175.489L199.749 110.875L174.819 110.568L170.336 118.999C168.502 122.391 167.333 126.1 166.89 129.928C166.576 132.843 168.767 142.363 169.533 144.784L176.394 166.517L181.85 239.085Z" fill="#263238"/>
<path d="M205.15 110.984L225.378 166.005C226.576 169.55 226.974 173.316 226.543 177.032C226.112 180.749 224.863 184.324 222.885 187.503L199.386 233.239L186.183 216.757L205.831 175.809L188.524 147.777L191.439 111.044L199.598 110.918L205.15 110.984Z" fill="#263238"/>
<path d="M198.071 129.417C198.071 129.417 198.071 129.513 198.101 129.7C198.132 129.887 198.132 130.176 198.15 130.525C198.192 131.272 198.246 132.332 198.319 133.717C198.458 136.505 198.651 140.509 198.892 145.453C199.133 150.397 199.393 156.292 199.695 162.856C199.839 166.132 199.996 169.57 200.153 173.135C200.274 174.942 200.22 176.748 200.238 178.555C200.256 180.361 200.238 182.27 200.238 184.161C200.238 199.294 200.286 212.993 200.304 222.923C200.304 227.873 200.304 231.884 200.304 234.672C200.304 236.045 200.304 237.123 200.304 237.863C200.304 238.219 200.304 238.466 200.304 238.694C200.304 238.923 200.304 238.977 200.304 238.977C200.304 238.977 200.304 238.881 200.304 238.694V237.863C200.304 237.123 200.304 236.057 200.268 234.672C200.268 231.884 200.22 227.873 200.183 222.923C200.141 212.993 200.087 199.3 200.027 184.167C200.027 182.276 200.027 180.403 200.027 178.561C200.027 176.718 200.057 174.906 199.942 173.141C199.791 169.576 199.64 166.138 199.502 162.862C199.224 156.316 198.976 150.415 198.765 145.459C198.554 140.503 198.409 136.511 198.295 133.723C198.246 132.35 198.21 131.272 198.186 130.531C198.186 130.176 198.186 129.929 198.186 129.7C198.186 129.471 198.071 129.417 198.071 129.417Z" fill="#455A64"/>
<path d="M197.606 112.08C197.678 112.274 197.722 112.476 197.739 112.682C197.8 113.074 197.872 113.634 197.956 114.332C198.113 115.723 198.282 117.656 198.385 119.794C198.488 121.932 198.481 123.871 198.451 125.274C198.451 125.972 198.409 126.538 198.379 126.93C198.384 127.133 198.36 127.336 198.306 127.532C198.238 126.779 198.212 126.023 198.228 125.268C198.228 123.865 198.162 121.932 198.071 119.8C197.981 117.668 197.836 115.741 197.733 114.344C197.649 113.592 197.606 112.837 197.606 112.08Z" fill="#455A64"/>
<path d="M193.551 113.285C193.354 113.471 193.214 113.709 193.146 113.971C193.117 114.103 193.122 114.24 193.163 114.369C193.203 114.498 193.276 114.614 193.376 114.706C193.497 114.813 193.646 114.886 193.805 114.914C193.965 114.943 194.13 114.927 194.281 114.868C194.426 114.795 194.547 114.681 194.63 114.542C194.714 114.402 194.756 114.242 194.752 114.079C194.746 113.945 194.706 113.814 194.635 113.699C194.564 113.584 194.465 113.489 194.347 113.423C194.102 113.304 193.829 113.255 193.557 113.279C193.557 113.279 193.617 113.2 193.774 113.158C194 113.097 194.24 113.121 194.45 113.224C194.617 113.296 194.762 113.412 194.868 113.559C194.974 113.707 195.038 113.88 195.053 114.061C195.077 114.286 195.03 114.513 194.918 114.71C194.805 114.906 194.634 115.063 194.428 115.157C194.221 115.251 193.991 115.277 193.768 115.233C193.546 115.189 193.343 115.076 193.189 114.91C193.061 114.783 192.97 114.623 192.927 114.448C192.883 114.273 192.888 114.089 192.941 113.917C193.004 113.694 193.14 113.499 193.327 113.363C193.454 113.285 193.545 113.285 193.551 113.285Z" fill="#455A64"/>
<path d="M183.895 112.219C183.986 112.408 184.041 112.612 184.058 112.821C184.158 113.361 184.177 113.913 184.112 114.459C184.029 115.274 183.794 116.067 183.418 116.795C182.967 117.699 182.3 118.479 181.478 119.068C180.656 119.656 179.702 120.036 178.699 120.174C177.896 120.29 177.078 120.259 176.285 120.083C175.748 119.958 175.232 119.755 174.753 119.481C174.568 119.397 174.401 119.281 174.258 119.138C174.923 119.445 175.619 119.679 176.334 119.836C177.192 120.015 178.078 120.015 178.936 119.834C179.795 119.654 180.606 119.298 181.319 118.788C182.032 118.279 182.631 117.627 183.079 116.875C183.526 116.122 183.813 115.285 183.919 114.417C183.989 113.685 183.98 112.949 183.895 112.219Z" fill="#455A64"/>
<path d="M207.575 117.5C207.183 117.549 206.785 117.501 206.416 117.361C205.501 117.081 204.679 116.559 204.039 115.85C203.394 115.144 202.95 114.279 202.753 113.344C202.659 112.961 202.659 112.56 202.753 112.176C202.814 112.176 202.814 112.622 202.995 113.29C203.243 114.161 203.686 114.964 204.292 115.639C204.903 116.308 205.661 116.828 206.507 117.156C207.134 117.385 207.581 117.433 207.575 117.5Z" fill="#455A64"/>
<path d="M214.762 176.808C214.46 177.151 214.098 177.437 213.694 177.651C213.272 177.922 212.809 178.125 212.324 178.253C211.715 178.415 211.072 178.398 210.472 178.205C209.42 177.804 208.518 177.089 207.889 176.158C207.6 175.805 207.363 175.414 207.183 174.996C207.507 175.309 207.802 175.652 208.064 176.019C208.707 176.867 209.574 177.52 210.568 177.904C211.075 178.04 211.604 178.071 212.123 177.994C212.642 177.918 213.14 177.735 213.585 177.459C213.966 177.221 214.358 177.004 214.762 176.808Z" fill="#455A64"/>
<path d="M210.158 180.319C208.808 178.777 207.625 177.098 206.628 175.309C207.976 176.848 209.167 178.519 210.182 180.295L210.158 180.319Z" fill="#455A64"/>
</svg>
