<svg
  width="320"
  height="275"
  viewBox="0 0 320 275"
  fill="none"
  xmlns="http://www.w3.org/2000/svg"
>
  <g opacity="0.39">
    <path
      opacity="0.39"
      d="M234.985 221.766C277.204 179.671 277.204 111.422 234.985 69.3266C192.766 27.2317 124.316 27.2317 82.0976 69.3266C39.8789 111.422 39.8789 179.671 82.0976 221.766C124.316 263.861 192.767 263.861 234.985 221.766Z"
      fill="#35C9FC"
    />
    <path
      opacity="0.73"
      d="M246.829 171.399V207.756C242.855 213.359 238.361 218.576 233.406 223.338V171.399C233.406 171.139 226.825 165.737 221.807 161.652V159.28L227.867 157.721C230.351 157.084 232.977 157.285 235.334 158.293C236.389 158.756 237.467 159.167 238.563 159.522V164.3C243.582 168.386 246.759 171.07 246.829 171.33V171.399Z"
      fill="#35C9FC"
    />
  </g>
  <path
    d="M4.68896 7.25411L36.3955 81.475L59.5937 65.6509L73.0161 85.1281L75.447 52.2853L103.507 35.232L4.68896 7.25411Z"
    fill="#6E4BE8"
  />
  <path
    d="M64.7335 62.1535L36.3955 81.4748L59.5937 65.6507L73.016 85.1279L75.447 52.2851L30.7349 25.7442L64.7335 62.1535Z"
    fill="#554AC6"
  />
  <path
    d="M74.8566 60.3356L30.7349 25.7442L75.447 52.2851L74.8566 60.3356Z"
    fill="#7D64F9"
  />
  <path
    d="M73.588 94.3732C73.345 92.9362 73.0324 91.4993 72.6504 90.0969L74.8209 89.5083C75.2203 90.9799 75.5502 92.4861 75.8106 93.9923L73.588 94.3732Z"
    fill="#35C9FC"
  />
  <path
    d="M47.334 144.789C44.1075 144.583 40.99 143.545 38.2874 141.776L39.5202 139.906C41.8945 141.465 44.6359 142.378 47.4729 142.555L47.334 144.789ZM56.6758 142.953L55.686 140.945C58.2819 139.634 60.5991 137.835 62.5101 135.647L64.2464 137.154C62.13 139.564 59.5573 141.535 56.6758 142.953ZM32.019 134.609C30.7452 132.053 30.0797 129.239 30.0742 126.385C30.0742 126.16 30.0742 125.935 30.0742 125.71V125.225L32.3315 125.381V125.796V126.385C32.3588 128.874 32.9525 131.325 34.0679 133.552L32.019 134.609ZM119.134 134.107V131.856C122.068 131.856 125.072 131.717 128.094 131.492L128.267 133.743C125.194 133.968 122.12 134.089 119.134 134.107ZM110 133.812L108.559 133.691C105.798 133.466 103.35 133.154 100.902 132.739L101.284 130.523C103.61 130.938 106.059 131.233 108.75 131.458L110.157 131.561L110 133.812ZM137.331 132.791L137.036 130.557C139.936 130.159 142.922 129.674 145.909 129.103L146.326 131.302C143.304 131.89 140.266 132.393 137.331 132.791ZM92.0287 130.523C89.4722 129.663 87.0016 128.568 84.6491 127.251L83.5899 126.645L84.6838 124.654L85.6735 125.225C87.8936 126.458 90.2177 127.495 92.6191 128.324L92.0287 130.523ZM69.4556 129.622L67.5109 128.497C68.9704 125.943 70.2021 123.267 71.192 120.498L73.3104 121.26C72.2702 124.153 70.9804 126.951 69.4556 129.622ZM155.216 129.363L154.678 127.181C157.508 126.506 160.425 125.727 163.36 124.896L163.985 127.043C161.033 127.908 158.012 128.688 155.233 129.363H155.216ZM172.719 124.394L172.024 122.264C174.872 121.347 177.737 120.377 180.567 119.373L181.314 121.485C178.484 122.489 175.619 123.476 172.736 124.394H172.719ZM76.0018 121.433C73.8664 119.823 71.6275 118.354 69.2994 117.036L68.5527 116.638L69.5772 114.647L70.3759 115.079C72.7895 116.443 75.1097 117.964 77.3215 119.633L76.0018 121.433ZM35.5091 117.971L33.9464 116.378C36.2938 114.236 39.1409 112.712 42.229 111.946L42.993 114.058C40.2103 114.767 37.642 116.139 35.5091 118.057V117.971ZM60.3222 113.591C57.7631 113.018 55.1486 112.728 52.5258 112.725H51.6055V110.474C54.692 110.44 57.771 110.783 60.7737 111.496L60.3222 113.591ZM75.7414 112.275L73.5188 111.877C74.0358 108.973 74.303 106.031 74.3175 103.082H76.5748C76.5634 106.193 76.2845 109.298 75.7414 112.361V112.275Z"
    fill="#35C9FC"
  />
  <path
    d="M189.944 118.317L189.145 116.222L193.347 114.595L194.163 116.69C192.739 117.244 191.368 117.728 189.944 118.317Z"
    fill="#35C9FC"
  />
  <path
    d="M260.841 173.13C260.281 173.124 259.742 172.913 259.329 172.536C258.916 172.159 258.656 171.643 258.601 171.087C258.572 170.794 258.602 170.497 258.689 170.215C258.776 169.933 258.918 169.671 259.107 169.445C259.295 169.218 259.527 169.03 259.789 168.893C260.051 168.756 260.338 168.672 260.632 168.646C274.295 167.298 286.915 160.765 295.881 150.398C296.069 150.152 296.305 149.947 296.575 149.796C296.845 149.645 297.144 149.551 297.452 149.52C297.76 149.489 298.072 149.522 298.367 149.616C298.662 149.71 298.934 149.864 299.167 150.067C299.4 150.271 299.588 150.52 299.721 150.8C299.853 151.079 299.926 151.383 299.935 151.691C299.945 152 299.89 152.307 299.775 152.594C299.66 152.881 299.487 153.141 299.267 153.359C289.549 164.589 275.871 171.662 261.067 173.113L260.841 173.13Z"
    fill="#35C9FC"
  />
  <path
    d="M233.406 171.399L154.956 217.59L76.5059 171.399C76.5059 171.105 80.8989 167.503 87.5146 162.154L87.6882 161.998C109.393 144.391 154.956 108.483 154.956 108.483C154.956 108.483 200.554 144.391 222.259 161.929C228.961 167.365 233.372 171.035 233.441 171.33C233.432 171.354 233.421 171.377 233.406 171.399Z"
    fill="#6F4D18"
  />
  <path
    d="M187.218 70.2909H102.568C99.0822 70.2909 95.7388 71.6717 93.2738 74.1296C90.8087 76.5874 89.4238 79.921 89.4238 83.3969V210.994C89.4238 214.47 90.8087 217.803 93.2738 220.261C95.7388 222.719 99.0822 224.1 102.568 224.1H208.627C212.113 224.1 215.457 222.719 217.922 220.261C220.387 217.803 221.772 214.47 221.772 210.994V104.744L187.218 70.2909Z"
    fill="white"
  />
  <path
    d="M187.218 91.6379C187.218 95.1138 188.603 98.4474 191.068 100.905C193.533 103.363 196.876 104.744 200.362 104.744H221.772L187.218 70.2909V91.6379Z"
    fill="#E5E6E6"
  />
  <path
    d="M143.321 91.8454H114.133C111.543 91.8454 109.444 93.9383 109.444 96.5199V125.623C109.444 128.205 111.543 130.298 114.133 130.298H143.321C145.911 130.298 148.01 128.205 148.01 125.623V96.5199C148.01 93.9383 145.911 91.8454 143.321 91.8454Z"
    fill="#35C9FC"
  />
  <path
    d="M183.329 140.997H113.265C112.266 140.997 111.307 141.393 110.601 142.098C109.894 142.802 109.497 143.758 109.497 144.754C109.497 145.751 109.894 146.706 110.601 147.411C111.307 148.115 112.266 148.511 113.265 148.511H183.329C183.823 148.511 184.313 148.414 184.77 148.225C185.228 148.036 185.643 147.76 185.993 147.411C186.343 147.062 186.62 146.648 186.81 146.192C186.999 145.736 187.097 145.247 187.097 144.754C187.097 144.261 186.999 143.772 186.81 143.316C186.62 142.861 186.343 142.446 185.993 142.098C185.643 141.749 185.228 141.472 184.77 141.283C184.313 141.094 183.823 140.997 183.329 140.997Z"
    fill="#D8D9D9"
  />
  <path
    d="M183.329 159.73H113.265C112.77 159.73 112.28 159.827 111.823 160.016C111.366 160.205 110.951 160.481 110.601 160.83C110.251 161.179 109.973 161.593 109.784 162.049C109.595 162.505 109.497 162.993 109.497 163.487C109.497 164.485 109.893 165.442 110.6 166.149C111.306 166.857 112.264 167.256 113.265 167.261H183.329C184.329 167.256 185.288 166.857 185.994 166.149C186.7 165.442 187.097 164.485 187.097 163.487C187.097 162.993 186.999 162.505 186.81 162.049C186.62 161.593 186.343 161.179 185.993 160.83C185.643 160.481 185.228 160.205 184.77 160.016C184.313 159.827 183.823 159.73 183.329 159.73Z"
    fill="#D8D9D9"
  />
  <path
    d="M151.517 177.908H113.317C112.316 177.913 111.358 178.313 110.651 179.02C109.945 179.727 109.549 180.685 109.549 181.683C109.549 182.679 109.946 183.635 110.652 184.339C111.359 185.044 112.317 185.44 113.317 185.44H151.517C152.517 185.44 153.475 185.044 154.182 184.339C154.888 183.635 155.285 182.679 155.285 181.683C155.285 180.685 154.889 179.727 154.183 179.02C153.477 178.313 152.518 177.913 151.517 177.908Z"
    fill="#D8D9D9"
  />
  <path
    d="M233.406 171.399V246.451C233.397 248.976 232.386 251.396 230.593 253.18C228.8 254.964 226.372 255.968 223.839 255.973H86.0387C83.5088 255.968 81.0841 254.963 79.2969 253.178C77.5096 251.392 76.5059 248.973 76.5059 246.451V171.399L154.956 217.521L233.406 171.399Z"
    fill="#6E4BE8"
  />
  <path
    d="M230.749 253.047L180.255 202.701L154.955 217.573L129.639 202.701L79.1445 253.047C80.0367 253.99 81.1134 254.741 82.308 255.253C83.5026 255.765 84.7898 256.028 86.0901 256.025H223.89C225.176 256.015 226.446 255.746 227.625 255.235C228.804 254.723 229.866 253.979 230.749 253.047Z"
    fill="#554AC6"
  />
  <path
    d="M249.259 68.4382C238.253 69.591 228.001 74.5521 220.283 82.4593C212.565 90.3666 207.869 100.72 207.013 111.721C206.194 122.456 209.127 133.142 215.313 141.967C216.391 143.544 217.056 145.365 217.247 147.264C217.439 149.163 217.149 151.08 216.406 152.839L212.673 161.773L227.901 157.843C230.379 157.197 233.002 157.398 235.351 158.414C241.961 161.257 249.136 162.553 256.327 162.201C263.517 161.85 270.532 159.86 276.831 156.386C283.13 152.911 288.548 148.043 292.667 142.156C296.786 136.27 299.498 129.52 300.595 122.426C301.691 115.331 301.143 108.081 298.991 101.231C296.84 94.3808 293.144 88.1131 288.186 82.9089C283.228 77.7046 277.139 73.7022 270.389 71.2087C263.638 68.7153 256.404 67.7971 249.242 68.5247L249.259 68.4382Z"
    fill="#35C9FC"
  />
  <path
    d="M255.25 138.954L257.838 136.357C257.838 136.357 255.789 131.527 264.419 123.373C269.541 118.525 270.687 113.833 270.27 109.99C269.919 106.988 268.562 104.193 266.419 102.056C264.276 99.9197 261.473 98.5668 258.463 98.2167C254.625 97.8012 249.902 98.9439 245.04 104.069C236.862 112.725 232.017 110.613 232.017 110.613L229.43 113.192L255.25 138.954Z"
    fill="white"
  />
  <path
    d="M235.195 123.165C234.174 124.535 233.682 126.226 233.807 127.928C233.933 129.631 234.668 131.231 235.878 132.438C237.089 133.645 238.694 134.378 240.402 134.503C242.109 134.628 243.805 134.137 245.179 133.12L235.195 123.165Z"
    fill="white"
  />
  <path
    d="M272.023 101.35L270.408 102.961C269.14 100.963 267.436 99.2765 265.424 98.0263L267.057 96.3989C267.383 96.0738 267.77 95.8159 268.196 95.6399C268.622 95.4639 269.078 95.3734 269.54 95.3734C270.001 95.3734 270.457 95.4639 270.883 95.6399C271.309 95.8159 271.697 96.0738 272.023 96.3989C272.349 96.724 272.607 97.11 272.784 97.5348C272.96 97.9596 273.051 98.4149 273.051 98.8746C273.051 99.3344 272.96 99.7897 272.784 100.215C272.607 100.639 272.349 101.025 272.023 101.35Z"
    fill="white"
  />
  <path
    d="M252.75 68.2479C258.746 70.0467 264.245 73.2007 268.82 77.4646C273.394 81.7286 276.92 86.9873 279.123 92.8317C281.326 98.6761 282.146 104.949 281.521 111.161C280.896 117.373 278.841 123.358 275.518 128.649C272.194 133.941 267.69 138.396 262.358 141.669C257.025 144.942 251.007 146.943 244.771 147.518C238.536 148.093 232.252 147.226 226.408 144.984C220.563 142.742 215.317 139.185 211.076 134.591C212.263 137.172 213.681 139.641 215.313 141.967C216.392 143.544 217.057 145.365 217.248 147.264C217.439 149.163 217.15 151.08 216.407 152.839L212.674 161.773L227.902 157.843C230.379 157.197 233.002 157.398 235.351 158.414C241.829 161.234 248.861 162.564 255.924 162.307C262.988 162.049 269.904 160.211 276.158 156.928C282.413 153.644 287.847 149 292.057 143.339C296.268 137.678 299.147 131.145 300.482 124.224C301.817 117.303 301.573 110.171 299.769 103.357C297.964 96.5424 294.646 90.22 290.059 84.8578C285.471 79.4956 279.733 75.231 273.269 72.3798C266.805 69.5285 259.78 68.1637 252.715 68.3864L252.75 68.2479Z"
    fill="#1EA8E7"
  />
  <path
    d="M47.6807 194.945C46.1863 194.945 44.7254 195.386 43.482 196.212C42.2385 197.038 41.2682 198.213 40.6932 199.589C40.1182 200.964 39.9643 202.478 40.2508 203.94C40.5374 205.403 41.2515 206.748 42.3034 207.806C43.3552 208.865 44.6977 209.589 46.1616 209.888C47.6256 210.187 49.1456 210.047 50.5301 209.487C51.9146 208.926 53.1017 207.969 53.9419 206.737C54.782 205.505 55.2377 204.052 55.2514 202.562C55.2606 201.565 55.0715 200.576 54.6952 199.652C54.3188 198.728 53.7626 197.888 53.0587 197.18C52.3548 196.472 51.5171 195.909 50.594 195.526C49.6709 195.142 48.6808 194.944 47.6807 194.945ZM47.6807 205.54C47.0734 205.54 46.4798 205.359 45.9759 205.021C45.4719 204.683 45.0804 204.203 44.8513 203.642C44.6221 203.082 44.5658 202.465 44.6895 201.873C44.8131 201.28 45.1112 200.737 45.5455 200.314C45.9799 199.891 46.5309 199.606 47.1282 199.496C47.7255 199.387 48.3421 199.457 48.8991 199.698C49.4562 199.939 49.9285 200.341 50.2558 200.851C50.5831 201.361 50.7506 201.957 50.7368 202.562C50.7186 203.358 50.3886 204.116 49.8175 204.672C49.2463 205.229 48.4793 205.54 47.6807 205.54Z"
    fill="#35C9FC"
  />
  <path
    d="M250.405 225.467C248.907 225.464 247.441 225.904 246.194 226.731C244.947 227.558 243.974 228.736 243.398 230.115C242.823 231.494 242.67 233.012 242.96 234.478C243.25 235.943 243.97 237.29 245.028 238.347C246.086 239.405 247.435 240.125 248.904 240.418C250.373 240.711 251.896 240.562 253.281 239.991C254.665 239.42 255.849 238.453 256.681 237.211C257.514 235.97 257.958 234.509 257.958 233.016C257.958 231.017 257.163 229.099 255.747 227.684C254.331 226.269 252.41 225.472 250.405 225.467ZM250.405 236.063C249.796 236.066 249.199 235.889 248.691 235.554C248.183 235.218 247.786 234.74 247.551 234.179C247.317 233.619 247.254 233.001 247.372 232.405C247.49 231.809 247.784 231.261 248.214 230.832C248.645 230.402 249.194 230.11 249.792 229.992C250.39 229.874 251.009 229.937 251.572 230.171C252.134 230.405 252.614 230.8 252.95 231.307C253.287 231.813 253.464 232.408 253.461 233.016C253.461 233.824 253.139 234.599 252.566 235.17C251.993 235.742 251.215 236.063 250.405 236.063Z"
    fill="#35C9FC"
  />
  <path
    d="M312.29 108.31C311.142 108.307 310.019 108.643 309.063 109.276C308.107 109.91 307.361 110.811 306.92 111.868C306.478 112.924 306.361 114.087 306.582 115.21C306.804 116.333 307.355 117.365 308.166 118.175C308.976 118.986 310.009 119.538 311.135 119.763C312.26 119.987 313.427 119.874 314.488 119.437C315.549 119 316.456 118.258 317.094 117.307C317.732 116.356 318.072 115.237 318.072 114.093C318.068 112.563 317.458 111.098 316.375 110.015C315.292 108.932 313.824 108.319 312.29 108.31ZM312.29 116.43C311.826 116.43 311.373 116.293 310.988 116.036C310.602 115.779 310.302 115.414 310.124 114.987C309.947 114.56 309.901 114.09 309.991 113.637C310.081 113.183 310.305 112.767 310.633 112.44C310.96 112.113 311.378 111.891 311.833 111.8C312.287 111.71 312.759 111.756 313.187 111.933C313.615 112.11 313.982 112.41 314.239 112.794C314.497 113.179 314.634 113.63 314.634 114.093C314.636 114.4 314.577 114.705 314.46 114.99C314.343 115.274 314.171 115.533 313.953 115.75C313.735 115.968 313.475 116.14 313.19 116.257C312.904 116.373 312.599 116.432 312.29 116.43Z"
    fill="#35C9FC"
  />
  <path
    d="M210.295 15.9278C209.082 15.9278 207.897 16.2862 206.889 16.9577C205.881 17.6293 205.096 18.5838 204.632 19.7005C204.168 20.8172 204.046 22.046 204.283 23.2316C204.519 24.4171 205.103 25.506 205.96 26.3607C206.818 27.2154 207.91 27.7975 209.099 28.0333C210.288 28.2691 211.52 28.1481 212.64 27.6855C213.76 27.223 214.717 26.4397 215.391 25.4346C216.064 24.4296 216.424 23.248 216.424 22.0393C216.424 20.4184 215.778 18.8639 214.629 17.7178C213.479 16.5717 211.92 15.9278 210.295 15.9278ZM210.295 24.5843C209.803 24.5843 209.323 24.4391 208.915 24.167C208.507 23.895 208.188 23.5083 208 23.0559C207.813 22.6036 207.763 22.1058 207.859 21.6255C207.955 21.1453 208.191 20.7041 208.539 20.3579C208.886 20.0116 209.328 19.7759 209.81 19.6803C210.292 19.5848 210.791 19.6338 211.245 19.8212C211.698 20.0086 212.086 20.3259 212.359 20.7331C212.632 21.1402 212.778 21.6189 212.778 22.1085C212.759 22.7531 212.49 23.3651 212.026 23.8145C211.562 24.264 210.941 24.5153 210.295 24.515V24.5843Z"
    fill="#35C9FC"
  />
  <path
    d="M14.3947 158.206C13.1205 158.206 11.8751 158.583 10.8157 159.289C9.75628 159.995 8.93059 160.998 8.44301 162.171C7.95543 163.345 7.82785 164.637 8.07642 165.883C8.32499 167.128 8.93853 168.273 9.83946 169.171C10.7404 170.07 11.8883 170.681 13.1379 170.929C14.3875 171.177 15.6828 171.05 16.8599 170.564C18.037 170.077 19.0431 169.254 19.751 168.198C20.4589 167.142 20.8367 165.9 20.8367 164.629C20.8367 162.926 20.158 161.292 18.9499 160.088C17.7417 158.883 16.1032 158.206 14.3947 158.206Z"
    fill="#35C9FC"
  />
  <path
    d="M272.736 179.467C271.808 179.467 270.901 179.741 270.13 180.256C269.358 180.77 268.757 181.501 268.403 182.356C268.049 183.212 267.957 184.152 268.139 185.06C268.322 185.967 268.77 186.8 269.427 187.453C270.085 188.106 270.922 188.55 271.832 188.728C272.743 188.906 273.686 188.811 274.542 188.455C275.399 188.098 276.13 187.497 276.643 186.726C277.156 185.955 277.428 185.049 277.424 184.124C277.424 183.511 277.303 182.904 277.067 182.338C276.831 181.772 276.486 181.257 276.05 180.825C275.615 180.392 275.098 180.049 274.529 179.816C273.96 179.583 273.351 179.464 272.736 179.467Z"
    fill="#35C9FC"
  />
  <path
    d="M117.641 17.8498C116.288 17.8498 114.965 18.2498 113.84 18.9994C112.715 19.7489 111.838 20.8143 111.32 22.0607C110.802 23.3071 110.667 24.6787 110.931 26.0019C111.195 27.3251 111.846 28.5405 112.803 29.4945C113.76 30.4485 114.979 31.0982 116.306 31.3614C117.633 31.6246 119.009 31.4895 120.259 30.9732C121.509 30.4569 122.577 29.5826 123.329 28.4608C124.081 27.3391 124.482 26.0202 124.482 24.6711C124.478 22.8634 123.755 21.131 122.473 19.8527C121.191 18.5745 119.454 17.8543 117.641 17.8498Z"
    fill="#35C9FC"
  />
  <path
    d="M154.296 265.062C153.312 265.062 152.351 265.352 151.533 265.896C150.714 266.44 150.075 267.213 149.697 268.118C149.318 269.023 149.216 270.019 149.405 270.981C149.593 271.944 150.062 272.829 150.754 273.526C151.446 274.223 152.329 274.7 153.292 274.898C154.255 275.096 155.255 275.005 156.167 274.636C157.078 274.268 157.86 273.639 158.414 272.829C158.968 272.019 159.269 271.063 159.279 270.083C159.284 269.427 159.158 268.776 158.91 268.168C158.662 267.56 158.296 267.007 157.833 266.541C157.37 266.075 156.819 265.704 156.212 265.45C155.605 265.196 154.954 265.064 154.296 265.062Z"
    fill="#35C9FC"
  />
  <path
    d="M250.839 44.1828C249.682 44.1828 248.55 44.525 247.588 45.1661C246.626 45.8072 245.876 46.7185 245.433 47.7846C244.99 48.8507 244.874 50.0238 245.1 51.1556C245.326 52.2874 245.883 53.327 246.701 54.1429C247.52 54.9589 248.562 55.5146 249.697 55.7397C250.832 55.9648 252.009 55.8493 253.078 55.4077C254.148 54.9661 255.061 54.2183 255.704 53.2588C256.347 52.2993 256.691 51.1713 256.691 50.0173C256.691 48.4699 256.074 46.9859 254.977 45.8917C253.879 44.7975 252.391 44.1828 250.839 44.1828Z"
    fill="#35C9FC"
  />
  <path
    d="M43.4799 96.2084C45.3211 96.2084 46.8137 94.7202 46.8137 92.8843C46.8137 91.0485 45.3211 89.5602 43.4799 89.5602C41.6386 89.5602 40.146 91.0485 40.146 92.8843C40.146 94.7202 41.6386 96.2084 43.4799 96.2084Z"
    fill="#35C9FC"
  />
  <path
    d="M314.287 79.2071C313.159 79.2105 312.058 79.5479 311.122 80.1762C310.187 80.8046 309.46 81.6958 309.033 82.7368C308.606 83.7777 308.499 84.9216 308.725 86.0234C308.951 87.1252 309.5 88.1353 310.302 88.9256C311.105 89.716 312.124 90.2509 313.232 90.4628C314.34 90.6746 315.486 90.5537 316.524 90.1154C317.563 89.6771 318.448 88.9412 319.067 88.0009C319.685 87.0606 320.01 85.9584 320 84.8338C319.986 83.3337 319.378 81.9 318.307 80.8458C317.237 79.7916 315.792 79.2024 314.287 79.2071Z"
    fill="#35C9FC"
  />
  <path
    d="M11.1989 116.447C13.2032 116.447 14.828 114.827 14.828 112.829C14.828 110.83 13.2032 109.21 11.1989 109.21C9.19461 109.21 7.56982 110.83 7.56982 112.829C7.56982 114.827 9.19461 116.447 11.1989 116.447Z"
    fill="#35C9FC"
  />
  <path
    d="M163.69 5.73038L165.982 3.46237C166.357 3.08064 166.566 2.56795 166.566 2.03405C166.566 1.50014 166.357 0.987452 165.982 0.605724C165.596 0.231343 165.079 0.0218601 164.541 0.0218601C164.003 0.0218601 163.486 0.231343 163.1 0.605724L160.825 2.85642L158.55 0.588411C158.165 0.21403 157.648 0.00454712 157.109 0.00454712C156.571 0.00454712 156.054 0.21403 155.668 0.588411C155.294 0.970139 155.084 1.48283 155.084 2.01674C155.084 2.55064 155.294 3.06333 155.668 3.44506L158.012 5.73038L155.668 7.99838C155.288 8.37949 155.076 8.89548 155.077 9.43283C155.079 9.97018 155.294 10.4849 155.677 10.8637C156.059 11.2425 156.576 11.4544 157.115 11.4528C157.654 11.4512 158.17 11.2361 158.55 10.855L160.825 8.65628L163.1 10.9243C163.48 11.3054 163.996 11.5204 164.535 11.522C165.074 11.5237 165.591 11.3118 165.973 10.9329C166.356 10.5541 166.571 10.0394 166.573 9.50208C166.575 8.96473 166.362 8.44875 165.982 8.06763L163.69 5.73038Z"
    fill="#35C9FC"
  />
  <path
    d="M8.68194 74.4459L10.9566 72.1605C11.1461 71.9738 11.2966 71.7513 11.3993 71.5062C11.502 71.261 11.5549 70.9979 11.5549 70.7322C11.5549 70.4665 11.502 70.2035 11.3993 69.9583C11.2966 69.7131 11.1461 69.4907 10.9566 69.3039C10.5738 68.9306 10.0596 68.7216 9.5241 68.7216C8.98862 68.7216 8.47442 68.9306 8.09157 69.3039L5.74744 71.5026L3.47276 69.252C3.08698 68.8776 2.5699 68.6681 2.03156 68.6681C1.49321 68.6681 0.976128 68.8776 0.590349 69.252C0.21597 69.6337 0.00634379 70.1464 0.00634379 70.6803C0.00634379 71.2142 0.21597 71.7269 0.590349 72.1086L2.86503 74.4459L0.590349 76.6446C0.21042 77.0257 -0.00210719 77.5417 -0.000478994 78.0791C0.0011492 78.6164 0.216799 79.1311 0.599031 79.5099C0.981263 79.8887 1.49877 80.1006 2.0377 80.099C2.57662 80.0974 3.09283 79.8824 3.47276 79.5013L5.74744 77.2333L8.02211 79.5013C8.4106 79.8346 8.91108 80.0092 9.42324 79.9901C9.9354 79.971 10.4214 79.7595 10.7838 79.3982C11.1462 79.0369 11.3582 78.5523 11.3774 78.0416C11.3966 77.531 11.2215 77.032 10.8872 76.6446L8.68194 74.4459Z"
    fill="#35C9FC"
  />
  <path
    d="M277.319 213.071L279.246 211.15C279.445 211.001 279.61 210.811 279.729 210.593C279.848 210.375 279.919 210.135 279.936 209.887C279.954 209.64 279.918 209.392 279.831 209.159C279.744 208.927 279.608 208.716 279.432 208.54C279.256 208.365 279.045 208.229 278.812 208.143C278.579 208.056 278.329 208.02 278.081 208.038C277.833 208.055 277.592 208.126 277.373 208.244C277.155 208.363 276.965 208.527 276.815 208.726L274.888 210.647L272.961 208.726C272.636 208.409 272.2 208.231 271.745 208.231C271.291 208.231 270.854 208.409 270.53 208.726C270.211 209.049 270.033 209.484 270.033 209.938C270.033 210.391 270.211 210.826 270.53 211.15L272.457 213.071L270.53 214.993C270.263 215.325 270.129 215.743 270.151 216.167C270.174 216.592 270.353 216.993 270.653 217.295C270.954 217.596 271.355 217.777 271.78 217.803C272.206 217.829 272.626 217.697 272.961 217.434L274.888 215.495L276.815 217.434C277.14 217.751 277.576 217.929 278.031 217.929C278.485 217.929 278.922 217.751 279.246 217.434C279.57 217.11 279.751 216.671 279.751 216.214C279.751 215.756 279.57 215.317 279.246 214.993L277.319 213.071Z"
    fill="#35C9FC"
  />
</svg>
