<svg width="355" height="170" viewBox="0 0 355 170" fill="none" xmlns="http://www.w3.org/2000/svg">
<path d="M289.509 136.817C273.912 125.936 270.389 105.684 270.956 87.4449C271.081 84.426 270.704 81.2184 272.151 78.5139C273.597 75.8724 276.993 74.0484 279.698 75.3063C281.962 76.3755 282.905 79.0171 284.226 81.1555C285.924 84.0486 288.377 86.4386 291.333 87.9481C293.283 88.9544 295.673 89.5833 297.56 88.5141C300.201 87.0676 300.516 83.4197 300.453 80.4008C300.39 74.7403 300.39 69.1427 300.327 63.4822C300.327 60.4633 300.327 57.3815 301.208 54.4883C302.151 51.5952 304.227 48.9536 307.12 48.136C310.013 47.3184 313.535 49.0165 314.164 51.9726C314.415 53.2305 314.164 54.4883 314.227 55.7462C314.29 57.0041 314.919 58.3878 316.114 58.7651C317.309 59.1425 318.504 58.262 319.447 57.3815C322.592 54.3626 324.667 50.4002 326.68 46.5008C328.63 42.6013 330.579 38.5761 333.41 35.2427C336.24 31.9093 340.139 29.2677 344.479 29.0162C348.819 28.7646 353.41 31.469 354.479 35.683C355.548 39.9598 353.095 44.2366 350.391 47.6958C346.366 52.7902 341.649 57.3186 336.366 61.0922C335.422 61.7841 334.353 62.4759 334.038 63.608C333.41 65.6206 335.296 67.6332 337.309 68.2622C339.573 69.0169 342.026 68.7653 344.353 69.0798C346.68 69.3314 349.259 70.4006 350.139 72.6019C351.397 75.6837 348.819 78.9542 346.24 81.0297C341.146 85.2436 335.359 88.6399 329.133 90.9041C326.931 91.7217 324.541 92.4136 322.78 93.9859C321.019 95.5583 319.887 98.2627 321.019 100.401C322.089 102.54 324.856 103.231 327.183 102.791C329.51 102.351 331.586 101.093 333.787 100.275C337.938 98.703 343.284 99.0175 345.988 102.602C347.749 104.93 347.875 108.263 346.995 111.03C346.114 113.861 344.29 116.25 342.403 118.515C335.737 126.314 327.246 132.603 317.623 135.936C308 139.458 299.069 140.339 289.509 136.817Z" fill="#6E4BE8"/>
<path d="M289.258 150.339C289.887 143.106 291.522 134.616 294.164 125.433C296.868 116.251 300.642 106.439 304.918 96.3131C305.988 93.7973 307.057 91.2816 308.126 88.8287C309.195 86.3758 310.264 83.9229 311.397 81.5958C313.724 76.9417 316.302 72.6649 318.881 68.6396C321.46 64.6144 324.101 60.9036 326.554 57.5073C329.007 54.0482 331.397 50.9034 333.661 48.1361C338.19 42.5385 342.403 38.4504 345.359 35.7459C346.869 34.4252 348.064 33.4188 348.882 32.727C349.259 32.4125 349.573 32.161 349.825 31.9723C350.014 31.7836 350.139 31.7207 350.139 31.7207C350.139 31.7207 350.077 31.8465 349.825 32.0352C349.573 32.2239 349.322 32.4754 348.944 32.8528C348.127 33.5446 346.995 34.6138 345.548 35.9346C342.592 38.6391 338.504 42.7901 334.039 48.3877C331.774 51.2179 329.447 54.3626 326.994 57.8218C324.541 61.281 321.963 64.9918 319.384 68.9541C316.805 72.9793 314.227 77.2561 311.963 81.8474C310.768 84.1745 309.761 86.5645 308.692 89.0174C307.623 91.4702 306.554 93.986 305.485 96.5018C301.208 106.628 297.434 116.439 294.73 125.559C292.025 134.679 290.39 143.169 289.698 150.339" fill="#263238"/>
<path d="M311.585 81.533C311.522 81.533 311.459 81.0927 311.271 80.2751C311.082 79.4575 310.893 78.1996 310.705 76.6901C310.264 73.6712 309.824 69.5202 309.384 64.9289C308.881 60.3376 308.378 56.1866 307.937 53.1677C307.686 51.6582 307.497 50.4632 307.371 49.6456C307.246 48.828 307.183 48.3248 307.183 48.3248C307.246 48.3248 307.371 48.7651 307.56 49.5827C307.749 50.4003 308.063 51.5953 308.315 53.1048C308.881 56.0608 309.447 60.2747 309.95 64.866C310.39 69.3944 310.831 73.5454 311.145 76.6901C311.271 78.1367 311.397 79.3317 311.522 80.2751C311.585 81.0927 311.648 81.533 311.585 81.533Z" fill="#263238"/>
<path d="M350.454 74.3001C350.454 74.363 349.888 74.4259 348.882 74.4888C347.875 74.5517 346.429 74.6774 344.668 74.929C341.083 75.3064 336.24 75.9982 330.831 77.0045C325.485 78.0108 320.642 79.1429 317.183 80.0863C315.422 80.5266 314.038 80.904 313.095 81.2184C312.151 81.47 311.585 81.5958 311.585 81.5958C311.585 81.5329 312.089 81.3442 313.032 81.0298C313.975 80.7153 315.359 80.2121 317.057 79.709C320.516 78.7027 325.296 77.5077 330.705 76.4385C336.114 75.4322 341.02 74.8032 344.605 74.4888C346.366 74.363 347.875 74.3001 348.819 74.2372C349.888 74.2372 350.454 74.2372 350.454 74.3001Z" fill="#263238"/>
<path d="M294.667 124.741C294.667 124.741 294.541 124.616 294.415 124.238C294.226 123.861 294.038 123.421 293.723 122.855C293.157 121.66 292.402 119.836 291.459 117.634C289.572 113.169 287.182 106.942 284.666 100.024C282.088 93.1055 279.761 86.879 278 82.4135C277.119 80.2122 276.427 78.4512 275.861 77.1304C275.61 76.5643 275.421 76.0612 275.295 75.6838C275.169 75.3693 275.107 75.1807 275.107 75.1807C275.107 75.1807 275.232 75.3065 275.358 75.6838C275.547 76.0612 275.736 76.5014 276.05 77.0675C276.616 78.2625 277.371 80.0864 278.314 82.2877C280.201 86.7532 282.591 92.9797 285.107 99.8981C287.685 106.816 290.013 113.043 291.774 117.508C292.654 119.71 293.346 121.471 293.912 122.792C294.164 123.358 294.352 123.861 294.478 124.238C294.667 124.553 294.73 124.741 294.667 124.741Z" fill="#263238"/>
<path d="M346.303 108.074C346.303 108.074 346.114 108.137 345.8 108.263C345.423 108.389 344.919 108.577 344.29 108.766C342.907 109.206 341.02 109.835 338.756 110.527C334.102 112.037 327.686 114.175 320.579 116.628C313.472 119.018 307.057 121.156 302.34 122.54C300.013 123.232 298.063 123.798 296.742 124.175C296.113 124.364 295.61 124.49 295.233 124.553C294.856 124.615 294.667 124.678 294.667 124.678C294.667 124.678 294.856 124.615 295.17 124.49C295.547 124.364 296.051 124.175 296.679 123.987C298.063 123.546 299.95 122.917 302.214 122.225C306.868 120.716 313.284 118.578 320.391 116.125C327.498 113.735 333.913 111.596 338.63 110.213C340.957 109.521 342.907 108.955 344.228 108.577C344.856 108.389 345.36 108.263 345.737 108.2C346.114 108.074 346.303 108.074 346.303 108.074Z" fill="#263238"/>
<path d="M65.2889 136.817C80.8867 125.936 84.4088 105.684 83.8428 87.445C83.717 84.4261 84.0943 81.2185 82.6478 78.5141C81.2012 75.8725 77.8049 74.0486 75.1004 75.3065C72.8363 76.3757 71.8928 79.0172 70.5721 81.1556C68.8739 84.0488 66.421 86.4387 63.465 87.9482C61.5153 88.9545 59.1253 89.5835 57.2385 88.5143C54.5969 87.0677 54.2825 83.4198 54.3453 80.4009C54.4082 74.7404 54.4082 69.1428 54.4711 63.4823C54.4711 60.4634 54.4711 57.3816 53.5906 54.4885C52.6472 51.5953 50.5717 48.9538 47.6786 48.1361C44.7854 47.3185 41.2633 49.0167 40.6344 51.9727C40.3828 53.2306 40.6344 54.4885 40.5715 55.7464C40.5086 57.0042 39.8797 58.3879 38.6847 58.7653C37.4897 59.1426 36.2947 58.2621 35.3513 57.3816C32.2066 54.3627 30.1311 50.4003 28.1184 46.5009C26.1687 42.6015 24.219 38.5762 21.3888 35.2428C18.5585 31.9094 14.6591 29.2679 10.3194 29.0163C5.97966 28.9534 1.38838 31.595 0.256285 35.8718C-0.812917 40.1486 1.63996 44.4254 4.34441 47.8846C8.36964 52.979 13.0867 57.5074 18.3698 61.281C19.3132 61.9729 20.3824 62.6647 20.6969 63.7968C21.3259 65.8094 19.439 67.822 17.4264 68.451C15.1622 69.2057 12.7093 68.9541 10.3823 69.2686C8.05517 69.5202 5.47651 70.5894 4.59599 72.7907C3.3381 75.8725 5.91677 79.143 8.49543 81.2185C13.5899 85.4324 19.3761 88.8287 25.6027 91.0929C27.804 91.9105 30.1939 92.6024 31.955 94.1747C33.716 95.7471 34.8481 98.4515 33.716 100.59C32.6468 102.728 29.8795 103.42 27.5524 102.98C25.2253 102.54 23.1498 101.282 20.9485 100.464C16.7975 98.8918 11.4515 99.2063 8.74701 102.791C6.98597 105.118 6.86018 108.452 7.7407 111.219C8.62122 114.049 10.4452 116.439 12.332 118.703C18.9988 126.502 27.4895 132.792 37.1123 136.125C46.798 139.459 55.729 140.339 65.2889 136.817Z" fill="#6E4BE8"/>
<path d="M65.5405 150.339C64.9115 143.106 63.2763 134.616 60.6347 125.433C57.9303 116.251 54.1566 106.439 49.8798 96.3131C48.8106 93.7973 47.7414 91.2816 46.6722 88.8287C45.603 86.3758 44.5338 83.9229 43.4017 81.5958C41.0746 76.9417 38.4959 72.6649 35.9173 68.6396C33.3386 64.6144 30.6971 60.9036 28.2442 57.5073C25.7913 54.0482 23.4013 50.9034 21.1371 48.1361C16.5459 42.4756 12.3948 38.3875 9.37591 35.7459C7.86645 34.4252 6.67146 33.4188 5.85383 32.727C5.47647 32.4125 5.162 32.161 4.91042 31.9723C4.72174 31.7836 4.59595 31.7207 4.59595 31.7207C4.59595 31.7207 4.65884 31.8465 4.91042 32.0352C5.162 32.2239 5.41357 32.4754 5.79094 32.8528C6.60856 33.5446 7.74066 34.6138 9.18723 35.9346C12.2062 38.6391 16.2943 42.7272 20.7598 48.3248C23.024 51.155 25.351 54.2997 27.8039 57.7589C30.2568 61.2181 32.8355 64.9289 35.4141 68.8912C37.9928 72.9164 40.5715 77.1932 42.8357 81.7845C44.0306 84.1116 45.0369 86.5016 46.1062 88.9545C47.1754 91.4073 48.2446 93.9231 49.3138 96.4389C53.5906 106.565 57.3642 116.376 60.0687 125.496C62.7731 134.616 64.4084 143.106 65.1002 150.276" fill="#263238"/>
<path d="M43.2131 81.533C43.276 81.533 43.3389 81.0927 43.5275 80.2751C43.7162 79.4575 43.9049 78.1996 44.0936 76.6901C44.5338 73.6712 44.9741 69.5202 45.4144 64.9289C45.9175 60.3376 46.4207 56.1866 46.8609 53.1677C47.1125 51.6582 47.3012 50.4632 47.427 49.6456C47.5528 48.828 47.6157 48.3248 47.6157 48.3248C47.5528 48.3248 47.427 48.7651 47.2383 49.5827C47.0496 50.4003 46.7351 51.5953 46.4836 53.1048C45.9175 56.0608 45.3515 60.2747 44.8483 64.866C44.4081 69.3944 43.9678 73.5454 43.6533 76.6901C43.5275 78.1367 43.4017 79.3317 43.276 80.2751C43.2131 81.0927 43.1502 81.533 43.2131 81.533Z" fill="#263238"/>
<path d="M4.34436 74.3001C4.34436 74.363 4.91041 74.4259 5.91672 74.4888C6.92302 74.5517 8.36959 74.6774 10.1306 74.929C13.7156 75.3064 18.5585 75.9982 23.9674 77.0045C29.3134 78.0108 34.1562 79.1429 37.6154 80.0863C39.3765 80.5266 40.7601 80.904 41.7035 81.2184C42.647 81.47 43.213 81.5958 43.213 81.5958C43.213 81.5329 42.7099 81.3442 41.7664 81.0298C40.823 80.7153 39.4393 80.2121 37.7412 79.709C34.282 78.7027 29.5021 77.5077 24.0932 76.4385C18.6842 75.4322 13.7785 74.8032 10.1935 74.4888C8.43249 74.363 6.92302 74.3001 5.97961 74.2372C4.91041 74.2372 4.34436 74.2372 4.34436 74.3001Z" fill="#263238"/>
<path d="M60.1315 124.741C60.1315 124.741 60.2573 124.616 60.3831 124.238C60.5718 123.861 60.7604 123.421 61.0749 122.855C61.641 121.66 62.3957 119.836 63.3391 117.634C65.2259 113.169 67.6159 106.942 70.1317 100.024C72.7103 93.1055 75.0374 86.879 76.7985 82.4135C77.679 80.2122 78.3708 78.4512 78.9369 77.1304C79.1885 76.5643 79.3771 76.0612 79.5029 75.6838C79.6287 75.3693 79.6916 75.1807 79.6916 75.1807C79.6916 75.1807 79.5658 75.3065 79.44 75.6838C79.2514 76.0612 79.0627 76.5014 78.7482 77.0675C78.1821 78.2625 77.4274 80.0864 76.484 82.2877C74.5972 86.7532 72.2072 92.9797 69.6914 99.8981C67.1128 106.816 64.7857 113.043 63.0246 117.508C62.1441 119.71 61.4523 121.471 60.8862 122.792C60.6347 123.358 60.446 123.861 60.3202 124.238C60.1315 124.553 60.0686 124.741 60.1315 124.741Z" fill="#263238"/>
<path d="M8.49536 108.074C8.49536 108.074 8.68404 108.137 8.99852 108.263C9.37588 108.389 9.87904 108.577 10.508 108.766C11.8917 109.206 13.7785 109.835 16.0427 110.527C20.6968 112.037 27.1121 114.175 34.2191 116.628C41.3262 119.018 47.7414 121.156 52.4584 122.54C54.7855 123.232 56.7352 123.798 58.056 124.175C58.685 124.364 59.1881 124.49 59.5655 124.553C59.9429 124.615 60.1315 124.678 60.1315 124.678C60.1315 124.678 59.9429 124.615 59.6284 124.49C59.251 124.364 58.7479 124.175 58.1189 123.987C56.7352 123.546 54.8484 122.917 52.5842 122.225C47.93 120.716 41.5148 118.578 34.4078 116.125C27.3007 113.735 20.8855 111.596 16.1685 110.213C13.8414 109.521 11.8916 108.955 10.5709 108.577C9.94193 108.389 9.43877 108.263 9.06141 108.2C8.68404 108.074 8.49536 108.074 8.49536 108.074Z" fill="#263238"/>
<path d="M36.4026 43.0196C36.4026 43.1454 35.3963 43.2712 34.2013 43.2712C32.9434 43.2712 32 43.1454 32 43.0196C32 42.8939 33.0063 42.7681 34.2013 42.7681C35.3963 42.831 36.4026 42.8939 36.4026 43.0196Z" fill="#263238"/>
<path d="M38.7925 36.9818C38.9183 36.9818 39.044 37.9881 39.044 39.246C39.044 40.5039 38.9183 41.5102 38.7925 41.5102C38.6667 41.5102 38.5409 40.5039 38.5409 39.246C38.5409 37.9881 38.6038 36.9818 38.7925 36.9818Z" fill="#263238"/>
<path d="M41.3082 42.8939C41.3082 42.7681 42.3145 42.6423 43.5095 42.6423C44.7674 42.6423 45.7108 42.7681 45.7108 42.8939C45.7108 43.0197 44.7045 43.1455 43.5095 43.1455C42.3145 43.1455 41.3082 43.0197 41.3082 42.8939Z" fill="#263238"/>
<path d="M38.9183 48.9946C38.7925 48.9946 38.6667 47.9883 38.6667 46.7304C38.6667 45.4725 38.7925 44.4662 38.9183 44.4662C39.0441 44.4662 39.1699 45.4725 39.1699 46.7304C39.1699 47.9883 39.0441 48.9946 38.9183 48.9946Z" fill="#263238"/>
<path d="M42.5033 46.353C42.3776 46.4159 41.9373 46.1015 41.497 45.5354C41.0568 45.0323 40.8052 44.5291 40.8681 44.4033C40.9939 44.3404 41.4341 44.6549 41.8744 45.2209C42.3776 45.787 42.6291 46.2901 42.5033 46.353Z" fill="#263238"/>
<path d="M42.3146 39.4976C42.4404 39.6233 42.1259 40.0636 41.6856 40.5039C41.2454 40.9441 40.8051 41.2586 40.6793 41.1328C40.5535 41.007 40.868 40.5668 41.3083 40.1265C41.7485 39.6862 42.2517 39.3718 42.3146 39.4976Z" fill="#263238"/>
<path d="M37.2201 41.2586C37.1572 41.3844 36.7169 41.1328 36.2767 40.8184C35.8364 40.441 35.5849 40.0636 35.6477 40.0007C35.7106 39.8749 36.1509 40.1265 36.5912 40.441C37.0314 40.7555 37.283 41.1328 37.2201 41.2586Z" fill="#263238"/>
<path d="M37.0315 44.2775C37.1573 44.3404 36.9057 44.7807 36.4654 45.2838C36.0252 45.7241 35.6478 46.0385 35.522 45.9128C35.3962 45.8499 35.6478 45.4096 36.0881 44.9065C36.4654 44.4662 36.9057 44.2146 37.0315 44.2775Z" fill="#263238"/>
<path d="M318.923 83.4606C318.923 83.5235 318.357 83.5864 317.666 83.5864C316.974 83.5864 316.408 83.5235 316.408 83.4606C316.408 83.3977 316.974 83.3348 317.666 83.3348C318.357 83.3348 318.923 83.3977 318.923 83.4606Z" fill="#263238"/>
<path d="M320.307 80.0644C320.37 80.0644 320.433 80.6304 320.433 81.3223C320.433 82.0141 320.37 82.5802 320.307 82.5802C320.244 82.5802 320.181 82.0141 320.181 81.3223C320.181 80.6304 320.244 80.0644 320.307 80.0644Z" fill="#263238"/>
<path d="M321.754 83.3977C321.754 83.3348 322.32 83.2719 323.012 83.2719C323.704 83.2719 324.27 83.3348 324.27 83.3977C324.27 83.4606 323.704 83.5235 323.012 83.5235C322.32 83.5235 321.754 83.4606 321.754 83.3977Z" fill="#263238"/>
<path d="M320.37 86.8569C320.307 86.8569 320.244 86.2908 320.244 85.599C320.244 84.9072 320.307 84.3411 320.37 84.3411C320.433 84.3411 320.496 84.9072 320.496 85.599C320.496 86.2908 320.433 86.8569 320.37 86.8569Z" fill="#263238"/>
<path d="M322.446 85.3475C322.383 85.4104 322.131 85.2217 321.88 84.9072C321.628 84.5928 321.502 84.3412 321.565 84.2783C321.628 84.2154 321.88 84.4041 322.131 84.7185C322.32 85.033 322.509 85.3475 322.446 85.3475Z" fill="#263238"/>
<path d="M322.32 81.448C322.383 81.5109 322.194 81.7625 321.942 82.0141C321.691 82.2657 321.439 82.4543 321.376 82.3915C321.314 82.3286 321.502 82.077 321.754 81.8254C322.005 81.5738 322.257 81.3851 322.32 81.448Z" fill="#263238"/>
<path d="M319.427 82.4543C319.364 82.5172 319.112 82.3914 318.861 82.2027C318.609 82.0141 318.483 81.7625 318.483 81.6996C318.546 81.6367 318.798 81.7625 319.049 81.9512C319.301 82.2027 319.489 82.3914 319.427 82.4543Z" fill="#263238"/>
<path d="M319.301 84.1525C319.364 84.2154 319.238 84.467 318.986 84.7186C318.735 84.9701 318.546 85.1588 318.483 85.0959C318.42 85.033 318.546 84.7815 318.798 84.5299C318.986 84.2783 319.238 84.1525 319.301 84.1525Z" fill="#263238"/>
<path d="M42.3147 98.744L42.4404 99.1213C42.692 99.7503 43.1952 100.191 43.8241 100.442L44.2015 100.631L43.8241 100.757C43.1952 101.008 42.692 101.511 42.4404 102.14L42.3147 102.392L42.1889 102.077C41.9373 101.511 41.4341 101.071 40.8052 100.819L40.4907 100.694L40.931 100.505C41.497 100.253 41.8744 99.8132 42.126 99.2471L42.3147 98.744Z" fill="#263238"/>
<path d="M322.131 19.5601L322.257 19.9375C322.508 20.5664 323.012 21.0067 323.641 21.2583L324.018 21.3841L323.641 21.5098C323.012 21.7614 322.508 22.2646 322.257 22.8935L322.131 23.1451L322.005 22.8306C321.754 22.2646 321.251 21.8243 320.622 21.5727L320.307 21.4469L320.747 21.2583C321.313 21.0067 321.691 20.5664 321.942 20.0004L322.131 19.5601Z" fill="#263238"/>
<path d="M292.948 167.236H58.4155C53.3839 167.236 49.2329 163.148 49.2329 158.053V9.18256C49.2329 4.15102 53.321 0 58.4155 0H292.948C297.98 0 302.131 4.08813 302.131 9.18256V158.053C302.131 163.085 297.98 167.236 292.948 167.236Z" fill="#263238"/>
<path d="M301.439 169.5H49.8619C43.6983 169.5 38.6667 164.468 38.6667 158.305V154.846H312.634V158.305C312.634 164.468 307.603 169.5 301.439 169.5Z" fill="#263238"/>
<path d="M294.583 6.66675H56.0255V147.864H294.583V6.66675Z" fill="#455A64"/>
<path d="M150.744 154.846L154.141 160.255H202.003L205.148 154.846H150.744Z" fill="#455A64"/>
<path d="M288.105 147.424H63.0068C61.8747 147.424 60.9313 146.481 60.9313 145.349V13.4594C60.9313 12.3273 61.8747 11.3839 63.0068 11.3839H288.105C289.237 11.3839 290.181 12.3273 290.181 13.4594V145.349C290.181 146.481 289.3 147.424 288.105 147.424Z" fill="#EBEBEB"/>
<path d="M290.181 21.384H60.9313V147.424H290.181V21.384Z" fill="#FAFAFA"/>
<path d="M79.7367 16.667C79.7367 17.6733 78.9191 18.4909 77.9128 18.4909C76.9065 18.4909 76.0889 17.6733 76.0889 16.667C76.0889 15.6606 76.9065 14.843 77.9128 14.843C78.9191 14.843 79.7367 15.6606 79.7367 16.667Z" fill="#263238"/>
<path d="M68.6673 16.667C68.6673 17.6733 67.8497 18.4909 66.8433 18.4909C65.837 18.4909 65.0194 17.6733 65.0194 16.667C65.0194 15.6606 65.837 14.843 66.8433 14.843C67.8497 14.843 68.6673 15.6606 68.6673 16.667Z" fill="#263238"/>
<path d="M74.0133 16.667C74.0133 17.6733 73.1957 18.4909 72.1894 18.4909C71.1831 18.4909 70.3655 17.6733 70.3655 16.667C70.3655 15.6606 71.1831 14.843 72.1894 14.843C73.1957 14.843 74.0133 15.6606 74.0133 16.667Z" fill="#263238"/>
<path d="M299.929 154.846C299.929 154.909 243.828 155.034 174.581 155.034C105.335 155.034 49.2329 154.971 49.2329 154.846C49.2329 154.783 105.335 154.657 174.581 154.657C243.828 154.657 299.929 154.783 299.929 154.846Z" fill="#455A64"/>
<path d="M129.172 84.8444H76.8435V88.3664H129.172V84.8444Z" fill="#E0E0E0"/>
<path d="M196.72 36.29H144.392V39.8121H196.72V36.29Z" fill="#E0E0E0"/>
<path d="M274.52 49.3092C274.52 49.3721 245.4 49.4978 209.487 49.4978C173.575 49.4978 144.455 49.435 144.455 49.3092C144.455 49.2463 173.575 49.1205 209.487 49.1205C245.4 49.1205 274.52 49.2463 274.52 49.3092Z" fill="#E0E0E0"/>
<path d="M274.52 56.9823C274.52 57.0452 245.4 57.1709 209.487 57.1709C173.575 57.1709 144.455 57.108 144.455 56.9823C144.455 56.8565 173.575 56.7936 209.487 56.7936C245.4 56.7936 274.52 56.8565 274.52 56.9823Z" fill="#E0E0E0"/>
<path d="M274.52 64.5924C274.52 64.6553 245.4 64.7811 209.487 64.7811C173.575 64.7811 144.455 64.7182 144.455 64.5924C144.455 64.4666 173.575 64.4037 209.487 64.4037C245.4 64.4037 274.52 64.5295 274.52 64.5924Z" fill="#E0E0E0"/>
<path d="M274.52 72.2655C274.52 72.3284 245.4 72.4542 209.487 72.4542C173.575 72.4542 144.455 72.3913 144.455 72.2655C144.455 72.1397 173.575 72.0768 209.487 72.0768C245.4 72.0768 274.52 72.1397 274.52 72.2655Z" fill="#E0E0E0"/>
<path d="M274.52 79.8758C274.52 79.9387 245.4 80.0644 209.487 80.0644C173.575 80.0644 144.455 80.0015 144.455 79.8758C144.455 79.75 173.575 79.6871 209.487 79.6871C245.4 79.6871 274.52 79.8129 274.52 79.8758Z" fill="#E0E0E0"/>
<path d="M195.211 87.5488C195.211 87.6117 183.827 87.7375 169.801 87.7375C155.776 87.7375 144.392 87.6746 144.392 87.5488C144.392 87.4859 155.776 87.3601 169.801 87.3601C183.827 87.3601 195.211 87.423 195.211 87.5488Z" fill="#E0E0E0"/>
<path d="M273.577 102.329C273.577 102.392 254.457 102.518 230.809 102.518C207.16 102.518 188.041 102.455 188.041 102.329C188.041 102.203 207.16 102.14 230.809 102.14C254.457 102.203 273.577 102.266 273.577 102.329Z" fill="#E0E0E0"/>
<path d="M273.577 110.442C273.577 110.505 254.457 110.631 230.809 110.631C207.16 110.631 188.041 110.568 188.041 110.442C188.041 110.317 207.16 110.254 230.809 110.254C254.457 110.317 273.577 110.379 273.577 110.442Z" fill="#E0E0E0"/>
<path d="M273.577 118.556C273.577 118.619 254.457 118.744 230.809 118.744C207.16 118.744 188.041 118.681 188.041 118.556C188.041 118.43 207.16 118.367 230.809 118.367C254.457 118.43 273.577 118.493 273.577 118.556Z" fill="#E0E0E0"/>
<path d="M273.577 126.669C273.577 126.732 254.457 126.858 230.809 126.858C207.16 126.858 188.041 126.795 188.041 126.669C188.041 126.543 207.16 126.48 230.809 126.48C254.457 126.543 273.577 126.606 273.577 126.669Z" fill="#E0E0E0"/>
<path d="M129.297 101.574C129.297 101.637 117.914 101.763 103.825 101.763C89.7369 101.763 78.353 101.7 78.353 101.574C78.353 101.511 89.7369 101.386 103.825 101.386C117.851 101.386 129.297 101.511 129.297 101.574Z" fill="#E0E0E0"/>
<path d="M129.297 107.927C129.297 107.989 117.914 108.115 103.825 108.115C89.7369 108.115 78.353 108.052 78.353 107.927C78.353 107.801 89.7369 107.738 103.825 107.738C117.851 107.801 129.297 107.864 129.297 107.927Z" fill="#E0E0E0"/>
<path d="M129.297 114.342C129.297 114.405 117.914 114.53 103.825 114.53C89.7369 114.53 78.353 114.468 78.353 114.342C78.353 114.216 89.7369 114.153 103.825 114.153C117.851 114.153 129.297 114.216 129.297 114.342Z" fill="#E0E0E0"/>
<path d="M129.297 120.694C129.297 120.757 117.914 120.883 103.825 120.883C89.7369 120.883 78.353 120.82 78.353 120.694C78.353 120.568 89.7369 120.505 103.825 120.505C117.851 120.505 129.297 120.568 129.297 120.694Z" fill="#E0E0E0"/>
<path d="M129.297 127.046C129.297 127.109 117.914 127.235 103.825 127.235C89.7369 127.235 78.353 127.172 78.353 127.046C78.353 126.921 89.7369 126.858 103.825 126.858C117.851 126.921 129.297 126.983 129.297 127.046Z" fill="#E0E0E0"/>
<path d="M181.5 98.4924H144.392V134.405H181.5V98.4924Z" fill="#F5F5F5"/>
<path d="M147.285 131.323L157.537 112.832L165.902 124.656L170.996 118.367L178.606 131.323H147.285Z" fill="#EBEBEB"/>
<path d="M169.487 109.247C169.487 110.694 168.292 111.889 166.845 111.889C165.399 111.889 164.204 110.694 164.204 109.247C164.204 107.801 165.399 106.606 166.845 106.606C168.292 106.543 169.487 107.738 169.487 109.247Z" fill="#EBEBEB"/>
<path d="M178.607 131.386C178.607 131.386 178.607 131.323 178.607 131.26C178.607 131.135 178.607 131.009 178.607 130.82C178.607 130.443 178.607 129.877 178.607 129.185C178.607 127.738 178.607 125.726 178.544 123.084C178.544 117.864 178.481 110.379 178.481 101.386L178.607 101.511C169.55 101.511 158.732 101.511 147.222 101.511C147.159 101.574 147.537 101.197 147.411 101.323V101.386V101.448V101.574V101.826V102.329V103.335C147.411 104.027 147.411 104.719 147.411 105.348C147.411 106.669 147.411 108.052 147.411 109.373C147.411 112.015 147.411 114.593 147.411 117.109C147.411 122.141 147.411 126.921 147.411 131.26L147.285 131.135C156.656 131.197 164.455 131.197 169.99 131.197C172.757 131.197 174.896 131.197 176.405 131.26C177.16 131.26 177.726 131.26 178.103 131.26C178.292 131.26 178.418 131.26 178.544 131.26C178.544 131.386 178.607 131.386 178.607 131.386C178.607 131.386 178.544 131.386 178.481 131.386C178.355 131.386 178.229 131.386 178.04 131.386C177.663 131.386 177.097 131.386 176.405 131.386C174.896 131.386 172.757 131.386 170.053 131.449C164.518 131.449 156.656 131.512 147.285 131.512H147.159V131.386C147.159 126.983 147.159 122.266 147.159 117.235C147.159 114.719 147.159 112.14 147.159 109.499C147.159 108.178 147.159 106.857 147.159 105.474C147.159 104.782 147.159 104.153 147.159 103.461V102.455V101.952V101.7V101.574V101.511V101.448C146.971 101.574 147.348 101.197 147.348 101.26C158.858 101.26 169.613 101.26 178.732 101.26H178.858V101.386C178.795 110.379 178.795 117.864 178.795 123.147C178.795 125.726 178.795 127.801 178.732 129.185C178.732 129.877 178.732 130.38 178.732 130.757C178.732 130.946 178.732 131.072 178.732 131.135C178.607 131.386 178.607 131.386 178.607 131.386Z" fill="#EBEBEB"/>
<path d="M128.165 30.3151H77.85V78.9952H128.165V30.3151Z" fill="#F5F5F5"/>
<path d="M81.7493 74.8442L95.6489 49.7494L107.033 65.7874L113.951 57.2967L124.266 74.8442H81.7493Z" fill="#E0E0E0"/>
<path d="M111.876 44.9065C111.876 46.9192 110.24 48.5544 108.228 48.5544C106.215 48.5544 104.58 46.9192 104.58 44.9065C104.58 42.8939 106.215 41.2587 108.228 41.2587C110.303 41.2587 111.876 42.8939 111.876 44.9065Z" fill="#E0E0E0"/>
<path d="M124.266 74.9699C124.266 74.9699 124.266 74.907 124.266 74.7812C124.266 74.6555 124.266 74.4668 124.266 74.2152C124.266 73.712 124.266 72.9573 124.266 72.0139C124.266 70.0642 124.266 67.2968 124.203 63.7119C124.203 56.6048 124.14 46.4788 124.077 34.2774L124.266 34.466C111.938 34.466 97.347 34.466 81.7492 34.5289C81.6863 34.5918 82.1895 34.0887 82.0008 34.2774V34.3402V34.4031V34.5918V34.9692V35.661V37.1076C82.0008 38.051 82.0008 38.9315 82.0008 39.8749C82.0008 41.6989 82.0008 43.5228 82.0008 45.2838C82.0008 48.8688 82.0008 52.3909 82.0008 55.7872C82.0008 62.5798 82.0008 69.0579 82.0008 74.9699L81.8121 74.7812C94.5168 74.8441 105.083 74.8441 112.567 74.907C116.278 74.907 119.234 74.9699 121.247 74.9699C122.253 74.9699 123.008 74.9699 123.574 74.9699C123.825 74.9699 124.014 74.9699 124.14 74.9699C124.203 74.9699 124.266 74.9699 124.266 74.9699C124.266 74.9699 124.203 74.9699 124.077 74.9699C123.951 74.9699 123.763 74.9699 123.511 74.9699C123.008 74.9699 122.253 74.9699 121.247 74.9699C119.234 74.9699 116.341 74.9699 112.63 75.0328C105.146 75.0328 94.5167 75.0957 81.7492 75.1586H81.5605V74.9699C81.5605 69.0579 81.5605 62.5798 81.5605 55.7872C81.5605 52.3909 81.5605 48.8688 81.5605 45.2838C81.5605 43.5228 81.5605 41.6989 81.5605 39.8749C81.5605 38.9315 81.5605 38.051 81.5605 37.1076V35.7239V35.0321V34.6547V34.466V34.4031V34.3402C81.3718 34.5289 81.875 34.0258 81.8121 34.0887C97.4099 34.0887 112.001 34.0887 124.329 34.1516H124.517V34.3402C124.454 46.5417 124.454 56.7306 124.392 63.9005C124.392 67.4226 124.329 70.19 124.329 72.1397C124.329 73.0831 124.329 73.7749 124.329 74.2781C124.329 74.5297 124.329 74.6555 124.329 74.8441C124.266 74.907 124.266 74.9699 124.266 74.9699Z" fill="#E0E0E0"/>
<path d="M200.871 66.605L195.839 66.5421L196.028 52.8312C196.028 42.7681 187.789 34.5289 177.726 34.5289C167.6 34.5289 159.424 42.7681 159.424 52.8312L159.235 66.5421L154.203 66.4792L154.392 52.7683C154.392 39.9379 164.896 29.4345 177.726 29.4345C190.619 29.4345 201.06 39.9379 201.06 52.7683L200.871 66.605Z" fill="#263238"/>
<path d="M201.311 128.053H154.581C148.228 128.053 143.071 122.895 143.071 116.543V71.4479C143.071 65.0956 148.228 59.9382 154.581 59.9382H201.311C207.664 59.9382 212.821 65.0956 212.821 71.4479V116.543C212.821 122.895 207.664 128.053 201.311 128.053Z" fill="#13B5FF"/>
<g opacity="0.3">
<path opacity="0.3" d="M184.896 90.379C184.896 86.5424 181.814 83.3977 177.915 83.3977C174.015 83.3977 170.933 86.4795 170.933 90.379C170.933 92.8947 172.254 95.0331 174.204 96.291L172.443 104.53H183.827C183.827 104.53 182.569 99.3728 181.751 96.1652C183.701 94.9073 184.896 92.8318 184.896 90.379Z" fill="black"/>
</g>
<g opacity="0.2">
<g opacity="0.2">
<path opacity="0.2" d="M147.537 107.423C147.097 107.423 146.908 99.4358 147.097 89.6872C147.285 79.8757 147.851 71.951 148.292 71.951C148.732 71.951 148.92 79.8757 148.732 89.6872C148.543 99.4987 147.977 107.423 147.537 107.423Z" fill="white"/>
</g>
</g>
<g opacity="0.2">
<g opacity="0.2">
<path opacity="0.2" d="M147.6 115.285C147.159 115.285 146.782 114.53 146.782 113.587C146.782 112.644 147.096 111.826 147.6 111.826C148.04 111.826 148.417 112.581 148.417 113.524C148.417 114.468 148.04 115.285 147.6 115.285Z" fill="white"/>
</g>
</g>
<g opacity="0.2">
<g opacity="0.2">
<path opacity="0.2" d="M169.487 105.662C169.109 105.537 169.99 101.952 171.436 97.1087L171.625 97.9263C170.933 97.2345 170.241 96.5426 169.55 95.7879C168.355 94.4042 167.726 92.7061 167.663 91.1337C167.6 89.5614 168.04 88.1777 168.606 87.2343C169.172 86.228 169.864 85.599 170.367 85.2217C170.87 84.8443 171.248 84.7814 171.311 84.8443C171.499 85.033 170.43 85.9135 169.675 87.7374C169.298 88.618 169.046 89.813 169.235 91.0079C169.361 92.2658 169.927 93.5866 170.807 94.6558C171.499 95.4105 172.191 96.1024 172.82 96.7942L173.135 97.1716L173.009 97.6118C171.311 102.329 169.864 105.788 169.487 105.662Z" fill="white"/>
</g>
</g>
<g opacity="0.2">
<g opacity="0.2">
<path opacity="0.2" d="M198.229 64.6554C198.229 64.9069 195.462 65.0956 190.934 65.1585C186.405 65.2843 180.242 65.3472 173.323 65.2843C169.864 65.2843 166.594 65.2214 163.638 65.1585C160.681 65.0956 157.977 64.9069 155.839 65.1585C153.7 65.3472 152.065 66.1019 151.059 66.7938C150.052 67.4856 149.675 68.0516 149.549 67.9888C149.486 67.9259 149.675 67.234 150.681 66.2906C151.625 65.4101 153.386 64.4038 155.713 64.0264C156.845 63.8377 158.103 63.7748 159.486 63.7119C160.807 63.7119 162.254 63.7119 163.7 63.649C166.656 63.649 169.927 63.649 173.386 63.649C180.242 63.7119 186.468 63.8377 190.934 64.0264C195.399 64.2151 198.292 64.4667 198.229 64.6554Z" fill="white"/>
</g>
</g>
</svg>
