<svg width="184" height="179" viewBox="0 0 184 179" fill="none" xmlns="http://www.w3.org/2000/svg">
<g clip-path="url(#clip0)">
<path fill-rule="evenodd" clip-rule="evenodd" d="M78.2023 11.8457H175.214C176.871 40.7967 171.321 52.5426 161.131 63.4612C152.515 72.6428 138.68 77.6059 138.348 85.2986C137.685 100.849 144.81 95.7209 162.042 112.347C179.274 128.973 175.794 171.738 175.794 171.738H77.7053C77.7053 171.738 73.9772 128.973 91.2091 112.347C108.441 95.7209 116.643 100.849 115.98 85.2986C115.649 77.5232 100.902 72.5601 92.3689 63.4612C82.0961 52.6253 76.5454 40.7967 78.2023 11.8457Z" fill="#E3E3E3"/>
<path fill-rule="evenodd" clip-rule="evenodd" d="M87.0664 38.5639L166.267 38.3984C166.267 38.3984 161.047 60.4839 138.513 71.9816C135.034 73.7187 130.726 79.3435 130.56 89.6004C130.56 90.0967 129.732 102.339 129.649 115.739C129.649 127.237 131.472 136.336 126.418 136.17C120.785 135.922 123.436 126.823 123.436 114.995C123.353 102.67 123.27 87.367 123.436 85.7127C123.85 78.3508 116.725 73.1397 116.725 73.1397C90.6288 62.0556 87.0664 38.5639 87.0664 38.5639Z" fill="#13B5FF"/>
<path fill-rule="evenodd" clip-rule="evenodd" d="M125.011 115.408C125.011 115.408 108.774 130.463 95.684 139.396C82.5944 148.33 84.6655 152.962 83.9199 157.677L169.417 159C169.417 159 170.742 150.315 162.54 144.856C158.315 141.878 138.681 128.229 125.011 115.408Z" fill="#13B5FF"/>
<path fill-rule="evenodd" clip-rule="evenodd" d="M184.071 -0.0234375H69.1582C69.1582 7.68632 75.3894 13.96 83.1581 13.96H170.152C177.759 13.96 184.071 7.68632 184.071 -0.0234375Z" fill="#6E4BE8"/>
<path fill-rule="evenodd" clip-rule="evenodd" d="M69.0854 178.996H183.998C183.998 171.286 177.767 165.013 169.998 165.013H83.0044C75.3975 165.088 69.0854 171.286 69.0854 178.996Z" fill="#6E4BE8"/>
<path d="M135.391 111.15C135.391 148.484 105.07 178.758 67.6775 178.758C30.2851 178.758 -0.035553 148.484 -0.035553 111.15C-0.035553 73.8152 30.3164 43.5415 67.7088 43.5415C105.101 43.5415 135.391 73.8152 135.391 111.15Z" fill="#6E4BE8"/>
<g opacity="0.55">
<g opacity="0.55">
<path opacity="0.55" d="M129.227 111.125C129.227 145.054 101.691 172.547 67.709 172.547C33.7273 172.547 6.19152 145.054 6.19152 111.125C6.19152 77.1956 33.7273 49.7025 67.709 49.7025C101.691 49.7025 129.227 77.1956 129.227 111.125Z" fill="#3C6BFF"/>
</g>
</g>
<path d="M122.938 111.145C122.938 141.606 98.1865 166.318 67.6781 166.318C37.1697 166.318 12.4187 141.606 12.4187 111.145C12.4187 80.6834 37.201 55.9708 67.7094 55.9708C98.2178 55.9708 122.938 80.6834 122.938 111.145Z" fill="#E3E3E3"/>
<path d="M67.8428 163.911H67.7514C66.9737 163.911 66.3333 163.271 66.3333 162.495V155.324C66.3333 154.548 66.9737 153.908 67.7514 153.908H67.8428C68.6205 153.908 69.2609 154.548 69.2609 155.324V162.495C69.3067 163.271 68.6205 163.911 67.8428 163.911ZM31.522 147.468L31.4305 147.377C30.8816 146.829 30.8816 145.916 31.4305 145.367L34.6783 142.125C35.2273 141.577 36.1421 141.577 36.6911 142.125L36.7826 142.216C37.3315 142.764 37.3315 143.678 36.7826 144.226L33.5347 147.468C32.9858 148.017 32.0709 148.017 31.522 147.468ZM99.3148 142.673L99.4063 142.581C99.9553 142.033 100.87 142.033 101.419 142.581L104.026 145.185C104.575 145.733 104.575 146.646 104.026 147.194L103.935 147.286C103.386 147.834 102.471 147.834 101.922 147.286L99.3148 144.682C98.7659 144.18 98.7659 143.266 99.3148 142.673ZM23.5167 112.711H16.2892C15.5115 112.711 14.8711 112.072 14.8711 111.295V111.204C14.8711 110.427 15.5115 109.788 16.2892 109.788H23.471C24.2487 109.788 24.8891 110.427 24.8891 111.204V111.295C24.9348 112.072 24.2944 112.711 23.5167 112.711ZM119.076 112.528H111.894C111.117 112.528 110.476 111.889 110.476 111.112V111.021C110.476 110.245 111.117 109.605 111.894 109.605H119.076C119.854 109.605 120.494 110.245 120.494 111.021V111.112C120.54 111.889 119.9 112.528 119.076 112.528ZM31.2933 75.0306L31.3847 74.9392C31.9337 74.3912 32.8486 74.3912 33.3975 74.9392L36.6453 78.182C37.1943 78.7301 37.1943 79.6436 36.6453 80.1917L36.5538 80.283C36.0049 80.8311 35.09 80.8311 34.5411 80.283L31.2933 77.0402C30.7443 76.5378 30.7443 75.6243 31.2933 75.0306ZM99.2691 79.5522L99.1776 79.4609C98.6287 78.9128 98.6287 77.9993 99.1776 77.4513L101.785 74.8479C102.334 74.2998 103.249 74.2998 103.798 74.8479L103.889 74.9392C104.438 75.4873 104.438 76.4008 103.889 76.9489L101.282 79.5522C100.733 80.146 99.818 80.146 99.2691 79.5522ZM67.6599 68.4536H67.5684C66.7907 68.4536 66.1503 67.8142 66.1503 67.0378V59.867C66.1503 59.0906 66.7907 58.4512 67.5684 58.4512H67.6599C68.4375 58.4512 69.0779 59.0906 69.0779 59.867V67.0378C69.0779 67.8142 68.4375 68.4536 67.6599 68.4536Z" fill="#6E4BE8"/>
<path d="M67.7386 112H67.6134C66.7373 112 66.0176 111.282 66.0176 110.407V75.7594C66.0176 74.8846 66.7373 74.166 67.6134 74.166H67.7386C68.6147 74.166 69.3344 74.8846 69.3344 75.7594V110.407C69.3344 111.282 68.6147 112 67.7386 112Z" fill="#6E4BE8"/>
<path d="M66.0391 113.296V113.171C66.0391 112.297 66.7588 111.578 67.6349 111.578H91.6349C92.511 111.578 93.2307 112.297 93.2307 113.171V113.296C93.2307 114.171 92.511 114.89 91.6349 114.89H67.6349C66.7588 114.859 66.0391 114.171 66.0391 113.296Z" fill="#6E4BE8"/>
<path d="M96.3871 89.5142L67.8935 110.957" stroke="#6E4BE8" stroke-width="2.00181" stroke-miterlimit="10" stroke-linecap="round"/>
<path d="M73.6543 111.132C73.6543 114.413 70.9946 117.1 67.6778 117.1C64.3923 117.1 61.7012 114.444 61.7012 111.132C61.7012 107.821 64.361 105.165 67.6778 105.165C70.9946 105.165 73.6543 107.852 73.6543 111.132Z" fill="#6E4BE8"/>
</g>
<defs>
<clipPath id="clip0">
<rect width="184" height="179" fill="white"/>
</clipPath>
</defs>
</svg>
