<svg width="46" height="31" viewBox="0 0 46 31" fill="none" xmlns="http://www.w3.org/2000/svg">
<g filter="url(#filter0_d)">
<path d="M42.583 27H3.70302C2.93777 27 2.31445 26.3559 2.31445 25.5605V1.43949C2.31445 0.644914 2.937 0 3.70302 0H42.583C43.3491 0 43.9716 0.644143 43.9716 1.43949V25.5605C43.9716 26.3551 43.3491 27 42.583 27Z" fill="white"/>
</g>
<path d="M15.3724 13.2963V12.8728L15.1734 13.2963H13.4569L13.2409 12.8419V13.2963H10.0318L9.65302 12.3798H9.01042L8.60928 13.2963H6.94299V10.5315L8.16494 7.71579H10.4993L10.8279 8.51267V7.72042H13.6845L14.3124 9.06424L14.9265 7.71424H23.9445C23.9445 7.71424 24.4174 7.70884 24.7275 7.93179L24.7267 7.71579H26.997V8.0205C26.997 8.0205 27.4059 7.71502 28.0099 7.71502H32.0183L32.3708 8.52425V7.71424H34.9389L35.4056 8.52347V7.71424H37.8611V13.3009H35.3385L34.7445 12.3274V13.2955H31.6102L31.1689 12.2981H30.5541L30.1399 13.2955H28.2437C28.2437 13.2955 27.5355 13.287 27.004 12.899V13.2955H23.2279V11.9918C23.2279 11.8028 23.0851 11.8159 23.0851 11.8159H22.9478V13.2955H15.3732L15.3724 13.2963ZM13.487 14.5067H18.4519L19.1671 15.3336L19.8999 14.5067H23.7177C23.7177 14.5067 24.0764 14.5144 24.4174 14.7011V14.5067H27.8155C28.2468 14.5067 28.6101 14.7265 28.6101 14.7265V14.5067H32.9787V14.7088C32.9787 14.7088 33.2888 14.5067 33.7077 14.5067H36.5543V14.7088C36.5543 14.7088 36.9122 14.5067 37.2918 14.5067H39.5266V19.7709C39.5266 19.7709 39.2327 20.1103 38.624 20.1103H35.6787V19.9429C35.6787 19.9429 35.3987 20.1096 34.9705 20.1096H27.1467V18.7495C27.1467 18.6153 27.0881 18.5906 26.9716 18.5906H26.8636V20.1103H24.4182V18.6014C24.4182 18.6014 24.1458 18.7503 23.693 18.7503H22.8136V20.1103H19.7989L19.1123 19.2564L18.3794 20.1096H13.4886V14.5067H13.487Z" fill="white"/>
<path d="M29.1339 15.346H32.2489V16.1985H30.0881V16.9429H32.1887V17.6943H30.0881V18.4765H32.2481V19.3073H29.1347L29.1339 15.346ZM38.2676 16.8889C39.4386 16.9506 39.5366 17.5485 39.5366 18.1849C39.5366 18.927 38.9387 19.3251 38.3154 19.3251H36.3136V18.4757H37.8734C38.1372 18.4757 38.5314 18.4757 38.5314 18.0962C38.5314 17.9157 38.462 17.8007 38.1804 17.7699C37.9616 17.7481 37.7422 17.7329 37.5224 17.7244C36.4648 17.6958 36.2179 17.1589 36.2179 16.5055C36.2179 15.7618 36.7294 15.3561 37.3527 15.3561H39.3553V16.2054H37.8896C37.5571 16.2093 37.1976 16.1653 37.1976 16.5487C37.1976 16.7925 37.3751 16.8418 37.6011 16.8634C37.6782 16.8634 38.1982 16.8912 38.2676 16.8904V16.8889ZM34.6797 16.8889C35.8507 16.9506 35.9502 17.5485 35.9502 18.1849C35.9502 18.927 35.3508 19.3251 34.7275 19.3251H32.7257V18.4757H34.2855C34.5501 18.4757 34.9443 18.4757 34.9443 18.0962C34.9443 17.9157 34.8749 17.8007 34.5933 17.7699C34.3742 17.7481 34.1545 17.7329 33.9345 17.7244C32.8769 17.6958 32.6308 17.1589 32.6308 16.5055C32.6308 15.7618 33.1415 15.3561 33.7663 15.3561H35.7674V16.2054H34.3032C33.97 16.2093 33.6097 16.1653 33.6097 16.5487C33.6097 16.7925 33.7871 16.8418 34.0132 16.8634C34.0911 16.8634 34.611 16.8912 34.6797 16.8904V16.8889ZM23.0604 17.1558H21.8724V16.2046H23.0635C23.4623 16.2046 23.5881 16.4669 23.5881 16.6606C23.5881 16.9267 23.4492 17.1558 23.0604 17.1558ZM20.912 18.9355L19.5419 17.2823L20.912 15.7356V18.9355ZM17.2678 18.4765H15.0715V17.6943H17.1729V16.9429H15.0715V16.1985L17.3897 16.2046L18.3161 17.2823L17.2678 18.4765ZM23.3813 15.3545H20.0357L18.9441 16.5842L17.8872 15.346H14.1327V19.3073H17.7677L18.9109 17.999L20.0279 19.3166H21.857V17.9712H23.1376C23.6328 17.9712 24.5339 17.9542 24.5339 16.5664C24.5339 15.5759 23.8496 15.3553 23.3821 15.3553L23.3813 15.3545ZM27.1613 17.1034H25.9741V16.2046H27.1652C27.564 16.2046 27.6898 16.4669 27.6898 16.6598C27.6898 16.9259 27.5509 17.1034 27.1613 17.1034ZM27.9845 17.5122C28.5052 17.2476 28.6425 16.8935 28.6425 16.4168C28.6425 15.5682 27.9675 15.3561 27.4985 15.3561H25.0214V19.3166H25.9741V17.918H27.2215C27.5509 17.918 27.6813 18.2543 27.689 18.5899L27.7152 19.3158H28.6425L28.6078 18.502C28.6078 17.864 28.435 17.5647 27.9829 17.5114L27.9845 17.5122ZM25.4033 12.4732H26.356V8.50964H25.4033V12.4732ZM17.6018 8.51273H20.7161V9.36593H18.5553V10.1088H20.6559V10.8602H18.5553V11.6424H20.7153V12.4732H17.6018V8.51273ZM23.423 10.26H22.235V9.36284H23.4269C23.8249 9.36284 23.9507 9.62282 23.9507 9.81799C23.9507 10.0834 23.8118 10.26 23.423 10.26ZM24.2453 10.6696C24.7661 10.405 24.9034 10.0517 24.9034 9.57344C24.9034 8.7241 24.2284 8.51273 23.7601 8.51273H21.2815V12.4732H22.2358V11.077H23.4816C23.8118 11.077 23.9422 11.4125 23.9507 11.7481L23.9769 12.4732H24.9034L24.8694 11.6602C24.8694 11.023 24.6966 10.7229 24.2446 10.6696H24.2453ZM8.68949 10.7344L9.25803 9.34973L9.84972 10.7344H8.68949ZM15.4032 8.5135L14.2353 11.1703L13.0689 8.5135H11.5762V12.3282L9.90989 8.51273H8.65015L6.953 12.4732H7.9574L8.32923 11.5892H10.2331L10.6096 12.4732H12.5289V9.5341L13.8017 12.4732H14.6681L15.9718 9.5827V12.4732H16.9253V8.51273H15.4048L15.4032 8.5135ZM30.3365 10.7368L30.9043 9.35204L31.5022 10.7368H30.3373H30.3365ZM36.1894 8.51041V11.2536L34.584 8.51119H33.1746V12.231L31.5508 8.51273H30.291L28.9788 11.5807C28.9788 11.5807 28.4234 11.5807 28.3686 11.5668C28.1372 11.519 27.7793 11.3547 27.7746 10.655V10.368C27.7746 9.43921 28.2683 9.37133 28.9009 9.37133H29.4903V8.51041H28.2452C27.8124 8.51041 26.8705 8.8483 26.8389 10.4752C26.8181 11.5722 27.284 12.4756 28.3416 12.4756H29.5991L29.9701 11.5915H31.8717L32.2489 12.4756H34.1289V9.57499L35.8438 12.4763H37.1436V8.50964H36.1894V8.51041Z" fill="#0078A9"/>
<defs>
<filter id="filter0_d" x="0.314453" y="0" width="45.6571" height="31" filterUnits="userSpaceOnUse" color-interpolation-filters="sRGB">
<feFlood flood-opacity="0" result="BackgroundImageFix"/>
<feColorMatrix in="SourceAlpha" type="matrix" values="0 0 0 0 0 0 0 0 0 0 0 0 0 0 0 0 0 0 127 0"/>
<feOffset dy="2"/>
<feGaussianBlur stdDeviation="1"/>
<feColorMatrix type="matrix" values="0 0 0 0 0 0 0 0 0 0 0 0 0 0 0 0 0 0 0.117386 0"/>
<feBlend mode="normal" in2="BackgroundImageFix" result="effect1_dropShadow"/>
<feBlend mode="normal" in="SourceGraphic" in2="effect1_dropShadow" result="shape"/>
</filter>
</defs>
</svg>
