<svg width="47" height="31" viewBox="0 0 47 31" fill="none" xmlns="http://www.w3.org/2000/svg">
<g filter="url(#filter0_d)">
<path d="M42.8975 27H4.01748C3.25222 27 2.62891 26.3559 2.62891 25.5605V1.43949C2.62891 0.644914 3.25145 0 4.01748 0H42.8975C43.6635 0 44.286 0.644143 44.286 1.43949V25.5605C44.286 26.3551 43.6635 27 42.8975 27Z" fill="white"/>
</g>
<path d="M24.2568 14.1473C26.6004 14.1588 28.7388 12.1979 28.7388 9.81028C28.7388 7.20131 26.6004 5.39771 24.2568 5.40003H22.2411C19.8697 5.39771 17.918 7.20286 17.918 9.81028C17.918 12.1979 19.8697 14.1588 22.2395 14.1473H24.2568Z" fill="#050302"/>
<path d="M22.2503 5.76025C20.1181 5.8104 18.4155 7.58854 18.4155 9.76474C18.4155 11.9409 20.1181 13.7191 22.2495 13.7692C24.4172 13.7692 26.1746 11.9764 26.1746 9.76551C26.1746 7.55305 24.4172 5.76025 22.2503 5.76025ZM19.7632 9.76705C19.764 8.71637 20.3989 7.77445 21.3601 7.39723V12.1346C20.3996 11.7581 19.7648 10.817 19.7632 9.76705ZM23.1405 12.1353V7.398C24.1017 7.77445 24.7366 8.71637 24.7374 9.76628C24.7366 10.817 24.1017 11.7589 23.1405 12.1353Z" fill="white"/>
<path d="M13.0895 14.9642C13.0895 14.5476 12.8773 14.5754 12.6729 14.5707V14.4496C12.8503 14.4596 13.0316 14.4596 13.2083 14.4596C13.398 14.4596 13.6557 14.4496 13.9928 14.4496C15.1661 14.4496 15.8049 15.2504 15.8049 16.0681C15.8049 16.5263 15.5426 17.6788 13.938 17.6788C13.7066 17.6788 13.4929 17.6688 13.2815 17.6688C13.0771 17.6688 12.8773 17.6734 12.6729 17.6788V17.5569C12.9452 17.5284 13.0771 17.5199 13.0895 17.2052V14.9634V14.9642ZM13.533 17.1319C13.533 17.489 13.783 17.5299 14.0051 17.5299C14.9841 17.5299 15.3065 16.7762 15.3065 16.0874C15.3065 15.2226 14.7619 14.5985 13.8871 14.5985C13.7012 14.5985 13.6171 14.6116 13.533 14.6162V17.1319ZM15.9638 17.5569H16.0494C16.1767 17.5569 16.267 17.5569 16.267 17.405V16.1514C16.267 15.9493 16.1991 15.92 16.0317 15.8282V15.7541C16.1959 15.7072 16.3576 15.6519 16.5161 15.5882C16.5407 15.573 16.569 15.565 16.5979 15.5651C16.6203 15.5651 16.6288 15.5921 16.6288 15.6291V17.4042C16.6288 17.5585 16.7291 17.5585 16.8563 17.5585H16.9335V17.6788C16.7784 17.6788 16.6211 17.6688 16.4575 17.6688C16.294 17.6688 16.1304 17.6734 15.9638 17.6788V17.5569ZM16.4498 14.8523C16.3901 14.8492 16.3339 14.8236 16.2924 14.7806C16.2509 14.7377 16.2272 14.6806 16.2261 14.6209C16.2261 14.5052 16.3356 14.3972 16.4498 14.3972C16.5655 14.3972 16.6704 14.4967 16.6704 14.6209C16.6709 14.6807 16.648 14.7383 16.6067 14.7815C16.5653 14.8247 16.5088 14.8501 16.449 14.8523H16.4498ZM17.3639 16.1799C17.3639 16.0087 17.3138 15.9624 17.1017 15.8752V15.7865C17.2961 15.7232 17.4812 15.6631 17.6987 15.5628C17.7126 15.5628 17.7257 15.5744 17.7257 15.6106V15.9115C17.9842 15.7217 18.2063 15.5643 18.5111 15.5643C18.896 15.5643 19.0318 15.8513 19.0318 16.2123V17.405C19.0318 17.5585 19.1313 17.5585 19.2578 17.5585H19.3403V17.6788C19.1807 17.6788 19.0225 17.6688 18.859 17.6688C18.697 17.6688 18.5334 17.6734 18.3699 17.6788V17.5569H18.4517C18.5789 17.5569 18.6684 17.5569 18.6684 17.4042V16.2077C18.6684 15.9439 18.5111 15.8143 18.2519 15.8143C18.1076 15.8143 17.8762 15.9346 17.7257 16.038V17.405C17.7257 17.5585 17.826 17.5585 17.9533 17.5585H18.0343V17.6788C17.8762 17.6788 17.718 17.6688 17.5545 17.6688C17.3925 17.6688 17.2274 17.6734 17.0646 17.6788V17.5569H17.1472C17.2721 17.5569 17.3632 17.5569 17.3632 17.4042V16.1792V16.1799H17.3639ZM19.6836 16.4021C19.6737 16.491 19.6737 16.5808 19.6836 16.6698C19.7114 17.1095 19.9883 17.4705 20.3509 17.4705C20.6009 17.4705 20.7953 17.3317 20.9627 17.1612L21.0251 17.2244C20.8169 17.5076 20.5592 17.7475 20.1881 17.7475C19.4661 17.7475 19.3218 17.0354 19.3218 16.7392C19.3218 15.832 19.9197 15.5643 20.2367 15.5643C20.6047 15.5643 20.9997 15.8004 21.0028 16.2902C21.0028 16.3188 21.0028 16.3458 20.9997 16.3751L20.958 16.4021H19.6836ZM20.4859 16.2532C20.6009 16.2532 20.6132 16.1938 20.6132 16.1383C20.6132 15.9022 20.4736 15.714 20.2198 15.714C19.9421 15.714 19.7531 15.9207 19.6983 16.254H20.4867H20.4859V16.2532ZM21.1077 17.5569H21.2296C21.3569 17.5569 21.4471 17.5569 21.4471 17.405V16.1059C21.4471 15.9632 21.2805 15.9362 21.2118 15.8976V15.8282C21.542 15.6847 21.7233 15.5643 21.7649 15.5643C21.7919 15.5643 21.8051 15.5782 21.8051 15.6253V16.0418H21.8151C21.9269 15.8613 22.1175 15.5643 22.3952 15.5643C22.5071 15.5643 22.6529 15.643 22.6529 15.8089C22.6529 15.9346 22.5665 16.0457 22.4399 16.0457C22.2988 16.0457 22.2988 15.9346 22.1406 15.9346C22.0486 15.948 21.9646 15.9942 21.9039 16.0646C21.8432 16.1351 21.81 16.225 21.8105 16.318V17.4057C21.8105 17.5585 21.8999 17.5585 22.0272 17.5585H22.2818V17.6788C22.0311 17.6734 21.8421 17.6688 21.6461 17.6688C21.461 17.6688 21.2712 17.6734 21.1077 17.6788V17.5569ZM22.8519 17.0354C22.9113 17.3402 23.091 17.5986 23.4235 17.5986C23.6904 17.5986 23.7907 17.4327 23.7907 17.2715C23.7907 16.7253 22.8017 16.9012 22.8017 16.1568C22.8017 15.8976 23.0069 15.5643 23.5053 15.5643C23.6495 15.5643 23.8447 15.6068 24.0221 15.6986L24.053 16.1707H23.9489C23.9041 15.8791 23.7444 15.7132 23.4551 15.7132C23.2739 15.7132 23.1003 15.8197 23.1003 16.0187C23.1003 16.5587 24.1525 16.3928 24.1525 17.1188C24.1525 17.4235 23.9134 17.7475 23.3734 17.7475C23.1913 17.7475 22.9784 17.6827 22.821 17.5901L22.7709 17.0586L22.8519 17.0354ZM28.2457 15.2874H28.1323C28.0459 14.7451 27.6695 14.5283 27.1626 14.5283C26.6411 14.5283 25.8836 14.8847 25.8836 15.9948C25.8836 16.929 26.537 17.5994 27.2344 17.5994C27.6818 17.5994 28.0552 17.2854 28.1454 16.7994L28.2496 16.8272L28.1454 17.5022C27.9549 17.6233 27.4434 17.7467 27.1441 17.7467C26.0834 17.7467 25.413 17.0493 25.413 16.0087C25.413 15.0606 26.2415 14.381 27.1302 14.381C27.4967 14.381 27.8523 14.5005 28.2002 14.6263L28.2457 15.2874ZM28.4092 17.5569H28.4941C28.6214 17.5569 28.7132 17.5569 28.7132 17.405V14.8299C28.7132 14.5291 28.6445 14.5198 28.4717 14.4689V14.3941C28.633 14.3424 28.7896 14.276 28.9392 14.1958C28.9878 14.168 29.0241 14.1449 29.038 14.1449C29.0665 14.1449 29.075 14.1727 29.075 14.2097V17.405C29.075 17.5585 29.1753 17.5585 29.3018 17.5585H29.3774V17.6788C29.2246 17.6788 29.065 17.6688 28.903 17.6688C28.7394 17.6688 28.5759 17.6734 28.4092 17.6788V17.5569ZM31.3175 17.4235C31.3175 17.5083 31.3677 17.5114 31.4448 17.5114C31.4988 17.5114 31.5667 17.5076 31.6261 17.5076V17.6048C31.4057 17.6365 31.1878 17.6842 30.9743 17.7475L30.9511 17.7336V17.3594C30.6796 17.5862 30.4713 17.7475 30.1488 17.7475C29.9035 17.7475 29.6497 17.5855 29.6497 17.1982V16.0133C29.6497 15.893 29.632 15.7772 29.3789 15.7549V15.6669C29.5409 15.6623 29.9035 15.6345 29.9621 15.6345C30.0138 15.6345 30.0138 15.6669 30.0138 15.7688V16.9614C30.0138 17.0995 30.0138 17.4975 30.4072 17.4975C30.5608 17.4975 30.7652 17.378 30.955 17.216V15.9716C30.955 15.8791 30.7374 15.8282 30.5747 15.7826V15.6978C30.9827 15.6708 31.2365 15.6345 31.2828 15.6345C31.3175 15.6345 31.3175 15.6669 31.3175 15.7178V17.4227V17.4235ZM32.2201 15.8976C32.4006 15.7402 32.6459 15.5643 32.8959 15.5643C33.4212 15.5643 33.739 16.0326 33.739 16.5363C33.739 17.1419 33.3032 17.7475 32.6552 17.7475C32.3196 17.7475 32.143 17.6356 32.0257 17.5855L31.8899 17.6919L31.7935 17.641C31.8359 17.3695 31.8575 17.0941 31.8583 16.8187V14.8284C31.8583 14.5283 31.7896 14.5198 31.6168 14.4681V14.3941C31.7783 14.3428 31.9346 14.2764 32.0836 14.1958C32.1345 14.168 32.1707 14.1449 32.1839 14.1449C32.2116 14.1449 32.2209 14.1727 32.2209 14.2097V15.8976H32.2201ZM32.2201 17.155C32.2201 17.3309 32.3829 17.6271 32.6861 17.6271C33.1721 17.6271 33.3757 17.1411 33.3757 16.7292C33.3757 16.2301 33.0054 15.815 32.6506 15.815C32.4832 15.815 32.342 15.9261 32.2209 16.0326V17.1558L32.2201 17.155ZM12.6683 20.3672H12.703C12.7917 20.3672 12.8858 20.3549 12.8858 20.2238V18.9062C12.8858 18.7742 12.7917 18.7627 12.703 18.7627H12.6683V18.6855C12.7639 18.6855 12.9128 18.6963 13.0331 18.6963C13.1573 18.6963 13.3039 18.6863 13.4196 18.6863V18.7627H13.3857C13.297 18.7627 13.2029 18.7742 13.2029 18.9062V20.2238C13.2029 20.3549 13.297 20.3672 13.3857 20.3672H13.4196V20.4444C13.3024 20.4444 13.1535 20.4336 13.0301 20.4336C12.9097 20.4336 12.7639 20.4436 12.6675 20.4436V20.3672H12.6683Z" fill="#050302"/>
<path d="M13.4196 20.4537C13.3008 20.4537 13.1535 20.4429 13.0301 20.4429C12.9105 20.4429 12.7655 20.4537 12.6675 20.4537H12.6575V20.3565H12.7022C12.7917 20.3549 12.8727 20.3472 12.875 20.2238V18.9062C12.8727 18.7828 12.7917 18.7743 12.7022 18.7735H12.6575V18.6755H12.6683C12.7655 18.6755 12.9128 18.6863 13.0332 18.6863C13.1566 18.6863 13.3039 18.6755 13.4196 18.6755H13.4312V18.7735H13.3849C13.2962 18.7743 13.2152 18.7828 13.2152 18.9062V20.2238C13.2152 20.3472 13.2962 20.3549 13.3849 20.3565H13.4312V20.4537H13.4196ZM13.4096 20.4321V20.3789H13.3857C13.2978 20.3789 13.1928 20.3634 13.1928 20.2246V18.9054C13.1928 18.7666 13.297 18.7511 13.3857 18.7511H13.4088V18.6971C13.2962 18.6971 13.1535 18.7087 13.0347 18.7087C12.9167 18.7087 12.774 18.6979 12.6798 18.6979V18.7511H12.703C12.7909 18.7511 12.8958 18.7666 12.8958 18.9054V20.2246C12.8958 20.3634 12.7917 20.3781 12.703 20.3781H12.6798V20.4321C12.7755 20.4321 12.9136 20.4213 13.0301 20.4213C13.1512 20.4213 13.2939 20.4321 13.4096 20.4321ZM15.1145 19.9476L15.1191 19.9422V18.9988C15.1191 18.792 14.9787 18.7627 14.9046 18.7627H14.8506V18.6856C14.9664 18.6856 15.0798 18.6964 15.1955 18.6964C15.2958 18.6964 15.3984 18.6863 15.4994 18.6863V18.7627H15.4632C15.359 18.7627 15.2425 18.782 15.2425 19.0813V20.2269C15.2425 20.3156 15.2456 20.4028 15.2572 20.4815H15.1631L13.8933 19.0358V20.0734C13.8933 20.2932 13.935 20.3673 14.1247 20.3673H14.1679V20.4444C14.0615 20.4444 13.955 20.4336 13.8486 20.4336C13.7382 20.4336 13.6248 20.4437 13.5145 20.4437V20.3673H13.5492C13.719 20.3673 13.7706 20.2493 13.7706 20.0487V18.988C13.7707 18.9581 13.7649 18.9284 13.7535 18.9007C13.7421 18.8731 13.7254 18.8479 13.7043 18.8267C13.6836 18.806 13.6589 18.7896 13.6317 18.7786C13.6046 18.7676 13.5755 18.7622 13.5462 18.7627H13.5153V18.6856C13.6079 18.6856 13.7028 18.6964 13.7976 18.6964C13.8717 18.6964 13.9442 18.6863 14.0167 18.6863L15.1145 19.9476Z" fill="#050302"/>
<path d="M15.2572 20.4907L15.1561 20.4884L13.9041 19.0643V20.0741C13.9072 20.2917 13.9396 20.3549 14.1247 20.3565H14.1779V20.4537H14.1679C14.0599 20.4537 13.9542 20.4436 13.8485 20.4436C13.7382 20.4436 13.6248 20.4544 13.5145 20.4544H13.5029V20.3565H13.5477C13.7112 20.3557 13.7583 20.2492 13.7606 20.0479V18.9887C13.7605 18.9312 13.7378 18.876 13.6973 18.8352C13.6776 18.8153 13.654 18.7996 13.628 18.789C13.602 18.7784 13.5742 18.7731 13.5461 18.7735H13.5029V18.6763H13.5137C13.6071 18.6763 13.705 18.6848 13.7968 18.6848C13.8694 18.6848 13.9426 18.6771 14.0252 18.6794L15.109 19.9245V18.9995C15.1083 18.7974 14.9764 18.7758 14.9046 18.7735H14.839V18.6763H14.8498C14.9663 18.6763 15.0813 18.6848 15.1954 18.6848C15.2957 18.6848 15.3976 18.6771 15.4986 18.6771H15.5102V18.7719H15.4624C15.3598 18.7766 15.2556 18.7851 15.2541 19.0805V20.2269C15.2541 20.314 15.2556 20.4027 15.2672 20.4791L15.2703 20.4915H15.2579L15.2572 20.4907ZM15.163 20.4691H15.2456C15.2348 20.3888 15.2302 20.3078 15.2317 20.2269V19.0813C15.2317 18.7797 15.3567 18.7511 15.4624 18.7511H15.4878V18.6971C15.3914 18.6971 15.295 18.7087 15.1962 18.7087C15.082 18.7087 14.9733 18.6979 14.8622 18.6979V18.7511H14.9038C14.981 18.7511 15.1299 18.7851 15.1299 18.998L15.1268 19.9507L15.1222 19.9553L15.1144 19.963L14.0175 18.6979C13.9434 18.6979 13.8717 18.7087 13.7968 18.7087C13.7074 18.7087 13.6148 18.6979 13.5238 18.6979V18.7511H13.5461C13.6618 18.7511 13.7814 18.8414 13.7814 18.9887V20.0487C13.7814 20.2492 13.7259 20.3781 13.5477 20.3781H13.5245V20.4313C13.631 20.4313 13.7413 20.4213 13.8485 20.4213C13.9527 20.4213 14.0553 20.4321 14.1563 20.4321V20.3788H14.1255C13.9311 20.3788 13.8832 20.2917 13.8832 20.0733V19.0088L15.1638 20.4691H15.163ZM15.1144 19.9476L15.1222 19.9399L15.1144 19.9476ZM15.109 19.9422L15.1067 19.9391L15.109 19.9422ZM15.8681 18.8113C15.6838 18.8113 15.6768 18.8576 15.639 19.0412H15.5665C15.5742 18.971 15.5873 18.9008 15.595 18.8275C15.6054 18.757 15.6105 18.6858 15.6105 18.6146H15.6691C15.6892 18.6894 15.7509 18.6863 15.8172 18.6863H17.0901C17.1564 18.6863 17.2181 18.684 17.222 18.6084L17.2814 18.6192C17.27 18.6865 17.2613 18.7541 17.2552 18.8221C17.249 18.89 17.249 18.9579 17.249 19.0257L17.1765 19.0535C17.1711 18.9609 17.1572 18.8128 16.9929 18.8128H16.5902V20.1513C16.5902 20.3449 16.6766 20.3673 16.7938 20.3673H16.8409V20.4444C16.7452 20.4444 16.5724 20.4336 16.4398 20.4336C16.2909 20.4336 16.1181 20.4436 16.0224 20.4436V20.3673H16.0687C16.2052 20.3673 16.2731 20.3549 16.2731 20.1567V18.8113H15.8689H15.8681Z" fill="#050302"/>
<path d="M16.8401 20.4536C16.7437 20.4536 16.5709 20.4428 16.439 20.4428C16.2909 20.4428 16.1181 20.4536 16.0216 20.4536H16.0108V20.3564H16.0679C16.2045 20.3533 16.2585 20.351 16.2616 20.1559V18.8228H15.8689V18.802H16.2839V20.1559C16.2839 20.358 16.2037 20.3796 16.0679 20.3796H16.0324V20.432C16.1296 20.432 16.2947 20.4212 16.439 20.4212C16.567 20.4212 16.7321 20.432 16.8293 20.432V20.3788H16.7931C16.6743 20.3788 16.5786 20.3479 16.5786 20.1512V18.8012H16.9936C17.1587 18.8012 17.1803 18.9455 17.1857 19.0388L17.239 19.0188C17.239 18.9524 17.239 18.8869 17.2436 18.8213C17.2513 18.7565 17.259 18.6925 17.2698 18.6277L17.2312 18.6215C17.2197 18.6955 17.151 18.6979 17.0885 18.6979H15.8049C15.7462 18.6979 15.683 18.6955 15.6606 18.6246H15.6205C15.6205 18.694 15.6143 18.7627 15.6051 18.8282C15.5981 18.8977 15.5873 18.9632 15.5788 19.0303H15.6305C15.6629 18.8552 15.6845 18.7989 15.8697 18.8005V18.8221C15.6861 18.8259 15.6899 18.8583 15.6498 19.0442L15.6475 19.0519H15.5526L15.5549 19.0396C15.565 18.9686 15.5765 18.8984 15.585 18.8251C15.5943 18.7557 15.5997 18.6863 15.5997 18.6138V18.603H15.6768L15.6784 18.6107C15.6953 18.6739 15.7408 18.6739 15.8049 18.6739H17.0885C17.158 18.6739 17.2073 18.6739 17.212 18.6076V18.5968L17.2243 18.5976L17.293 18.6084L17.2922 18.6199C17.2815 18.6871 17.2728 18.7545 17.266 18.8221C17.2606 18.8899 17.2606 18.9578 17.2606 19.0257V19.0334L17.2528 19.0365L17.1672 19.0689L17.1657 19.055C17.158 18.9601 17.1495 18.8236 16.9936 18.8236H16.5994V20.1512C16.601 20.341 16.675 20.3533 16.7923 20.3564H16.8509V20.4536H16.8401ZM17.3608 20.3672H17.3948C17.4835 20.3672 17.5768 20.3549 17.5768 20.2237V18.9061C17.5768 18.7742 17.4835 18.7627 17.3948 18.7627H17.3608V18.6855C17.5105 18.6855 17.7666 18.6963 17.9726 18.6963C18.1809 18.6963 18.4378 18.6863 18.6052 18.6863C18.6015 18.8149 18.6033 18.9436 18.6106 19.072L18.5365 19.0921C18.5249 18.9285 18.4948 18.7974 18.2356 18.7974H17.8924V19.4562H18.1863C18.3344 19.4562 18.3668 19.3713 18.3814 19.2355H18.4547C18.4451 19.4291 18.4451 19.6229 18.4547 19.8164L18.3814 19.8319C18.366 19.6807 18.3591 19.5827 18.1886 19.5827H17.8924V20.1674C17.8924 20.3325 18.0351 20.3325 18.1932 20.3325C18.4894 20.3325 18.6206 20.3117 18.6939 20.0255L18.7633 20.0432C18.7298 20.1757 18.702 20.3095 18.68 20.4444C18.5218 20.4444 18.2372 20.4336 18.0158 20.4336C17.7936 20.4336 17.5012 20.4436 17.3601 20.4436V20.3672H17.3608Z" fill="#050302"/>
<path d="M18.6801 20.4537C18.5219 20.4537 18.2373 20.4429 18.0159 20.4429C17.7937 20.4429 17.5013 20.4537 17.3602 20.4537H17.3494V20.3565H17.3957C17.4859 20.3549 17.5654 20.3472 17.5669 20.2238V18.9062C17.5669 18.7828 17.4859 18.7743 17.3964 18.7735H17.3509V18.6755H17.3617C17.5114 18.6755 17.7675 18.6863 17.9742 18.6863C18.1825 18.6863 18.4386 18.6755 18.6068 18.6755H18.6168V18.6863C18.6122 18.8136 18.6137 18.9417 18.6207 19.0697L18.6215 19.0805L18.6137 19.0821L18.5273 19.1052V19.0929C18.5119 18.9293 18.4903 18.8105 18.2365 18.8082H17.9048V19.4462H18.1879C18.3291 19.4439 18.3545 19.3691 18.3707 19.2333L18.3715 19.224H18.4664V19.2356C18.4579 19.4285 18.4579 19.6229 18.4664 19.8157V19.8257L18.4587 19.8273L18.3715 19.8443V19.8327C18.3553 19.6784 18.3545 19.5959 18.1895 19.5935H17.904V20.1675C17.904 20.3218 18.0352 20.321 18.1949 20.3218C18.4919 20.3195 18.6114 20.3048 18.6839 20.0217L18.6878 20.0117L18.6978 20.0147L18.7773 20.0348L18.775 20.0456C18.7415 20.1781 18.7137 20.3119 18.6917 20.4467L18.6893 20.4537H18.6801ZM18.6701 20.4321C18.6917 20.3048 18.721 20.1775 18.7511 20.051L18.7017 20.0387C18.6284 20.321 18.4857 20.3449 18.1941 20.3426C18.0383 20.3426 17.8824 20.3426 17.8824 20.169V19.5727H18.1887C18.3615 19.5704 18.3784 19.6753 18.3908 19.8196L18.444 19.8072C18.4345 19.6204 18.4345 19.4332 18.444 19.2464H18.39C18.3769 19.3775 18.336 19.4693 18.1864 19.467H17.8824V18.7866H18.2365C18.4926 18.7851 18.5351 18.9201 18.5451 19.0775L18.5991 19.0636C18.5924 18.9418 18.5908 18.8198 18.5944 18.6979C18.427 18.6979 18.1771 18.7087 17.9727 18.7087C17.7721 18.7087 17.5222 18.6979 17.371 18.6979V18.7511H17.3949C17.4828 18.7511 17.5877 18.7666 17.5877 18.9054V20.2246C17.5877 20.3634 17.4836 20.3781 17.3949 20.3789H17.3717V20.4329C17.5145 20.4329 17.7991 20.4213 18.0167 20.4213C18.2342 20.4213 18.5111 20.4321 18.6708 20.4321H18.6701ZM19.0967 18.9525C19.0967 18.7697 18.9979 18.7612 18.9208 18.7612H18.8768V18.6871C18.9563 18.6871 19.1082 18.6964 19.2594 18.6964C19.4068 18.6964 19.5248 18.6863 19.6559 18.6863C19.9661 18.6863 20.2422 18.7712 20.2422 19.1291C20.2422 19.3559 20.0957 19.4948 19.9005 19.5727L20.3217 20.2169C20.3911 20.3225 20.4405 20.3526 20.5608 20.3673V20.4444C20.4798 20.4444 20.4004 20.4336 20.3186 20.4336C20.2422 20.4336 20.1643 20.4437 20.0879 20.4437C19.8984 20.1837 19.727 19.911 19.5749 19.6275H19.4129V20.1667C19.4129 20.3596 19.5009 20.3688 19.6135 20.3688H19.6583V20.4429C19.5171 20.4429 19.3751 20.4336 19.234 20.4336C19.1152 20.4336 19.0002 20.4437 18.8768 20.4437V20.3673H18.9208C19.0126 20.3673 19.0967 20.3249 19.0967 20.2315V18.9525ZM19.4129 19.5372H19.5317C19.7786 19.5372 19.9121 19.4416 19.9121 19.1438C19.9121 18.9209 19.7717 18.7774 19.5518 18.7774C19.4777 18.7774 19.4469 18.7851 19.4129 18.7882V19.5372Z" fill="#050302"/>
<path d="M20.5606 20.4537C20.4773 20.4537 20.3994 20.4429 20.3192 20.4429C20.2443 20.4429 20.1649 20.4537 20.0785 20.4491C19.8903 20.1907 19.7199 19.9198 19.5686 19.6383H19.422V20.1667C19.4243 20.3549 19.4991 20.3534 19.6133 20.3565H19.6696V20.4537H19.6581C19.5169 20.4537 19.3734 20.4429 19.233 20.4429C19.1165 20.4429 19 20.4537 18.8766 20.4537H18.8666V20.3565H18.9198C19.0093 20.3565 19.0841 20.3179 19.0841 20.2315V18.9525C19.0818 18.7743 18.9962 18.7751 18.9198 18.772H18.8643V18.6755H18.8751C18.9545 18.6755 19.1065 18.6863 19.2577 18.6863C19.4043 18.6863 19.5223 18.6755 19.655 18.6755C19.9659 18.6755 20.2513 18.7635 20.2528 19.1291C20.2528 19.3567 20.1063 19.4979 19.9149 19.5781L20.33 20.2107C20.3971 20.3156 20.4411 20.3411 20.5614 20.3573H20.5699V20.4537H20.5599H20.5606ZM19.412 19.6167H19.5794L19.5832 19.6221C19.7429 19.9114 19.9057 20.1837 20.087 20.4321C20.1633 20.4321 20.242 20.4213 20.3192 20.4213C20.3971 20.4213 20.4735 20.4313 20.5491 20.4321V20.3773C20.4349 20.3619 20.3809 20.3272 20.313 20.223L19.8841 19.5673L19.8957 19.5619C20.0885 19.4848 20.232 19.3505 20.232 19.1299C20.232 18.7805 19.9659 18.6987 19.6557 18.6979C19.5254 18.6979 19.4066 18.7087 19.2592 18.7087C19.1127 18.7087 18.9676 18.6979 18.8874 18.6979V18.7511H18.9206C18.9977 18.7511 19.1073 18.7635 19.1073 18.9525V20.2315C19.1073 20.3318 19.0131 20.3781 18.9206 20.3789H18.8874V20.4329C19.0062 20.4329 19.1188 20.4213 19.233 20.4213C19.3719 20.4213 19.5107 20.4321 19.6473 20.4321V20.3789H19.6133C19.5007 20.3789 19.4004 20.365 19.4004 20.1667V19.6167H19.412ZM19.412 19.5473H19.4019V18.7774L19.4097 18.7766C19.4436 18.7735 19.4768 18.7658 19.5516 18.7658C19.7769 18.7658 19.9219 18.9147 19.9219 19.1453C19.9219 19.4462 19.7807 19.5465 19.5315 19.548H19.412V19.5473ZM19.5315 19.5264C19.7769 19.5233 19.8995 19.4377 19.9018 19.1438C19.9003 18.9255 19.7661 18.7889 19.5516 18.7882C19.4853 18.7882 19.4536 18.7943 19.4212 18.7959V19.5257H19.5315V19.5264ZM22.2346 19.9476L22.2393 19.9422V18.9988C22.2393 18.792 22.0989 18.7627 22.0248 18.7627H21.9708V18.6856C22.0865 18.6856 22.1999 18.6964 22.3164 18.6964C22.4175 18.6964 22.517 18.6863 22.6196 18.6863V18.7627H22.5825C22.4792 18.7627 22.3635 18.782 22.3635 19.0813V20.2269C22.3635 20.3156 22.3665 20.4028 22.3781 20.4815H22.284L21.0135 19.0358V20.0734C21.0135 20.2932 21.0551 20.3673 21.2464 20.3673H21.2881V20.4444C21.1824 20.4444 21.0759 20.4336 20.9703 20.4336C20.8584 20.4336 20.745 20.4437 20.6347 20.4437V20.3673H20.6694C20.8399 20.3673 20.8908 20.2493 20.8908 20.0487V18.988C20.8909 18.9279 20.8673 18.8703 20.8252 18.8275C20.8045 18.8067 20.7799 18.7902 20.7527 18.7791C20.7256 18.768 20.6964 18.7624 20.6671 18.7627H20.6362V18.6856C20.7288 18.6856 20.8245 18.6964 20.917 18.6964C20.9911 18.6964 21.0628 18.6863 21.1377 18.6863L22.2354 19.9476H22.2346Z" fill="#050302"/>
<path d="M22.3782 20.4908L22.2763 20.4885L21.0243 19.0644V20.0742C21.0282 20.2918 21.0606 20.355 21.2465 20.3566H21.2982V20.4538H21.2881C21.1817 20.4538 21.0752 20.443 20.9688 20.443C20.86 20.443 20.7451 20.4538 20.6355 20.4538H20.6232V20.3566H20.6695C20.8315 20.3566 20.8777 20.2493 20.8793 20.048V18.9881C20.8796 18.931 20.8574 18.8761 20.8176 18.8353C20.7979 18.8155 20.7745 18.7998 20.7486 18.7892C20.7228 18.7786 20.6951 18.7733 20.6671 18.7736H20.6232V18.6756H20.6347C20.7289 18.6756 20.8253 18.6864 20.9179 18.6864C20.9911 18.6864 21.0621 18.6756 21.1439 18.6787L22.2293 19.9246V18.9989C22.2293 18.7983 22.0966 18.7744 22.0249 18.7736H21.9608V18.6756H21.9709C22.0873 18.6756 22.2 18.6864 22.3157 18.6864C22.416 18.6864 22.5178 18.6756 22.6196 18.6756H22.6304V18.7736H22.5826C22.4815 18.7767 22.3759 18.7836 22.3743 19.0822V20.227C22.3743 20.3141 22.3759 20.4013 22.3882 20.4792L22.3897 20.4916H22.3774V20.4908H22.3782ZM22.2841 20.4692H22.3643C22.3545 20.3888 22.3504 20.3079 22.3519 20.227V19.0814C22.3519 18.7798 22.4769 18.752 22.5826 18.7512H22.6081V18.6972C22.5116 18.6972 22.4152 18.7088 22.3165 18.7088C22.2023 18.7088 22.0927 18.698 21.9824 18.698V18.7512H22.0249C22.1012 18.752 22.2509 18.7852 22.2509 18.9981L22.247 19.9508L22.2424 19.9554L22.2347 19.9631L21.1377 18.698C21.0652 18.698 20.9927 18.7088 20.9179 18.7088C20.8261 18.7088 20.735 18.698 20.644 18.698V18.7512H20.6671C20.6981 18.7513 20.7287 18.7575 20.7573 18.7695C20.7859 18.7815 20.8118 18.799 20.8336 18.821C20.8553 18.843 20.8726 18.869 20.8843 18.8977C20.8959 18.9264 20.9019 18.9571 20.9017 18.9881V20.0472C20.9017 20.2493 20.8453 20.3782 20.6695 20.3789H20.644V20.4329C20.752 20.4329 20.8608 20.4214 20.9688 20.4214C21.0729 20.4214 21.1755 20.4322 21.2773 20.4322V20.3789H21.2465C21.0521 20.3789 21.0035 20.2918 21.0027 20.0735V19.0089L22.2833 20.4692H22.2841ZM22.2355 19.9477L22.2432 19.94L22.2355 19.9477ZM22.2293 19.9423L22.227 19.9392L22.2293 19.9423ZM23.0161 20.0835C22.9915 20.1683 22.9614 20.2347 22.9614 20.2794C22.9614 20.355 23.0655 20.3674 23.1465 20.3674H23.1735V20.4445C22.9858 20.4317 22.7973 20.4317 22.6096 20.4445V20.3674H22.625C22.7207 20.3674 22.8025 20.3103 22.8387 20.2038L23.2321 19.0482C23.2653 18.9557 23.3101 18.8299 23.3247 18.7373C23.4042 18.7088 23.5021 18.6602 23.5484 18.6293C23.5561 18.6263 23.5615 18.6232 23.5685 18.6232C23.5762 18.6232 23.5808 18.6232 23.5862 18.6317L23.6078 18.6949L24.0622 20.0102C24.0915 20.0989 24.1208 20.1907 24.1525 20.2679C24.1833 20.3373 24.235 20.3681 24.316 20.3681H24.3314V20.4437C24.0948 20.4307 23.8576 20.4307 23.6209 20.4437V20.3674H23.6479C23.7043 20.3674 23.8007 20.3566 23.8007 20.2949C23.7912 20.2327 23.7744 20.1718 23.7505 20.1136L23.6549 19.8212H23.0948L23.0169 20.0835H23.0161ZM23.3756 18.968H23.3718L23.1427 19.6808H23.6032L23.3756 18.9688V18.968Z" fill="#050302"/>
<path d="M24.3292 20.4537C24.2197 20.449 24.1078 20.4429 23.9913 20.4429C23.8695 20.4429 23.7468 20.449 23.6211 20.4537H23.6103V20.3557H23.6481C23.7051 20.3557 23.7892 20.3426 23.7892 20.2947C23.7797 20.2338 23.7637 20.1741 23.7414 20.1165L23.6481 19.8311H23.1034L23.0263 20.0865C23.0008 20.1713 22.9723 20.2384 22.9723 20.2793C22.9723 20.341 23.0656 20.3557 23.1466 20.3557H23.1852V20.4537H23.1729C23.0749 20.449 22.9754 20.4429 22.8759 20.4429C22.7879 20.4429 22.6984 20.449 22.6105 20.4537H22.5981V20.3557H22.6244C22.7154 20.3557 22.7925 20.3025 22.828 20.2006L23.2238 19.045C23.2546 18.9517 23.2986 18.8259 23.3217 18.7264C23.3989 18.6987 23.4969 18.6493 23.5447 18.6184C23.5524 18.6161 23.5586 18.613 23.5686 18.613C23.5748 18.613 23.5887 18.613 23.5956 18.6277L23.6172 18.6917L24.0723 20.007C24.1017 20.0949 24.131 20.1875 24.1634 20.2616C24.1911 20.3295 24.2374 20.3557 24.3161 20.3557H24.3416V20.4537H24.33H24.3292ZM23.6319 20.4321C23.753 20.4267 23.8725 20.4213 23.9913 20.4213C24.1063 20.4213 24.212 20.4267 24.3192 20.4321V20.3788H24.3161C24.232 20.3788 24.1734 20.3464 24.1433 20.2708C24.1109 20.1952 24.0816 20.1011 24.0515 20.0132L23.5979 18.6979L23.5771 18.6369C23.5748 18.6339 23.5771 18.6339 23.574 18.6339H23.5678C23.5624 18.6339 23.5593 18.6362 23.5524 18.6385C23.4843 18.6812 23.4109 18.7149 23.3341 18.7388C23.3187 18.8337 23.2739 18.9594 23.2415 19.0527L22.8481 20.2076C22.8103 20.3171 22.7247 20.3773 22.6228 20.3773H22.619V20.4313C22.7996 20.4206 22.9807 20.4203 23.1613 20.4305V20.3781H23.1459C23.0656 20.3781 22.953 20.3688 22.9499 20.2793C22.9499 20.2292 22.9808 20.1651 23.0055 20.0803L23.0155 20.0834L23.0055 20.0795L23.0857 19.8103H23.6612L23.7599 20.1104C23.7877 20.1906 23.8101 20.2569 23.8101 20.2955C23.8062 20.3719 23.7021 20.3773 23.6465 20.3781H23.6303V20.4313L23.6319 20.4321ZM23.1273 19.6915L23.3634 18.9586H23.3773V18.9687H23.3742H23.3773V18.9579H23.385L23.6172 19.6907H23.1273V19.6915ZM23.1559 19.6699H23.5879L23.3742 18.9957L23.1559 19.6691V19.6699ZM23.3657 18.9717L23.3719 18.9694L23.3657 18.9717ZM24.4395 18.8113C24.2544 18.8113 24.2467 18.8576 24.2104 19.0412H24.1348C24.1456 18.971 24.158 18.9008 24.1657 18.8275C24.1755 18.7569 24.1802 18.6858 24.1796 18.6146H24.239C24.259 18.6894 24.3215 18.6863 24.3871 18.6863H25.6599C25.7263 18.6863 25.788 18.684 25.7934 18.6084L25.8513 18.6192C25.8414 18.6867 25.8327 18.7543 25.825 18.8221C25.8204 18.89 25.8204 18.9579 25.8204 19.0257L25.7463 19.0535C25.7409 18.9609 25.7294 18.8128 25.5643 18.8128H25.1601V20.1513C25.1601 20.3449 25.2449 20.3673 25.3637 20.3673H25.4108V20.4444C25.3143 20.4444 25.1408 20.4336 25.0096 20.4336C24.8607 20.4336 24.6879 20.4436 24.5931 20.4436V20.3673H24.6393C24.7743 20.3673 24.843 20.3549 24.843 20.1567V18.8113H24.4395Z" fill="#050302"/>
<path d="M25.4107 20.4536C25.3143 20.4536 25.1407 20.4428 25.0096 20.4428C24.8607 20.4428 24.6879 20.4536 24.593 20.4536H24.5807V20.3564H24.6378C24.7743 20.3533 24.8298 20.351 24.8329 20.1559V18.8228H24.4395V18.802H24.8545V20.1559C24.8545 20.358 24.7743 20.378 24.6385 20.3796H24.603V20.432C24.6995 20.432 24.8653 20.4212 25.0088 20.4212C25.1369 20.4212 25.302 20.432 25.3992 20.432V20.3788H25.3629C25.2456 20.378 25.1484 20.3495 25.1484 20.1512V18.8012H25.5642C25.7293 18.8012 25.7517 18.9455 25.7556 19.0388L25.8096 19.0188C25.8096 18.9524 25.8096 18.8869 25.815 18.8213C25.8211 18.7573 25.8304 18.6925 25.8389 18.6277L25.8026 18.6215C25.7918 18.6955 25.7208 18.6986 25.6599 18.6979H24.3747C24.3176 18.6979 24.2536 18.6955 24.2312 18.623H24.1926C24.1926 18.6948 24.1872 18.7619 24.1772 18.8282C24.1703 18.8984 24.1587 18.9648 24.1487 19.0303H24.2019C24.2343 18.8552 24.2559 18.7989 24.4403 18.8005V18.8221C24.2567 18.8259 24.2613 18.8583 24.2212 19.0442L24.2196 19.0519H24.1248L24.1255 19.0396C24.1363 18.9686 24.1487 18.8984 24.1548 18.8259C24.1656 18.7565 24.1703 18.6863 24.1703 18.6138V18.603H24.249V18.6107C24.2682 18.6739 24.3122 18.6739 24.3755 18.6739L24.3878 18.6755H25.6607C25.7286 18.6755 25.7787 18.6732 25.7841 18.6076V18.5968L25.7949 18.5976L25.8659 18.6084L25.8628 18.6199C25.8528 18.6871 25.8441 18.7545 25.8366 18.8221C25.8319 18.8899 25.8319 18.9578 25.8319 19.0257V19.0334L25.8242 19.0365L25.737 19.0689V19.0543C25.7309 18.9594 25.7201 18.8228 25.565 18.8228H25.1716V20.1505C25.1731 20.3402 25.2472 20.3526 25.3644 20.3557H25.4223V20.4529H25.4107V20.4536ZM25.943 20.3672H25.9777C26.0657 20.3672 26.1598 20.3549 26.1598 20.2237V18.9061C26.1598 18.7742 26.0657 18.7627 25.9777 18.7627H25.943V18.6855C26.0387 18.6855 26.1868 18.6963 26.3079 18.6963C26.4313 18.6963 26.5779 18.6863 26.6952 18.6863V18.7627H26.662C26.5717 18.7627 26.4768 18.7742 26.4768 18.9061V20.2237C26.4768 20.3549 26.571 20.3672 26.662 20.3672H26.6952V20.4444C26.5764 20.4444 26.4282 20.4336 26.3056 20.4336C26.1845 20.4336 26.0387 20.4436 25.943 20.4436V20.3672Z" fill="#050302"/>
<path d="M26.6952 20.4537C26.5764 20.4537 26.4283 20.4429 26.3056 20.4429C26.1845 20.4429 26.0402 20.4537 25.943 20.4537H25.933V20.3565H25.9762C26.0657 20.355 26.1475 20.3472 26.1475 20.2238V18.9062C26.1475 18.7828 26.0657 18.7743 25.9762 18.7735H25.9299V18.6756H25.9423C26.0387 18.6756 26.1868 18.6864 26.3064 18.6864C26.4298 18.6864 26.5772 18.6756 26.6936 18.6756H26.7044V18.7735H26.6605C26.5702 18.7743 26.4884 18.7836 26.4884 18.9062V20.2238C26.4884 20.3472 26.5702 20.355 26.6605 20.3565H26.7052V20.4537H26.6952ZM26.6844 20.4321V20.3789H26.6612C26.5733 20.3789 26.4684 20.3634 26.4684 20.2246V18.9054C26.4684 18.7666 26.5718 18.7512 26.6612 18.7512H26.6836V18.6972C26.5702 18.6972 26.4275 18.7087 26.3079 18.7087C26.1907 18.7087 26.0495 18.6979 25.9531 18.6979V18.7512H25.9778C26.0649 18.7512 26.1706 18.7666 26.1706 18.9054V20.2246C26.1706 20.3634 26.0657 20.3781 25.9778 20.3781H25.9538V20.4313C26.0495 20.4313 26.1876 20.4228 26.3056 20.4228C26.4252 20.4228 26.5679 20.4306 26.6836 20.4321H26.6844ZM27.678 18.6486C28.2041 18.6486 28.623 18.9818 28.623 19.5172C28.623 20.0958 28.2164 20.4815 27.6919 20.4815C27.1688 20.4815 26.7692 20.1189 26.7692 19.5781C26.7692 19.0551 27.1658 18.6486 27.678 18.6486ZM27.7166 20.3704C28.1948 20.3704 28.2782 19.9399 28.2782 19.5735C28.2782 19.2048 28.0845 18.7596 27.6741 18.7596C27.2421 18.7596 27.1133 19.1531 27.1133 19.4886C27.1133 19.9399 27.317 20.3704 27.7166 20.3704Z" fill="#050302"/>
<path d="M26.7592 19.5765C26.7553 19.3265 26.8518 19.0866 27.0246 18.9092C27.1095 18.8221 27.2112 18.7531 27.3235 18.7063C27.4357 18.6595 27.5563 18.6359 27.678 18.6369V18.66C27.4388 18.6554 27.2074 18.751 27.0377 18.9238C26.868 19.0974 26.7746 19.3327 26.7785 19.578C26.7793 20.1118 27.1742 20.4706 27.6903 20.4706C28.211 20.4706 28.6122 20.0902 28.6129 19.5171C28.6129 18.9879 28.2002 18.6608 27.678 18.6592V18.6384C28.2079 18.6384 28.6322 18.974 28.6345 19.5171C28.633 20.1018 28.2218 20.4906 27.6903 20.4914C27.1634 20.4906 26.7592 20.1242 26.7584 19.578V19.5765H26.7592ZM27.1025 19.4893C27.104 19.1499 27.2336 18.7487 27.6733 18.7487C28.0922 18.7487 28.2882 19.2023 28.2882 19.5726C28.2882 19.939 28.2033 20.3803 27.7158 20.3803V20.3587C28.184 20.3587 28.2666 19.939 28.2673 19.5718C28.2673 19.2077 28.0745 18.7711 27.6733 18.7696C27.2514 18.7711 27.1256 19.1537 27.1256 19.4893C27.1256 19.9367 27.3254 20.3579 27.7165 20.3587V20.3803C27.3061 20.3803 27.104 19.9421 27.1025 19.4893ZM30.2846 19.9475L30.29 19.9421V18.9987C30.29 18.7919 30.1496 18.7626 30.0756 18.7626H30.0216V18.6855C30.1373 18.6855 30.2507 18.6963 30.3664 18.6963C30.4667 18.6963 30.5677 18.6862 30.6703 18.6862V18.7626H30.6318C30.5276 18.7626 30.4135 18.7819 30.4135 19.0812V20.2268C30.4135 20.3155 30.4142 20.4027 30.4281 20.4814H30.334L29.0635 19.0357V20.0733C29.0635 20.2931 29.1051 20.3672 29.2957 20.3672H29.3373V20.4443C29.2309 20.4443 29.1252 20.4335 29.0195 20.4335C28.9084 20.4335 28.795 20.4436 28.6831 20.4436V20.3672H28.7186C28.8899 20.3672 28.9408 20.2492 28.9408 20.0486V18.9879C28.9409 18.958 28.9351 18.9283 28.9237 18.9007C28.9123 18.873 28.8956 18.8478 28.8745 18.8266C28.8536 18.8058 28.8288 18.7894 28.8015 18.7784C28.7742 18.7674 28.745 18.762 28.7155 18.7626H28.6831V18.6855C28.7773 18.6855 28.8729 18.6963 28.9678 18.6963C29.0403 18.6963 29.1136 18.6862 29.1861 18.6862L30.2839 19.9475H30.2846Z" fill="#050302"/>
<path d="M30.4288 20.4908L30.3255 20.4885L29.075 19.0644V20.0742C29.0781 20.2918 29.1112 20.3535 29.2956 20.3558H29.3488V20.4538H29.338C29.2308 20.4538 29.1259 20.4437 29.0202 20.4437C28.9091 20.4437 28.7965 20.4545 28.6839 20.4545H28.6738V20.3558H28.7201C28.8821 20.3558 28.9284 20.2493 28.9299 20.0472V18.9881C28.9301 18.9309 28.9076 18.876 28.8675 18.8353C28.8477 18.8154 28.8241 18.7996 28.7982 18.789C28.7722 18.7784 28.7443 18.7732 28.7163 18.7736H28.6746V18.6764H28.6839C28.7787 18.6764 28.8744 18.6849 28.9685 18.6849C29.041 18.6849 29.112 18.6772 29.1953 18.6795L30.2784 19.9246V18.9996C30.2784 18.7975 30.1473 18.7759 30.0755 18.7736H30.0099V18.6764H30.0215C30.1372 18.6764 30.2506 18.6849 30.3648 18.6849C30.4666 18.6849 30.5677 18.6772 30.6703 18.6772H30.6803V18.7721H30.6325C30.5322 18.7767 30.4265 18.7852 30.4242 19.0806V20.227C30.4242 20.3141 30.4265 20.4029 30.4381 20.4792L30.4396 20.4916H30.4288V20.4908ZM30.3347 20.4692H30.4149C30.4055 20.3888 30.4014 20.3079 30.4026 20.227V19.0814C30.4026 18.7782 30.5276 18.752 30.6325 18.7512H30.6587V18.6972C30.5615 18.6972 30.4651 18.7088 30.3656 18.7088C30.2537 18.7088 30.1434 18.698 30.0331 18.698V18.7512H30.0747C30.1519 18.752 30.3 18.7859 30.3 18.9981L30.2985 19.9508L30.2931 19.9554L30.2853 19.9631L29.1868 18.698C29.1143 18.698 29.0426 18.7088 28.9685 18.7088C28.8767 18.7088 28.7834 18.698 28.6947 18.698V18.7512H28.7163C28.832 18.752 28.9515 18.8415 28.9515 18.9881V20.0488C28.9515 20.2493 28.8968 20.3782 28.7201 20.3782H28.6947V20.4314C28.8019 20.4314 28.9122 20.4214 29.0202 20.4214C29.1236 20.4214 29.2254 20.4322 29.328 20.4322V20.3789H29.2971C29.102 20.3789 29.0541 20.2918 29.0541 20.0735V19.0089L30.3347 20.4692ZM30.2846 19.9477L30.2931 19.94L30.2853 19.9477H30.2846ZM30.2792 19.9423L30.2776 19.9392L30.2792 19.9423ZM31.066 20.0835C31.0421 20.1683 31.012 20.2347 31.012 20.2794C31.012 20.355 31.1162 20.3674 31.1972 20.3674H31.2242V20.4445C31.0362 20.4315 30.8475 20.4315 30.6595 20.4445V20.3674H30.6749C30.7698 20.3674 30.8523 20.3103 30.8886 20.2038L31.2836 19.0482C31.3144 18.9557 31.3607 18.8299 31.3738 18.7373C31.4533 18.7088 31.5513 18.6602 31.5991 18.6293C31.6068 18.6263 31.6114 18.6232 31.6199 18.6232C31.6261 18.6232 31.6299 18.6232 31.6353 18.6317C31.6438 18.6509 31.6508 18.6741 31.6585 18.6949L32.1113 20.0102C32.1422 20.0989 32.1707 20.1907 32.2031 20.2679C32.2324 20.3373 32.2857 20.3681 32.3651 20.3681H32.3805V20.4437C32.1441 20.4308 31.9072 20.4308 31.6708 20.4437V20.3674H31.6978C31.7541 20.3674 31.8513 20.3566 31.8513 20.2949C31.8417 20.2327 31.8249 20.1718 31.8012 20.1136L31.7055 19.8212H31.1447L31.066 20.0835ZM31.4263 18.968H31.4217L31.1918 19.6808H31.6531L31.4263 18.9688V18.968Z" fill="#050302"/>
<path d="M32.3799 20.4535C32.2688 20.4489 32.1584 20.4427 32.0404 20.4427C31.9208 20.4427 31.7966 20.4489 31.6709 20.4535H31.6609V20.3563H31.6979C31.755 20.3563 31.8398 20.3425 31.8398 20.2946C31.8298 20.2336 31.8133 20.1739 31.7905 20.1164L31.6971 19.831H31.1525L31.0761 20.0863C31.053 20.1712 31.0221 20.2383 31.0229 20.2792C31.0229 20.3409 31.1155 20.3563 31.1972 20.3563H31.2343V20.4543H31.2242C31.1251 20.4481 31.0258 20.4445 30.9265 20.4435C30.8378 20.4435 30.749 20.4489 30.6596 20.4543H30.6495V20.3563H30.6727C30.7668 20.3563 30.8424 20.3023 30.8794 20.2005L31.2728 19.0449C31.3037 18.9516 31.3492 18.8258 31.3708 18.7263C31.4495 18.6985 31.5482 18.6492 31.5945 18.6183C31.6022 18.616 31.6084 18.6129 31.6192 18.6129C31.6254 18.6129 31.6377 18.6129 31.6462 18.6276L31.6678 18.6916L32.1222 20.0069C32.1507 20.0948 32.1816 20.1874 32.2132 20.2615C32.2425 20.3293 32.2865 20.3556 32.366 20.3563H32.3914V20.4543H32.3814L32.3799 20.4535ZM31.6802 20.4319C31.8036 20.4265 31.9232 20.4211 32.0404 20.4211C32.1554 20.4211 32.2626 20.4265 32.3698 20.4319V20.3787H32.366C32.2826 20.3787 32.224 20.3463 32.1939 20.2707C32.1608 20.1951 32.1314 20.101 32.1021 20.0131L31.6478 18.6978C31.6406 18.6775 31.6337 18.6572 31.6269 18.6368C31.6254 18.6337 31.6254 18.6337 31.6231 18.6337H31.6192C31.6138 18.6337 31.6107 18.6361 31.6038 18.6384C31.5357 18.6811 31.4623 18.7149 31.3855 18.7387C31.37 18.8335 31.3253 18.9593 31.2929 19.0526L30.8995 20.2075C30.8853 20.2564 30.8556 20.2994 30.8148 20.33C30.774 20.3606 30.7244 20.3772 30.6734 20.3772H30.6704V20.4312C30.851 20.4204 31.032 20.4202 31.2127 20.4304V20.3779H31.1972C31.117 20.3779 31.0044 20.3687 31.0013 20.2792C31.0013 20.2291 31.0322 20.165 31.0569 20.0802L31.0669 20.0833L31.0569 20.0794L31.1378 19.8102H31.7126L31.8105 20.1103C31.835 20.1696 31.8518 20.2318 31.8607 20.2954C31.8576 20.3718 31.7527 20.3772 31.6987 20.3779H31.6802V20.4319ZM31.1772 19.6914L31.414 18.9585H31.4264V18.9685H31.424H31.4264V18.9577H31.4341L31.667 19.6906H31.1772V19.6914ZM31.208 19.6698H31.6385L31.4225 18.9955L31.2073 19.669V19.6698H31.208ZM31.4163 18.9716L31.421 18.9693L31.4171 18.9716H31.4156H31.4163ZM33.0032 20.1959C33.0032 20.2985 33.0703 20.327 33.1497 20.3378C33.2508 20.3455 33.3611 20.3455 33.476 20.3324C33.5225 20.3267 33.5674 20.3116 33.6079 20.2881C33.6485 20.2647 33.6839 20.2333 33.7121 20.1959C33.7477 20.1405 33.7735 20.0795 33.7885 20.0154H33.8602C33.8332 20.1589 33.7977 20.3008 33.7684 20.4435C33.5524 20.4435 33.3349 20.4335 33.1173 20.4335C32.9013 20.4335 32.6846 20.4435 32.4663 20.4435V20.3671H32.501C32.5897 20.3671 32.6861 20.3548 32.6861 20.199V18.9061C32.6861 18.7749 32.5897 18.761 32.501 18.761H32.4663V18.687C32.5974 18.687 32.7262 18.6962 32.8558 18.6962C32.9823 18.6962 33.1058 18.6862 33.2307 18.6862V18.761H33.169C33.0764 18.761 33.0032 18.7649 33.0032 18.8976V20.1959Z" fill="#050302"/>
<path d="M33.7684 20.4537C33.5508 20.4537 33.3348 20.4429 33.1173 20.4429C32.9013 20.4429 32.683 20.4537 32.4662 20.4537H32.4562V20.3565H32.5009C32.5904 20.3549 32.6745 20.3488 32.676 20.1991V18.9062C32.6745 18.7828 32.5912 18.7743 32.5009 18.7735H32.4562V18.6755H32.4662C32.5973 18.6755 32.7269 18.6863 32.8558 18.6863C32.9807 18.6863 33.1049 18.6755 33.2307 18.6755H33.2415V18.7735H33.1697C33.0741 18.7751 33.0131 18.7712 33.0124 18.8985V20.196C33.0124 20.2901 33.0741 20.3156 33.1512 20.3256C33.2585 20.3333 33.3665 20.3318 33.4737 20.3218C33.5186 20.316 33.562 20.3015 33.6013 20.279C33.6406 20.2565 33.6751 20.2265 33.7028 20.1906C33.7374 20.1361 33.7627 20.0761 33.7776 20.0132L33.7799 20.0039H33.8725L33.8702 20.0178C33.8424 20.1613 33.8085 20.3033 33.7784 20.446L33.7769 20.4537H33.7684ZM33.7607 20.4321C33.7884 20.2963 33.8201 20.1621 33.8478 20.0263H33.7946C33.7799 20.0893 33.7546 20.1493 33.7198 20.2037C33.6903 20.242 33.6535 20.274 33.6115 20.2979C33.5695 20.3217 33.5232 20.3369 33.4752 20.3426C33.3666 20.354 33.2571 20.3558 33.1481 20.348C33.0664 20.3403 32.99 20.3048 32.99 20.196V18.8985C32.99 18.7581 33.0772 18.7511 33.169 18.7511H33.2191V18.6971C33.0988 18.6971 32.9792 18.7087 32.855 18.7087C32.7285 18.7087 32.6035 18.6979 32.4762 18.6979V18.7511H32.5001C32.5873 18.7511 32.6961 18.7666 32.6961 18.9054V20.1991C32.6961 20.3619 32.5881 20.3781 32.5001 20.3781H32.4762V20.4313C32.6899 20.4313 32.9028 20.4228 33.1165 20.4228C33.3325 20.4228 33.5454 20.4321 33.7591 20.4321H33.7607Z" fill="#050302"/>
<defs>
<filter id="filter0_d" x="0.628906" y="0" width="45.6571" height="31" filterUnits="userSpaceOnUse" color-interpolation-filters="sRGB">
<feFlood flood-opacity="0" result="BackgroundImageFix"/>
<feColorMatrix in="SourceAlpha" type="matrix" values="0 0 0 0 0 0 0 0 0 0 0 0 0 0 0 0 0 0 127 0"/>
<feOffset dy="2"/>
<feGaussianBlur stdDeviation="1"/>
<feColorMatrix type="matrix" values="0 0 0 0 0 0 0 0 0 0 0 0 0 0 0 0 0 0 0.117386 0"/>
<feBlend mode="normal" in2="BackgroundImageFix" result="effect1_dropShadow"/>
<feBlend mode="normal" in="SourceGraphic" in2="effect1_dropShadow" result="shape"/>
</filter>
</defs>
</svg>
