<svg width="47" height="31" viewBox="0 0 47 31" fill="none" xmlns="http://www.w3.org/2000/svg">
<g filter="url(#filter0_d)">
<path d="M43.2403 27H4.36025C3.59499 27 2.97168 26.3559 2.97168 25.5605V1.43949C2.97168 0.644914 3.59422 0 4.36025 0H43.2403C44.0063 0 44.6288 0.644143 44.6288 1.43949V25.5605C44.6288 26.3551 44.0063 27 43.2403 27Z" fill="white"/>
</g>
<path d="M18.3439 11.7821C17.856 11.1802 17.174 10.7667 16.4148 10.6123C15.6556 10.4579 14.8663 10.5723 14.1821 10.9358C12.9293 11.5992 12.0105 13.3581 12.3738 14.3818L18.3439 11.7821ZM21.4266 12.6923L10.8788 17.2947C9.85435 15.8544 9.46864 13.3612 10.6088 11.2089C11.8007 8.96017 14.2638 7.73591 16.734 8.16328C19.3892 8.63385 21.0347 10.7522 21.4258 12.6939L21.4266 12.6923ZM22.505 5.4008H24.7445V5.61371C24.7445 9.3104 24.7452 13.0079 24.7414 16.7053C24.7414 16.8519 24.7861 16.9136 24.9142 16.9661C25.4696 17.1921 26.0204 17.4297 26.5712 17.6634C26.6105 17.6804 26.6483 17.6997 26.7047 17.7275L25.7766 20.0039C25.4758 19.8774 25.1934 19.7594 24.9126 19.6391C24.5886 19.5025 24.2662 19.3629 23.9422 19.2271C23.0257 18.8445 22.5791 18.1271 22.5096 17.1404C22.505 17.0802 22.505 17.0193 22.505 16.9591V5.40002V5.4008Z" fill="#0E0B16"/>
<path d="M31.0132 19.677L31.7769 17.355C32.7582 17.662 33.7001 17.5864 34.5857 17.0618C35.4659 16.5396 36.002 15.7504 36.2342 14.7336L38.5832 15.2243C37.9584 18.742 34.23 20.8603 31.014 19.677" fill="#E03626"/>
<path d="M31.7783 10.7244L31.02 8.41164C33.8967 7.26993 37.8279 9.02878 38.5916 12.8597L36.2356 13.3511C36.0004 12.3336 35.4681 11.5421 34.5871 11.0198C33.7061 10.4991 32.7696 10.4181 31.7783 10.7236" fill="#FBED21"/>
<path d="M29.0175 18.5043C26.3884 16.2077 26.3614 11.9063 29.0144 9.57654L30.6089 11.4141C29.8545 12.1238 29.4495 13.0001 29.451 14.0408C29.451 15.0768 29.8498 15.9516 30.6105 16.666L29.0175 18.5043Z" fill="#009CD6"/>
<path d="M18.1611 16.5402L19.8273 18.2867C17.9836 20.2492 14.7915 20.5462 12.6415 19.0674L13.9105 17.0022C15.4302 17.8524 16.8365 17.6934 18.1611 16.5402Z" fill="#0E0B16"/>
<defs>
<filter id="filter0_d" x="0.97168" y="0" width="45.6571" height="31" filterUnits="userSpaceOnUse" color-interpolation-filters="sRGB">
<feFlood flood-opacity="0" result="BackgroundImageFix"/>
<feColorMatrix in="SourceAlpha" type="matrix" values="0 0 0 0 0 0 0 0 0 0 0 0 0 0 0 0 0 0 127 0"/>
<feOffset dy="2"/>
<feGaussianBlur stdDeviation="1"/>
<feColorMatrix type="matrix" values="0 0 0 0 0 0 0 0 0 0 0 0 0 0 0 0 0 0 0.117386 0"/>
<feBlend mode="normal" in2="BackgroundImageFix" result="effect1_dropShadow"/>
<feBlend mode="normal" in="SourceGraphic" in2="effect1_dropShadow" result="shape"/>
</filter>
</defs>
</svg>
