<svg width="46" height="31" viewBox="0 0 46 31" fill="none" xmlns="http://www.w3.org/2000/svg">
<g filter="url(#filter0_d)">
<path d="M42.5547 27H3.6747C2.90945 27 2.28613 26.3559 2.28613 25.5605V1.43949C2.28613 0.644914 2.90868 0 3.6747 0H42.5547C43.3207 0 43.9433 0.644143 43.9433 1.43949V25.5605C43.9433 26.3551 43.3207 27 42.5547 27Z" fill="white"/>
</g>
<path d="M38.3334 6.94287C38.3257 7.00999 38.3226 7.07556 38.3095 7.14036L37.697 10.1798L36.9641 13.8209C36.7003 15.1347 36.438 16.45 36.1695 17.7629C36.1047 18.0869 36.0608 18.4156 35.9319 18.7241C35.7931 19.0659 35.5694 19.3644 35.2816 19.5881C34.7131 20.0255 34.0443 20.1976 33.3538 20.2068C31.4499 20.23 29.5468 20.2161 27.6429 20.2168H24.6498C19.2822 20.2192 13.9131 20.2192 8.54392 20.2207H8.45752C8.46292 20.1744 8.46523 20.1389 8.4714 20.1034L8.58249 19.5457L9.31535 15.8814L10.0197 12.3676C10.2488 11.2258 10.4825 10.0857 10.7139 8.9455C10.8119 8.45873 11.0279 8.03984 11.3982 7.7089C11.9814 7.1905 12.688 7.03081 13.4271 6.96061L25.9149 6.95676L33.7411 6.95444L36.3933 6.95213C36.4249 6.95213 36.4573 6.94596 36.4897 6.94287H38.3334ZM19.1541 12.3699C18.9011 12.2194 18.6249 12.1886 18.3387 12.2179C18.0456 12.2464 17.7818 12.3475 17.5519 12.5373C17.5349 12.5527 17.5133 12.5643 17.4871 12.582L17.5388 12.2788C17.3567 12.2788 17.1885 12.2781 17.0219 12.2827C17.0026 12.2827 16.9741 12.3174 16.971 12.3398C16.8985 12.7826 16.8321 13.2269 16.755 13.6682C16.6046 14.543 16.4487 15.4155 16.2929 16.2887C16.2567 16.4986 16.2142 16.7053 16.1726 16.9267C16.387 16.9267 16.5884 16.9267 16.7897 16.9236C16.8051 16.9236 16.8314 16.8928 16.836 16.8727C16.8476 16.8172 16.8483 16.7601 16.8568 16.7045L17.0173 15.6477L17.0929 15.1532L17.143 15.2319L17.1924 15.3059C17.2589 15.4029 17.3529 15.4776 17.4624 15.5204C17.619 15.5806 17.7787 15.5906 17.9438 15.5806C18.3912 15.5512 18.7692 15.3846 19.06 15.0244C19.2521 14.7875 19.3663 14.5129 19.455 14.2252C19.5915 13.7816 19.6725 13.3326 19.5375 12.8721C19.4799 12.6612 19.3424 12.4811 19.1541 12.3699ZM22.1812 12.292C21.8256 12.1836 21.4469 12.1762 21.0873 12.2704C20.6631 12.3714 20.3352 12.6021 20.1192 12.9932C19.9418 13.3172 19.8469 13.6643 19.7937 14.0269C19.7551 14.2876 19.7427 14.5484 19.8099 14.806C19.904 15.1686 20.1331 15.4016 20.4841 15.4949C21.0627 15.65 21.632 15.5412 22.199 15.4147C22.2183 15.4101 22.2368 15.3784 22.2422 15.3561C22.263 15.2558 22.2807 15.154 22.2993 15.0529L22.327 14.8863L22.3101 14.8886C22.3008 14.8886 22.2962 14.8886 22.2915 14.8901C21.9417 15.054 21.5574 15.1307 21.1714 15.1138C21.0484 15.1095 20.927 15.0839 20.8127 15.0382C20.5628 14.9364 20.4486 14.7266 20.4309 14.4759C20.4162 14.2637 20.4517 14.047 20.4656 13.8333C20.4671 13.787 20.4887 13.7662 20.5358 13.7646C20.7055 13.7608 20.8737 13.7476 21.0411 13.7476C21.5409 13.7492 22.0385 13.7554 22.5369 13.7608C22.5901 13.7608 22.6171 13.75 22.6287 13.6898C22.6749 13.4522 22.7197 13.2154 22.7081 12.9724C22.6919 12.6376 22.5129 12.3969 22.1812 12.292ZM26.9101 12.2218C26.6119 12.1929 26.3112 12.2064 26.0168 12.2619C25.8318 12.2958 25.6561 12.3683 25.501 12.4746C25.3459 12.581 25.2149 12.7187 25.1165 12.879C24.8597 13.2805 24.7153 13.7435 24.6984 14.2198C24.6861 14.4836 24.6753 14.749 24.7956 14.9981C24.9152 15.2434 25.0849 15.4286 25.3526 15.5003C25.8525 15.6369 26.34 15.5566 26.8229 15.4147C26.8484 15.407 26.8754 15.3723 26.8808 15.3445C26.9093 15.2164 26.9325 15.0899 26.9556 14.9596C26.9579 14.9441 26.9533 14.9279 26.951 14.9063C26.6162 15.0637 26.2744 15.1455 25.9126 15.1084C25.8061 15.0956 25.7041 15.0578 25.6149 14.9981C25.4174 14.8647 25.3649 14.6471 25.3526 14.4219C25.3325 14.1031 25.3768 13.7835 25.4829 13.4823C25.5439 13.3002 25.628 13.1274 25.7329 12.9677C25.9203 12.6993 26.2143 12.643 26.5167 12.643C26.7874 12.643 27.0513 12.6993 27.3228 12.7949C27.349 12.6291 27.3753 12.4694 27.3961 12.3097C27.3969 12.2958 27.3598 12.2657 27.339 12.2619C27.1963 12.2464 27.0536 12.2349 26.9109 12.2218H26.9101ZM35.7738 10.8926C35.5655 10.8926 35.3642 10.891 35.1628 10.8941C35.1474 10.8941 35.1212 10.9281 35.1196 10.9481L35.007 11.7095C34.9761 11.9116 34.9422 12.1138 34.9075 12.3305C34.6754 12.2404 34.4273 12.1984 34.1785 12.2071C33.8872 12.205 33.6 12.275 33.3423 12.4108C33.0661 12.5627 32.8408 12.7965 32.6958 13.0804C32.5001 13.4418 32.3833 13.8407 32.3533 14.2506C32.3356 14.5299 32.344 14.8045 32.4551 15.066C32.517 15.2154 32.6277 15.3394 32.7691 15.4178C33.0021 15.5489 33.2559 15.5767 33.5158 15.5667C33.9 15.5528 34.2394 15.4432 34.4547 15.0838C34.4685 15.0629 34.484 15.0436 34.511 15.0066L34.4516 15.488H35.0379L35.0957 14.9079C35.25 13.5579 35.5385 12.2333 35.773 10.8926H35.7738ZM29.2606 12.2079L29.1341 12.2086C28.7947 12.2156 28.4576 12.2534 28.1174 12.2812C28.0981 12.2827 28.0657 12.2997 28.0626 12.3151C28.0217 12.474 27.9878 12.6329 27.9477 12.8073C28.0888 12.7756 28.2146 12.7432 28.3426 12.7193C28.672 12.6522 29.003 12.5967 29.3362 12.6823C29.5029 12.7247 29.6587 12.8235 29.634 13.0495L29.5993 13.3311C29.5947 13.3905 29.5707 13.4121 29.509 13.4121C29.2444 13.4098 28.9798 13.4229 28.7152 13.4121C28.4932 13.4104 28.2735 13.4578 28.0719 13.5509C27.9561 13.595 27.8479 13.6567 27.7509 13.7338C27.3884 14.0454 27.2742 14.4566 27.3375 14.9248C27.3814 15.255 27.5712 15.4594 27.8906 15.5204C28.0371 15.5497 28.1899 15.5597 28.338 15.562C28.7376 15.5682 29.0601 15.4062 29.3092 15.0884C29.3301 15.0606 29.354 15.0328 29.3833 14.9966L29.3432 15.488H29.9086L29.9117 15.3406C29.9133 15.2427 29.9156 15.1478 29.9271 15.0529C29.9889 14.6271 30.0614 14.202 30.1254 13.7754C30.1732 13.4491 30.2681 13.1297 30.2535 12.7934C30.2532 12.7066 30.2294 12.6215 30.1846 12.5472C30.1398 12.4728 30.0756 12.4121 29.9989 12.3714C29.7297 12.2171 29.4288 12.204 29.1341 12.2094L29.2606 12.2079ZM16.3963 12.2873H15.7637L15.2067 15.4934L15.4891 15.4926L15.7737 15.4942C15.8316 15.4949 15.854 15.4772 15.8601 15.4186C15.8787 15.2527 15.8987 15.0868 15.928 14.9225C16.0653 14.1303 16.2057 13.3388 16.3461 12.545L16.3963 12.2873ZM32.3803 12.2125L32.2869 12.214C32.0941 12.2233 31.9105 12.3035 31.7724 12.4408C31.6713 12.5388 31.5849 12.6514 31.4847 12.7672L31.5657 12.2796L31.1321 12.2804C31.0164 12.2827 31.0017 12.2974 30.9801 12.4146L30.9701 12.4717C30.8189 13.3604 30.6639 14.246 30.5111 15.1331C30.4903 15.2496 30.4671 15.3669 30.4432 15.4918C30.6592 15.4918 30.8629 15.4934 31.0658 15.4895C31.0812 15.4895 31.1059 15.4625 31.1074 15.444C31.136 15.2126 31.1514 14.9788 31.1908 14.7497C31.2648 14.3208 31.3373 13.8896 31.4391 13.4676C31.4731 13.3057 31.5453 13.1543 31.6499 13.0261C31.7545 12.8979 31.8883 12.7966 32.0401 12.7309C32.0624 12.7198 32.0869 12.7138 32.1118 12.7132C32.2661 12.7209 32.4243 12.6869 32.5747 12.7533C32.6102 12.7687 32.6287 12.7533 32.6356 12.7132C32.6541 12.5905 32.6742 12.4694 32.6973 12.3483C32.7043 12.3082 32.6919 12.2912 32.6549 12.2742C32.5387 12.2255 32.4126 12.2049 32.2869 12.214L32.3803 12.2125ZM11.9035 10.9836C11.8572 10.9836 11.8518 11.0091 11.8456 11.0461C11.7862 11.4179 11.7307 11.7905 11.6659 12.1624C11.5039 13.0973 11.338 14.0331 11.1737 14.9657C11.1444 15.137 11.1097 15.3067 11.0734 15.4918H11.5479L11.7777 15.4895C11.7955 15.4895 11.824 15.4548 11.8279 15.4324C11.8487 15.3345 11.8595 15.235 11.8765 15.137C11.9775 14.5345 12.0794 13.9336 12.1789 13.3303C12.1889 13.2686 12.2121 13.2485 12.2761 13.2485C12.8886 13.2516 13.5003 13.2516 14.1121 13.2485C14.1823 13.2485 14.1993 13.2686 14.1854 13.3365L13.8729 15.0321L13.8344 15.2581L13.7958 15.4918C14.0403 15.4918 14.271 15.4942 14.5032 15.4895C14.5194 15.4895 14.5464 15.454 14.5495 15.4301C14.6336 14.9395 14.7084 14.4481 14.7925 13.9567C14.9391 13.1058 15.0918 12.2549 15.2422 11.4048C15.2661 11.266 15.2947 11.1294 15.3217 10.9844C15.0802 10.9844 14.8457 10.9836 14.612 10.9867C14.5965 10.9867 14.5711 11.0152 14.5672 11.033C14.4901 11.4958 14.4129 11.9587 14.3381 12.4223L14.2764 12.808H12.2668L12.5924 10.9929L12.5785 10.9875L12.5677 10.9844L11.9035 10.9836ZM24.6297 12.2156C24.3189 12.2356 24.0944 12.4177 23.92 12.6707C23.8946 12.7078 23.8676 12.7425 23.8406 12.7787C23.8349 12.7771 23.8292 12.7753 23.8236 12.7733L23.9115 12.2812L23.9123 12.2804H23.5521L23.3785 12.2827C23.3631 12.2827 23.3368 12.3136 23.3337 12.3344L23.2844 12.6692L22.8647 15.0861L22.8285 15.2859L22.7899 15.4888H23.4394L23.4487 15.3784L23.4603 15.2704C23.5227 14.8608 23.5798 14.4496 23.6539 14.04C23.6968 13.8009 23.756 13.5651 23.8313 13.3342C23.8961 13.1374 24.0195 12.967 24.1854 12.8458C24.2857 12.771 24.3937 12.7008 24.5287 12.7116L24.9661 12.7417L24.9908 12.6106C25.007 12.5203 25.0239 12.427 25.0394 12.3328C25.0417 12.3174 25.0286 12.2873 25.017 12.2842L24.8226 12.2364C24.7597 12.2201 24.6947 12.2131 24.6297 12.2156ZM17.9731 12.6707C18.2107 12.6183 18.4452 12.6268 18.6573 12.7564C18.7268 12.8026 18.7839 12.8651 18.824 12.9392C18.9281 13.1174 18.9428 13.3172 18.9227 13.446C18.915 13.9613 18.8024 14.3686 18.5756 14.7459C18.3519 15.1239 17.8095 15.2542 17.4693 15.0498C17.3996 15.0055 17.3422 14.9442 17.3027 14.8716C17.1816 14.6533 17.2179 14.4203 17.2611 14.1889C17.3305 13.8032 17.3984 13.4167 17.4709 13.0302C17.4805 12.9869 17.5031 12.9477 17.5357 12.9176C17.6573 12.7984 17.8082 12.7133 17.9731 12.6707ZM34.3598 12.6476L34.4655 12.6584C34.5696 12.6754 34.6722 12.707 34.774 12.7402C34.8195 12.754 34.8357 12.7733 34.8265 12.8212C34.7247 13.3396 34.6298 13.8587 34.5225 14.3748C34.4655 14.6479 34.3266 14.8762 34.079 15.0159C33.8229 15.1594 33.4333 15.1995 33.1965 14.968C33.128 14.8936 33.0787 14.8036 33.053 14.7058C33.0221 14.5947 33.0206 14.4743 33.0067 14.3571C33.0252 13.8958 33.1185 13.4607 33.3731 13.0719C33.5019 12.8597 33.711 12.7101 33.9509 12.6584C34.0473 12.6383 34.1515 12.6576 34.2518 12.6476H34.3598ZM29.0755 13.7692L29.0778 13.7908H29.4327L29.4627 13.7924C29.4982 13.7978 29.5144 13.8178 29.499 13.8711C29.4319 14.1071 29.3841 14.3494 29.3007 14.5808C29.2574 14.6979 29.1876 14.8034 29.0967 14.889C29.0058 14.9747 28.8964 15.0381 28.7769 15.0745C28.5625 15.1486 28.3527 15.1601 28.1498 15.0467C28.0945 15.0152 28.0479 14.9706 28.014 14.9168C27.9801 14.8629 27.9599 14.8016 27.9554 14.7382C27.933 14.562 27.9645 14.3831 28.0456 14.2252C28.0885 14.13 28.1526 14.046 28.2332 13.9796C28.3137 13.9133 28.4084 13.8664 28.51 13.8425C28.6952 13.8001 28.8865 13.7924 29.0747 13.7692H29.0755ZM21.4584 12.6345L21.5888 12.6376L21.7191 12.6491C21.9652 12.6769 22.1126 12.8597 22.1049 13.112C22.101 13.2015 22.0856 13.291 22.0763 13.3858H20.572L20.5952 13.2879C20.6955 12.9376 20.9269 12.6707 21.328 12.6399L21.4584 12.6345ZM16.3161 10.9296L16.2497 10.9373C16.1644 10.9528 16.0838 10.9879 16.0144 11.0399C15.864 11.1672 15.8679 11.3562 15.8725 11.536C15.8733 11.583 15.9103 11.6416 15.9473 11.6748C16.0599 11.7705 16.3245 11.7442 16.4318 11.6416C16.4876 11.591 16.5311 11.5282 16.5589 11.4581C16.5867 11.3881 16.5981 11.3126 16.5922 11.2374C16.593 11.0662 16.566 10.9975 16.4472 10.9504C16.384 10.9273 16.3155 10.9224 16.2497 10.9366L16.3161 10.9296Z" fill="#B3131B"/>
<defs>
<filter id="filter0_d" x="0.286133" y="0" width="45.6571" height="31" filterUnits="userSpaceOnUse" color-interpolation-filters="sRGB">
<feFlood flood-opacity="0" result="BackgroundImageFix"/>
<feColorMatrix in="SourceAlpha" type="matrix" values="0 0 0 0 0 0 0 0 0 0 0 0 0 0 0 0 0 0 127 0"/>
<feOffset dy="2"/>
<feGaussianBlur stdDeviation="1"/>
<feColorMatrix type="matrix" values="0 0 0 0 0 0 0 0 0 0 0 0 0 0 0 0 0 0 0.117386 0"/>
<feBlend mode="normal" in2="BackgroundImageFix" result="effect1_dropShadow"/>
<feBlend mode="normal" in="SourceGraphic" in2="effect1_dropShadow" result="shape"/>
</filter>
</defs>
</svg>
