<svg width="46" height="31" viewBox="0 0 46 31" fill="none" xmlns="http://www.w3.org/2000/svg">
<g filter="url(#filter0_d)">
<path d="M42.2686 27H3.38857C2.62331 27 2 26.3559 2 25.5605V1.43949C2 0.644914 2.62254 0 3.38857 0H42.2686C43.0346 0 43.6571 0.644143 43.6571 1.43949V25.5605C43.6571 26.3551 43.0346 27 42.2686 27Z" fill="white"/>
</g>
<path d="M16.1458 22.0359V20.8788C16.1525 20.7815 16.1384 20.6838 16.1045 20.5924C16.0705 20.5009 16.0175 20.4178 15.9489 20.3484C15.8803 20.2791 15.7977 20.2252 15.7066 20.1903C15.6155 20.1553 15.518 20.1402 15.4206 20.1459C15.2931 20.1376 15.1658 20.1636 15.0518 20.2213C14.9378 20.2789 14.8414 20.3662 14.7726 20.4738C14.71 20.3694 14.6203 20.2838 14.513 20.2261C14.4057 20.1684 14.2849 20.1407 14.1632 20.1459C14.0571 20.1406 13.9515 20.163 13.8568 20.2111C13.7621 20.2591 13.6815 20.3311 13.6232 20.4198V20.1922H13.222V22.0359H13.627V21.0215C13.6184 20.9585 13.6239 20.8943 13.6429 20.8336C13.662 20.7729 13.6942 20.7171 13.7373 20.6703C13.7805 20.6235 13.8334 20.5868 13.8923 20.5629C13.9513 20.5389 14.0148 20.5282 14.0783 20.5317C14.3445 20.5317 14.4795 20.7052 14.4795 21.0177V22.0437H14.8845V21.0215C14.8761 20.9585 14.8818 20.8945 14.9009 20.8339C14.9201 20.7733 14.9524 20.7177 14.9954 20.6709C15.0385 20.6242 15.0913 20.5875 15.1501 20.5634C15.2089 20.5394 15.2723 20.5285 15.3358 20.5317C15.6096 20.5317 15.7408 20.7052 15.7408 21.0177V22.0437L16.1458 22.0359ZM22.1382 20.1922H21.4786V19.6329H21.0736V20.1922H20.7072V20.5587H21.0814V21.4072C21.0814 21.8354 21.2472 22.0899 21.7216 22.0899C21.8991 22.0899 22.0726 22.0413 22.2231 21.9472L22.1074 21.6039C21.9998 21.6681 21.8777 21.7039 21.7525 21.7081C21.5596 21.7081 21.4864 21.5847 21.4864 21.3995V20.5587H22.1421L22.1382 20.1922ZM25.5595 20.1459C25.4617 20.1431 25.3649 20.1666 25.2794 20.2142C25.1939 20.2617 25.1227 20.3314 25.0735 20.4159V20.1922H24.6762V22.0359H25.0774V21.0022C25.0774 20.6975 25.2085 20.5278 25.4631 20.5278C25.5489 20.5266 25.6341 20.5423 25.7138 20.5741L25.8372 20.1884C25.7456 20.1556 25.6491 20.1386 25.5518 20.1382L25.5595 20.1459ZM20.3871 20.3388C20.16 20.2038 19.8989 20.1369 19.6349 20.1459C19.1682 20.1459 18.8635 20.3697 18.8635 20.7361C18.8635 21.0369 19.0872 21.2221 19.4999 21.2799L19.6928 21.3069C19.9126 21.3378 20.0168 21.3957 20.0168 21.4998C20.0168 21.6425 19.8702 21.7235 19.5964 21.7235C19.3761 21.7299 19.1601 21.6619 18.9831 21.5307L18.7902 21.8431C19.024 22.0059 19.304 22.0899 19.5886 22.0822C20.1209 22.0822 20.4295 21.8315 20.4295 21.4805C20.4295 21.1295 20.1865 20.9868 19.7854 20.9289L19.5925 20.9019C19.4189 20.8788 19.2801 20.8441 19.2801 20.7207C19.2801 20.5972 19.4112 20.5047 19.6311 20.5047C19.834 20.507 20.0338 20.5617 20.2096 20.6628L20.3871 20.3388ZM31.1308 20.1459C31.033 20.1431 30.9362 20.1666 30.8507 20.2142C30.7651 20.2617 30.694 20.3314 30.6448 20.4159V20.1922H30.2475V22.0359H30.6486V21.0022C30.6486 20.6975 30.7798 20.5278 31.0343 20.5278C31.1201 20.5266 31.2053 20.5423 31.285 20.5741L31.4085 20.1884C31.3169 20.1556 31.2203 20.1386 31.123 20.1382L31.1308 20.1459ZM25.9622 21.1102C25.9574 21.2398 25.9796 21.369 26.0276 21.4894C26.0756 21.6099 26.1482 21.719 26.2408 21.8098C26.3334 21.9006 26.4439 21.971 26.5653 22.0166C26.6867 22.0622 26.8163 22.0819 26.9458 22.0745C27.1872 22.0869 27.424 22.0082 27.6092 21.8547L27.4163 21.5307C27.2777 21.6364 27.1086 21.6946 26.9342 21.6965C26.7867 21.6834 26.6494 21.6156 26.5495 21.5064C26.4495 21.3972 26.394 21.2544 26.394 21.1064C26.394 20.9583 26.4495 20.8156 26.5495 20.7064C26.6494 20.5971 26.7867 20.5293 26.9342 20.5162C27.1093 20.5185 27.2782 20.5764 27.4163 20.6821L27.6092 20.3581C27.424 20.2038 27.1872 20.1267 26.9458 20.1382C26.8163 20.131 26.6868 20.1508 26.5655 20.1964C26.4441 20.242 26.3336 20.3125 26.2411 20.4032C26.1485 20.494 26.0759 20.603 26.0279 20.7234C25.9798 20.8439 25.9575 20.973 25.9622 21.1025V21.1102ZM29.719 21.1102V20.1922H29.3179V20.4159C29.2498 20.3283 29.1618 20.2581 29.0612 20.2112C28.9606 20.1642 28.8503 20.1419 28.7393 20.1459C28.4836 20.1459 28.2383 20.2475 28.0575 20.4284C27.8766 20.6092 27.775 20.8545 27.775 21.1102C27.775 21.366 27.8766 21.6112 28.0575 21.7921C28.2383 21.9729 28.4836 22.0745 28.7393 22.0745C28.8502 22.0785 28.9605 22.056 29.0611 22.0091C29.1617 21.9622 29.2497 21.8921 29.3179 21.8045V22.0282H29.719V21.1102ZM28.2263 21.1102C28.2288 21.0358 28.2461 20.9626 28.2772 20.895C28.3084 20.8273 28.3528 20.7666 28.4078 20.7164C28.4628 20.6662 28.5274 20.6275 28.5976 20.6027C28.6678 20.5778 28.7422 20.5672 28.8166 20.5716C28.8909 20.576 28.9636 20.5952 29.0304 20.6282C29.0972 20.6611 29.1568 20.7071 29.2055 20.7634C29.2542 20.8197 29.2912 20.8852 29.3142 20.956C29.3372 21.0269 29.3458 21.1016 29.3395 21.1758C29.3271 21.3207 29.2587 21.455 29.1488 21.5501C29.0389 21.6453 28.8961 21.6937 28.751 21.6852C28.6058 21.6766 28.4698 21.6117 28.3718 21.5043C28.2738 21.397 28.2216 21.2555 28.2263 21.1102ZM23.3856 20.1459C23.1299 20.1495 22.886 20.2546 22.7077 20.4379C22.5294 20.6213 22.4313 20.868 22.4348 21.1237C22.4384 21.3795 22.5434 21.6233 22.7268 21.8016C22.9102 21.9799 23.1569 22.0781 23.4126 22.0745C23.6903 22.0884 23.9634 21.9997 24.1786 21.8238L23.9858 21.5268C23.8335 21.649 23.6448 21.7168 23.4496 21.7197C23.3171 21.731 23.1853 21.6902 23.0823 21.6059C22.9793 21.5216 22.9132 21.4006 22.8981 21.2684H24.2674V21.1141C24.2674 20.5355 23.9086 20.1498 23.3918 20.1498L23.3856 20.1459ZM23.3856 20.5047C23.4457 20.5033 23.5054 20.5139 23.5613 20.5356C23.6173 20.5574 23.6684 20.59 23.7118 20.6316C23.7551 20.6731 23.7899 20.7228 23.814 20.7778C23.8381 20.8328 23.8511 20.892 23.8523 20.9521H22.888C22.895 20.8283 22.9502 20.7121 23.0418 20.6285C23.1333 20.5449 23.254 20.5004 23.3779 20.5047H23.3856ZM33.4358 21.1141V19.4517H33.0501V20.4159C32.9819 20.3283 32.8939 20.2581 32.7933 20.2112C32.6927 20.1642 32.5824 20.1419 32.4715 20.1459C32.2158 20.1459 31.9705 20.2475 31.7896 20.4284C31.6088 20.6092 31.5072 20.8545 31.5072 21.1102C31.5072 21.366 31.6088 21.6112 31.7896 21.7921C31.9705 21.9729 32.2158 22.0745 32.4715 22.0745C32.6968 22.0822 32.9112 21.9819 33.0501 21.8045V22.0282H33.4358V21.1141ZM34.1046 21.7683C34.1541 21.7677 34.2019 21.7862 34.2381 21.8199C34.26 21.8408 34.2763 21.8669 34.2853 21.8958C34.2944 21.9247 34.296 21.9554 34.29 21.9851C34.284 22.0147 34.2706 22.0424 34.251 22.0655C34.2314 22.0885 34.2062 22.1062 34.1779 22.1169C34.1548 22.1271 34.1299 22.1324 34.1046 22.1324C34.0681 22.1321 34.0323 22.1214 34.0016 22.1016C33.9709 22.0818 33.9464 22.0537 33.931 22.0205C33.9169 21.9869 33.9132 21.9497 33.9205 21.9139C33.9278 21.8781 33.9457 21.8454 33.9719 21.8199C33.9905 21.8026 34.0124 21.7891 34.0362 21.7802C34.06 21.7714 34.0854 21.7673 34.1108 21.7683H34.1046ZM34.1046 22.0938C34.1234 22.094 34.1419 22.0903 34.1592 22.083C34.1764 22.0757 34.192 22.0649 34.2049 22.0514C34.229 22.0251 34.2424 21.9906 34.2424 21.9549C34.2424 21.9192 34.229 21.8848 34.2049 21.8585C34.1784 21.8317 34.1423 21.8164 34.1046 21.8161C34.0664 21.8163 34.0298 21.8315 34.0028 21.8585C33.9787 21.8848 33.9653 21.9192 33.9653 21.9549C33.9653 21.9906 33.9787 22.0251 34.0028 22.0514C34.0159 22.0645 34.0321 22.0745 34.0491 22.0822C34.0686 22.0903 34.0896 22.0942 34.1108 22.0938H34.1046ZM34.1162 21.8647C34.1342 21.8638 34.1519 21.8693 34.1663 21.8801C34.1723 21.8849 34.177 21.891 34.1801 21.898C34.1832 21.905 34.1845 21.9126 34.1841 21.9202C34.1843 21.9267 34.1832 21.9331 34.1808 21.9391C34.1784 21.945 34.1748 21.9504 34.1702 21.9549C34.1592 21.9652 34.1451 21.9714 34.1301 21.9727L34.1856 22.0359H34.1416L34.0892 21.9727H34.0722V22.0359H34.0352V21.8662L34.1162 21.8647ZM34.0738 21.8971V21.9434H34.1162C34.1239 21.9457 34.1316 21.9457 34.1393 21.9434C34.1408 21.9406 34.1415 21.9376 34.1415 21.9345C34.1415 21.9314 34.1408 21.9284 34.1393 21.9256C34.1406 21.923 34.1413 21.9201 34.1413 21.9171C34.1413 21.9142 34.1406 21.9113 34.1393 21.9087C34.1318 21.9064 34.1237 21.9064 34.1162 21.9087L34.0738 21.8971ZM31.9523 21.1141C31.9548 21.0397 31.9721 20.9665 32.0032 20.8988C32.0344 20.8312 32.0788 20.7705 32.1338 20.7203C32.1888 20.6701 32.2533 20.6314 32.3236 20.6065C32.3938 20.5817 32.4682 20.5711 32.5426 20.5755C32.6169 20.5799 32.6896 20.5991 32.7564 20.632C32.8232 20.665 32.8828 20.7109 32.9315 20.7672C32.9802 20.8236 33.0172 20.8891 33.0402 20.9599C33.0632 21.0307 33.0718 21.1055 33.0655 21.1797C33.0531 21.3245 32.9847 21.4588 32.8748 21.554C32.7649 21.6491 32.6221 21.6976 32.477 21.689C32.3318 21.6805 32.1958 21.6156 32.0978 21.5082C31.9998 21.4008 31.9476 21.2594 31.9523 21.1141ZM18.4084 21.1141V20.1922H18.0072V20.4159C17.9391 20.3283 17.8511 20.2581 17.7505 20.2112C17.6499 20.1642 17.5396 20.1419 17.4286 20.1459C17.1729 20.1459 16.9276 20.2475 16.7468 20.4284C16.566 20.6092 16.4644 20.8545 16.4644 21.1102C16.4644 21.366 16.566 21.6112 16.7468 21.7921C16.9276 21.9729 17.1729 22.0745 17.4286 22.0745C17.6539 22.0822 17.8684 21.9819 18.0072 21.8045V22.0282H18.4084V21.1141ZM16.9156 21.1141C16.922 21.0054 16.9599 20.901 17.0249 20.8137C17.0898 20.7264 17.1789 20.6599 17.2811 20.6226C17.3833 20.5853 17.4942 20.5787 17.6001 20.6036C17.7061 20.6285 17.8024 20.6838 17.8773 20.7628C17.9521 20.8418 18.0022 20.941 18.0214 21.0481C18.0406 21.1552 18.0281 21.2656 17.9853 21.3657C17.9425 21.4658 17.8714 21.5511 17.7807 21.6113C17.6901 21.6714 17.5838 21.7037 17.4749 21.7042C17.3983 21.7057 17.3221 21.6912 17.2514 21.6617C17.1806 21.6322 17.1167 21.5883 17.0638 21.5328C17.0108 21.4774 16.97 21.4115 16.9438 21.3394C16.9177 21.2673 16.9068 21.1906 16.9118 21.1141H16.9156Z" fill="#231F20"/>
<path d="M20.2537 6.14209H26.3287V17.0593H20.2537V6.14209Z" fill="#FF5F00"/>
<path d="M20.6401 11.6023C20.639 10.5508 20.8771 9.51285 21.3365 8.567C21.7959 7.62114 22.4644 6.7922 23.2915 6.14292C22.2673 5.33792 21.0372 4.83731 19.7419 4.69832C18.4467 4.55934 17.1384 4.78757 15.9667 5.35695C14.795 5.92632 13.8071 6.81387 13.116 7.91813C12.4249 9.0224 12.0583 10.2988 12.0583 11.6016C12.0583 12.9043 12.4249 14.1807 13.116 15.285C13.8071 16.3892 14.795 17.2768 15.9667 17.8462C17.1384 18.4155 18.4467 18.6438 19.7419 18.5048C21.0372 18.3658 22.2673 17.8652 23.2915 17.0602C22.4645 16.4111 21.7959 15.5825 21.3364 14.6369C20.8769 13.6913 20.6385 12.6536 20.6393 11.6023H20.6401Z" fill="#EB001B"/>
<path d="M34.5258 11.6023C34.5258 12.9051 34.1593 14.1817 33.468 15.286C32.7768 16.3904 31.7887 17.278 30.6169 17.8473C29.445 18.4166 28.1365 18.6447 26.8412 18.5055C25.5458 18.3663 24.3157 17.8654 23.2915 17.0601C24.1181 16.4105 24.7863 15.5816 25.2458 14.636C25.7053 13.6904 25.9441 12.6528 25.9441 11.6015C25.9441 10.5502 25.7053 9.51258 25.2458 8.56699C24.7863 7.62141 24.1181 6.79252 23.2915 6.14286C24.3156 5.33782 25.5456 4.83714 26.8408 4.69803C28.136 4.55892 29.4442 4.787 30.6159 5.3562C31.7876 5.9254 32.7756 6.81277 33.4668 7.91687C34.1581 9.02098 34.5248 10.2973 34.525 11.5999V11.6023H34.5258ZM33.8616 15.903V15.6793H33.9526V15.633H33.7228V15.6793H33.8215V15.903H33.8616ZM34.3075 15.903V15.633H34.2381L34.1571 15.8258L34.0761 15.633H34.0144V15.903H34.0645V15.7009L34.1393 15.876H34.1918L34.2666 15.7001V15.9045L34.3075 15.903Z" fill="#F79E1B"/>
<defs>
<filter id="filter0_d" x="0" y="0" width="45.6571" height="31" filterUnits="userSpaceOnUse" color-interpolation-filters="sRGB">
<feFlood flood-opacity="0" result="BackgroundImageFix"/>
<feColorMatrix in="SourceAlpha" type="matrix" values="0 0 0 0 0 0 0 0 0 0 0 0 0 0 0 0 0 0 127 0"/>
<feOffset dy="2"/>
<feGaussianBlur stdDeviation="1"/>
<feColorMatrix type="matrix" values="0 0 0 0 0 0 0 0 0 0 0 0 0 0 0 0 0 0 0.117386 0"/>
<feBlend mode="normal" in2="BackgroundImageFix" result="effect1_dropShadow"/>
<feBlend mode="normal" in="SourceGraphic" in2="effect1_dropShadow" result="shape"/>
</filter>
</defs>
</svg>
