<svg width="47" height="31" viewBox="0 0 47 31" fill="none" xmlns="http://www.w3.org/2000/svg">
<g filter="url(#filter0_d)">
<path d="M42.9258 27H4.0458C3.28054 27 2.65723 26.3559 2.65723 25.5605V1.43949C2.65723 0.644914 3.27977 0 4.0458 0H42.9258C43.6918 0 44.3144 0.644143 44.3144 1.43949V25.5605C44.3144 26.3551 43.6918 27 42.9258 27Z" fill="white"/>
</g>
<path d="M20.6315 17.341H18.5564L19.8539 9.39992H21.9306L20.6315 17.341ZM16.8091 9.39992L14.8288 14.8616L14.5936 13.6844L13.8954 10.1135C13.8954 10.1135 13.8106 9.39992 12.9111 9.39992H9.63867L9.6001 9.53337C9.6001 9.53337 10.6014 9.74089 11.7724 10.4413L13.576 17.3395H15.7391L19.0432 9.39992H16.8091ZM30.8553 14.5322L31.9468 11.5591L32.5617 14.5322H30.8553ZM33.1402 17.3402H35.0472L33.3856 9.39992H31.7162C30.9448 9.39992 30.7573 9.99083 30.7573 9.99083L27.6608 17.341H29.8246L30.2574 16.1607H32.8972L33.1418 17.341L33.141 17.3395L33.1402 17.3402ZM27.822 11.3084L28.1182 9.60357C28.1182 9.60357 27.2049 9.2572 26.2514 9.2572C25.2208 9.2572 22.7738 9.7054 22.7738 11.8862C22.7738 13.9382 25.6466 13.9629 25.6466 15.0398C25.6466 16.1175 23.07 15.9254 22.2199 15.245L21.9098 17.0286C21.9098 17.0286 22.8386 17.4768 24.2549 17.4768C25.672 17.4768 27.8104 16.7455 27.8104 14.7583C27.8104 12.6939 24.9122 12.5011 24.9122 11.6039C24.9122 10.7059 26.9349 10.8217 27.8228 11.3084H27.822Z" fill="#0066B2"/>
<path d="M14.5951 13.6852L13.8954 10.1135C13.8954 10.1135 13.8106 9.3999 12.9111 9.3999H9.63867L9.6001 9.53336C9.6001 9.53336 11.1738 9.8589 12.682 11.0747C14.1245 12.2372 14.5951 13.6844 14.5951 13.6844" fill="#F9A533"/>
<defs>
<filter id="filter0_d" x="0.657227" y="0" width="45.6571" height="31" filterUnits="userSpaceOnUse" color-interpolation-filters="sRGB">
<feFlood flood-opacity="0" result="BackgroundImageFix"/>
<feColorMatrix in="SourceAlpha" type="matrix" values="0 0 0 0 0 0 0 0 0 0 0 0 0 0 0 0 0 0 127 0"/>
<feOffset dy="2"/>
<feGaussianBlur stdDeviation="1"/>
<feColorMatrix type="matrix" values="0 0 0 0 0 0 0 0 0 0 0 0 0 0 0 0 0 0 0.117386 0"/>
<feBlend mode="normal" in2="BackgroundImageFix" result="effect1_dropShadow"/>
<feBlend mode="normal" in="SourceGraphic" in2="effect1_dropShadow" result="shape"/>
</filter>
</defs>
</svg>
